<?xml version="1.0" encoding="utf-8"?>
<!-- Generator: Adobe Illustrator 21.0.2, SVG Export Plug-In . SVG Version: 6.00 Build 0)  -->
<svg version="1.1" xmlns="http://www.w3.org/2000/svg" xmlns:xlink="http://www.w3.org/1999/xlink" x="0px" y="0px"
	 viewBox="0 0 41 41" style="enable-background:new 0 0 41 41;" xml:space="preserve">
<style type="text/css">
	.st0{display:none;}
	.st1{display:inline;fill:#E0E0E0;}
	.st2{display:inline;fill:#FFFFFF;fill-opacity:0.2;}
	.st3{display:inline;fill:#212121;fill-opacity:0.1;}
	.st4{display:inline;}
	.st5{fill:#F5F5F5;}
	.st6{display:inline;fill:url(#XMLID_50_);}
	.st7{fill:none;}
	.st8{display:inline;opacity:0.15;}
	.st9{clip-path:url(#SVGID_2_);}
	.st10{fill:none;stroke:#000000;stroke-width:0.25;stroke-miterlimit:10;}
	.st11{opacity:0.4;}
	.st12{clip-path:url(#SVGID_4_);}
	.st13{fill:#DB4437;fill-opacity:0.4;}
	.st14{display:inline;fill:url(#XMLID_52_);}
	.st15{clip-path:url(#SVGID_5_);}
	.st16{clip-path:url(#SVGID_6_);}
	.st17{display:inline;fill:url(#XMLID_53_);}
	.st18{clip-path:url(#SVGID_7_);}
	.st19{clip-path:url(#SVGID_8_);}
	.st20{display:inline;fill:url(#XMLID_59_);}
	.st21{clip-path:url(#SVGID_9_);}
	.st22{clip-path:url(#SVGID_10_);}
	.st23{fill:url(#XMLID_63_);stroke:#424242;stroke-miterlimit:10;}
	.st24{opacity:0.8;}
	.st25{fill:#8C8C8C;}
	.st26{opacity:0.8;fill:#BDBDBD;}
	.st27{fill:#757575;}
	.st28{opacity:0.8;fill:#616161;}
	.st29{fill:#D83232;}
	.st30{fill:#529DF7;stroke:#424242;stroke-miterlimit:10;}
	.st31{fill:url(#XMLID_65_);stroke:#424242;stroke-miterlimit:10;}
	.st32{fill:#FC3D4B;stroke:#424242;stroke-miterlimit:10;}
	.st33{fill:none;stroke:#424242;stroke-miterlimit:10;}
	.st34{fill:none;stroke:#424242;stroke-width:2;stroke-miterlimit:10;}
	.st35{fill:#757575;stroke:#424242;stroke-miterlimit:10;}
	.st36{fill:none;stroke:#424242;stroke-linecap:round;stroke-miterlimit:10;}
	.st37{fill:url(#XMLID_67_);stroke:#424242;stroke-miterlimit:10;}
	.st38{fill:#E0E0E0;stroke:#424242;stroke-miterlimit:10;}
	.st39{fill:url(#XMLID_72_);stroke:#424242;stroke-miterlimit:10;}
	.st40{opacity:0.2;}
	.st41{fill:url(#XMLID_74_);}
	.st42{fill:#424242;}
	.st43{fill:#FFFFFF;stroke:#424242;stroke-miterlimit:10;}
	.st44{fill:#FFF59D;stroke:#424242;stroke-miterlimit:10;}
	.st45{fill:#7CB342;stroke:#424242;stroke-miterlimit:10;}
	.st46{fill:url(#XMLID_79_);stroke:#424242;stroke-miterlimit:10;}
	.st47{fill:#FFF59D;}
	.st48{fill:none;stroke:#424242;stroke-width:0.5;stroke-miterlimit:10;}
	.st49{fill:#5B842C;}
	.st50{fill:#FFF176;stroke:#424242;stroke-miterlimit:10;}
	.st51{fill:url(#XMLID_88_);stroke:#424242;stroke-miterlimit:10;}
	.st52{fill:url(#XMLID_90_);stroke:#424242;stroke-miterlimit:10;}
	.st53{fill:url(#XMLID_93_);stroke:#424242;stroke-miterlimit:10;}
	.st54{fill:url(#XMLID_97_);stroke:#424242;stroke-miterlimit:10;}
	.st55{fill:url(#SVGID_11_);}
	.st56{fill:#FFD488;}
	.st57{fill:#529DF7;}
	.st58{fill:url(#SVGID_12_);}
	.st59{fill:url(#SVGID_13_);}
	.st60{fill:#FC3D4B;}
	.st61{fill:#FFFFFF;}
	.st62{fill:#FFF59D;stroke:#424242;stroke-width:0.5;stroke-miterlimit:10;}
	.st63{fill:#FFFFFF;stroke:#424242;stroke-width:0.5;stroke-miterlimit:10;}
	.st64{fill:#7CB342;}
</style>
<g id="Layer_1" class="st0">
</g>
<g id="Layer_2" class="st0">
</g>
<g id="schedule">
</g>
<g id="hospitality">
</g>
<g id="events">
</g>
<g id="contact_us">
</g>
<g id="gallery">
</g>
<g id="sponsors">
	<g id="XMLID_150_">
		<g id="XMLID_153_">
			<circle id="XMLID_809_" class="st30" cx="20.3" cy="20.3" r="19.5"/>
			<linearGradient id="XMLID_50_" gradientUnits="userSpaceOnUse" x1="20" y1="30.5" x2="20" y2="10.5">
				<stop  offset="0.342" style="stop-color:#FFFFFF"/>
				<stop  offset="0.994" style="stop-color:#E6E6E6"/>
			</linearGradient>
			<polygon id="XMLID_808_" style="fill:url(#XMLID_50_);stroke:#424242;stroke-miterlimit:10;" points="6.5,10.5 6.5,14.2 
				6.5,30.5 33.5,30.5 33.5,14.2 33.5,10.5 			"/>
			<g id="XMLID_807_" class="st40">
				<linearGradient id="SVGID_2_" gradientUnits="userSpaceOnUse" x1="20.2502" y1="30.1934" x2="20.2502" y2="18.4271">
					<stop  offset="0.342" style="stop-color:#FFFFFF"/>
					<stop  offset="0.994" style="stop-color:#E6E6E6"/>
				</linearGradient>
				<polygon style="fill:url(#SVGID_2_);" points="6.8,30.2 33.7,30.2 20.1,18.4 				"/>
				<path class="st42" d="M6.9,30.2l7-0.2l6.7-0.2c2.2,0,4.3,0.1,6.5,0.1c2.2,0.1,4.4,0.1,6.6,0.1l-0.1,0.3c-2.3-1.9-4.7-3.8-7-5.7
					l-3.4-2.9l-3.4-2.9l0.7,0c-2.1,1.9-4.3,3.7-6.6,5.6C11.6,26.3,9.3,28.2,6.9,30.2z M6.8,30.2c2-1.9,4.1-3.9,6.3-6
					c2.2-2.1,4.4-4.2,6.7-6.2l0.4-0.3l0.3,0.3l3.4,3l3.3,3c2.2,2,4.4,4.1,6.6,6.1l0.4,0.3l-0.5,0c-2.3,0-4.5,0-6.8,0.1
					c-2.3,0.1-4.6,0.1-6.9,0.1l-6.7-0.2L6.8,30.2z"/>
			</g>
			<polyline id="XMLID_804_" class="st32" points="6.5,9.5 19.8,22.3 33.5,9.5 			"/>
		</g>
		<line id="XMLID_151_" class="st33" x1="6" y1="9.5" x2="34" y2="9.5"/>
	</g>
</g>
</svg>
