<?xml version="1.0" encoding="utf-8"?>
<!-- Generator: Adobe Illustrator 21.0.2, SVG Export Plug-In . SVG Version: 6.00 Build 0)  -->
<svg version="1.1" xmlns="http://www.w3.org/2000/svg" xmlns:xlink="http://www.w3.org/1999/xlink" x="0px" y="0px"
	 viewBox="0 0 42 42" style="enable-background:new 0 0 42 42;" xml:space="preserve">
<style type="text/css">
	.st0{display:none;}
	.st1{display:inline;fill:#E0E0E0;}
	.st2{display:inline;fill:#FFFFFF;fill-opacity:0.2;}
	.st3{display:inline;fill:#212121;fill-opacity:0.1;}
	.st4{display:inline;}
	.st5{fill:#F5F5F5;}
	.st6{display:inline;fill:url(#XMLID_50_);}
	.st7{fill:none;}
	.st8{display:inline;opacity:0.15;}
	.st9{clip-path:url(#SVGID_2_);}
	.st10{fill:none;stroke:#000000;stroke-width:0.25;stroke-miterlimit:10;}
	.st11{opacity:0.4;}
	.st12{clip-path:url(#SVGID_4_);}
	.st13{fill:#DB4437;fill-opacity:0.4;}
	.st14{display:inline;fill:url(#XMLID_52_);}
	.st15{clip-path:url(#SVGID_5_);}
	.st16{clip-path:url(#SVGID_6_);}
	.st17{display:inline;fill:url(#XMLID_53_);}
	.st18{clip-path:url(#SVGID_7_);}
	.st19{clip-path:url(#SVGID_8_);}
	.st20{display:inline;fill:url(#XMLID_59_);}
	.st21{clip-path:url(#SVGID_9_);}
	.st22{clip-path:url(#SVGID_10_);}
	.st23{fill:url(#XMLID_63_);stroke:#424242;stroke-miterlimit:10;}
	.st24{opacity:0.8;}
	.st25{fill:#8C8C8C;}
	.st26{opacity:0.8;fill:#BDBDBD;}
	.st27{fill:#757575;}
	.st28{opacity:0.8;fill:#616161;}
	.st29{fill:#D83232;}
	.st30{fill:#529DF7;stroke:#424242;stroke-miterlimit:10;}
	.st31{fill:url(#XMLID_65_);stroke:#424242;stroke-miterlimit:10;}
	.st32{fill:#FC3D4B;stroke:#424242;stroke-miterlimit:10;}
	.st33{fill:none;stroke:#424242;stroke-miterlimit:10;}
	.st34{fill:none;stroke:#424242;stroke-width:2;stroke-miterlimit:10;}
	.st35{fill:#757575;stroke:#424242;stroke-miterlimit:10;}
	.st36{fill:none;stroke:#424242;stroke-linecap:round;stroke-miterlimit:10;}
	.st37{fill:url(#XMLID_67_);stroke:#424242;stroke-miterlimit:10;}
	.st38{fill:#E0E0E0;stroke:#424242;stroke-miterlimit:10;}
	.st39{fill:url(#XMLID_72_);stroke:#424242;stroke-miterlimit:10;}
	.st40{opacity:0.2;}
	.st41{fill:url(#XMLID_74_);}
	.st42{fill:#424242;}
	.st43{fill:#FFFFFF;stroke:#424242;stroke-miterlimit:10;}
	.st44{fill:#FFF59D;stroke:#424242;stroke-miterlimit:10;}
	.st45{fill:#7CB342;stroke:#424242;stroke-miterlimit:10;}
	.st46{fill:url(#XMLID_79_);stroke:#424242;stroke-miterlimit:10;}
	.st47{fill:#FFF59D;}
	.st48{fill:none;stroke:#424242;stroke-width:0.5;stroke-miterlimit:10;}
	.st49{fill:#5B842C;}
	.st50{fill:#FFF176;stroke:#424242;stroke-miterlimit:10;}
	.st51{fill:url(#XMLID_88_);stroke:#424242;stroke-miterlimit:10;}
	.st52{fill:url(#XMLID_90_);stroke:#424242;stroke-miterlimit:10;}
	.st53{fill:url(#XMLID_93_);stroke:#424242;stroke-miterlimit:10;}
	.st54{fill:url(#XMLID_97_);stroke:#424242;stroke-miterlimit:10;}
	.st55{fill:url(#SVGID_11_);}
	.st56{fill:#FFD488;}
	.st57{fill:#529DF7;}
	.st58{fill:url(#SVGID_12_);}
	.st59{fill:url(#SVGID_13_);}
	.st60{fill:#FC3D4B;}
	.st61{fill:#FFFFFF;}
	.st62{fill:#FFF59D;stroke:#424242;stroke-width:0.5;stroke-miterlimit:10;}
	.st63{fill:#FFFFFF;stroke:#424242;stroke-width:0.5;stroke-miterlimit:10;}
	.st64{fill:#7CB342;}
</style>
<g id="Layer_1" class="st0">
</g>
<g id="Layer_2" class="st0">
</g>
<g id="schedule">
</g>
<g id="hospitality">
</g>
<g id="events">
</g>
<g id="contact_us">
</g>
<g id="gallery">
</g>
<g id="sponsors">
	<g id="XMLID_94_">
		<circle id="XMLID_803_" class="st30" cx="20.9" cy="21.1" r="19.9"/>
		
			<rect id="XMLID_802_" x="6.7" y="8.8" transform="matrix(0.9567 -0.2911 0.2911 0.9567 -3.8457 6.0131)" class="st61" width="23.1" height="14.2"/>
		
			<rect id="XMLID_801_" x="8.2" y="10.2" transform="matrix(0.9567 -0.2911 0.2911 0.9567 -3.8708 6.025)" class="st60" width="20.2" height="11.7"/>
		<g id="XMLID_737_">
			
				<ellipse id="XMLID_793_" transform="matrix(0.966 -0.2584 0.2584 0.966 -3.5893 5.4312)" class="st62" cx="18.9" cy="16.4" rx="4.4" ry="4.4"/>
			<g id="XMLID_792_">
				<path id="XMLID_115_" class="st42" d="M16,16.3c0,0-0.1-0.2,0-0.5c0-0.1,0.1-0.3,0.2-0.5c0.1-0.2,0.3-0.3,0.6-0.4
					c0.3-0.1,0.5,0,0.7,0.1c0.2,0.1,0.3,0.2,0.4,0.3c0.1,0.1,0.2,0.2,0.2,0.3c0.1,0.1,0.1,0.1,0.1,0.1s-0.1,0-0.1,0
					c-0.1,0-0.2-0.1-0.3-0.1c-0.1-0.1-0.3-0.1-0.4-0.1c-0.1,0-0.3,0-0.4,0c-0.2,0.1-0.5,0.3-0.6,0.6C16.1,16.1,16,16.3,16,16.3z"/>
			</g>
			<g id="XMLID_768_">
				<path id="XMLID_113_" class="st42" d="M21.1,15.1c0,0-0.2-0.1-0.4-0.3c-0.2-0.2-0.5-0.3-0.8-0.3c-0.1,0-0.3,0.1-0.4,0.1
					c-0.1,0.1-0.3,0.2-0.4,0.3c-0.1,0.1-0.2,0.2-0.3,0.2c-0.1,0.1-0.1,0.1-0.1,0.1s0-0.1,0-0.1c0-0.1,0-0.2,0.1-0.4
					c0.1-0.1,0.2-0.3,0.3-0.5c0.2-0.1,0.4-0.3,0.6-0.3c0.3,0,0.5,0.1,0.7,0.2c0.2,0.1,0.3,0.3,0.4,0.4
					C21.1,14.9,21.1,15.1,21.1,15.1z"/>
			</g>
			<path id="XMLID_763_" class="st63" d="M16.7,17.5l4.3-1.2c0,0,0.3,2.1-1.6,2.9C17.7,20,16.7,17.5,16.7,17.5z"/>
		</g>
		<rect id="XMLID_795_" x="10.8" y="18.5" class="st61" width="23.2" height="15.2"/>
		<rect id="XMLID_794_" x="12.1" y="20" class="st64" width="20.6" height="12.1"/>
		<g id="XMLID_796_">
			
				<ellipse id="XMLID_68_" transform="matrix(2.442795e-02 -0.9997 0.9997 2.442795e-02 -4.0532 48.5903)" class="st62" cx="22.9" cy="26.4" rx="4.4" ry="4.4"/>
			<g id="XMLID_806_">
				<path id="XMLID_105_" class="st42" d="M20.1,25.5c0,0,0-0.2,0.2-0.5c0.1-0.1,0.2-0.3,0.3-0.4c0.2-0.1,0.4-0.2,0.7-0.2
					c0.3,0,0.5,0.1,0.7,0.2c0.2,0.1,0.3,0.3,0.3,0.4c0.1,0.1,0.1,0.3,0.1,0.3c0,0.1,0,0.1,0,0.1s0,0-0.1-0.1
					c-0.1-0.1-0.2-0.1-0.3-0.2c-0.1-0.1-0.2-0.2-0.4-0.2c-0.1-0.1-0.3-0.1-0.4-0.1c-0.3,0-0.6,0.2-0.8,0.4
					C20.3,25.3,20.1,25.5,20.1,25.5z"/>
			</g>
			<g id="XMLID_800_">
				<path id="XMLID_119_" class="st42" d="M25.4,25.8c0,0-0.1-0.2-0.3-0.4c-0.2-0.2-0.4-0.5-0.7-0.5c-0.1,0-0.3,0-0.4,0
					c-0.1,0.1-0.3,0.1-0.4,0.2c-0.1,0.1-0.2,0.1-0.3,0.2c-0.1,0-0.1,0.1-0.1,0.1s0,0,0.1-0.1c0.1-0.1,0.1-0.2,0.2-0.3
					c0.1-0.1,0.2-0.2,0.4-0.4c0.2-0.1,0.4-0.2,0.7-0.1c0.2,0.1,0.5,0.2,0.6,0.4c0.1,0.2,0.2,0.3,0.2,0.5
					C25.4,25.6,25.4,25.8,25.4,25.8z"/>
			</g>
			<path id="XMLID_799_" class="st63" d="M20.5,26.9L25,27c0,0-0.3,2.1-2.3,2.3C20.7,29.5,20.5,26.9,20.5,26.9z"/>
		</g>
	</g>
</g>
</svg>
