<?xml version="1.0" encoding="utf-8"?>
<!-- Generator: Adobe Illustrator 21.0.2, SVG Export Plug-In . SVG Version: 6.00 Build 0)  -->
<svg version="1.1" xmlns="http://www.w3.org/2000/svg" xmlns:xlink="http://www.w3.org/1999/xlink" x="0px" y="0px"
	 viewBox="0 0 43 42" style="enable-background:new 0 0 43 42;" xml:space="preserve">
<style type="text/css">
	.st0{fill:none;}
	.st1{clip-path:url(#SVGID_2_);}
	.st2{fill:none;stroke:#000000;stroke-width:0.25;stroke-miterlimit:10;}
	.st3{opacity:0.4;}
	.st4{clip-path:url(#SVGID_4_);}
	.st5{fill:#DB4437;fill-opacity:0.4;}
	.st6{display:none;}
	.st7{display:inline;fill:#E0E0E0;}
	.st8{display:inline;fill:#FFFFFF;fill-opacity:0.2;}
	.st9{display:inline;fill:#212121;fill-opacity:0.1;}
	.st10{display:inline;}
	.st11{fill:#F5F5F5;}
	.st12{display:inline;fill:url(#XMLID_50_);}
	.st13{display:inline;fill:url(#XMLID_52_);}
	.st14{display:inline;fill:url(#XMLID_53_);}
	.st15{display:inline;fill:url(#XMLID_59_);}
	.st16{fill:url(#XMLID_63_);stroke:#424242;stroke-miterlimit:10;}
	.st17{opacity:0.8;}
	.st18{fill:#8C8C8C;}
	.st19{opacity:0.8;fill:#BDBDBD;}
	.st20{fill:#757575;}
	.st21{opacity:0.8;fill:#616161;}
	.st22{fill:#D83232;}
	.st23{fill:#529DF7;stroke:#424242;stroke-miterlimit:10;}
	.st24{fill:url(#XMLID_65_);stroke:#424242;stroke-miterlimit:10;}
	.st25{fill:#FC3D4B;stroke:#424242;stroke-miterlimit:10;}
	.st26{fill:none;stroke:#424242;stroke-miterlimit:10;}
	.st27{fill:none;stroke:#424242;stroke-width:2;stroke-miterlimit:10;}
	.st28{fill:#757575;stroke:#424242;stroke-miterlimit:10;}
	.st29{fill:none;stroke:#424242;stroke-linecap:round;stroke-miterlimit:10;}
	.st30{fill:url(#XMLID_67_);stroke:#424242;stroke-miterlimit:10;}
	.st31{fill:#E0E0E0;stroke:#424242;stroke-miterlimit:10;}
	.st32{fill:url(#XMLID_72_);stroke:#424242;stroke-miterlimit:10;}
	.st33{opacity:0.2;}
	.st34{fill:url(#XMLID_74_);}
	.st35{fill:#424242;}
	.st36{fill:#FFFFFF;stroke:#424242;stroke-miterlimit:10;}
	.st37{fill:#FFF59D;stroke:#424242;stroke-miterlimit:10;}
	.st38{fill:#7CB342;stroke:#424242;stroke-miterlimit:10;}
	.st39{fill:url(#XMLID_79_);stroke:#424242;stroke-miterlimit:10;}
	.st40{fill:#FFF59D;}
	.st41{fill:none;stroke:#424242;stroke-width:0.5;stroke-miterlimit:10;}
	.st42{fill:#5B842C;}
	.st43{fill:#FFF176;stroke:#424242;stroke-miterlimit:10;}
	.st44{fill:url(#XMLID_88_);stroke:#424242;stroke-miterlimit:10;}
	.st45{fill:url(#XMLID_90_);stroke:#424242;stroke-miterlimit:10;}
	.st46{fill:url(#XMLID_93_);stroke:#424242;stroke-miterlimit:10;}
	.st47{fill:url(#XMLID_97_);stroke:#424242;stroke-miterlimit:10;}
	.st48{fill:url(#SVGID_5_);}
	.st49{fill:#FFD488;}
	.st50{fill:#529DF7;}
	.st51{fill:url(#SVGID_6_);}
	.st52{fill:url(#SVGID_7_);}
	.st53{fill:#FC3D4B;}
	.st54{fill:#FFFFFF;}
	.st55{fill:#FFF59D;stroke:#424242;stroke-width:0.5;stroke-miterlimit:10;}
	.st56{fill:#FFFFFF;stroke:#424242;stroke-width:0.5;stroke-miterlimit:10;}
	.st57{fill:#7CB342;}
</style>
<symbol  id="material_x5F_product_x5F_icon_x5F_border" viewBox="0 -192 192 192">
	<rect y="-192" class="st0" width="192" height="192"/>
</symbol>
<symbol  id="material_x5F_product_x5F_icon_x5F_grid" viewBox="0 -192 192 192">
	<g>
		<defs>
			<rect id="SVGID_1_" x="0" y="-192" width="192" height="192"/>
		</defs>
		<clipPath id="SVGID_2_">
			<use xlink:href="#SVGID_1_"  style="overflow:visible;"/>
		</clipPath>
		<g class="st1">
			<g>
				<line class="st2" x1="4" y1="-192" x2="4" y2="0"/>
				<line class="st2" x1="8" y1="-192" x2="8" y2="0"/>
				<line class="st2" x1="12" y1="-192" x2="12" y2="0"/>
				<line class="st2" x1="16" y1="-192" x2="16" y2="0"/>
				<line class="st2" x1="20" y1="-192" x2="20" y2="0"/>
				<line class="st2" x1="24" y1="-192" x2="24" y2="0"/>
				<line class="st2" x1="28" y1="-192" x2="28" y2="0"/>
				<line class="st2" x1="32" y1="-192" x2="32" y2="0"/>
				<line class="st2" x1="36" y1="-192" x2="36" y2="0"/>
				<line class="st2" x1="40" y1="-192" x2="40" y2="0"/>
				<line class="st2" x1="44" y1="-192" x2="44" y2="0"/>
				<line class="st2" x1="48" y1="-192" x2="48" y2="0"/>
				<line class="st2" x1="52" y1="-192" x2="52" y2="0"/>
				<line class="st2" x1="56" y1="-192" x2="56" y2="0"/>
				<line class="st2" x1="60" y1="-192" x2="60" y2="0"/>
				<line class="st2" x1="64" y1="-192" x2="64" y2="0"/>
				<line class="st2" x1="68" y1="-192" x2="68" y2="0"/>
				<line class="st2" x1="72" y1="-192" x2="72" y2="0"/>
				<line class="st2" x1="76" y1="-192" x2="76" y2="0"/>
				<line class="st2" x1="80" y1="-192" x2="80" y2="0"/>
				<line class="st2" x1="84" y1="-192" x2="84" y2="0"/>
				<line class="st2" x1="88" y1="-192" x2="88" y2="0"/>
				<line class="st2" x1="92" y1="-192" x2="92" y2="0"/>
				<line class="st2" x1="96" y1="-192" x2="96" y2="0"/>
				<line class="st2" x1="100" y1="-192" x2="100" y2="0"/>
				<line class="st2" x1="104" y1="-192" x2="104" y2="0"/>
				<line class="st2" x1="108" y1="-192" x2="108" y2="0"/>
				<line class="st2" x1="112" y1="-192" x2="112" y2="0"/>
				<line class="st2" x1="116" y1="-192" x2="116" y2="0"/>
				<line class="st2" x1="120" y1="-192" x2="120" y2="0"/>
				<line class="st2" x1="124" y1="-192" x2="124" y2="0"/>
				<line class="st2" x1="128" y1="-192" x2="128" y2="0"/>
				<line class="st2" x1="132" y1="-192" x2="132" y2="0"/>
				<line class="st2" x1="136" y1="-192" x2="136" y2="0"/>
				<line class="st2" x1="140" y1="-192" x2="140" y2="0"/>
				<line class="st2" x1="144" y1="-192" x2="144" y2="0"/>
				<line class="st2" x1="148" y1="-192" x2="148" y2="0"/>
				<line class="st2" x1="152" y1="-192" x2="152" y2="0"/>
				<line class="st2" x1="156" y1="-192" x2="156" y2="0"/>
				<line class="st2" x1="160" y1="-192" x2="160" y2="0"/>
				<line class="st2" x1="164" y1="-192" x2="164" y2="0"/>
				<line class="st2" x1="168" y1="-192" x2="168" y2="0"/>
				<line class="st2" x1="172" y1="-192" x2="172" y2="0"/>
				<line class="st2" x1="176" y1="-192" x2="176" y2="0"/>
				<line class="st2" x1="180" y1="-192" x2="180" y2="0"/>
				<line class="st2" x1="184" y1="-192" x2="184" y2="0"/>
				<line class="st2" x1="188" y1="-192" x2="188" y2="0"/>
			</g>
			<g>
				<line class="st2" x1="0" y1="-4" x2="192" y2="-4"/>
				<line class="st2" x1="0" y1="-8" x2="192" y2="-8"/>
				<line class="st2" x1="0" y1="-12" x2="192" y2="-12"/>
				<line class="st2" x1="0" y1="-16" x2="192" y2="-16"/>
				<line class="st2" x1="0" y1="-20" x2="192" y2="-20"/>
				<line class="st2" x1="0" y1="-24" x2="192" y2="-24"/>
				<line class="st2" x1="0" y1="-28" x2="192" y2="-28"/>
				<line class="st2" x1="0" y1="-32" x2="192" y2="-32"/>
				<line class="st2" x1="0" y1="-36" x2="192" y2="-36"/>
				<line class="st2" x1="0" y1="-40" x2="192" y2="-40"/>
				<line class="st2" x1="0" y1="-44" x2="192" y2="-44"/>
				<line class="st2" x1="0" y1="-48" x2="192" y2="-48"/>
				<line class="st2" x1="0" y1="-52" x2="192" y2="-52"/>
				<line class="st2" x1="0" y1="-56" x2="192" y2="-56"/>
				<line class="st2" x1="0" y1="-60" x2="192" y2="-60"/>
				<line class="st2" x1="0" y1="-64" x2="192" y2="-64"/>
				<line class="st2" x1="0" y1="-68" x2="192" y2="-68"/>
				<line class="st2" x1="0" y1="-72" x2="192" y2="-72"/>
				<line class="st2" x1="0" y1="-76" x2="192" y2="-76"/>
				<line class="st2" x1="0" y1="-80" x2="192" y2="-80"/>
				<line class="st2" x1="0" y1="-84" x2="192" y2="-84"/>
				<line class="st2" x1="0" y1="-88" x2="192" y2="-88"/>
				<line class="st2" x1="0" y1="-92" x2="192" y2="-92"/>
				<line class="st2" x1="0" y1="-96" x2="192" y2="-96"/>
				<line class="st2" x1="0" y1="-100" x2="192" y2="-100"/>
				<line class="st2" x1="0" y1="-104" x2="192" y2="-104"/>
				<line class="st2" x1="0" y1="-108" x2="192" y2="-108"/>
				<line class="st2" x1="0" y1="-112" x2="192" y2="-112"/>
				<line class="st2" x1="0" y1="-116" x2="192" y2="-116"/>
				<line class="st2" x1="0" y1="-120" x2="192" y2="-120"/>
				<line class="st2" x1="0" y1="-124" x2="192" y2="-124"/>
				<line class="st2" x1="0" y1="-128" x2="192" y2="-128"/>
				<line class="st2" x1="0" y1="-132" x2="192" y2="-132"/>
				<line class="st2" x1="0" y1="-136" x2="192" y2="-136"/>
				<line class="st2" x1="0" y1="-140" x2="192" y2="-140"/>
				<line class="st2" x1="0" y1="-144" x2="192" y2="-144"/>
				<line class="st2" x1="0" y1="-148" x2="192" y2="-148"/>
				<line class="st2" x1="0" y1="-152" x2="192" y2="-152"/>
				<line class="st2" x1="0" y1="-156" x2="192" y2="-156"/>
				<line class="st2" x1="0" y1="-160" x2="192" y2="-160"/>
				<line class="st2" x1="0" y1="-164" x2="192" y2="-164"/>
				<line class="st2" x1="0" y1="-168" x2="192" y2="-168"/>
				<line class="st2" x1="0" y1="-172" x2="192" y2="-172"/>
				<line class="st2" x1="0" y1="-176" x2="192" y2="-176"/>
				<line class="st2" x1="0" y1="-180" x2="192" y2="-180"/>
				<line class="st2" x1="0" y1="-184" x2="192" y2="-184"/>
				<line class="st2" x1="0" y1="-188" x2="192" y2="-188"/>
			</g>
			<g>
				<path id="XMLID_14_" d="M191.8-0.3v-191.5H0.3V-0.3H191.8 M192,0H0v-192h192V0L192,0z"/>
			</g>
		</g>
	</g>
</symbol>
<symbol  id="material_x5F_product_x5F_icon_x5F_keylines" viewBox="0 -192 192 192">
	<g class="st3">
		<defs>
			<path id="SVGID_3_" class="st3" d="M0,0v-192h192V0H0z"/>
		</defs>
		<clipPath id="SVGID_4_">
			<use xlink:href="#SVGID_3_"  style="overflow:visible;"/>
		</clipPath>
		<g class="st4">
			<line class="st2" x1="0.2" y1="-0.2" x2="191.7" y2="-191.7"/>
			<g>
				<path id="XMLID_75_" d="M191.8-0.3v-191.5H0.3V-0.3H191.8 M192,0H0v-192h192V0L192,0z"/>
			</g>
			<line class="st2" x1="191.7" y1="-0.2" x2="0.2" y2="-191.7"/>
			<line class="st2" x1="124" y1="0" x2="124" y2="-192"/>
			<line class="st2" x1="68" y1="0" x2="68" y2="-192"/>
			<line class="st2" x1="192" y1="-124" x2="0" y2="-124"/>
			<line class="st2" x1="192" y1="-68" x2="0" y2="-68"/>
			<circle class="st2" cx="96" cy="-96" r="40"/>
			<line class="st2" x1="0" y1="-96" x2="192" y2="-96"/>
			<line class="st2" x1="96" y1="0" x2="96" y2="-192"/>
		</g>
		<g class="st4">
			<g id="XMLID_32_">
				<path id="XMLID_33_" d="M96-8.3c48.4,0,87.8-39.4,87.8-87.8s-39.4-87.8-87.8-87.8S8.3-144.4,8.3-96S47.6-8.3,96-8.3 M96-8
					C47.4-8,8-47.4,8-96s39.4-88,88-88s88,39.4,88,88S144.6-8,96-8L96-8z"/>
			</g>
		</g>
		<g class="st4">
			<g id="XMLID_27_">
				<path id="XMLID_28_" d="M160-20.3c6.5,0,11.8-5.3,11.8-11.8v-128c0-6.5-5.3-11.8-11.8-11.8H32c-6.5,0-11.8,5.3-11.8,11.8v128
					c0,6.5,5.3,11.8,11.8,11.8H160 M160-20H32c-6.6,0-12-5.4-12-12v-128c0-6.6,5.4-12,12-12h128c6.6,0,12,5.4,12,12v128
					C172-25.4,166.6-20,160-20L160-20z"/>
			</g>
		</g>
		<g class="st4">
			<g id="XMLID_22_">
				<path id="XMLID_23_" d="M148-8.3c6.5,0,11.8-5.3,11.8-11.8v-152c0-6.5-5.3-11.8-11.8-11.8H44c-6.5,0-11.8,5.3-11.8,11.8v152
					c0,6.5,5.3,11.8,11.8,11.8H148 M148-8H44c-6.6,0-12-5.4-12-12v-152c0-6.6,5.4-12,12-12h104c6.6,0,12,5.4,12,12v152
					C160-13.4,154.6-8,148-8L148-8z"/>
			</g>
		</g>
		<g class="st4">
			<g id="XMLID_17_">
				<path id="XMLID_18_" d="M172-32.3c6.5,0,11.8-5.3,11.8-11.8v-104c0-6.5-5.3-11.8-11.8-11.8H20c-6.5,0-11.8,5.3-11.8,11.8v104
					c0,6.5,5.3,11.8,11.8,11.8H172 M172-32H20c-6.6,0-12-5.4-12-12v-104c0-6.6,5.4-12,12-12h152c6.6,0,12,5.4,12,12v104
					C184-37.4,178.6-32,172-32L172-32z"/>
			</g>
		</g>
	</g>
</symbol>
<symbol  id="material_x5F_product_x5F_icon_x5F_trim" viewBox="0 -192 192 192">
	<path class="st5" d="M0,0v-192h192V0H0z M188-184H4V-4h184V-184z"/>
</symbol>
<g id="Layer_1" class="st6">
	
		<use xlink:href="#material_x5F_product_x5F_icon_x5F_border"  width="192" height="192" id="XMLID_237_" y="-192" transform="matrix(0.6667 0 0 -0.6667 -126.9997 -12.4996)" style="display:inline;overflow:visible;"/>
	
		<use xlink:href="#material_x5F_product_x5F_icon_x5F_grid"  width="192" height="192" id="XMLID_236_" y="-192" transform="matrix(0.6667 0 0 -0.6667 -126.9997 -12.4996)" style="display:inline;overflow:visible;opacity:0.15;"/>
	
		<use xlink:href="#material_x5F_product_x5F_icon_x5F_keylines"  width="192" height="192" id="XMLID_235_" x="0" y="-192" transform="matrix(0.6667 0 0 -0.6667 -126.9997 -12.4996)" style="display:inline;overflow:visible;"/>
	
		<use xlink:href="#material_x5F_product_x5F_icon_x5F_trim"  width="192" height="192" id="XMLID_234_" y="-192" transform="matrix(0.6667 0 0 -0.6667 -126.9997 -12.4996)" style="display:inline;overflow:visible;"/>
</g>
<g id="Layer_2" class="st6">
</g>
<g id="schedule">
</g>
<g id="hospitality">
</g>
<g id="events">
</g>
<g id="contact_us">
</g>
<g id="gallery">
</g>
<g id="sponsors">
	<g id="XMLID_193_">
		<circle id="XMLID_817_" class="st23" cx="21.3" cy="21" r="20.5"/>
		<linearGradient id="XMLID_50_" gradientUnits="userSpaceOnUse" x1="20.5" y1="34.5" x2="20.5" y2="15">
			<stop  offset="0.6749" style="stop-color:#FFFFFF"/>
			<stop  offset="1" style="stop-color:#B3B3B3"/>
		</linearGradient>
		<polyline id="XMLID_80_" style="fill:url(#XMLID_50_);stroke:#424242;stroke-miterlimit:10;" points="30.5,15 30.5,34.5 
			10.5,34.5 10.5,15 		"/>
		<path id="XMLID_77_" class="st31" d="M24.8,29.4v-2.5c0-1.9-1.6-3.5-3.5-3.5h0c-1.9,0-3.5,1.6-3.5,3.5v2.5V34h6.9V29.4z"/>
		<circle id="XMLID_76_" class="st31" cx="26.1" cy="19.2" r="2.3"/>
		<polygon id="XMLID_69_" class="st25" points="14.2,7.5 7.8,15.5 34.9,15.5 28.8,7.5 		"/>
		<rect id="XMLID_810_" x="23.5" y="5.5" class="st25" width="3" height="2"/>
	</g>
</g>
</svg>
