<?xml version="1.0" encoding="utf-8"?>
<!-- Generator: Adobe Illustrator 21.0.2, SVG Export Plug-In . SVG Version: 6.00 Build 0)  -->
<svg version="1.1" xmlns="http://www.w3.org/2000/svg" xmlns:xlink="http://www.w3.org/1999/xlink" x="0px" y="0px"
	 viewBox="0 0 41 41" style="enable-background:new 0 0 41 41;" xml:space="preserve">
<style type="text/css">
	.st0{display:none;}
	.st1{display:inline;fill:#E0E0E0;}
	.st2{display:inline;fill:#FFFFFF;fill-opacity:0.2;}
	.st3{display:inline;fill:#212121;fill-opacity:0.1;}
	.st4{display:inline;}
	.st5{fill:#F5F5F5;}
	.st6{display:inline;fill:url(#XMLID_50_);}
	.st7{fill:none;}
	.st8{display:inline;opacity:0.15;}
	.st9{clip-path:url(#SVGID_2_);}
	.st10{fill:none;stroke:#000000;stroke-width:0.25;stroke-miterlimit:10;}
	.st11{opacity:0.4;}
	.st12{clip-path:url(#SVGID_4_);}
	.st13{fill:#DB4437;fill-opacity:0.4;}
	.st14{display:inline;fill:url(#XMLID_52_);}
	.st15{clip-path:url(#SVGID_5_);}
	.st16{clip-path:url(#SVGID_6_);}
	.st17{display:inline;fill:url(#XMLID_53_);}
	.st18{clip-path:url(#SVGID_7_);}
	.st19{clip-path:url(#SVGID_8_);}
	.st20{display:inline;fill:url(#XMLID_59_);}
	.st21{clip-path:url(#SVGID_9_);}
	.st22{clip-path:url(#SVGID_10_);}
	.st23{fill:url(#XMLID_63_);stroke:#424242;stroke-miterlimit:10;}
	.st24{opacity:0.8;}
	.st25{fill:#8C8C8C;}
	.st26{opacity:0.8;fill:#BDBDBD;}
	.st27{fill:#757575;}
	.st28{opacity:0.8;fill:#616161;}
	.st29{fill:#D83232;}
	.st30{fill:#529DF7;stroke:#424242;stroke-miterlimit:10;}
	.st31{fill:url(#XMLID_65_);stroke:#424242;stroke-miterlimit:10;}
	.st32{fill:#FC3D4B;stroke:#424242;stroke-miterlimit:10;}
	.st33{fill:none;stroke:#424242;stroke-miterlimit:10;}
	.st34{fill:none;stroke:#424242;stroke-width:2;stroke-miterlimit:10;}
	.st35{fill:#757575;stroke:#424242;stroke-miterlimit:10;}
	.st36{fill:none;stroke:#424242;stroke-linecap:round;stroke-miterlimit:10;}
	.st37{fill:url(#XMLID_67_);stroke:#424242;stroke-miterlimit:10;}
	.st38{fill:#E0E0E0;stroke:#424242;stroke-miterlimit:10;}
	.st39{fill:url(#XMLID_72_);stroke:#424242;stroke-miterlimit:10;}
	.st40{opacity:0.2;}
	.st41{fill:url(#XMLID_74_);}
	.st42{fill:#424242;}
	.st43{fill:#FFFFFF;stroke:#424242;stroke-miterlimit:10;}
	.st44{fill:#FFF59D;stroke:#424242;stroke-miterlimit:10;}
	.st45{fill:#7CB342;stroke:#424242;stroke-miterlimit:10;}
	.st46{fill:url(#XMLID_79_);stroke:#424242;stroke-miterlimit:10;}
	.st47{fill:#FFF59D;}
	.st48{fill:none;stroke:#424242;stroke-width:0.5;stroke-miterlimit:10;}
	.st49{fill:#5B842C;}
	.st50{fill:#FFF176;stroke:#424242;stroke-miterlimit:10;}
	.st51{fill:url(#XMLID_88_);stroke:#424242;stroke-miterlimit:10;}
	.st52{fill:url(#XMLID_90_);stroke:#424242;stroke-miterlimit:10;}
	.st53{fill:url(#XMLID_93_);stroke:#424242;stroke-miterlimit:10;}
	.st54{fill:url(#XMLID_97_);stroke:#424242;stroke-miterlimit:10;}
	.st55{fill:url(#SVGID_11_);}
	.st56{fill:#FFD488;}
	.st57{fill:#529DF7;}
	.st58{fill:url(#SVGID_12_);}
	.st59{fill:url(#SVGID_13_);}
	.st60{fill:#FC3D4B;}
	.st61{fill:#FFFFFF;}
	.st62{fill:#FFF59D;stroke:#424242;stroke-width:0.5;stroke-miterlimit:10;}
	.st63{fill:#FFFFFF;stroke:#424242;stroke-width:0.5;stroke-miterlimit:10;}
	.st64{fill:#7CB342;}
</style>
<g id="Layer_1" class="st0">
</g>
<g id="Layer_2" class="st0">
</g>
<g id="schedule">
</g>
<g id="hospitality">
</g>
<g id="events">
</g>
<g id="contact_us">
</g>
<g id="gallery">
</g>
<g id="sponsors">
	<g id="XMLID_39_">
		<g id="XMLID_49_">
			<circle id="XMLID_61_" class="st30" cx="20.3" cy="20.3" r="19.5"/>
			<circle class="st56" cx="20" cy="20" r="13"/>
			<g>
				<circle class="st57" cx="20.3" cy="20.3" r="6.8"/>
				<path class="st42" d="M20.3,14.5c3.2,0,5.8,2.6,5.8,5.8S23.4,26,20.3,26s-5.8-2.6-5.8-5.8S17.1,14.5,20.3,14.5 M20.3,12.5
					c-4.3,0-7.8,3.5-7.8,7.8S16,28,20.3,28s7.8-3.5,7.8-7.8S24.5,12.5,20.3,12.5L20.3,12.5z"/>
			</g>
			<g>
				<linearGradient id="SVGID_2_" gradientUnits="userSpaceOnUse" x1="13.0001" y1="23.5193" x2="34.0386" y2="23.5193">
					<stop  offset="0.342" style="stop-color:#FFFFFF"/>
					<stop  offset="0.994" style="stop-color:#E6E6E6"/>
				</linearGradient>
				<path style="fill:url(#SVGID_2_);" d="M33,25.5c1.5-3.5,1.4-7.3,0-10.6l-2-2l-4.8,4.8c0.6,1.5,0.7,3.3,0,5l-0.8,2.7l-2.7,0.8
					c-1.5,0.6-3.3,0.7-5,0L13,31l2,2c3.5,1.5,7.3,1.4,10.6,0L33,25.5z M33,25.5"/>
				<linearGradient id="SVGID_4_" gradientUnits="userSpaceOnUse" x1="6.462" y1="16.9809" x2="27.5001" y2="16.9809">
					<stop  offset="0.342" style="stop-color:#FFFFFF"/>
					<stop  offset="0.994" style="stop-color:#E6E6E6"/>
				</linearGradient>
				<path style="fill:url(#SVGID_4_);" d="M14.3,17.8l0.8-2.7l2.7-0.8c1.5-0.6,3.3-0.7,5,0l4.8-4.8l-2-2C22,6.1,18.2,6.2,15,7.5
					L7.5,15c-1.5,3.5-1.4,7.3,0,10.6l2,2l4.8-4.8C13.6,21.2,13.6,19.4,14.3,17.8L14.3,17.8z M14.3,17.8"/>
				<path class="st60" d="M22.7,26.2l2.8,6.7c3.3-1.3,6-3.9,7.5-7.5l-6.7-2.8C25.6,24.4,24.3,25.6,22.7,26.2L22.7,26.2z M22.7,26.2"
					/>
				<path class="st60" d="M15,33c-1.7-0.7-3.2-1.7-4.5-3c-1.3-1.3-2.3-2.8-3-4.5l6.7-2.8c0.3,0.8,0.8,1.5,1.4,2.1
					c0.6,0.6,1.3,1.1,2.1,1.4L15,33z"/>
				<path class="st60" d="M33,15l-6.7,2.8c-0.3-0.8-0.8-1.5-1.4-2.1c-0.6-0.6-1.3-1.1-2.1-1.4l2.8-6.7c1.7,0.7,3.2,1.7,4.5,3
					C31.3,11.8,32.3,13.3,33,15z"/>
				<path class="st60" d="M17.8,14.3L15,7.5c-3.3,1.3-6,3.9-7.5,7.5l6.7,2.8C14.9,16.1,16.2,14.9,17.8,14.3L17.8,14.3z M17.8,14.3"
					/>
			</g>
		</g>
	</g>
</g>
</svg>
