<?xml version="1.0" encoding="iso-8859-1"?>
<!-- Generator: Adobe Illustrator 19.0.0, SVG Export Plug-In . SVG Version: 6.00 Build 0)  -->
<svg version="1.1" id="Layer_1" xmlns="http://www.w3.org/2000/svg" xmlns:xlink="http://www.w3.org/1999/xlink" x="0px" y="0px"
	 viewBox="0 0 512.001 512.001" style="enable-background:new 0 0 512.001 512.001;" xml:space="preserve">
<path style="fill:#999999;" d="M394.593,163.673c-42.546,9.753-85.984,14.972-129.813,15.583c-2.921,0.037-5.842,0.061-8.776,0.061
	c-46.824,0-93.22-5.243-138.601-15.645l0.684-3.043v-13.555c0-7.321,0.574-14.508,1.674-21.511
	c20.729,5.146,41.69,9.106,62.835,11.868c24.274,3.166,48.779,4.754,73.407,4.754c46.09,0,91.728-5.573,136.23-16.622
	c1.1,7.003,1.674,14.19,1.674,21.511v13.555L394.593,163.673z"/>
<path style="fill:#808080;" d="M117.404,163.673l0.684-3.043v-13.555c0-7.321,0.574-14.508,1.674-21.511
	c20.729,5.146,41.69,9.106,62.835,11.868c-0.232,3.19,0-3.239,0,0l-0.749,37.453l0,0
	C216.841,182.902,162.784,174.074,117.404,163.673z"/>
<path style="fill:#666666;" d="M463.074,162.915c0.672,1.968,0.99,3.972,0.99,5.94c0,7.81-5.023,15.07-12.907,17.515
	c-63.238,19.666-128.799,29.615-195.154,29.615c-66.367,0-131.928-9.949-195.166-29.615c-9.863-3.068-15.266-13.677-11.917-23.455
	c2.603-7.59,9.692-12.393,17.319-12.393c1.809,0,3.642,0.269,5.451,0.831c15.107,4.693,30.348,8.8,45.711,12.32
	c45.381,10.401,91.777,15.645,138.601,15.645c46.811,0,93.207-5.243,138.589-15.645c15.363-3.52,30.605-7.627,45.711-12.32
	C449.776,148.407,459.859,153.528,463.074,162.915z"/>
<g>
	<path style="fill:#4D4D4D;" d="M168.285,209.189c1.772,0.55,3.544,1.1,5.329,1.638c-38.182-4.816-75.876-12.98-112.775-24.457
		c-9.863-3.068-15.266-13.677-11.917-23.455c2.603-7.59,9.692-12.393,17.319-12.393c1.809,0,3.642,0.269,5.451,0.831
		c15.107,4.693,30.348,8.8,45.711,12.32c17.796,4.07,35.738,7.358,53.803,9.839c-6.649,0.917-12.516,5.463-14.838,12.222
		C153.019,195.512,158.422,206.121,168.285,209.189z"/>
	<path style="fill:#4D4D4D;" d="M181.265,174.819c-3.349-0.403-6.71-0.843-10.059-1.308c0.819-0.11,1.65-0.171,2.481-0.171
		c1.809,0,3.642,0.269,5.451,0.831C179.847,174.392,180.556,174.612,181.265,174.819z"/>
</g>
<path style="fill:#666666;" d="M353.513,49.565c20.167,20.155,34.112,46.53,38.72,75.998c-44.501,11.049-90.14,16.622-136.23,16.622
	c-46.103,0-91.741-5.573-136.242-16.622C130.089,59.624,187.155,9.17,256.003,9.17C294.088,9.17,328.567,24.595,353.513,49.565z"/>
<path style="fill:#4D4D4D;" d="M182.687,136.097c0.281-3.552,0.695-7.066,1.239-10.533c8.672-55.36,50.289-99.799,104.162-112.635
	c-10.296-2.452-21.036-3.758-32.084-3.758c-68.737,0-125.726,50.291-136.188,116.074L182.687,136.097z"/>
<g>
	<path style="fill:#2BA5F7;" d="M354.98,436.768c2.347,3.337,4.168,7.749,4.168,13.432c0,5.671-1.821,10.096-4.168,13.432
		c-3.887,5.512-4.657,12.687-2.127,18.932c1.846,4.596,1.772,10.193-4.217,15.706c-18.333,16.855-62.664-18.786-63.581-19.531
		c7.162-19.03,7.162-38.06,0-57.09c0.917-0.733,45.247-36.374,63.581-19.519c5.989,5.5,6.062,11.11,4.217,15.693
		C350.323,424.081,351.093,431.256,354.98,436.768z"/>
	<path style="fill:#2BA5F7;" d="M226.951,421.661c-7.174,19.03-7.174,38.048,0,57.078c0,0-45.064,36.557-63.593,19.531
		c-5.989-5.512-6.062-11.11-4.204-15.706c2.518-6.246,1.748-13.42-2.139-18.932c-2.347-3.337-4.168-7.761-4.168-13.432
		c0-5.683,1.821-10.096,4.168-13.432c3.887-5.512,4.657-12.687,2.139-18.945c-1.858-4.583-1.784-10.193,4.204-15.693
		C181.887,385.104,226.951,421.661,226.951,421.661z"/>
	<path style="fill:#2BA5F7;" d="M285.056,421.649c7.162,19.03,7.162,38.06,0,57.09h-0.012c-19.372,7.04-38.732,7.04-58.093,0
		c-7.174-19.03-7.174-38.048,0-57.078v-0.012C246.311,414.609,265.683,414.609,285.056,421.649z"/>
</g>
<path style="fill:#2197D8;" d="M244.063,478.739c-7.174-19.03-7.174-38.048,0-57.078v-0.012c6.83-2.484,13.661-4.072,20.493-4.803
	c-12.538-1.342-25.073,0.247-37.604,4.803v0.012c-7.174,19.03-7.174,38.048,0,57.078c12.532,4.556,25.063,6.145,37.598,4.803
	C257.721,482.811,250.891,481.223,244.063,478.739z"/>
<path style="fill:#FFFFFF;" d="M353.805,111.827c-3.487,0-6.816-1.998-8.353-5.378c-4.845-10.669-11.581-20.354-20.018-28.787
	c-9.835-9.844-21.302-17.33-34.09-22.253c-4.724-1.819-7.079-7.123-5.26-11.848c1.819-4.724,7.117-7.083,11.848-5.26
	c15.197,5.851,28.812,14.734,40.466,26.4c9.997,9.991,17.986,21.487,23.747,34.167c2.094,4.609,0.054,10.043-4.556,12.137
	C356.361,111.563,355.071,111.827,353.805,111.827z"/>
<g>
	<path style="fill:#333333;" d="M471.748,159.942c-4.855-14.173-19.859-21.791-34.163-17.347c-11.421,3.551-22.93,6.752-34.51,9.62
		v-5.139c0-39.296-15.3-76.229-43.076-103.995C332.229,15.3,295.294,0,256.001,0c-81.099,0-147.076,65.977-147.076,147.076v5.139
		c-11.579-2.869-23.088-6.07-34.508-9.62c-14.301-4.445-29.31,3.173-34.164,17.348c-2.427,7.093-1.894,14.679,1.5,21.363
		c3.395,6.686,9.208,11.593,16.368,13.819c64.095,19.922,130.672,30.024,197.882,30.024s133.787-10.102,197.879-30.024
		c7.161-2.226,12.974-7.134,16.371-13.821C473.644,174.62,474.175,167.034,471.748,159.942z M256.001,18.333
		c34.396,0,66.725,13.392,91.034,37.711c17.478,17.471,29.312,39.087,34.584,62.637c-41.057,9.515-83.273,14.336-125.62,14.336
		c-42.331,0-84.533-4.819-125.582-14.331C143.381,61.312,194.763,18.333,256.001,18.333z M127.258,147.076
		c0-3.439,0.139-6.847,0.406-10.219c41.969,9.614,85.089,14.493,128.337,14.493c43.251,0,86.371-4.879,128.339-14.491
		c0.264,3.382,0.402,6.788,0.402,10.217v9.372c-42.233,9.092-85.341,13.702-128.741,13.702c-43.401,0-86.51-4.611-128.743-13.702
		C127.258,156.448,127.258,147.076,127.258,147.076z M453.902,173.006c-1.134,2.232-3.074,3.871-5.465,4.613
		c-62.33,19.375-127.077,29.198-192.438,29.198s-130.108-9.824-192.44-29.198c-2.388-0.742-4.329-2.381-5.462-4.611
		c-1.133-2.231-1.31-4.762-0.501-7.126c1.304-3.812,4.813-6.2,8.624-6.2c0.908,0,1.835,0.136,2.752,0.422
		c60.579,18.832,123.505,28.381,187.027,28.381s126.448-9.549,187.027-28.381c4.762-1.48,9.758,1.057,11.375,5.779
		C455.212,168.246,455.034,170.776,453.902,173.006z"/>
	<path style="fill:#333333;" d="M368.32,450.198c0-6.908-1.967-13.203-5.847-18.714c-2.058-2.922-2.487-6.842-1.121-10.231
		c3.719-9.223,1.346-18.655-6.512-25.875c-10.809-9.934-27.344-9.269-49.15,1.985c-9.409,4.857-17.67,10.597-22.356,14.062
		c-18.162-5.593-36.507-5.593-54.67,0c-4.686-3.465-12.946-9.205-22.356-14.062c-21.798-11.252-38.337-11.919-49.151-1.984
		c-7.857,7.221-10.229,16.652-6.511,25.873c1.366,3.389,0.937,7.309-1.121,10.233c-3.879,5.509-5.846,11.804-5.846,18.712
		c0,6.908,1.967,13.204,5.846,18.712c2.058,2.922,2.487,6.843,1.121,10.233c-3.718,9.223-1.346,18.654,6.512,25.875
		c5.067,4.658,11.391,6.984,18.929,6.984c8.541,0,18.639-2.991,30.221-8.969c9.41-4.857,17.67-10.597,22.356-14.062
		c9.081,2.796,18.208,4.209,27.335,4.209s18.254-1.413,27.335-4.211c4.686,3.465,12.946,9.205,22.356,14.062
		c11.584,5.979,21.679,8.969,30.221,8.969c7.535,0,13.863-2.327,18.929-6.984c7.858-7.22,10.231-16.652,6.512-25.875
		c-1.366-3.388-0.937-7.309,1.122-10.233C366.354,463.4,368.32,457.105,368.32,450.198z M169.565,491.518
		c-3.02-2.776-2.432-4.234-1.913-5.52c3.724-9.235,2.552-19.569-3.135-27.644c-1.683-2.391-2.502-5.059-2.502-8.156
		c0-3.097,0.819-5.765,2.502-8.156c5.687-8.075,6.859-18.409,3.135-27.644c-0.519-1.286-1.106-2.744,1.912-5.52
		c7.465-6.853,30.253,4.14,46.627,16.074c-5.004,16.781-5.004,33.71,0,50.492C199.813,487.378,177.023,498.37,169.565,491.518z
		 M234.129,471.488c-4.549-14.288-4.549-28.292,0-42.58c14.679-4.527,29.063-4.527,43.742,0c4.549,14.288,4.549,28.292,0,42.58
		C263.193,476.014,248.808,476.014,234.129,471.488z M347.486,458.353c-5.688,8.074-6.862,18.41-3.137,27.646
		c0.519,1.287,1.106,2.745-1.912,5.52c-7.463,6.853-30.249-4.138-46.626-16.074c5.005-16.784,5.004-33.715-0.002-50.499
		c16.358-11.949,39.138-22.947,46.628-16.066c3.019,2.774,2.431,4.233,1.912,5.52c-3.724,9.235-2.551,19.57,3.136,27.644
		c1.683,2.391,2.502,5.059,2.502,8.156S349.168,455.963,347.486,458.353z"/>
</g>
<g>
	<circle style="fill:#FFFFFF;" cx="269.942" cy="40.615" r="9.167"/>
	<circle style="fill:#FFFFFF;" cx="268.231" cy="442.9" r="9.167"/>
</g>
<g>
</g>
<g>
</g>
<g>
</g>
<g>
</g>
<g>
</g>
<g>
</g>
<g>
</g>
<g>
</g>
<g>
</g>
<g>
</g>
<g>
</g>
<g>
</g>
<g>
</g>
<g>
</g>
<g>
</g>
</svg>
