<?xml version="1.0" encoding="iso-8859-1"?>
<!-- Generator: Adobe Illustrator 19.0.0, SVG Export Plug-In . SVG Version: 6.00 Build 0)  -->
<svg version="1.1" id="Layer_1" xmlns="http://www.w3.org/2000/svg" xmlns:xlink="http://www.w3.org/1999/xlink" x="0px" y="0px"
	 viewBox="0 0 511.999 511.999" style="enable-background:new 0 0 511.999 511.999;" xml:space="preserve">
<g>
	<polygon style="fill:#F2F2F2;" points="248.52,67.562 331.523,111.358 246.277,137.723 163.261,93.927 162.594,91.748 
		247.853,65.383 	"/>
	<polygon style="fill:#F2F2F2;" points="428.189,9.616 448.479,75.188 416.795,84.993 416.782,84.993 333.792,41.198 
		333.112,39.019 	"/>
	<polygon style="fill:#F2F2F2;" points="466.346,193.49 466.346,262.138 366.821,262.138 433.188,195.771 433.188,193.49 	"/>
	<polygon style="fill:#F2F2F2;" points="343.943,193.49 343.943,195.771 277.576,262.138 188.331,262.138 254.698,195.771 
		254.698,193.49 	"/>
	<polygon style="fill:#F2F2F2;" points="165.453,193.49 165.453,195.771 99.099,262.138 65.928,262.138 65.928,193.49 	"/>
	<polygon style="fill:#F2F2F2;" points="161.018,164.087 65.928,193.49 45.652,127.918 77.335,118.126 78.002,120.292 	"/>
</g>
<g>
	<polygon style="fill:#4D4D4D;" points="333.792,41.198 416.782,84.993 331.536,111.358 331.523,111.358 248.52,67.562 
		247.853,65.383 333.112,39.019 	"/>
	<polygon style="fill:#4D4D4D;" points="246.277,137.723 161.018,164.087 78.002,120.292 77.335,118.126 162.594,91.748 
		163.261,93.927 	"/>
</g>
<polygon style="fill:#666666;" points="466.346,262.138 466.346,502.381 65.928,502.381 65.928,262.138 99.099,262.138 
	188.331,262.138 277.576,262.138 366.821,262.138 "/>
<g>
	<polygon style="fill:#4D4D4D;" points="433.188,193.49 433.188,195.771 366.821,262.138 277.576,262.138 343.943,195.771 
		343.943,193.49 	"/>
	<polygon style="fill:#4D4D4D;" points="254.698,193.49 254.698,195.771 188.331,262.138 99.099,262.138 165.453,195.771 
		165.453,193.49 	"/>
</g>
<path style="fill:#FFFFFF;" d="M434.303,479.951c-5.309,0-9.613-4.304-9.613-9.613V324.275c0-5.309,4.304-9.613,9.613-9.613
	c5.309,0,9.613,4.304,9.613,9.613v146.063C443.916,475.647,439.612,479.951,434.303,479.951z"/>
<g>
	<path style="fill:#B3B3B3;" d="M393.032,353.062H139.255c-5.309,0-9.613-4.304-9.613-9.613c0-5.309,4.304-9.613,9.613-9.613
		h253.778c5.309,0,9.613,4.304,9.613,9.613C402.645,348.758,398.341,353.062,393.032,353.062z"/>
	<path style="fill:#B3B3B3;" d="M393.032,428.683H139.255c-5.309,0-9.613-4.304-9.613-9.613c0-5.309,4.304-9.613,9.613-9.613
		h253.778c5.309,0,9.613,4.304,9.613,9.613C402.645,424.379,398.341,428.683,393.032,428.683z"/>
</g>
<circle style="fill:#FFFFFF;" cx="434.306" cy="292.228" r="9.613"/>
<path style="fill:#333333;" d="M466.348,183.883H129.553l321.759-99.508c5.073-1.569,7.912-6.952,6.343-12.024l-20.28-65.58
	c-0.752-2.435-2.443-4.473-4.699-5.661c-2.255-1.189-4.89-1.436-7.325-0.682L42.813,118.734c-5.073,1.569-7.912,6.952-6.343,12.024
	l19.852,64.189v307.439c0,5.309,4.304,9.613,9.613,9.613h400.414c5.309,0,9.613-4.304,9.613-9.613V193.495
	C475.961,188.186,471.657,183.883,466.348,183.883z M456.735,252.525h-66.702l49.417-49.417h17.285V252.525z M300.789,252.525
	l49.417-49.417h62.056l-49.417,49.417H300.789z M211.544,252.525l49.417-49.417h62.056L273.6,252.525H211.544z M122.3,252.525
	l49.417-49.417h62.056l-49.417,49.417H122.3z M75.547,252.525v-49.417h68.981l-49.417,49.417H75.547z M159.45,102.786l61.811,32.61
	l-59.285,18.335l-61.81-32.61L159.45,102.786z M244.712,76.419l61.811,32.61l-59.287,18.334l-61.811-32.61L244.712,76.419z
	 M329.972,50.05l61.811,32.61l-59.285,18.335l-61.811-32.61L329.972,50.05z M436.449,68.848l-18.69,5.78l-61.811-32.61l65.901-20.38
	L436.449,68.848z M74.19,129.155l61.811,32.61l-63.724,19.708l-14.601-47.212L74.19,129.155z M75.547,492.774V271.751h381.188
	v221.022H75.547V492.774z"/>
<g>
</g>
<g>
</g>
<g>
</g>
<g>
</g>
<g>
</g>
<g>
</g>
<g>
</g>
<g>
</g>
<g>
</g>
<g>
</g>
<g>
</g>
<g>
</g>
<g>
</g>
<g>
</g>
<g>
</g>
</svg>
