<?xml version="1.0" encoding="iso-8859-1"?>
<!-- Generator: Adobe Illustrator 19.0.0, SVG Export Plug-In . SVG Version: 6.00 Build 0)  -->
<svg version="1.1" id="Layer_1" xmlns="http://www.w3.org/2000/svg" xmlns:xlink="http://www.w3.org/1999/xlink" x="0px" y="0px"
	 viewBox="0 0 512.004 512.004" style="enable-background:new 0 0 512.004 512.004;" xml:space="preserve">
<path style="fill:#FFD3AE;" d="M472.34,294.572L426.542,363.8c-28.032,42.364-47.515,89.665-57.483,139.254H160.231l-4.137-34.185
	c-1.979-16.323-10.898-31.049-24.562-40.194c-9.885-6.629-18.088-15.691-23.823-26.422c-17.277-32.336-42.781-60.07-74.51-80.102
	l-4.614-2.909C9.936,307.473,4.761,282.589,17.186,264.37l0.596-0.87c8.108-11.888,21.403-17.849,34.578-17.098
	c7.703,0.429,15.381,3.172,21.927,8.37c16.323,12.949,36.069,28.616,52.666,41.768c1.395,1.109,2.874,1.979,4.376,2.611
	c3.207,1.359,6.57,1.705,9.765,1.216c9.121-1.395,16.896-9.61,15.691-20.377l-13.688-121.774l25.767-4.126l48.922-7.846
	l10.588,68.846c0.668,4.281,6.916,3.971,7.166-0.346l6.033-107.967l25.159,2.337l52.797,4.912l-5.175,93.909
	c-0.429,7.607,10.29,9.706,12.77,2.48l18.791-54.908l21.939,8.227l45.655,17.122l-26.613,81.163
	c-2.778,8.501,8.12,14.69,13.986,7.929l14.57-16.788L472.34,294.572z"/>
<path style="fill:#B3B3B3;" d="M426.507,141.212l-12.997,39.646l-45.655-17.122l-21.939-8.227l12.687-37.046
	c2.11-6.153,5.699-11.339,10.242-15.322c6.498-5.699,14.916-8.907,23.644-8.907c4.698,0,9.491,0.93,14.105,2.909
	c4.149,1.777,7.798,4.257,10.862,7.249c6.379,6.212,10.23,14.618,10.767,23.513C428.498,132.293,427.949,136.8,426.507,141.212z"/>
<path style="fill:#EABD9B;" d="M367.855,163.736c-5.723,14.57-9.92,27.543-12.842,32.968c-8.346,15.501-27.889,13.712-27.889,13.712
	l18.791-54.908L367.855,163.736z"/>
<path style="fill:#999999;" d="M417.457,104.392c-22.965-0.322-38.942,32.253-49.602,59.343l-21.939-8.227l12.687-37.046
	c2.11-6.153,5.699-11.339,10.242-15.322c6.498-5.699,14.916-8.907,23.644-8.907c4.698,0,9.491,0.93,14.105,2.909
	C410.744,98.92,414.392,101.4,417.457,104.392z"/>
<path style="fill:#2BA5F7;" d="M322.045,68.455l-2.516,45.572l-52.797-4.912l-25.159-2.337l2.385-42.662
	c0.167-3.017,0.68-5.926,1.49-8.704c3.553-12.329,12.973-22.035,24.908-26.124c3.971-1.359,8.227-2.099,12.639-2.099
	c0.525,0,1.049,0.012,1.574,0.036c3.792,0.155,7.428,0.847,10.85,1.991c4.018,1.335,7.738,3.315,11.041,5.795
	c9.312,6.999,15.357,18.028,15.632,30.357C322.116,66.392,322.105,67.418,322.045,68.455z"/>
<path style="fill:#EABD9B;" d="M266.732,109.114c-3.207,19.876-5.425,44.021-5.914,73.282c0,23.847-6.439,33.696-25.278,32.348
	l6.033-107.967L266.732,109.114z"/>
<path style="fill:#2197D8;" d="M295.42,29.215c-8.955,11.423-21.391,34.65-28.688,79.899l-25.159-2.337l2.385-42.662
	c0.167-3.017,0.68-5.926,1.49-8.704c3.553-12.329,12.973-22.035,24.908-26.124c3.971-1.359,8.227-2.099,12.639-2.099
	c0.525,0,1.049,0.012,1.574,0.036C288.361,27.379,291.998,28.07,295.42,29.215z"/>
<path style="fill:#F95428;" d="M217.786,146.244l-48.922,7.846l-25.767,4.126l-2.385-21.188L135.8,93.375
	c-0.155-1.383-0.227-2.754-0.227-4.114c0-17.194,12.126-32.336,29.356-35.77c4.734-0.954,9.431-0.942,13.891-0.095
	c14.761,2.766,26.923,14.547,29.356,30.333L217.786,146.244z"/>
<path style="fill:#EABD9B;" d="M172.501,311.575c-7.929,6.796-20.008-0.453-31.406-11.208c9.121-1.395,16.896-9.61,15.691-20.377
	l-13.688-121.774l25.767-4.126C184.508,247.975,191.483,295.287,172.501,311.575z"/>
<path style="fill:#E54728;" d="M178.82,53.396v0.012c0,0-25.6,6.784-9.956,100.682l-25.767,4.126l-2.385-21.188L135.8,93.375
	c-0.155-1.383-0.227-2.754-0.227-4.114c0-17.194,12.126-32.336,29.356-35.77C169.663,52.537,174.361,52.549,178.82,53.396z"/>
<g>
	<path style="fill:#2BA5F7;" d="M247.273,8.945c11.864,0,21.653,8.871,23.084,20.341c-11.935,4.09-21.355,13.795-24.908,26.124
		c-12.007-0.918-21.45-10.958-21.45-23.191C223.998,19.366,234.419,8.945,247.273,8.945z"/>
	<path style="fill:#2BA5F7;" d="M328.352,19.676c12.853,0,23.275,10.421,23.275,23.275s-10.421,23.275-23.275,23.275
		c-2.17,0-4.269-0.298-6.26-0.858c-0.274-12.329-6.319-23.358-15.632-30.357C309.716,26.067,318.289,19.676,328.352,19.676z"/>
</g>
<g>
	<path style="fill:#B3B3B3;" d="M395.124,54.302l11.47,42.841c-4.614-1.979-9.408-2.909-14.105-2.909
		c-8.728,0-17.146,3.207-23.644,8.907C362.847,74.476,395.124,54.302,395.124,54.302z"/>
	<path style="fill:#B3B3B3;" d="M444.773,74.584c0,0,8.919,37.01-15.441,53.262l-1.109,0.06
		c-0.787-13.164-8.847-25.278-21.629-30.763L444.773,74.584z"/>
</g>
<path style="fill:#F7B239;" d="M490.917,216.39c11.947,10.719,14.237,28.581,5.378,41.971l-23.954,36.212l-56.887-41.41
	l29.391-33.887c11.852-13.652,32.599-14.952,46.06-2.885H490.917z"/>
<path style="fill:#EABD9B;" d="M190.469,503.054h-30.238l-4.137-34.185c-1.979-16.323-10.898-31.049-24.562-40.194
	c-9.885-6.629-18.088-15.691-23.823-26.422c-17.277-32.336-42.781-60.07-74.51-80.102l-4.614-2.909
	C9.936,307.473,4.761,282.589,17.186,264.37l0.596-0.87c8.108-11.888,21.403-17.849,34.578-17.098c0,0-16.896,14.69,4.567,50.46
	s62.002,54.848,77.503,89.426S189.277,433.814,190.469,503.054z"/>
<polygon style="fill:#F7B239;" points="135.8,93.375 140.713,137.027 92.864,121.67 "/>
<g>
	<path style="fill:#FFFFFF;" d="M379.566,393.717c-1.397,0-2.815-0.328-4.14-1.022c-4.376-2.29-6.065-7.694-3.775-12.07
		c6.812-13.013,14.407-25.868,22.572-38.208l14.796-22.364c2.723-4.12,8.272-5.249,12.392-2.524
		c4.12,2.725,5.249,8.272,2.524,12.392l-14.796,22.365c-7.83,11.834-15.112,24.159-21.642,36.634
		C385.899,391.971,382.788,393.717,379.566,393.717z"/>
	<path style="fill:#FFFFFF;" d="M356.689,276.039c-4.688,0-8.625-3.651-8.918-8.394c-0.366-5.949,0.408-11.901,2.3-17.69
		l19.033-58.053c1.538-4.693,6.59-7.251,11.283-5.711s7.251,6.59,5.711,11.283l-19.03,58.045c-1.186,3.627-1.673,7.341-1.446,11.028
		c0.303,4.929-3.447,9.172-8.376,9.474C357.059,276.033,356.873,276.039,356.689,276.039z"/>
	<path style="fill:#FFFFFF;" d="M294.371,242.204c-2.373,0-4.742-0.938-6.501-2.8c-8.584-9.08-12.919-21.018-12.21-33.612
		l3.222-58.425c0.273-4.932,4.496-8.708,9.422-8.437c4.932,0.272,8.709,4.49,8.437,9.421l-3.223,58.437
		c-0.432,7.645,2.18,14.861,7.348,20.331c3.393,3.589,3.234,9.249-0.355,12.641C298.783,241.394,296.575,242.204,294.371,242.204z"
		/>
	<path style="fill:#FFFFFF;" d="M201.454,237.194c-3.423,0-6.69-1.976-8.174-5.305c-1.538-3.451-2.616-7.115-3.205-10.89
		l-6.424-41.775c-0.75-4.881,2.598-9.447,7.48-10.198c4.879-0.751,9.447,2.598,10.198,7.48l6.421,41.756
		c0.342,2.196,0.972,4.339,1.867,6.347c2.01,4.511-0.017,9.799-4.529,11.809C203.907,236.944,202.671,237.194,201.454,237.194z"/>
	<path style="fill:#FFFFFF;" d="M259.228,427.268c-4.725,0-8.674-3.703-8.922-8.478c-2.448-47.007-25.639-56.545-81.982-68.485
		c-4.831-1.024-7.918-5.771-6.894-10.602c1.023-4.831,5.766-7.918,10.602-6.894c27.543,5.837,49.947,11.25,66.762,23.185
		c18.528,13.152,27.862,32.81,29.375,61.865c0.256,4.932-3.533,9.139-8.466,9.396C259.543,427.265,259.385,427.268,259.228,427.268z
		"/>
	<circle style="fill:#FFFFFF;" cx="142.225" cy="335.026" r="8.943"/>
	<circle style="fill:#FFFFFF;" cx="431.739" cy="301.902" r="8.943"/>
</g>
<g>
	<path style="fill:#333333;" d="M496.881,209.733c-8.312-7.452-19.024-11.17-30.166-10.472
		c-11.141,0.699-21.305,5.727-28.621,14.158l-41.544,47.88L435.009,144c1.176-3.587,1.876-7.213,2.143-10.81
		c10.588-8.369,16.782-21.219,17.953-37.428c0.905-12.527-1.536-22.842-1.639-23.276c-0.664-2.757-2.597-5.035-5.208-6.141
		c-2.611-1.105-5.592-0.906-8.034,0.537l-28.04,16.566l-8.42-31.461c-0.733-2.739-2.722-4.969-5.361-6.008
		c-2.64-1.04-5.614-0.767-8.019,0.737c-0.378,0.236-9.342,5.891-17.468,15.47c-10.123,11.932-14.745,24.902-13.558,37.801
		c-4.062,4.475-7.228,9.764-9.217,15.574l-25.915,75.697l6.41-116.182c16.701-1.177,29.933-15.131,29.933-32.128
		c0-17.765-14.452-32.217-32.217-32.217c-9.874,0-19.024,4.574-25.043,11.989c-5.692-2.652-11.912-4.172-18.385-4.431
		c-2.856-0.114-5.662,0.042-8.406,0.42C271.374,7.587,260.101,0,247.272,0c-17.765,0-32.217,14.452-32.217,32.217
		c0,13.339,8.3,25,20.107,29.828c-0.046,0.521-0.098,1.041-0.128,1.566l-5.577,99.679l-12.449-80.919
		c-1.904-12.38-8.605-23.152-18.87-30.332c-10.264-7.18-22.681-9.781-34.964-7.325c-21.447,4.29-36.339,22.68-36.539,43.987
		l-38.692,25.5c-2.875,1.893-4.406,5.269-3.94,8.68c0.467,3.41,2.85,6.25,6.127,7.302l42.338,13.589l15.427,137.218
		c0.661,5.868-3.547,8.685-4.852,9.409c-1.303,0.723-5.913,2.795-10.533-0.867c-16.594-13.154-36.34-28.811-52.664-41.769
		c-10.372-8.233-23.828-11.815-36.91-9.827c-13.15,1.997-25.014,9.479-32.544,20.524l-0.594,0.87
		c-7.387,10.834-9.986,23.872-7.321,36.711c2.666,12.839,10.241,23.763,21.331,30.763l4.618,2.914
		c29.991,18.927,54.681,45.467,71.4,76.749c6.391,11.959,15.635,22.207,26.731,29.637c11.449,7.666,18.977,19.999,20.655,33.839
		l4.145,34.194c0.544,4.49,4.354,7.867,8.877,7.867h208.828c4.259,0,7.928-3.005,8.767-7.18c9.809-48.8,28.706-94.588,56.166-136.09
		l69.762-105.436C514.977,246.334,512.022,223.308,496.881,209.733z M418.013,138.427l-10.092,30.779l-50.73-19.023l9.87-28.831
		c2.449-7.153,7.602-12.783,14.512-15.852c6.91-3.07,14.543-3.119,21.491-0.142C415.957,110.885,422.382,125.101,418.013,138.427z
		 M432.949,110.771c-2.333-4.893-5.565-9.361-9.581-13.158l14.041-8.295C437.487,95.879,436.588,103.92,432.949,110.771z
		 M394.176,85.353c-5.299-0.199-10.624,0.535-15.706,2.206c2.317-7.077,7.12-13.134,11.59-17.585L394.176,85.353z M328.351,28.616
		c7.903,0,14.332,6.429,14.332,14.332c0,7.279-5.459,13.295-12.496,14.201c-1.643-8.567-5.609-16.544-11.636-23.173
		c-0.234-0.258-0.479-0.5-0.718-0.751C320.502,30.355,324.29,28.616,328.351,28.616z M284.208,36.16
		c8.135,0.326,15.633,3.823,21.111,9.848c5.476,6.025,8.246,13.819,7.798,21.95l-2.003,36.302l-60.128-5.587l1.905-34.061
		C253.806,48.269,267.871,35.515,284.208,36.16z M232.94,32.217c0-7.903,6.429-14.332,14.332-14.332
		c5.047,0,9.547,2.639,12.102,6.663c-8.17,4.662-14.894,11.652-19.202,20.091C235.851,42.154,232.94,37.484,232.94,32.217z
		 M166.681,62.254c7.45-1.489,14.981,0.088,21.206,4.443c6.225,4.354,10.289,10.887,11.444,18.396l8.265,53.728l-56.666,9.084
		l-6.243-55.532C143.076,78.032,152.53,65.084,166.681,62.254z M113.376,118.859l15.168-9.995l1.734,15.419L113.376,118.859z
		 M419.078,358.861c-27.389,41.396-46.64,86.865-57.274,135.254H168.158l-3.192-26.328c-2.305-19.016-12.678-35.981-28.459-46.548
		c-8.666-5.802-15.896-13.826-20.908-23.205c-18.177-34.01-45.021-62.865-77.629-83.444l-4.618-2.914
		c-6.948-4.384-11.693-11.228-13.364-19.273c-1.67-8.044-0.042-16.211,4.585-22.997l0.594-0.87
		c4.812-7.059,12.076-11.647,20.454-12.919c8.309-1.264,16.515,0.923,23.104,6.154c16.328,12.961,36.077,28.62,52.674,41.776
		c1.911,1.515,3.959,2.73,6.085,3.676c12.691,6.643,29.426,10.195,47.013,13.921c23.31,4.939,49.73,10.537,69.825,24.18
		c22.327,15.158,34.021,38.682,35.751,71.915c0.248,4.774,4.197,8.478,8.922,8.478c0.156,0,0.315-0.004,0.472-0.012
		c4.933-0.256,8.722-4.463,8.466-9.396c-4.596-88.268-71.143-102.367-119.731-112.661c-6.397-1.356-12.664-2.688-18.56-4.131
		c4.654-5.581,6.887-12.854,6.024-20.525L152.93,165.696l57.385-9.199l9.224,59.954c0.996,6.472,6.476,10.936,13.005,10.623
		c6.54-0.317,11.553-5.292,11.919-11.829l5.522-98.705l60.141,5.589l-4.706,85.31c-0.43,7.818,4.835,14.579,12.52,16.076
		c7.688,1.499,15.103-2.792,17.638-10.199l15.818-46.205l50.948,19.104l-23.94,73.019c-2.574,7.849,0.646,16.178,7.834,20.252
		c7.185,4.074,15.987,2.562,21.401-3.678l9.188-10.589l43.332,31.552L419.078,358.861z M488.84,253.424l-18.802,28.417
		l-41.447-30.18l14.344-16.532c0.665,4.282,4.357,7.561,8.826,7.561c4.939,0,8.943-4.004,8.943-8.943
		c0-4.886-3.922-8.851-8.788-8.934c4.124-4.577,9.752-7.317,15.92-7.704c6.316-0.393,12.394,1.713,17.108,5.939
		C493.528,230.748,495.205,243.806,488.84,253.424z"/>
	<circle style="fill:#333333;" cx="160.229" cy="98.416" r="8.943"/>
	<circle style="fill:#333333;" cx="265.752" cy="67.415" r="8.943"/>
	<circle style="fill:#333333;" cx="297.945" cy="69.204" r="8.943"/>
	<circle style="fill:#333333;" cx="379.621" cy="128.225" r="8.943"/>
	<circle style="fill:#333333;" cx="403.468" cy="138.36" r="8.943"/>
	<circle style="fill:#333333;" cx="474.413" cy="248.652" r="8.943"/>
</g>
<g>
</g>
<g>
</g>
<g>
</g>
<g>
</g>
<g>
</g>
<g>
</g>
<g>
</g>
<g>
</g>
<g>
</g>
<g>
</g>
<g>
</g>
<g>
</g>
<g>
</g>
<g>
</g>
<g>
</g>
</svg>
