<?xml version="1.0" encoding="utf-8"?>
<!-- Generator: Adobe Illustrator 21.0.2, SVG Export Plug-In . SVG Version: 6.00 Build 0)  -->
<svg version="1.1" id="Layer_1" xmlns="http://www.w3.org/2000/svg" xmlns:xlink="http://www.w3.org/1999/xlink" x="0px" y="0px"
	 viewBox="0 0 150 31" style="enable-background:new 0 0 150 31;" xml:space="preserve">
<style type="text/css">
	.st0{opacity:0.6;}
	.st1{fill:none;stroke:#774111;stroke-width:11;stroke-miterlimit:10;}
	.st2{fill:#B47F44;}
	.st3{fill:none;stroke:#CCA687;stroke-width:3;stroke-miterlimit:10;}
	.st4{fill:#F7E490;stroke:#774111;stroke-width:4;stroke-miterlimit:10;}
	.st5{fill:none;stroke:#562802;stroke-width:0.9453;stroke-miterlimit:10;}
	.st6{fill:#774111;}
	.st7{fill:none;stroke:#562802;stroke-width:1.7491;stroke-miterlimit:10;}
	.st8{opacity:0.5;fill:none;stroke:#FCCDA9;stroke-width:1.8753;stroke-miterlimit:10;}
	.st9{fill:#42220A;}
	.st10{fill:#562802;}
	.st11{fill:#FCCDA9;}
	.st12{fill:none;stroke:#562802;stroke-miterlimit:10;}
	.st13{fill:none;stroke:#FCCDA9;stroke-width:4;stroke-miterlimit:10;}
</style>
<g id="XMLID_1_">
	<g id="XMLID_35_">
		<path id="XMLID_36_" class="st9" d="M74.5,22c-4.4-3.8-6.8-8.6-5.4-13.3c0.9-3,3.3-5.7,5.7-8.3c2.4,2.6,4.8,5.3,5.7,8.3
			c1.4,4.6-1.1,9.5-5.4,13.3H74.5z"/>
	</g>
	<g id="XMLID_33_">
		<circle id="XMLID_34_" class="st9" cx="74.8" cy="27" r="3"/>
	</g>
	<g id="XMLID_2_">
		<g id="XMLID_19_">
			<g id="XMLID_30_">
				<g id="XMLID_31_">
					<path id="XMLID_32_" class="st9" d="M104.9,19.2c4.6-2.4,5.3-8.6,3.5-10c-1.5-1.2-3.3,0-2.7,2.8
						C106.8,16.8,105.9,18,104.9,19.2z"/>
				</g>
			</g>
			<g id="XMLID_28_">
				<path id="XMLID_29_" class="st9" d="M79.2,29.3c0,0,0-0.3,0.1-0.8c0-0.3,0.1-0.6,0.1-0.9c0.1-0.4,0.2-0.8,0.3-1.2
					c0.1-0.5,0.3-1,0.5-1.5c0.2-0.6,0.5-1.1,0.7-1.7c0.6-1.2,1.3-2.6,2.3-3.9c1-1.3,2.2-2.7,3.7-3.9c1.5-1.2,3.2-2.3,5.2-3.2
					l0.7-0.3l0.8-0.3l0.8-0.3l0.8-0.2c1-0.3,2.2-0.5,3.4-0.5c1.2,0,2.5,0.2,3.6,1.1l0.2,0.2l0.2,0.2c0.1,0.1,0.2,0.2,0.4,0.4
					c0.2,0.3,0.4,0.5,0.6,0.8c0.3,0.6,0.5,1.2,0.6,1.9c0.2,1.3,0,2.6-0.5,3.7c-0.5,1.1-1.2,2.1-2.1,2.9c-0.4,0.4-0.8,0.8-1.3,1.1
					c-0.2,0.2-0.4,0.3-0.6,0.5c-0.2,0.2-0.4,0.3-0.7,0.5c-0.9,0.6-1.8,1.2-2.8,1.6c-1,0.5-1.9,0.8-2.9,1.1c-1,0.3-2.2,0.4-3.3,0
					c-0.3-0.1-0.5-0.2-0.8-0.4c-0.1-0.1-0.2-0.2-0.4-0.3c-0.1-0.1-0.2-0.1-0.3-0.3c-0.4-0.5-0.6-1-0.7-1.5c-0.2-1,0-2,0.4-2.9
					c0.4-0.8,1.1-1.4,1.7-1.9c0.6-0.5,1.2-0.8,1.8-1.2c1.2-0.7,2.2-1.1,3.2-1.4c0.9-0.3,1.7-0.4,2.2-0.4c0.5,0,0.8,0,0.8,0
					s-0.3,0-0.8,0.1c-0.5,0.1-1.2,0.3-2.1,0.6c-0.9,0.4-1.8,1-2.9,1.7c-1.1,0.7-2.3,1.6-2.9,2.9c-0.3,0.6-0.4,1.4-0.2,2.1
					c0.1,0.3,0.3,0.6,0.5,0.8c0,0,0.1,0.1,0.2,0.2c0,0,0.1,0.1,0.2,0.1c0.1,0.1,0.3,0.1,0.5,0.2c1.4,0.4,3.3-0.5,5-1.3
					c0.9-0.4,1.7-1,2.5-1.6c0.2-0.1,0.4-0.3,0.6-0.5c0.2-0.2,0.4-0.3,0.6-0.5c0.4-0.3,0.7-0.7,1.1-1c1.4-1.4,2.3-3.2,2-5
					c-0.1-0.4-0.2-0.8-0.4-1.2c-0.1-0.2-0.2-0.4-0.3-0.5c-0.1-0.1-0.1-0.1-0.2-0.2l-0.1-0.1l0,0l0,0c0,0,0.1,0,0,0l-0.1-0.1
					c-0.6-0.5-1.5-0.7-2.5-0.7c-0.9,0-1.9,0.1-2.9,0.4L94.9,13l-0.7,0.2l-0.7,0.2l-0.7,0.3c-1.8,0.7-3.5,1.7-4.9,2.7
					c-1.5,1.1-2.7,2.3-3.7,3.5c-1.1,1.2-1.9,2.4-2.5,3.5c-0.6,1.1-1.1,2.2-1.5,3c-0.2,0.4-0.3,0.8-0.4,1.2c-0.1,0.3-0.2,0.7-0.3,0.9
					C79.3,29,79.2,29.3,79.2,29.3z"/>
			</g>
			<g id="XMLID_26_">
				<path id="XMLID_27_" class="st9" d="M92,25.9c0,0,0.1,0,0.2,0c0.1,0,0.3-0.1,0.5-0.2c0.5-0.1,1.1-0.4,1.9-0.7
					c1.7-0.7,4-1.7,6.8-2.9c2.8-1.2,6.2-2.6,9.8-3.8c1.8-0.6,3.8-1.2,5.8-1.7c1-0.2,2-0.4,3.1-0.5c0.5-0.1,1.1-0.1,1.6-0.1
					c0.5,0,1.1,0,1.6,0c1.1,0.1,2.2,0.3,3.3,0.7c1.1,0.5,2.1,1.3,2.7,2.4c0.2,0.3,0.3,0.6,0.4,0.9c0,0.2,0.1,0.3,0.1,0.5l0,0.2
					l0,0.3c0.1,0.7,0,1.3-0.1,1.8c-0.3,1.2-1,2.2-1.7,2.9c-0.8,0.8-1.7,1.3-2.5,1.7c-0.9,0.4-1.7,0.8-2.6,1.1
					c-0.9,0.3-1.7,0.5-2.6,0.7c-0.9,0.2-1.8,0.2-2.6,0.1c-0.8-0.1-1.8-0.5-2.2-1.3c-0.1-0.2-0.2-0.4-0.3-0.6c0-0.2,0-0.2-0.1-0.3
					c0-0.1,0-0.2,0-0.3c0-0.4,0.1-0.8,0.3-1.1c0.3-0.7,0.8-1.1,1.3-1.4c0.5-0.3,1.1-0.4,1.5-0.4c0.9-0.1,1.6,0.1,2.1,0.1
					c0.5,0.1,0.7,0.1,0.7,0.1s-0.3,0-0.7,0c-0.5,0-1.2,0-2,0.2c-0.8,0.2-1.8,0.7-2.2,1.8c-0.2,0.5-0.1,1,0.2,1.4
					c0.3,0.4,0.9,0.6,1.5,0.7c0.7,0.1,1.4,0,2.1-0.2c0.8-0.2,1.6-0.5,2.3-0.8c1.5-0.7,3.2-1.4,4.4-2.6c0.6-0.6,1-1.3,1.2-2.1
					c0.1-0.4,0.1-0.8,0.1-1.1l0-0.1l0-0.2c0-0.1,0-0.2-0.1-0.2c-0.1-0.2-0.1-0.3-0.2-0.5c-0.4-0.6-1.1-1.2-1.8-1.5
					c-0.8-0.4-1.7-0.5-2.7-0.6c-0.5,0-1-0.1-1.5-0.1c-0.5,0-0.9,0-1.4,0.1c-1,0.1-1.9,0.2-2.9,0.4c-1.9,0.4-3.8,0.9-5.7,1.4
					c-1.8,0.5-3.6,1.1-5.3,1.6c-1.7,0.6-3.2,1.1-4.7,1.6c-2.9,1-5.4,1.8-7.1,2.2C93,25.8,92,25.9,92,25.9z"/>
			</g>
			<g id="XMLID_24_">
				<path id="XMLID_25_" class="st9" d="M101.9,26.2c0,0,0.3-0.2,0.8-0.6c0.2-0.2,0.5-0.4,0.9-0.6c0.4-0.2,0.8-0.5,1.2-0.7
					c0.9-0.5,2-1,3.2-1.5c0.6-0.2,1.2-0.5,1.9-0.7c0.6-0.2,1.3-0.4,2-0.6c0.7-0.2,1.3-0.3,2-0.5c0.7-0.2,1.3-0.3,2-0.4
					c1.3-0.2,2.5-0.3,3.5-0.3c0.5,0,1,0,1.4,0c0.4,0,0.8,0,1.1,0c0.6,0,0.9,0.1,0.9,0.1s-0.3,0.1-0.9,0.2c-0.6,0.1-1.4,0.3-2.4,0.5
					c-0.5,0.1-1,0.2-1.6,0.3c-0.6,0.1-1.2,0.3-1.8,0.4c-1.2,0.3-2.5,0.6-3.8,1c-0.6,0.2-1.3,0.4-1.9,0.6c-0.6,0.2-1.2,0.4-1.8,0.6
					c-0.6,0.2-1.2,0.4-1.7,0.6c-0.5,0.2-1.1,0.4-1.5,0.5c-1,0.3-1.8,0.6-2.3,0.8C102.3,26.1,101.9,26.2,101.9,26.2z"/>
			</g>
			<g id="XMLID_22_">
				<path id="XMLID_23_" class="st9" d="M125.5,26.7c0,0,0.1-0.1,0.3-0.2c0.2-0.1,0.5-0.3,0.9-0.6c0.4-0.2,0.9-0.5,1.5-0.7
					c0.6-0.2,1.3-0.4,2-0.5c1.5-0.2,3.4-0.1,5.3,0.6c0.9,0.3,1.9,0.8,2.7,1.4c0.8,0.6,1.5,1.1,2.3,1.3c0.7,0.3,1.6,0.4,2.4,0.3
					c0.8-0.1,1.6-0.3,2.3-0.7c0.6-0.4,1.3-0.9,1.8-1.4c0.5-0.6,0.8-1.2,1.1-1.8c0.2-0.6,0.4-1.2,0.3-1.8c0-0.5-0.3-0.9-0.6-1.1
					c-0.3-0.2-0.6-0.3-0.9-0.3c-0.2,0-0.3,0.1-0.3,0.1s0.1-0.1,0.3-0.2c0.2-0.1,0.6-0.1,1.1,0c0.5,0.2,0.9,0.7,1.1,1.3
					c0.2,0.7,0.2,1.4,0.1,2.2c-0.1,0.8-0.5,1.6-1,2.4c-0.5,0.8-1.2,1.5-2.1,2.1c-0.8,0.5-1.9,1-3,1.1c-1.1,0.1-2.2,0-3.3-0.4
					c-1.1-0.4-2-1.1-2.7-1.6c-0.8-0.6-1.4-1-2.2-1.4c-0.8-0.3-1.6-0.6-2.3-0.8c-0.8-0.2-1.5-0.2-2.2-0.3c-0.7,0-1.3,0-1.9,0.1
					c-0.6,0.1-1.1,0.2-1.5,0.3c-0.4,0.1-0.7,0.2-1,0.3C125.6,26.7,125.5,26.7,125.5,26.7z"/>
			</g>
			<g id="XMLID_20_">
				<circle id="XMLID_21_" class="st9" cx="140.1" cy="21.2" r="2.1"/>
			</g>
		</g>
		<g id="XMLID_3_">
			<g id="XMLID_17_">
				<circle id="XMLID_18_" class="st9" cx="74.8" cy="27.3" r="2.7"/>
			</g>
			<g id="XMLID_14_">
				<g id="XMLID_15_">
					<path id="XMLID_16_" class="st9" d="M44.6,19.2c-4.6-2.4-5.3-8.6-3.5-10c1.5-1.2,3.3,0,2.7,2.8C42.7,16.8,43.6,18,44.6,19.2z"
						/>
				</g>
			</g>
			<g id="XMLID_12_">
				<path id="XMLID_13_" class="st9" d="M70.3,29.3c0,0-0.1-0.3-0.2-0.8c-0.1-0.2-0.1-0.5-0.3-0.9c-0.1-0.3-0.3-0.7-0.4-1.2
					c-0.3-0.9-0.8-1.9-1.5-3c-0.7-1.1-1.5-2.3-2.5-3.5c-1-1.2-2.3-2.4-3.7-3.5c-1.5-1.1-3.1-2-4.9-2.7L56,13.5l-0.7-0.2L54.6,13
					l-0.7-0.2c-1-0.2-2-0.4-2.9-0.4c-0.9,0-1.8,0.2-2.5,0.7l-0.1,0.1c0,0,0,0,0,0l0,0l0,0l-0.1,0.1c-0.1,0.1-0.2,0.2-0.2,0.2
					c-0.1,0.1-0.2,0.3-0.3,0.5c-0.2,0.4-0.3,0.8-0.4,1.2c-0.3,1.8,0.6,3.6,2,5c0.3,0.4,0.7,0.7,1.1,1c0.2,0.2,0.4,0.3,0.6,0.5
					c0.2,0.2,0.4,0.3,0.6,0.5c0.8,0.6,1.6,1.1,2.5,1.6c1.7,0.8,3.6,1.7,5,1.3c0.2,0,0.3-0.1,0.5-0.2c0.1,0,0.2-0.1,0.2-0.1
					c0.1-0.1,0.2-0.2,0.2-0.2c0.2-0.2,0.4-0.5,0.5-0.8c0.2-0.7,0.1-1.4-0.2-2.1c-0.6-1.3-1.8-2.2-2.9-2.9c-1.1-0.7-2-1.3-2.9-1.7
					c-0.9-0.4-1.6-0.6-2.1-0.6c-0.5-0.1-0.8-0.1-0.8-0.1s0.3,0,0.8,0c0.5,0,1.3,0.1,2.2,0.4c0.9,0.3,2,0.8,3.2,1.4
					c0.6,0.3,1.2,0.7,1.8,1.2c0.6,0.5,1.2,1.1,1.7,1.9c0.4,0.8,0.6,1.8,0.4,2.9c-0.1,0.5-0.3,1-0.7,1.5c-0.1,0.1-0.2,0.2-0.3,0.3
					c-0.1,0.1-0.2,0.2-0.4,0.3c-0.2,0.2-0.5,0.3-0.8,0.4c-1.1,0.4-2.3,0.2-3.3,0c-1-0.3-2-0.7-2.9-1.1c-1-0.5-1.9-1-2.8-1.6
					c-0.2-0.2-0.4-0.3-0.7-0.5c-0.2-0.2-0.4-0.3-0.6-0.5c-0.4-0.4-0.9-0.7-1.3-1.1c-0.8-0.8-1.5-1.8-2.1-2.9
					c-0.5-1.1-0.7-2.5-0.5-3.7c0.1-0.6,0.3-1.3,0.6-1.9c0.2-0.3,0.3-0.6,0.6-0.8c0.1-0.1,0.3-0.3,0.4-0.4l0.2-0.2l0.2-0.2
					c1.1-0.8,2.4-1.1,3.6-1.1c1.2,0,2.3,0.2,3.4,0.5l0.8,0.2l0.8,0.3l0.8,0.3l0.7,0.3c1.9,0.8,3.7,2,5.2,3.2
					c1.5,1.2,2.7,2.6,3.7,3.9c1,1.3,1.7,2.7,2.3,3.9c0.3,0.6,0.5,1.2,0.7,1.7c0.2,0.6,0.4,1.1,0.5,1.5c0.1,0.5,0.2,0.9,0.3,1.2
					c0.1,0.4,0.1,0.7,0.1,0.9C70.3,29,70.3,29.3,70.3,29.3z"/>
			</g>
			<g id="XMLID_10_">
				<path id="XMLID_11_" class="st9" d="M57.5,25.9c0,0-1-0.1-2.8-0.6c-1.7-0.5-4.2-1.3-7.1-2.2c-1.5-0.5-3-1-4.7-1.6
					c-1.7-0.6-3.4-1.1-5.3-1.6c-1.8-0.5-3.7-1.1-5.7-1.4c-1-0.2-1.9-0.3-2.9-0.4c-0.5,0-1-0.1-1.4-0.1c-0.5,0-1,0-1.5,0.1
					c-1,0.1-1.8,0.2-2.7,0.6c-0.7,0.3-1.4,0.9-1.8,1.5c-0.1,0.2-0.2,0.3-0.2,0.5c0,0.1-0.1,0.2-0.1,0.2l0,0.2l0,0.1
					c0,0.3,0,0.7,0.1,1.1c0.2,0.8,0.6,1.5,1.2,2.1c1.1,1.2,2.8,2,4.4,2.6c0.8,0.3,1.6,0.6,2.3,0.8c0.7,0.2,1.5,0.3,2.1,0.2
					c0.7-0.1,1.2-0.3,1.5-0.7c0.3-0.4,0.4-0.9,0.2-1.4c-0.4-1-1.4-1.6-2.2-1.8c-0.8-0.2-1.6-0.2-2-0.2c-0.5,0-0.7,0-0.7,0
					s0.3,0,0.7-0.1c0.5-0.1,1.2-0.2,2.1-0.1c0.5,0.1,1,0.2,1.5,0.4c0.5,0.3,1,0.8,1.3,1.4c0.2,0.3,0.3,0.7,0.3,1.1
					c0,0.1,0,0.2,0,0.3c0,0.1,0,0.1-0.1,0.3c-0.1,0.2-0.2,0.4-0.3,0.6c-0.5,0.8-1.4,1.2-2.2,1.3c-0.9,0.1-1.7,0.1-2.6-0.1
					c-0.8-0.2-1.7-0.4-2.6-0.7c-0.9-0.3-1.7-0.6-2.6-1.1c-0.9-0.4-1.8-1-2.5-1.7c-0.8-0.8-1.5-1.8-1.7-2.9c-0.1-0.6-0.2-1.2-0.1-1.8
					l0-0.3l0-0.2c0-0.2,0.1-0.3,0.1-0.5c0.1-0.3,0.2-0.6,0.4-0.9c0.7-1.1,1.6-1.9,2.7-2.4c1.1-0.5,2.2-0.7,3.3-0.7
					c0.5,0,1.1,0,1.6,0c0.6,0,1.1,0,1.6,0.1c1.1,0.1,2.1,0.3,3.1,0.5c2,0.5,3.9,1,5.8,1.7c3.7,1.2,7,2.6,9.8,3.8
					c2.8,1.2,5.2,2.2,6.8,2.9c0.8,0.3,1.5,0.6,1.9,0.7c0.2,0.1,0.4,0.1,0.5,0.2C57.5,25.9,57.5,25.9,57.5,25.9z"/>
			</g>
			<g id="XMLID_8_">
				<path id="XMLID_9_" class="st9" d="M47.6,26.2c0,0-0.3-0.1-0.9-0.3c-0.6-0.2-1.4-0.5-2.3-0.8c-0.5-0.2-1-0.4-1.5-0.5
					c-0.5-0.2-1.1-0.4-1.7-0.6c-0.6-0.2-1.2-0.4-1.8-0.6c-0.6-0.2-1.3-0.4-1.9-0.6c-1.3-0.4-2.6-0.7-3.8-1c-0.6-0.1-1.2-0.3-1.8-0.4
					c-0.6-0.1-1.1-0.2-1.6-0.3c-1-0.2-1.8-0.4-2.4-0.5c-0.6-0.1-0.9-0.2-0.9-0.2s0.3,0,0.9-0.1c0.3,0,0.7,0,1.1,0c0.4,0,0.9,0,1.4,0
					c1,0,2.2,0.2,3.5,0.3c0.6,0.1,1.3,0.2,2,0.4c0.7,0.1,1.3,0.3,2,0.5c0.7,0.2,1.3,0.4,2,0.6c0.6,0.2,1.3,0.5,1.9,0.7
					c1.2,0.5,2.3,1,3.2,1.5c0.5,0.2,0.9,0.5,1.2,0.7c0.4,0.2,0.7,0.4,0.9,0.6C47.3,26,47.6,26.2,47.6,26.2z"/>
			</g>
			<g id="XMLID_6_">
				<path id="XMLID_7_" class="st9" d="M24,26.7c0,0-0.1,0-0.3-0.1c-0.2-0.1-0.5-0.2-1-0.3c-0.4-0.1-0.9-0.2-1.5-0.3
					c-0.6-0.1-1.2-0.1-1.9-0.1c-0.7,0-1.5,0.1-2.2,0.3c-0.8,0.2-1.6,0.4-2.3,0.8c-0.8,0.3-1.5,0.8-2.2,1.4c-0.8,0.6-1.6,1.2-2.7,1.6
					c-1.1,0.4-2.2,0.5-3.3,0.4c-1.1-0.1-2.2-0.5-3-1.1c-0.9-0.6-1.6-1.3-2.1-2.1c-0.5-0.8-0.8-1.6-1-2.4c-0.1-0.8-0.2-1.6,0.1-2.2
					c0.2-0.7,0.7-1.2,1.1-1.3c0.4-0.2,0.8-0.1,1.1,0C2.9,21.3,3,21.4,3,21.4s-0.1-0.1-0.3-0.1c-0.2,0-0.5,0.1-0.9,0.3
					c-0.3,0.2-0.5,0.6-0.6,1.1c0,0.5,0.1,1.1,0.3,1.8c0.2,0.6,0.6,1.3,1.1,1.8c0.5,0.6,1.1,1.1,1.8,1.4c0.7,0.4,1.5,0.6,2.3,0.7
					c0.8,0.1,1.7-0.1,2.4-0.3c0.8-0.3,1.5-0.8,2.3-1.3c0.8-0.6,1.8-1.1,2.7-1.4c1.9-0.7,3.8-0.8,5.3-0.6c0.8,0.1,1.5,0.3,2,0.5
					c0.6,0.2,1.1,0.4,1.5,0.7c0.4,0.2,0.7,0.4,0.9,0.6C23.9,26.6,24,26.7,24,26.7z"/>
			</g>
			<g id="XMLID_4_">
				<circle id="XMLID_5_" class="st9" cx="9.4" cy="21.2" r="2.1"/>
			</g>
		</g>
	</g>
</g>
</svg>
