<?xml version="1.0" encoding="iso-8859-1"?>
<!-- Generator: Adobe Illustrator 19.0.0, SVG Export Plug-In . SVG Version: 6.00 Build 0)  -->
<svg version="1.1" id="Layer_1" xmlns="http://www.w3.org/2000/svg" xmlns:xlink="http://www.w3.org/1999/xlink" x="0px" y="0px"
	 viewBox="0 0 511.999 511.999" style="enable-background:new 0 0 511.999 511.999;" xml:space="preserve">
<path style="fill:#F7B239;" d="M389.372,252.673v60.279c0,9.776-8.166,17.649-18.037,17.191c-9.259-0.435-16.38-8.413-16.38-17.672
	v-41.466l-43.076-7.52v222.49c0,4.747-1.927,9.048-5.041,12.173c-3.149,3.149-7.508,5.076-12.314,5.041
	c-9.518-0.082-17.061-8.131-17.061-17.649v-76.917c0-5.922-2.397-11.292-6.286-15.17c-3.936-3.948-9.412-6.357-15.452-6.286
	c-11.832,0.153-21.174,10.176-21.174,22.008v76.799c0,4.747-1.927,9.048-5.053,12.173c-2.891,2.879-6.78,4.735-11.092,5.006
	c-0.411,0.023-0.823,0.035-1.246,0.035c-9.506-0.094-17.038-8.143-17.038-17.661V263.483l-13.148,2.291l-29.916,5.229v41.948
	c0,9.776-8.166,17.649-18.037,17.191c-9.271-0.435-16.392-8.413-16.392-17.672v-59.797c0-9.177,6.85-16.92,15.969-18.025
	l0.423-0.047l17.285-2.103l30.257-3.69l24.44-2.973h0.059c-0.035,0.729-0.059,1.457-0.059,2.197
	c0,24.852,20.14,45.003,45.003,45.003c3.09,0,6.11-0.317,9.024-0.905c20.528-4.183,35.979-22.337,35.979-44.099
	c0-0.74-0.023-1.469-0.059-2.197h0.059l54.674,6.651l17.719,2.162C382.522,235.753,389.372,243.496,389.372,252.673z"/>
<g>
	<path style="fill:#E09B2D;" d="M139.023,234.601v95.541c-9.271-0.435-16.392-8.413-16.392-17.672v-59.797
		c0-9.177,6.85-16.92,15.969-18.025L139.023,234.601z"/>
	<path style="fill:#E09B2D;" d="M218.407,276.291v226.861c-0.411,0.023-0.823,0.035-1.246,0.035
		c-9.506-0.094-17.038-8.143-17.038-17.661V276.291H218.407z"/>
</g>
<polygon style="fill:#F95428;" points="383.991,35.788 383.991,64.094 355.708,64.094 272.458,64.094 272.458,91.061 
	256.008,91.061 239.557,91.061 239.557,64.094 156.295,64.094 128.013,64.094 128.013,35.788 239.557,35.788 239.557,8.809 
	272.458,8.809 272.458,35.788 "/>
<path style="fill:#F7B239;" d="M256.008,183.029c24.111,0,43.805,18.977,44.945,42.806c0.035,0.729,0.059,1.457,0.059,2.197
	c0,24.852-20.152,45.003-45.003,45.003c-24.863,0-45.003-20.152-45.003-45.003c0-0.74,0.024-1.469,0.059-2.197
	C212.203,202.006,231.884,183.029,256.008,183.029z"/>
<g>
	<path style="fill:#E09B2D;" d="M241.555,228.033c0-0.74,0.023-1.469,0.059-2.197c0.886-18.53,12.986-34.121,29.667-40.141
		c-4.769-1.721-9.911-2.665-15.273-2.665c-24.123,0-43.805,18.977-44.945,42.806c-0.035,0.729-0.059,1.457-0.059,2.197
		c0,24.852,20.14,45.003,45.003,45.003c5.362,0,10.504-0.942,15.273-2.664C253.943,264.116,241.555,247.523,241.555,228.033z"/>
	<path style="fill:#E09B2D;" d="M265.032,272.131c-8.108,11.891-21.75,19.705-37.225,19.705c-10.446,0-20.058-3.56-27.683-9.518
		v-18.836l-13.148,2.291c-2.679-5.758-4.171-12.173-4.171-18.941c0-0.74,0.023-1.469,0.059-2.197
		c0.27-5.605,1.563-10.951,3.701-15.828l24.44-2.973h0.059c-0.035,0.729-0.059,1.457-0.059,2.197
		c0,24.852,20.14,45.003,45.003,45.003C259.098,273.036,262.118,272.719,265.032,272.131z"/>
</g>
<g>
	<path style="fill:#FFFFFF;" d="M285.383,375.58c-4.868,0-8.813-3.946-8.813-8.813v-41.713c0-4.867,3.945-8.813,8.813-8.813
		c4.868,0,8.813,3.946,8.813,8.813v41.713C294.196,371.634,290.25,375.58,285.383,375.58z"/>
	<circle style="fill:#FFFFFF;" cx="278.331" cy="221.068" r="8.813"/>
	<circle style="fill:#FFFFFF;" cx="285.381" cy="298.62" r="8.813"/>
</g>
<path style="fill:#333333;" d="M374.474,225.9l-9.955-1.211V72.901h19.474c4.868,0,8.813-3.946,8.813-8.813v-28.3
	c0-4.867-3.945-8.813-8.813-8.813H281.266V8.813c0-4.867-3.945-8.813-8.813-8.813h-32.901c-4.868,0-8.813,3.946-8.813,8.813v18.162
	H128.011c-4.868,0-8.813,3.946-8.813,8.813v28.3c0,4.867,3.945,8.813,8.813,8.813h19.475v151.788l-9.955,1.211
	c-13.517,1.645-23.711,13.153-23.711,26.77v59.8c0,14.199,10.888,25.828,24.782,26.474c7.166,0.344,14.005-2.208,19.202-7.168
	c5.121-4.887,8.058-11.749,8.058-18.824v-34.541l25.451-4.449V485.53c0,14.449,11.552,26.323,25.752,26.467
	c0.09,0.001,0.181,0.001,0.271,0.001c6.947,0,13.469-2.703,18.391-7.625c4.919-4.916,7.626-11.449,7.626-18.397v-76.805
	c0-7.188,5.599-13.106,12.481-13.192c3.455-0.019,6.681,1.271,9.109,3.699c2.385,2.385,3.699,5.561,3.699,8.944v76.913
	c0,14.472,11.575,26.342,25.801,26.46c0.075,0.001,0.149,0.001,0.224,0.001c6.961,0,13.488-2.707,18.391-7.626
	c4.917-4.917,7.625-11.451,7.625-18.396V273.967l25.45,4.449v34.057c0,14.199,10.887,25.828,24.781,26.474
	c7.181,0.343,14.006-2.209,19.203-7.168c5.121-4.888,8.058-11.749,8.058-18.824v-60.284
	C398.184,239.054,387.991,227.545,374.474,225.9z M346.894,222.544l-38.044-4.631c-4.205-22.005-21.847-39.289-44.034-42.961V99.877
	h7.638c4.868,0,8.813-3.946,8.813-8.813V72.901h65.628v149.644H346.894z M256.004,228.821c4.868,0,8.813-3.946,8.813-8.813v-27.075
	c15.709,3.946,27.377,18.183,27.377,35.099c0,19.954-16.234,36.189-36.189,36.189c-19.955,0-36.189-16.234-36.189-36.189
	c0-16.916,11.668-31.153,27.377-35.099v27.075C247.191,224.875,251.136,228.821,256.004,228.821z M136.825,44.6h102.729
	c4.868,0,8.813-3.946,8.813-8.813V17.625h15.275v18.162c0,4.867,3.945,8.813,8.813,8.813h102.727v10.675H272.454
	c-4.868,0-8.813,3.946-8.813,8.813v18.163h-15.275V64.088c0-4.867-3.945-8.813-8.813-8.813H136.825L136.825,44.6L136.825,44.6z
	 M165.113,72.901h65.628v18.163c0,4.867,3.945,8.813,8.813,8.813h7.638v75.076c-22.188,3.672-39.829,20.956-44.034,42.961
	l-38.044,4.631V72.901H165.113z M380.559,312.955c0,2.315-0.924,4.471-2.602,6.071c-1.678,1.6-3.891,2.419-6.214,2.312
	c-4.399-0.204-7.977-4.183-7.977-8.868v-41.463c0-4.282-3.077-7.944-7.296-8.681l-43.075-7.528
	c-2.562-0.447-5.195,0.261-7.186,1.934c-1.992,1.673-3.143,4.144-3.143,6.747v222.497c0,2.237-0.874,4.344-2.473,5.943
	c-1.593,1.6-3.718,2.435-5.996,2.452c-4.588-0.039-8.323-4.002-8.323-8.836v-76.911c0-8.091-3.148-15.694-8.863-21.408
	c-5.816-5.815-13.517-8.978-21.791-8.86c-16.479,0.206-29.887,14.029-29.887,30.816v76.805c0,2.238-0.874,4.345-2.464,5.934
	c-1.591,1.591-3.695,2.463-5.935,2.463c-0.028,0-0.058,0-0.087,0c-4.579-0.047-8.305-4.014-8.305-8.843V263.48
	c0-2.603-1.15-5.073-3.143-6.747c-1.992-1.674-4.624-2.379-7.186-1.934l-43.076,7.528c-4.218,0.737-7.296,4.399-7.296,8.681v41.946
	c0,2.315-0.924,4.471-2.603,6.073c-1.677,1.599-3.86,2.421-6.212,2.312c-4.398-0.204-7.977-4.183-7.977-8.868v-59.8
	c0-4.718,3.532-8.705,8.215-9.274l63.083-7.679c3.741,26.046,26.192,46.13,53.257,46.13c27.064,0,49.515-20.085,53.257-46.13
	l63.083,7.679c4.682,0.57,8.213,4.557,8.213,9.274v60.284H380.559z"/>
<g>
</g>
<g>
</g>
<g>
</g>
<g>
</g>
<g>
</g>
<g>
</g>
<g>
</g>
<g>
</g>
<g>
</g>
<g>
</g>
<g>
</g>
<g>
</g>
<g>
</g>
<g>
</g>
<g>
</g>
</svg>
