<?xml version="1.0" encoding="iso-8859-1"?>
<!-- Generator: Adobe Illustrator 19.0.0, SVG Export Plug-In . SVG Version: 6.00 Build 0)  -->
<svg version="1.1" id="Layer_1" xmlns="http://www.w3.org/2000/svg" xmlns:xlink="http://www.w3.org/1999/xlink" x="0px" y="0px"
	 viewBox="0 0 512 512" style="enable-background:new 0 0 512 512;" xml:space="preserve">
<path style="fill:#F7B239;" d="M502.958,359.327c-44.096,0-79.845,54.939-79.845,122.711h-44.687v-37.161H133.582v37.161H88.883
	c0-67.772-35.737-122.711-79.833-122.711c72.898,0,134.133-76.758,151.345-180.557c3.172-19.033,4.849-38.97,4.849-59.51
	l-0.109-1.158c14.654-1.387,29.007-6.646,41.467-15.776c14.703,10.771,32.047,16.162,49.391,16.162s34.676-5.391,49.379-16.15h0.012
	c12.471,9.13,26.836,14.389,41.479,15.776l-0.096,1.146c0,20.54,1.677,40.478,4.849,59.51
	C368.825,282.569,430.06,359.327,502.958,359.327z"/>
<rect x="133.578" y="444.879" style="fill:#B27214;" width="244.843" height="37.161"/>
<g>
	<path style="fill:#F95428;" d="M47.73,482.038H9.05V359.327c44.096,0,79.833,54.939,79.833,122.711H47.73z"/>
	<path style="fill:#F95428;" d="M464.265,482.038h-41.153c0-67.772,35.75-122.711,79.845-122.711v122.711H464.265z"/>
	<path style="fill:#F95428;" d="M502.958,102.326v257.001c-79.037,0-144.361-90.218-154.746-207.321
		c-0.953-10.698-1.447-21.638-1.447-32.746l0.096-1.146c19.913,1.882,40.357-3.377,57.291-15.776l0.012-0.012l0.012,0.012
		c29.405,21.541,69.364,21.541,98.758,0L502.958,102.326z"/>
	<path style="fill:#F95428;" d="M165.243,119.26c0,11.096-0.495,22.024-1.447,32.722C153.423,269.097,88.087,359.327,9.05,359.327
		V102.338c29.405,21.529,69.364,21.529,98.77,0l0.012-0.012c14.703,10.771,32.035,16.162,49.379,16.162
		c2.641,0,5.295-0.121,7.924-0.386L165.243,119.26z"/>
	<path style="fill:#F95428;" d="M404.164,102.326l-0.012,0.012c-16.934,12.399-37.378,17.658-57.291,15.776
		c-14.642-1.387-29.007-6.646-41.479-15.776h-0.012c-14.703,10.759-32.035,16.15-49.379,16.15s-34.688-5.391-49.391-16.162
		c-12.459,9.13-26.812,14.389-41.467,15.776c-2.629,0.265-5.283,0.386-7.924,0.386c-17.344,0-34.676-5.391-49.379-16.162
		l-0.012,0.012c-29.405,21.529-69.364,21.529-98.77,0v-0.012V29.97h493.908v72.355l-0.024,0.012
		c-29.393,21.541-69.352,21.541-98.758,0L404.164,102.326z"/>
</g>
<path style="fill:#E09B2D;" d="M351.613,178.77c-1.58-0.048-3.172-0.145-4.752-0.302c-14.642-1.387-29.007-6.646-41.479-15.776
	h-0.012c-14.703,10.759-32.035,16.15-49.379,16.15s-34.688-5.391-49.391-16.162c-12.459,9.13-26.812,14.389-41.467,15.776
	c-1.568,0.157-3.16,0.265-4.74,0.314c3.172-19.033,4.849-38.97,4.849-59.51l-0.109-1.158c14.654-1.387,29.007-6.646,41.467-15.776
	c14.703,10.771,32.047,16.162,49.391,16.162s34.676-5.391,49.379-16.15h0.012c12.471,9.13,26.836,14.389,41.479,15.776l-0.096,1.146
	C346.765,139.8,348.441,159.737,351.613,178.77z"/>
<g>
	<path style="fill:#E54728;" d="M165.134,118.102l0.109,1.158c0,11.096-0.495,22.024-1.447,32.722
		c-2.183,0.193-4.39,0.277-6.585,0.277c-17.344,0-34.676-5.391-49.379-16.162l-0.012,0.012c-29.405,21.529-69.364,21.529-98.77,0
		v-33.771c29.405,21.529,69.364,21.529,98.77,0l0.012-0.012c14.703,10.771,32.035,16.162,49.379,16.162
		C159.851,118.488,162.505,118.367,165.134,118.102z"/>
	<path style="fill:#E54728;" d="M502.958,102.326v33.771l-0.024,0.012c-29.393,21.541-69.352,21.541-98.758,0l-0.012-0.012
		l-0.012,0.012c-16.548,12.122-36.449,17.416-55.94,15.897c-0.953-10.698-1.447-21.638-1.447-32.746l0.096-1.146
		c19.913,1.882,40.357-3.377,57.291-15.776l0.012-0.012l0.012,0.012c29.405,21.541,69.364,21.541,98.758,0L502.958,102.326z"/>
</g>
<g>
	<path style="fill:#FFFFFF;" d="M476.724,284.668c-4.996,0-9.046-4.05-9.046-9.046v-74.177c0-4.996,4.05-9.046,9.046-9.046
		c4.996,0,9.046,4.05,9.046,9.046v74.177C485.77,280.618,481.721,284.668,476.724,284.668z"/>
	<path style="fill:#FFFFFF;" d="M476.724,92.894c-4.996,0-9.046-4.05-9.046-9.046V56.107c0-4.996,4.05-9.046,9.046-9.046
		c4.996,0,9.046,4.05,9.046,9.046v27.741C485.77,88.844,481.721,92.894,476.724,92.894z"/>
	<path style="fill:#FFFFFF;" d="M374.204,92.894c-4.996,0-9.046-4.05-9.046-9.046V61.535c0-4.996,4.05-9.046,9.046-9.046
		s9.046,4.05,9.046,9.046v22.313C383.25,88.844,379.201,92.894,374.204,92.894z"/>
	<path style="fill:#FFFFFF;" d="M277.714,92.894c-4.996,0-9.046-4.05-9.046-9.046v-15.68c0-4.996,4.05-9.046,9.046-9.046
		c4.996,0,9.046,4.05,9.046,9.046v15.68C286.76,88.844,282.711,92.894,277.714,92.894z"/>
	<path style="fill:#FFFFFF;" d="M181.224,92.894c-4.996,0-9.046-4.05-9.046-9.046V60.932c0-4.996,4.05-9.046,9.046-9.046
		s9.046,4.05,9.046,9.046v22.916C190.27,88.844,186.221,92.894,181.224,92.894z"/>
	<path style="fill:#FFFFFF;" d="M79.909,92.894c-4.996,0-9.046-4.05-9.046-9.046V56.107c0-4.996,4.05-9.046,9.046-9.046
		s9.046,4.05,9.046,9.046v27.741C88.955,88.844,84.906,92.894,79.909,92.894z"/>
	<circle style="fill:#FFFFFF;" cx="476.721" cy="170.69" r="9.046"/>
</g>
<path style="fill:#333333;" d="M502.954,20.921H9.046C4.05,20.921,0,24.971,0,29.967v452.066c0,4.996,4.05,9.046,9.046,9.046
	h493.908c4.996,0,9.046-4.05,9.046-9.046V29.967C512,24.971,507.95,20.921,502.954,20.921z M378.422,435.828H133.578
	c-4.996,0-9.046,4.05-9.046,9.046v28.114H97.705c-1.404-31.12-10.005-60.194-24.619-82.657c-7.8-11.988-16.88-21.476-26.817-28.203
	c30.533-10.447,58.419-33.773,80.807-68.183c29.402-45.189,46.043-104.595,47.149-167.928c11.287-2.123,22.278-6.365,32.375-12.75
	c15.139,9.574,32.278,14.357,49.415,14.355s34.268-4.786,49.37-14.353c10.104,6.39,21.104,10.633,32.397,12.756
	c1.107,63.328,17.748,122.732,47.149,167.918c22.389,34.411,50.274,57.737,80.807,68.183c-9.938,6.727-19.018,16.215-26.817,28.203
	c-14.615,22.463-23.215,51.537-24.619,82.657h-26.832v-28.114C387.468,439.878,383.417,435.828,378.422,435.828z M18.092,118.295
	c18.077,8.797,38.255,11.37,57.557,7.696c-0.674,76.334-12.78,146.573-32.68,188.92c-2.124,4.522-0.181,9.91,4.34,12.035
	c1.244,0.584,2.552,0.861,3.842,0.861c3.396,0,6.653-1.923,8.193-5.201c21.445-45.635,34.288-121.094,34.423-202.056
	c4.828-2.005,9.536-4.423,14.059-7.283c14.796,9.356,31.509,14.123,48.262,14.328c-1.336,59.255-16.898,114.552-44.179,156.483
	c-25.593,39.335-58.619,62.386-93.816,65.765V118.295z M400.091,284.077c-27.28-41.929-42.842-97.223-44.179-156.475
	c16.757-0.206,33.466-4.976,48.25-14.332c4.528,2.863,9.239,5.283,14.072,7.29c0.136,80.959,12.979,156.414,34.423,202.048
	c1.54,3.278,4.797,5.201,8.193,5.201c1.288,0,2.598-0.276,3.841-0.861c4.522-2.125,6.464-7.513,4.34-12.035
	c-19.9-42.346-32.006-112.583-32.68-188.915c19.292,3.668,39.464,1.093,57.556-7.71v231.557
	C458.712,346.464,425.685,323.413,400.091,284.077z M493.908,39.013v58.547c-24.653,15.927-56.088,15.92-80.713-0.005V54.089
	c0-4.996-4.05-9.046-9.046-9.046s-9.046,4.05-9.046,9.046v43.476c-24.644,15.912-56.056,15.906-80.689-0.012v-28.99
	c0-4.996-4.05-9.046-9.046-9.046c-4.996,0-9.046,4.05-9.046,9.046v29c-24.66,15.922-56.094,15.908-80.679,0.001V68.563
	c0-4.996-4.05-9.046-9.046-9.046s-9.046,4.05-9.046,9.046v28.996c-24.641,15.912-56.049,15.911-80.689-0.005V54.089
	c0-4.996-4.05-9.046-9.046-9.046s-9.046,4.05-9.046,9.046v43.475c-24.615,15.891-55.982,15.903-80.68-0.012V39.013H493.908z
	 M56.67,472.986c-0.566-25.558-3.521-49.545-8.647-69.838c-1.224-4.844-6.145-7.781-10.985-6.555
	c-4.844,1.223-7.778,6.142-6.555,10.985c4.699,18.6,7.517,41.541,8.088,65.407H18.092V369.309
	c14.82,3.105,28.711,13.8,39.827,30.886c12.754,19.602,20.338,45.175,21.699,72.79H56.67V472.986z M142.624,472.986v-19.068h226.751
	v19.068H142.624z M473.428,472.986c0.573-23.864,3.39-46.806,8.089-65.407c1.224-4.844-1.71-9.762-6.555-10.985
	c-4.847-1.225-9.762,1.711-10.985,6.555c-5.126,20.293-8.082,44.28-8.647,69.838h-22.948c1.361-27.615,8.946-53.188,21.699-72.79
	c11.117-17.087,25.007-27.782,39.827-30.886v103.676h-20.481V472.986z"/>
<g>
</g>
<g>
</g>
<g>
</g>
<g>
</g>
<g>
</g>
<g>
</g>
<g>
</g>
<g>
</g>
<g>
</g>
<g>
</g>
<g>
</g>
<g>
</g>
<g>
</g>
<g>
</g>
<g>
</g>
</svg>
