<?xml version="1.0" encoding="iso-8859-1"?>
<!-- Generator: Adobe Illustrator 19.0.0, SVG Export Plug-In . SVG Version: 6.00 Build 0)  -->
<svg version="1.1" id="Layer_1" xmlns="http://www.w3.org/2000/svg" xmlns:xlink="http://www.w3.org/1999/xlink" x="0px" y="0px"
	 viewBox="0 0 512 512" style="enable-background:new 0 0 512 512;" xml:space="preserve">
<path style="fill:#999999;" d="M466.66,45.354c46.992,46.992,46.992,123.21,0,170.202L296.457,45.354
	C343.463-1.652,419.654-1.652,466.66,45.354z"/>
<path style="fill:#808080;" d="M325.208,129.031c0-54.716,37.868-100.826,89.509-114.916c-10.567-2.883-21.711-4.429-33.227-4.429
	c-67.785,0-122.736,53.433-122.736,119.345s54.95,119.345,122.736,119.345c11.515,0,22.659-1.546,33.227-4.429
	C363.076,229.857,325.208,183.746,325.208,129.031z"/>
<polygon style="fill:#F7B239;" points="264.058,156.602 355.384,247.942 101.124,473.965 99.483,472.121 39.892,412.516 
	38.048,410.875 "/>
<path style="fill:#666666;" d="M271.774,81.076l159.149,159.163c-23.815,10.714-50.396,13.291-75.54,7.703l-91.326-91.34
	C258.497,131.458,261.06,104.891,271.774,81.076z"/>
<path style="fill:#4D4D4D;" d="M325.208,129.031c0-0.671,0.031-1.334,0.043-2.003c-16.499-19.581-35.094-41.608-49.519-58.581
	c-10.783,17.759-16.977,38.466-16.977,60.583c0,65.912,54.95,119.345,122.736,119.345c11.515,0,22.659-1.546,33.227-4.429
	C363.076,229.857,325.208,183.746,325.208,129.031z"/>
<polygon style="fill:#F95428;" points="99.483,472.121 101.124,473.965 69.783,501.822 10.178,442.217 38.048,410.875 
	39.892,412.516 "/>
<path style="fill:#CCCCCC;" d="M271.774,81.076l-5.805-5.805c-8.341-8.341-8.341-21.862,0-30.202
	c4.177-4.164,9.629-6.252,15.108-6.252c5.452,0,10.931,2.089,15.094,6.252l0.271,0.285h0.014L466.66,215.556l0.271,0.271
	c8.341,8.341,8.341,21.862,0,30.202c-4.177,4.164-9.629,6.252-15.108,6.252c-5.452,0-10.931-2.089-15.094-6.252l-5.805-5.791
	L271.774,81.076z"/>
<g>
	<polygon style="fill:#B3B3B3;" points="325.613,74.508 325.328,74.223 325.599,74.508 	"/>
	<path style="fill:#B3B3B3;" d="M300.93,110.23l-5.805-5.805c-8.341-8.341-8.341-21.862,0-30.202
		c4.177-4.164,9.629-6.252,15.108-6.252c5.452,0,10.931,2.089,15.094,6.252l-28.869-28.869h-0.014l-0.271-0.285
		c-4.164-4.164-9.643-6.252-15.094-6.252c-5.479,0-10.931,2.089-15.108,6.252c-8.341,8.341-8.341,21.862,0,30.202l5.805,5.805
		L300.93,110.23z"/>
</g>
<path style="fill:#FFFFFF;" d="M459.856,177.357c-1.448,0-2.919-0.311-4.318-0.967c-5.084-2.388-7.271-8.446-4.884-13.531
	c4.759-10.132,7.172-21.035,7.172-32.405c0-20.378-7.932-39.532-22.334-53.934c-1.084-1.084-3.024-2.782-5.467-4.783
	c-4.344-3.56-4.979-9.969-1.419-14.315c3.56-4.345,9.968-4.981,14.316-1.419c3.027,2.482,5.368,4.545,6.955,6.131
	c18.243,18.244,28.292,42.507,28.292,68.318c0,14.382-3.062,28.194-9.1,41.053C467.338,175.194,463.677,177.357,459.856,177.357z"/>
<path style="fill:#E09B2D;" d="M330.346,222.896l-3.909,3.818l-62.38-70.111l-14.389,16.189c0,0,4.581,6.321,10.374,16.676
	c21.797,38.961,14.73,87.712-17.206,118.906L87.386,460.213l12.097,11.907l1.641,1.844l254.259-226.023L330.346,222.896z"/>
<circle style="fill:#FFFFFF;" cx="406.94" cy="47.833" r="10.171"/>
<path style="fill:#333333;" d="M473.847,38.155c-48.82-48.819-126.99-50.779-178.204-5.935c-11.88-6.183-26.903-4.3-36.867,5.661
	c-12.291,12.291-12.291,32.292,0,44.584l1.006,1.006c-8.53,22.185-10.888,46.669-6.687,70.156L2.57,435.456
	c-3.579,4.025-3.399,10.142,0.41,13.95l59.613,59.613c1.981,1.98,4.585,2.98,7.195,2.98c2.409,0,4.825-0.852,6.757-2.57
	l281.821-250.531c7.616,1.367,15.339,2.057,23.059,2.057c16.072,0,32.126-2.94,47.13-8.712l0.982,0.982
	c5.955,5.955,13.871,9.234,22.293,9.234c8.421,0,16.337-3.279,22.29-9.233c5.956-5.955,9.236-13.871,9.236-22.293
	c0-5.163-1.244-10.129-3.571-14.578C524.623,165.142,522.666,86.974,473.847,38.155z M459.461,52.54
	c20.811,20.811,32.272,48.481,32.272,77.913c0,26.015-8.967,50.643-25.416,70.384L311.165,45.685
	c19.741-16.449,44.369-25.416,70.382-25.416C410.981,20.268,438.651,31.729,459.461,52.54z M70.195,487.851l-46.05-46.048
	l14.422-16.224l47.851,47.851L70.195,487.851z M101.649,459.891l-49.542-49.542l212.387-238.926l76.07,76.08L101.649,459.891z
	 M360.404,238.575l-86.978-86.99c-3.35-17.282-2.486-35.256,2.398-52.074L412.5,236.185
	C395.66,241.078,377.68,241.939,360.404,238.575z M459.735,238.84c-2.112,2.112-4.919,3.275-7.905,3.275
	c-2.988,0-5.795-1.164-7.907-3.275L273.162,68.079c-4.36-4.36-4.36-11.454-0.001-15.815c2.181-2.181,5.045-3.27,7.908-3.27
	s5.729,1.09,7.907,3.27l170.761,170.763c2.112,2.112,3.275,4.919,3.275,7.907C463.011,233.92,461.848,236.728,459.735,238.84z"/>
<g>
</g>
<g>
</g>
<g>
</g>
<g>
</g>
<g>
</g>
<g>
</g>
<g>
</g>
<g>
</g>
<g>
</g>
<g>
</g>
<g>
</g>
<g>
</g>
<g>
</g>
<g>
</g>
<g>
</g>
</svg>
