<?xml version="1.0" encoding="iso-8859-1"?>
<!-- Generator: Adobe Illustrator 19.0.0, SVG Export Plug-In . SVG Version: 6.00 Build 0)  -->
<svg version="1.1" id="Layer_1" xmlns="http://www.w3.org/2000/svg" xmlns:xlink="http://www.w3.org/1999/xlink" x="0px" y="0px"
	 viewBox="0 0 512 512" style="enable-background:new 0 0 512 512;" xml:space="preserve">
<path style="fill:#F7B239;" d="M456.673,199.952c-19.884-71.412-76.868-127.356-148.884-145.777
	c-16.547-4.236-33.903-6.496-51.784-6.496c-58.318,0-111.053,23.967-148.871,62.58c-36.778,37.574-59.448,89.012-59.448,145.738
	c0,19.525,2.683,38.421,7.715,56.342c19.974,71.297,76.945,127.138,148.909,145.507c16.534,4.223,33.851,6.47,51.695,6.47
	c58.421,0,111.22-24.057,149.05-62.786c36.662-37.561,59.256-88.909,59.256-145.533
	C464.311,236.576,461.653,217.782,456.673,199.952z M256.005,9.63c136.059,0,246.368,110.296,246.368,246.368
	S392.064,502.366,256.004,502.366c-136.072,0-246.381-110.296-246.381-246.368S119.932,9.63,256.005,9.63z"/>
<g>
	<path style="fill:#B3B3B3;" d="M307.789,54.175v0.013L223.63,199.952h0.013l-32.362,56.046L107.134,110.26
		c37.818-38.614,90.552-62.58,148.871-62.58C273.886,47.679,291.242,49.939,307.789,54.175z"/>
	<path style="fill:#B3B3B3;" d="M191.28,255.998l32.362,56.059H56.428l-1.027,0.282c-5.032-17.92-7.715-36.817-7.715-56.342
		c0-56.727,22.67-108.165,59.448-145.738L191.28,255.998z"/>
	<path style="fill:#B3B3B3;" d="M288.367,312.057l-83.954,145.405l-0.103,0.385c-71.964-18.37-128.935-74.211-148.909-145.507
		l1.027-0.282h167.215h41.528L288.367,312.057L288.367,312.057z"/>
	<path style="fill:#B3B3B3;" d="M403.296,399.028l1.759,2.503c-37.831,38.729-90.629,62.786-149.05,62.786
		c-17.843,0-35.161-2.246-51.695-6.47l0.103-0.385l83.954-145.405l32.362-56.059L403.296,399.028z"/>
	<path style="fill:#B3B3B3;" d="M456.673,199.952c4.981,17.831,7.638,36.624,7.638,56.046c0,56.624-22.593,107.972-59.256,145.533
		l-1.759-2.503l-82.568-143.03l-32.362-56.046L456.673,199.952L456.673,199.952z"/>
	<path style="fill:#B3B3B3;" d="M456.673,199.952H288.367h-30.899h-33.826h-0.013l84.159-145.764v-0.013
		C379.805,72.596,436.788,128.539,456.673,199.952z"/>
</g>
<polygon style="fill:#4D4D4D;" points="288.367,199.952 320.729,255.998 288.367,312.057 265.17,312.057 223.642,312.057 
	191.28,255.998 223.642,199.952 257.468,199.952 "/>
<g>
	<path style="fill:#FFFFFF;" d="M408.007,354.874c-1.66,0-3.343-0.429-4.877-1.332c-4.582-2.698-6.109-8.6-3.411-13.182
		c14.962-25.407,22.87-54.579,22.87-84.361c0-7.606-0.517-15.258-1.539-22.743c-0.719-5.268,2.969-10.122,8.238-10.841
		c5.273-0.719,10.122,2.97,10.841,8.237c1.139,8.344,1.715,16.873,1.715,25.345c0,33.216-8.829,65.765-25.533,94.131
		C414.517,353.178,411.305,354.874,408.007,354.874z"/>
	<path style="fill:#FFFFFF;" d="M407.538,175.594c-3.284,0-6.483-1.679-8.284-4.706c-13.489-22.668-32.438-42.067-54.795-56.1
		c-4.503-2.827-5.863-8.77-3.036-13.273c2.827-4.503,8.769-5.864,13.273-3.036c24.931,15.648,46.062,37.283,61.105,62.562
		c2.719,4.57,1.22,10.478-3.35,13.198C410.909,175.156,409.212,175.594,407.538,175.594z"/>
	<path style="fill:#FFFFFF;" d="M187.66,103.071c-3.76,0-7.331-2.216-8.879-5.9c-2.06-4.901,0.243-10.546,5.145-12.606
		c22.761-9.569,47.013-14.42,72.078-14.42c5.317,0,9.628,4.311,9.628,9.628s-4.311,9.628-9.628,9.628
		c-22.489,0-44.23,4.345-64.618,12.917C190.169,102.828,188.904,103.071,187.66,103.071z"/>
	<circle style="fill:#FFFFFF;" cx="322.722" cy="92.837" r="9.628"/>
</g>
<g>
	<path style="fill:#333333;" d="M256.001,38.057c-120.175,0-217.943,97.769-217.943,217.943s97.769,217.943,217.943,217.943
		s217.943-97.769,217.943-217.943S376.174,38.057,256.001,38.057z M443.516,190.319H240.311l72.08-124.842
		C373.552,83.61,422.485,130.45,443.516,190.319z M282.804,302.426h-53.607l-26.804-46.426l26.804-46.426h53.607l26.804,46.426
		L282.804,302.426z M292.881,60.759L191.275,236.745l-72.026-124.751c35.648-33.869,83.814-54.682,136.75-54.682
		C268.6,57.312,280.926,58.505,292.881,60.759z M105.41,126.532l101.552,175.894H62.802c-3.58-14.9-5.49-30.443-5.49-46.426
		C57.312,206.586,75.449,161.332,105.41,126.532z M68.484,321.681h203.203L199.61,446.524
		C138.448,428.389,89.515,381.55,68.484,321.681z M219.12,451.241l101.606-175.986l72.026,124.751
		c-35.648,33.869-83.813,54.682-136.75,54.682C243.4,454.688,231.075,453.494,219.12,451.241z M406.59,385.467L305.038,209.573
		h144.16c3.58,14.9,5.49,30.443,5.49,46.426C454.688,305.414,436.551,350.668,406.59,385.467z"/>
	<path style="fill:#333333;" d="M256.001,0C114.841,0,0,114.841,0,255.999C0,397.159,114.841,512,256.001,512
		C397.159,512,512,397.159,512,255.999C512,114.841,397.159,0,256.001,0z M256.001,492.745
		c-130.542,0-236.745-106.203-236.745-236.745S125.459,19.256,256.001,19.256c130.541,0,236.744,106.203,236.744,236.744
		S386.541,492.745,256.001,492.745z"/>
</g>
<g>
</g>
<g>
</g>
<g>
</g>
<g>
</g>
<g>
</g>
<g>
</g>
<g>
</g>
<g>
</g>
<g>
</g>
<g>
</g>
<g>
</g>
<g>
</g>
<g>
</g>
<g>
</g>
<g>
</g>
</svg>
