<?xml version="1.0" encoding="iso-8859-1"?>
<!-- Generator: Adobe Illustrator 19.0.0, SVG Export Plug-In . SVG Version: 6.00 Build 0)  -->
<svg version="1.1" id="Layer_1" xmlns="http://www.w3.org/2000/svg" xmlns:xlink="http://www.w3.org/1999/xlink" x="0px" y="0px"
	 viewBox="0 0 511.999 511.999" style="enable-background:new 0 0 511.999 511.999;" xml:space="preserve">
<path style="fill:#F4DE3B;" d="M256.003,194.535c47.651,0,86.289,38.626,86.289,86.289c0,47.651-38.638,86.289-86.289,86.289
	c-47.663,0-86.289-38.638-86.289-86.289C169.714,233.162,208.34,194.535,256.003,194.535z"/>
<path style="fill:#F7B239;" d="M503.224,200.493L379.608,320.984l29.18,170.132l-152.785-80.319l-152.797,80.319l29.18-170.132
	L8.782,200.493l170.822-24.826L256.003,20.88l76.387,154.787L503.224,200.493z M342.292,280.824
	c0-47.663-38.638-86.289-86.289-86.289c-47.663,0-86.289,38.626-86.289,86.289c0,47.651,38.626,86.289,86.289,86.289
	C303.654,367.113,342.292,328.475,342.292,280.824z"/>
<polygon style="fill:#E09B2D;" points="159.414,319.071 48.579,211.028 200.074,189.01 256.003,20.88 179.605,175.668 
	8.782,200.493 132.387,320.984 103.206,491.117 "/>
<g>
	<path style="fill:#FFFFFF;" d="M298.705,182.302c-3.238,0-6.35-1.797-7.879-4.896l-30.577-61.96
		c-2.146-4.347-0.361-9.611,3.988-11.756c4.347-2.146,9.611-0.361,11.756,3.988l30.577,61.96c2.146,4.347,0.361,9.611-3.988,11.756
		C301.335,182.011,300.01,182.302,298.705,182.302z"/>
	<path style="fill:#FFFFFF;" d="M369.912,446.405c-4.197,0-7.909-3.02-8.642-7.296l-15.967-93.093
		c-0.819-4.779,2.39-9.317,7.168-10.137c4.783-0.82,9.317,2.39,10.137,7.168l15.967,93.093c0.819,4.779-2.39,9.317-7.168,10.137
		C370.905,446.364,370.405,446.405,369.912,446.405z"/>
	<path style="fill:#FFFFFF;" d="M440.349,229.705c-0.42,0-0.845-0.03-1.273-0.092l-95.532-13.883
		c-4.798-0.698-8.122-5.151-7.424-9.949s5.149-8.121,9.949-7.424l95.532,13.883c4.798,0.698,8.122,5.151,7.424,9.949
		C448.391,226.558,444.639,229.705,440.349,229.705z"/>
	<circle style="fill:#FFFFFF;" cx="255.998" cy="87.003" r="8.779"/>
</g>
<g>
	<path style="fill:#333333;" d="M511.568,197.782c-1.032-3.178-3.78-5.494-7.086-5.974l-166.259-24.159L263.871,16.993
		c-1.48-2.996-4.531-4.894-7.873-4.894c-3.342,0-6.393,1.897-7.873,4.894l-74.353,150.656L7.516,191.808
		c-3.307,0.48-6.054,2.796-7.086,5.974s-0.171,6.667,2.22,8.999L122.956,324.05L94.555,489.636
		c-0.564,3.294,0.789,6.623,3.493,8.586c1.53,1.112,3.341,1.677,5.161,1.677c1.396,0,2.8-0.334,4.084-1.008l148.706-78.18
		l148.706,78.18c2.958,1.554,6.543,1.296,9.245-0.668c2.704-1.964,4.057-5.292,3.493-8.586l-28.401-165.587l120.306-117.269
		C511.74,204.449,512.602,200.96,511.568,197.782z M373.481,314.7c-2.069,2.017-3.013,4.923-2.525,7.771l26.173,152.604
		l-137.046-72.05c-2.559-1.344-5.613-1.344-8.17,0l-137.046,72.049l26.173-152.604c0.488-2.848-0.455-5.754-2.525-7.771
		L27.643,206.624l153.223-22.265c2.86-0.416,5.332-2.211,6.61-4.803l68.523-138.843l68.523,138.843
		c1.278,2.59,3.75,4.387,6.61,4.803l153.223,22.265L373.481,314.7z"/>
	<path style="fill:#333333;" d="M256,185.753c-52.422,0-95.07,42.648-95.07,95.07s42.648,95.069,95.07,95.069
		s95.069-42.648,95.069-95.069S308.42,185.753,256,185.753z M256,358.335c-42.741,0-77.513-34.772-77.513-77.511
		S213.259,203.31,256,203.31s77.511,34.772,77.511,77.513C333.511,323.564,298.739,358.335,256,358.335z"/>
	<path style="fill:#333333;" d="M220.008,260.632h71.982c4.848,0,8.779-3.931,8.779-8.779c0-4.848-3.931-8.779-8.779-8.779h-71.982
		c-4.848,0-8.779,3.931-8.779,8.779C211.229,256.701,215.16,260.632,220.008,260.632z"/>
	<path style="fill:#333333;" d="M205.498,272.043c-4.848,0-8.779,3.931-8.779,8.779c0,4.848,3.931,8.779,8.779,8.779h101.002
		c4.848,0,8.779-3.931,8.779-8.779c0-4.848-3.931-8.779-8.779-8.779H205.498z"/>
	<path style="fill:#333333;" d="M291.99,301.012h-71.982c-4.848,0-8.779,3.931-8.779,8.779s3.931,8.779,8.779,8.779h71.982
		c4.848,0,8.779-3.931,8.779-8.779S296.838,301.012,291.99,301.012z"/>
</g>
<g>
</g>
<g>
</g>
<g>
</g>
<g>
</g>
<g>
</g>
<g>
</g>
<g>
</g>
<g>
</g>
<g>
</g>
<g>
</g>
<g>
</g>
<g>
</g>
<g>
</g>
<g>
</g>
<g>
</g>
</svg>
