<?xml version="1.0" encoding="iso-8859-1"?>
<!-- Generator: Adobe Illustrator 19.0.0, SVG Export Plug-In . SVG Version: 6.00 Build 0)  -->
<svg version="1.1" id="Layer_1" xmlns="http://www.w3.org/2000/svg" xmlns:xlink="http://www.w3.org/1999/xlink" x="0px" y="0px"
	 viewBox="0 0 512 512" style="enable-background:new 0 0 512 512;" xml:space="preserve">
<path style="fill:#F7B239;" d="M272.622,279.163c-9.668,9.061-17.337,16.472-22.277,21.413
	c-21.155,21.155-24.063,51.146-23.12,71.223c0.584,12.711,2.706,21.435,2.706,21.435s58.108,14.137,92.658-20.413
	c3.47-3.47,8.152-8.275,13.777-14.182l0.011,65.99c0,20.279-16.439,36.729-36.74,36.729H50.23c23.086,0,41.804-18.718,41.804-41.804
	v-28.464V87.369c0-20.279,16.45-36.729,36.729-36.729c23.097,0,41.815,18.718,41.815,41.804v28.464h165.789v101.36
	C311.72,243.243,289.229,263.623,272.622,279.163z"/>
<path style="fill:#E09B2D;" d="M127.254,51.943h209.114v93.197H92.079V87.118C92.079,67.692,107.828,51.943,127.254,51.943z"/>
<path style="fill:#2BA5F7;" d="M336.367,358.639c-5.626,5.906-10.308,10.712-13.777,14.182
	c-34.55,34.55-92.658,20.413-92.658,20.413s-2.122-8.725-2.706-21.435c-0.943-20.077,1.965-50.068,23.12-71.223
	c4.941-4.941,12.61-12.351,22.277-21.413c16.607-15.54,39.098-35.92,63.744-56.895c61.353-52.19,136.101-108.063,166.822-102.292
	C511.667,165.182,386.682,305.73,336.367,358.639z"/>
<path style="fill:#E09B2D;" d="M50.23,461.358c-23.086,0-41.804-18.718-41.804-41.804v-28.464h83.608v28.464
	C92.034,442.64,73.316,461.358,50.23,461.358z"/>
<path style="fill:#F7B239;" d="M414.899,92.444v28.464h-78.532H170.577V92.444c0-23.086-18.718-41.804-41.815-41.804h244.322
	C396.181,50.64,414.899,69.358,414.899,92.444z"/>
<path style="fill:#FFFFFF;" d="M386.828,101.258c-4.651,0-8.421-3.771-8.421-8.421v-0.393c0-2.928-2.387-5.311-5.322-5.311
	c-4.651,0-8.421-3.771-8.421-8.421c0-4.651,3.771-8.421,8.421-8.421c12.222,0,22.165,9.938,22.165,22.154v0.393
	C395.249,97.488,391.479,101.258,386.828,101.258z"/>
<path style="fill:#2197D8;" d="M336.367,358.639c-5.626,5.906-10.308,10.712-13.777,14.182
	c-34.55,34.55-92.658,20.413-92.658,20.413l273.258-273.258C511.667,165.182,386.682,305.73,336.367,358.639z"/>
<g>
	<path style="fill:#333333;" d="M136.751,194.957h154.898c4.651,0,8.421-3.771,8.421-8.421c0-4.651-3.771-8.421-8.421-8.421H136.751
		c-4.651,0-8.421,3.771-8.421,8.421C128.33,191.187,132.1,194.957,136.751,194.957z"/>
	<path style="fill:#333333;" d="M136.751,241.273h154.898c4.651,0,8.421-3.771,8.421-8.421s-3.771-8.421-8.421-8.421H136.751
		c-4.651,0-8.421,3.771-8.421,8.421S132.1,241.273,136.751,241.273z"/>
	<path style="fill:#333333;" d="M511.469,118.421c-0.64-3.415-3.311-6.085-6.725-6.726c-24.275-4.549-69.786,20.146-139.12,75.509
		c-6.956,5.555-13.929,11.253-20.839,16.998v-74.876h70.111c4.651,0,8.421-3.771,8.421-8.421V92.448
		c0-27.695-22.532-50.228-50.228-50.228H128.767c-24.896,0-45.15,20.254-45.15,45.15V382.67H8.421c-4.651,0-8.421,3.771-8.421,8.421
		v28.458c0,27.697,22.533,50.23,50.23,50.23h249.414c24.897,0,45.151-20.255,45.151-45.152L344.785,362
		c23.796-25.138,59.741-65.093,91.175-104.458C491.322,188.209,516.022,142.703,511.469,118.421z M373.09,59.064
		c18.408,0,33.385,14.977,33.385,33.385v20.035h-227.48V92.448c0-12.803-4.817-24.504-12.731-33.385
		C166.263,59.064,373.09,59.064,373.09,59.064z M50.23,452.936c-18.409,0-33.387-14.977-33.387-33.387v-20.036h66.774v20.038
		c0,18.408-14.976,33.385-33.384,33.385H50.23z M299.644,452.936H87.716c7.918-8.882,12.743-20.577,12.743-33.385V87.371
		c0-15.609,12.698-28.307,28.307-28.307c18.408,0,33.385,14.977,33.385,33.385v28.456c0,4.651,3.771,8.421,8.421,8.421h157.369
		v89.079c-21.987,18.795-42.511,37.299-58.646,52.338H136.753c-4.651,0-8.421,3.771-8.421,8.421c0,4.651,3.771,8.421,8.421,8.421
		h114.794c-2.676,2.596-5.084,4.962-7.159,7.037c-6.867,6.867-11.992,14.512-15.79,22.432h-91.845c-4.651,0-8.421,3.771-8.421,8.421
		c0,4.651,3.771,8.421,8.421,8.421h85.695c-2.717,10.291-3.719,20.463-3.84,29.479h-81.855c-4.651,0-8.421,3.771-8.421,8.421
		c0,4.651,3.771,8.421,8.421,8.421h82.604c0.427,4.194,0.961,7.689,1.419,10.257l-35.651,35.651c-3.289,3.289-3.289,8.621,0,11.909
		c1.644,1.644,3.8,2.467,5.954,2.467c2.155,0,4.311-0.822,5.954-2.467l35.661-35.661c5.185,0.912,14.196,2.144,25.082,2.144
		c1.902,0,3.865-0.038,5.871-0.121c26.474-1.103,48.676-9.772,64.295-25.06l0.007,45.288
		C327.952,440.237,315.252,452.936,299.644,452.936z M316.631,366.866c-12.701,12.701-30.612,19.66-53.24,20.686
		c-5.712,0.258-11.024,0.084-15.604-0.266l214.475-214.475c3.289-3.289,3.289-8.621,0-11.909c-3.289-3.289-8.621-3.289-11.909,0
		l-214.48,214.48c-1.4-18.3,0.053-48.476,20.425-68.848c20.106-20.106,70.419-66.708,119.835-106.167
		c26.952-21.522,89.297-68.967,118.907-72.242c-3.275,29.61-50.72,91.955-72.242,118.908
		C383.339,296.447,336.737,346.76,316.631,366.866z"/>
</g>
<g>
</g>
<g>
</g>
<g>
</g>
<g>
</g>
<g>
</g>
<g>
</g>
<g>
</g>
<g>
</g>
<g>
</g>
<g>
</g>
<g>
</g>
<g>
</g>
<g>
</g>
<g>
</g>
<g>
</g>
</svg>
