<?xml version="1.0" encoding="iso-8859-1"?>
<!-- Generator: Adobe Illustrator 16.0.0, SVG Export Plug-In . SVG Version: 6.00 Build 0)  -->
<!DOCTYPE svg PUBLIC "-//W3C//DTD SVG 1.1//EN" "http://www.w3.org/Graphics/SVG/1.1/DTD/svg11.dtd">
<svg xmlns="http://www.w3.org/2000/svg" xmlns:xlink="http://www.w3.org/1999/xlink" version="1.1" id="Capa_1" x="0px" y="0px" width="512px" height="512px" viewBox="0 0 566.667 566.667" style="enable-background:new 0 0 566.667 566.667;" xml:space="preserve">
<g>
	<path d="M558.884,327.473c-7.505,4.561-15.477,2.628-23.606,1.77c15.495-28.53,29.515-59.534,31.387-92.299   c0.126-2.28-3.496-3.402-4.457-1.204c-6.996,16.02-18.575,32.044-36.613,34.868c16.693-39.92,12.073-87.461,7.019-129.241   c-0.298-2.427-4.232-3.531-4.694-0.635c-2.997,18.624-5.815,34.208-18.738,48.804c-18.081,20.425-41.738,29.668-67.066,37.812   c-36.291,11.67-82.327,13.371-111.771,40.268c-0.159,0.086-0.322,0.126-0.477,0.25c-20.115,16.362-33.598,41.238-41.383,65.562   c-2.646,8.257-4.329,16.77-5.15,25.366c-0.821-8.597-2.504-17.109-5.147-25.37c-7.785-24.325-21.271-49.196-41.385-65.563   c-0.149-0.126-0.311-0.168-0.474-0.25c-29.444-26.896-75.48-28.597-111.774-40.267c-25.328-8.144-48.986-17.383-67.063-37.813   c-12.923-14.601-15.742-30.18-18.741-48.804c-0.467-2.896-4.401-1.792-4.693,0.635c-5.062,41.785-9.677,89.321,7.017,129.241   c-18.036-2.824-29.617-18.848-36.613-34.868c-0.957-2.198-4.583-1.071-4.455,1.204c1.874,32.766,15.892,63.769,31.386,92.299   c-8.13,0.863-16.101,2.791-23.606-1.769c-2.474-1.499-4.52,1.754-2.896,3.752c13.073,16.102,26.042,33.253,43.439,44.995   c17.849,12.051,37.778,17.287,58.831,18.258c-7.762,4.55-15.353,9.409-22.932,14.239c-2.359,1.512-0.784,4.854,1.846,4.368   c20.95-3.846,46.486-8.331,67.729-2.898c-5.409,5.344-11.729,9.082-18.797,12.274c-2.175,0.985-1.085,4.583,1.209,4.457   c24.925-1.423,49.971,1.358,74.928,0.635c19.072-0.551,46.141-0.41,61.397-14.075c8.032-7.197,9.624-17.768,10.676-28.143   c0.056-0.532,0.082-1.064,0.124-1.597c0.049,0.532,0.072,1.064,0.124,1.597c1.057,10.37,2.649,20.94,10.678,28.143   c15.252,13.66,42.321,13.524,61.396,14.075c24.96,0.719,50.003-2.062,74.93-0.635c2.287,0.126,3.384-3.472,1.209-4.457   c-7.07-3.188-13.39-6.931-18.799-12.274c21.244-5.433,46.778-0.942,67.729,2.898c2.633,0.49,4.21-2.856,1.849-4.368   c-7.58-4.83-15.168-9.689-22.93-14.239c21.044-0.971,40.973-6.207,58.828-18.258c17.395-11.737,30.364-28.89,43.437-44.995   C563.407,329.228,561.358,325.97,558.884,327.473z M177.553,287.033c0,2.422-1.965,4.382-4.382,4.382   c-2.42,0-4.382-1.955-4.382-4.382c0-2.422,1.962-4.382,4.382-4.382C175.588,282.65,177.553,284.615,177.553,287.033z    M171.58,253.183c2.198,0,3.981,1.783,3.981,3.981c0,2.198-1.783,3.981-3.981,3.981c-2.201,0-3.981-1.783-3.981-3.981   C167.599,254.965,169.379,253.183,171.58,253.183z M115.029,245.22c2.861,0,5.176,2.317,5.176,5.176   c0,2.859-2.315,5.176-5.176,5.176c-2.863,0-5.176-2.317-5.176-5.176C109.853,247.538,112.17,245.22,115.029,245.22z    M60.069,230.878c1.977,0,3.584,1.605,3.584,3.584c0,1.979-1.608,3.584-3.584,3.584c-1.979,0-3.584-1.605-3.584-3.584   C56.485,232.484,58.09,230.878,60.069,230.878z M53.297,313.719c-1.979,0-3.584-1.605-3.584-3.584s1.605-3.584,3.584-3.584   c1.976,0,3.584,1.605,3.584,3.584S55.273,313.719,53.297,313.719z M96.309,355.135c-2.42,0-4.378-1.955-4.378-4.383   c0-2.422,1.958-4.382,4.378-4.382c2.417,0,4.377,1.96,4.377,4.382C100.687,353.18,98.727,355.135,96.309,355.135z M113.036,332.434   c-3.083,0-5.572-2.492-5.572-5.576c0-3.081,2.49-5.578,5.572-5.578s5.572,2.497,5.572,5.578   C118.608,329.941,116.118,332.434,113.036,332.434z M120.584,316.016c-1.5-0.425-3.078-0.943-4.734-1.639   c-4.373-1.848-9.047-4.667-13.964-7.033c-2.476-1.073-5.024-2.156-7.565-2.479c-2.539-0.35-5.038-0.345-7.386,0.527l-0.821,0.248   l-0.143,0.069l-0.506,0.257l-2.042,1.036l-1.013,0.514c-0.296,0.177-0.373,0.364-0.569,0.536c-0.324,0.351-0.658,0.663-0.999,0.953   c-1.123,1.559-1.935,2.926-1.853,4.466c-0.009,1.531,0.292,3.286,1.113,4.933c0.871,1.526,1.949,3.09,3.202,3.911   c0.606,0.593,1.218,0.696,1.839,1.106c0.618,0.21,1.22,0.262,1.869,0.406c0.588-0.112,1.248-0.089,1.86-0.238   c0.611-0.271,1.176-0.522,1.682-0.751c1.085-0.495,1.743-1.308,2.366-1.686c0.586-0.447,0.898-0.686,0.898-0.686l0.85,0.452   c0,0-0.114,0.393-0.329,1.12c-0.292,0.715-0.469,1.938-1.358,3.216c-0.474,0.626-1.018,1.349-1.678,2.119   c-0.758,0.645-1.787,1.213-2.886,1.853c-2.317,0.882-5.528,1.177-8.377-0.005c-3.006-0.938-5.528-3.057-7.666-5.749   c-2.135-2.688-3.465-6.46-3.325-10.608c0.133-4.326,2.863-8.229,6.021-10.707c1.678-1.04,3.825-2.492,5.076-2.744l2.161-0.746   l0.539-0.187l0.273-0.099c-0.077,0.033,0.761-0.279,0.429-0.149l0.044-0.005l0.086-0.014l0.166-0.032l1.349-0.229   c3.54-0.798,7.32-0.396,10.599,0.51c3.36,0.877,6.142,2.501,8.737,4.014c2.963,1.838,5.544,3.742,7.953,5.488   c-0.535-0.691-1.071-1.4-1.519-2.171c-1.988-3.295-3.78-7.065-5.244-11.098c-1.573-4.032-2.833-8.322-4.287-12.676   c-1.496-4.282-2.938-8.774-5.043-12.804c-2.035-4.033-4.501-7.885-7.871-10.188c-3.325-2.534-7.402-3.944-11.01-3.647   c-1.822,0.067-3.514,0.579-5.024,1.362c-1.528,0.73-2.882,1.788-4.009,3.045c-2.362,2.446-3.862,5.706-4.611,9.117l-0.264,1.281   l-0.068,0.32l-0.009,0.04c0.004-0.126-0.023,0.333,0.004-0.269l-0.004,0.1l-0.014,0.196l-0.047,0.775   c-0.114,1.19,0.023,1.615,0.009,2.317c0.128,1.559,0.411,3.241,0.889,4.756c0.908,3.06,2.236,5.811,3.746,7.544   c1.554,1.813,2.758,2.061,4.291,1.458c1.508-0.66,2.663-2.021,3.337-2.854c0.721-0.887,1.108-1.356,1.108-1.356l0.88,0.383   c0,0-0.182,0.616-0.516,1.778c-0.177,0.59-0.35,1.333-0.852,2.133c-0.43,0.826-0.917,1.811-1.983,2.716   c-0.43,0.527-1.095,0.906-1.874,1.256c-0.73,0.448-1.634,0.532-2.609,0.598c-0.985,0.098-1.839-0.271-2.837-0.48   c-0.798-0.383-1.746-0.78-2.5-1.312c-3.064-2.16-5.454-5.278-7.299-9.03c-0.931-1.893-1.671-3.932-2.25-6.279   c-0.215-1.277-0.455-2.847-0.446-3.718l-0.037-0.774l-0.01-0.196l-0.004-0.1l0.019-0.42l0.038-0.455l0.159-1.838   c0.453-4.929,2.485-10.284,6.522-14.538c3.944-4.245,10.232-6.949,16.293-6.499c6.088,0.285,11.651,2.924,15.796,6.669   c4.497,3.729,7.073,8.723,9.04,13.401c2.023,4.747,3.155,9.467,4.368,13.98c1.12,4.492,2.147,8.827,3.26,12.809   c1.048,4.032,2.385,7.645,3.914,10.827c0.742,1.602,1.773,2.903,2.581,4.294c0.812,0.896,1.596,1.718,2.38,2.525   c-0.85-1.372-1.652-2.89-2.24-4.677c-0.833-2.375-1.305-5.068-1.501-7.953c-0.1-1.441,0.028-2.921,0.065-4.442   c0.245-1.498,0.383-3.062,0.761-4.602c0.789-3.081,1.797-6.299,3.685-9.25c0.766-1.563,2.075-2.863,3.146-4.31   c1.395-1.19,2.604-2.653,4.319-3.547c0.817-0.492,1.615-1.048,2.485-1.458l2.728-1.003l0.693-0.243l0.35-0.114l0.812-0.117   l1.15-0.161c0.842-0.086,1.381-0.296,2.453-0.282c4.536-0.114,8.211,1.199,11.474,3.397c3.204,2.226,5.358,5.517,6.471,8.865   c0.623,1.664,0.793,3.446,0.938,5.117c-0.145,1.743-0.24,3.386-0.884,4.917c-0.957,3.122-3.284,5.278-5.281,6.538   c-1.095,0.5-2.084,1.004-3.011,1.289c-0.947,0.153-1.817,0.289-2.595,0.415c-1.526,0.196-2.716-0.099-3.496-0.149   c-0.768-0.103-1.178-0.163-1.178-0.163l-0.086-0.952c0,0,0.357-0.191,1.031-0.542c0.635-0.401,1.664-0.7,2.695-1.46   c0.497-0.359,1.043-0.757,1.636-1.186c0.53-0.467,0.968-1.069,1.475-1.582c0.387-0.621,0.742-1.251,1.038-1.896   c0.119-0.747,0.416-1.372,0.353-2.165c0.082-1.461-0.301-3.153-1.223-4.749c-0.95-1.531-2.084-3.174-3.757-4.259   c-1.51-1.148-3.676-2.098-5.309-2.49c-0.464-0.168-1.463-0.063-2.166-0.105h-1.165h-0.016l-0.38,0.091l-1.741,0.357   c-0.569,0.177-1.095,0.488-1.664,0.707c-1.178,0.374-2.077,1.354-3.171,2.002c-0.856,0.989-1.956,1.745-2.667,2.907   c-1.722,2.059-2.854,4.609-3.815,7.087c-0.471,1.251-0.721,2.558-1.094,3.813c-0.156,1.288-0.439,2.548-0.544,3.785   c-0.191,2.487-0.133,4.877,0.282,7.019c0.369,2.156,1.085,4.042,1.893,5.619c0.243,0.397,0.453,0.738,0.679,1.102   c13.208-1.89,57.97-7.159,81.865,4.522c28.241,13.801,44.435,38.69,36.172,55.59c-8.259,16.899-37.846,19.415-66.086,5.605   C150.554,366.153,127.205,327.604,120.584,316.016z M83.838,283.329c0-1.825,1.486-3.302,3.309-3.302   c1.82,0,3.307,1.482,3.307,3.302c0,1.825-1.487,3.307-3.307,3.307C85.325,286.636,83.838,285.154,83.838,283.329z M143.206,400.392   c8.543,1.194,18.218,0.942,18.218,0.942s-19.413-9.306-22.997-17.021c5.824,2.338,9.955,2.39,9.955,2.39l-2.151-13.68   c0.343,0.457,0.693,0.905,1.041,1.345c37.239,46.853,123.813,26.331,123.813,26.331   C216.087,425.78,162.469,410.846,143.206,400.392z M200.98,290.407c14.223,5.245,21.863,6.786,25.41,6.212   c9.932-1.62-12.267-19.833-12.267-19.833c52.446,20.999,59.738,102.753,59.738,102.753   C254.208,321.485,200.98,290.407,200.98,290.407z M506.599,230.878c1.979,0,3.584,1.605,3.584,3.584   c0,1.979-1.605,3.584-3.584,3.584c-1.979,0-3.585-1.605-3.585-3.584C503.014,232.484,504.62,230.878,506.599,230.878z    M451.639,245.22c2.861,0,5.176,2.317,5.176,5.176c0,2.859-2.314,5.176-5.176,5.176s-5.176-2.317-5.176-5.176   C446.463,247.538,448.778,245.22,451.639,245.22z M395.088,253.183c2.198,0,3.98,1.783,3.98,3.981c0,2.198-1.782,3.981-3.98,3.981   s-3.981-1.783-3.981-3.981C391.107,254.965,392.89,253.183,395.088,253.183z M393.497,282.655c2.418,0,4.383,1.96,4.383,4.382   c0,2.427-1.965,4.383-4.383,4.383c-2.417,0-4.382-1.956-4.382-4.383C389.115,284.615,391.08,282.655,393.497,282.655z    M292.804,379.539c0,0,7.295-81.754,59.739-102.753c0,0-22.201,18.213-12.266,19.833c3.547,0.574,11.191-0.967,25.408-6.212   C365.686,290.407,312.458,321.485,292.804,379.539z M405.249,401.334c0,0,9.67,0.257,18.216-0.942   c-19.261,10.454-72.882,25.389-127.878,0.308c0,0,86.574,20.517,123.812-26.331c0.351-0.439,0.7-0.888,1.041-1.345l-2.151,13.68   c0,0,4.13-0.052,9.954-2.39C424.655,392.028,405.249,401.334,405.249,401.334z M453.632,332.434c-3.085,0-5.572-2.492-5.572-5.576   c0-3.081,2.487-5.578,5.572-5.578c3.08,0,5.572,2.497,5.572,5.578C459.205,329.941,456.708,332.434,453.632,332.434z    M470.359,355.135c-2.417,0-4.378-1.955-4.378-4.383c0-2.422,1.961-4.382,4.378-4.382c2.418,0,4.378,1.96,4.378,4.382   C474.737,353.18,472.777,355.135,470.359,355.135z M502.109,290.271c-0.751,0.532-1.698,0.929-2.497,1.312   c-0.998,0.21-1.853,0.579-2.837,0.48c-0.976-0.065-1.881-0.153-2.609-0.597c-0.779-0.351-1.446-0.729-1.876-1.256   c-1.064-0.9-1.554-1.89-1.983-2.716c-0.495-0.8-0.672-1.547-0.85-2.135c-0.336-1.155-0.518-1.778-0.518-1.778l0.882-0.38   c0,0,0.387,0.474,1.105,1.355c0.682,0.833,1.83,2.194,3.338,2.854c1.535,0.602,2.739,0.355,4.293-1.458   c1.508-1.729,2.838-4.487,3.743-7.546c0.48-1.515,0.756-3.197,0.892-4.753c-0.014-0.698,0.121-1.127,0.01-2.317l-0.047-0.774   l-0.015-0.196l-0.004-0.101c0.027,0.603,0,0.143,0.004,0.269l-0.009-0.04l-0.07-0.32l-0.262-1.281   c-0.751-3.407-2.249-6.671-4.61-9.119c-1.13-1.256-2.483-2.308-4.009-3.043c-1.508-0.784-3.202-1.295-5.027-1.363   c-3.607-0.296-7.677,1.113-11.009,3.647c-3.37,2.304-5.839,6.156-7.869,10.188c-2.101,4.023-3.547,8.518-5.045,12.804   c-1.456,4.352-2.712,8.643-4.284,12.675c-1.466,4.037-3.258,7.804-5.246,11.099c-0.453,0.771-0.984,1.479-1.517,2.166   c2.408-1.741,4.989-3.646,7.952-5.484c2.596-1.512,5.377-3.136,8.737-4.014c3.276-0.905,7.057-1.307,10.599-0.509l1.349,0.229   l0.163,0.028l0.089,0.019l0.042,0.005c-0.331-0.126,0.504,0.178,0.43,0.149l0.275,0.098l0.537,0.187l2.16,0.742   c1.251,0.252,3.398,1.708,5.078,2.749c3.155,2.483,5.881,6.38,6.021,10.706c0.136,4.154-1.19,7.925-3.327,10.608   c-2.134,2.693-4.658,4.808-7.664,5.75c-2.852,1.186-6.062,0.887-8.377,0.005c-1.097-0.64-2.124-1.209-2.889-1.853   c-0.658-0.775-1.205-1.498-1.676-2.119c-0.896-1.279-1.073-2.502-1.358-3.216c-0.215-0.732-0.331-1.125-0.331-1.125l0.85-0.448   c0,0,0.312,0.238,0.9,0.687c0.621,0.378,1.283,1.19,2.366,1.685c0.499,0.225,1.068,0.477,1.68,0.752   c0.611,0.149,1.274,0.121,1.862,0.238c0.648-0.146,1.251-0.196,1.867-0.406c0.621-0.406,1.232-0.519,1.839-1.111   c1.255-0.816,2.333-2.385,3.201-3.906c0.826-1.647,1.125-3.397,1.116-4.933c0.084-1.536-0.729-2.913-1.854-4.467   c-0.341-0.289-0.677-0.602-0.998-0.952c-0.196-0.177-0.28-0.359-0.57-0.536l-1.013-0.514l-2.044-1.036l-0.504-0.257l-0.145-0.07   l-0.821-0.252c-2.348-0.868-4.845-0.872-7.384-0.522c-2.543,0.312-5.092,1.404-7.565,2.479c-4.919,2.366-9.591,5.18-13.964,7.033   c-1.666,0.695-3.234,1.213-4.736,1.638c-6.618,11.584-29.968,50.134-53.863,61.812c-28.24,13.805-57.834,11.294-66.086-5.605   c-8.266-16.899,7.934-41.789,36.17-55.59c23.896-11.682,68.657-6.417,81.865-4.522c0.229-0.368,0.438-0.704,0.682-1.102   c0.808-1.577,1.517-3.463,1.89-5.624c0.416-2.137,0.477-4.526,0.285-7.014c-0.107-1.237-0.388-2.497-0.546-3.785   c-0.374-1.256-0.626-2.562-1.093-3.813c-0.961-2.482-2.095-5.028-3.817-7.089c-0.705-1.16-1.811-1.916-2.665-2.905   c-1.092-0.649-1.993-1.634-3.173-2.002c-0.565-0.224-1.093-0.53-1.662-0.707l-1.74-0.359l-0.383-0.091h-0.015h-1.167   c-0.699,0.044-1.698-0.061-2.165,0.107c-1.638,0.393-3.799,1.342-5.307,2.488c-1.68,1.092-2.81,2.73-3.757,4.259   c-0.924,1.596-1.302,3.291-1.223,4.75c-0.065,0.794,0.233,1.415,0.35,2.166c0.299,0.645,0.653,1.274,1.041,1.895   c0.499,0.514,0.938,1.111,1.475,1.582c0.593,0.43,1.139,0.826,1.634,1.186c1.036,0.752,2.067,1.055,2.697,1.461   c0.672,0.354,1.031,0.542,1.031,0.542l-0.088,0.947c0,0-0.411,0.061-1.177,0.168c-0.779,0.047-1.969,0.345-3.495,0.149   c-0.779-0.126-1.647-0.262-2.595-0.416c-0.93-0.289-1.914-0.788-3.011-1.292c-2.002-1.256-4.326-3.412-5.283-6.534   c-0.644-1.531-0.732-3.174-0.882-4.917c0.145-1.671,0.312-3.454,0.938-5.117c1.106-3.351,3.268-6.644,6.469-8.865   c3.271-2.198,6.94-3.519,11.477-3.397c1.068-0.014,1.61,0.196,2.45,0.28l1.153,0.164l0.812,0.114l0.351,0.114l0.69,0.245   l2.73,1.003c0.868,0.411,1.666,0.966,2.482,1.458c1.718,0.894,2.927,2.354,4.321,3.544c1.074,1.449,2.381,2.749,3.146,4.31   c1.89,2.954,2.894,6.17,3.682,9.248c0.378,1.545,0.519,3.108,0.761,4.606c0.038,1.521,0.168,3.001,0.065,4.442   c-0.195,2.88-0.672,5.577-1.498,7.953c-0.588,1.783-1.391,3.295-2.24,4.677c0.784-0.808,1.568-1.629,2.381-2.525   c0.807-1.391,1.838-2.692,2.58-4.294c1.526-3.183,2.871-6.795,3.911-10.827c1.111-3.981,2.138-8.314,3.263-12.812   c1.213-4.506,2.343-9.233,4.368-13.978c1.96-4.679,4.536-9.673,9.04-13.401c4.14-3.746,9.703-6.38,15.793-6.672   c6.067-0.448,12.35,2.257,16.293,6.499c4.042,4.254,6.077,9.612,6.525,14.538l0.158,1.841l0.037,0.455l0.019,0.42l-0.004,0.101   l-0.01,0.196l-0.037,0.772c0.009,0.871-0.233,2.443-0.448,3.72c-0.579,2.352-1.312,4.387-2.25,6.28   C507.565,284.993,505.175,288.111,502.109,290.271z M482.83,283.329c0,1.825-1.489,3.307-3.31,3.307   c-1.819,0-3.309-1.481-3.309-3.307c0-1.825,1.489-3.302,3.309-3.302C481.34,280.027,482.83,281.504,482.83,283.329z    M513.371,313.719c-1.979,0-3.584-1.605-3.584-3.584s1.605-3.584,3.584-3.584c1.979,0,3.585,1.605,3.585,3.584   S515.35,313.719,513.371,313.719z" fill="#d9003d"/>
</g>
<g>
</g>
<g>
</g>
<g>
</g>
<g>
</g>
<g>
</g>
<g>
</g>
<g>
</g>
<g>
</g>
<g>
</g>
<g>
</g>
<g>
</g>
<g>
</g>
<g>
</g>
<g>
</g>
<g>
</g>
</svg>
