<?xml version="1.0" encoding="iso-8859-1"?>
<!-- Generator: Adobe Illustrator 19.0.0, SVG Export Plug-In . SVG Version: 6.00 Build 0)  -->
<svg version="1.1" id="Layer_1" xmlns="http://www.w3.org/2000/svg" xmlns:xlink="http://www.w3.org/1999/xlink" x="0px" y="0px"
	 viewBox="0 0 512 512" style="enable-background:new 0 0 512 512;" xml:space="preserve">
<path style="fill:#F7B239;" d="M421.369,189.118v112.256c0,91.323-74.041,165.353-165.364,165.353
	c-91.335,0-165.364-74.03-165.364-165.353V189.118V65.55c54.279-13.573,109.822-20.365,165.364-20.365
	c55.531,0,111.074,6.792,165.364,20.365V189.118z M396.02,233.545c0-28.536-23.135-51.671-51.683-51.671
	c-28.536,0-51.671,23.135-51.671,51.671c16.841-5.158,34.262-7.743,51.683-7.743C361.758,225.802,379.179,228.387,396.02,233.545z
	 M256.005,387.875c51.416,0,93.108-41.692,93.108-93.108c-30.333,9.307-61.72,13.955-93.108,13.955
	c-31.388,0-62.775-4.648-93.12-13.955C162.885,346.183,204.577,387.875,256.005,387.875z M219.332,233.545
	c0-28.536-23.135-51.671-51.671-51.671s-51.683,23.135-51.683,51.671c16.841-5.158,34.262-7.743,51.683-7.743
	S202.502,228.387,219.332,233.545z"/>
<path style="fill:#E09B2D;" d="M288.261,463.574c-10.432,2.063-21.223,3.153-32.257,3.153c-91.335,0-165.364-74.03-165.364-165.353
	V65.55c54.279-13.573,108.28-23.958,64.514-13.016v130.859c-22.498,5.598-39.177,25.928-39.177,50.153
	c12.808-3.918,25.952-6.363,39.177-7.291v75.119C155.154,381.662,212.377,448.564,288.261,463.574z"/>
<g>
	<path style="fill:#FFFFFF;" d="M359.203,399.134c-2.014,0-4.037-0.697-5.681-2.116c-3.633-3.139-4.032-8.629-0.892-12.262
		c20.035-23.179,31.069-52.792,31.069-83.382v-34.668c0-4.801,3.891-8.693,8.693-8.693s8.693,3.892,8.693,8.693v34.668
		c0,34.765-12.536,68.415-35.302,94.753C364.066,398.114,361.641,399.134,359.203,399.134z"/>
	<path style="fill:#FFFFFF;" d="M392.392,184.992c-4.802,0-8.693-3.892-8.693-8.693v-61.431c0-4.801,3.891-8.693,8.693-8.693
		s8.693,3.892,8.693,8.693v61.431C401.085,181.099,397.194,184.992,392.392,184.992z"/>
	<circle style="fill:#FFFFFF;" cx="392.392" cy="88.576" r="8.693"/>
</g>
<g>
	<path style="fill:#333333;" d="M216.786,241.858c0.837,0.256,1.695,0.382,2.549,0.382c1.838,0,3.653-0.583,5.168-1.703
		c2.216-1.639,3.525-4.233,3.525-6.99c0-33.287-27.082-60.369-60.37-60.369c-33.287,0-60.369,27.082-60.369,60.369
		c0,2.757,1.309,5.351,3.525,6.99c2.218,1.64,5.081,2.128,7.717,1.321C150.673,232.001,184.65,232.002,216.786,241.858z
		 M126.312,221.784c5.129-18.001,21.723-31.22,41.347-31.22c11.482,0,22.276,4.471,30.394,12.59
		c5.267,5.267,8.999,11.659,10.971,18.634c-13.64-3.14-27.504-4.71-41.365-4.71C153.803,217.077,139.946,218.645,126.312,221.784z"
		/>
	<path style="fill:#333333;" d="M344.343,173.177c-33.287,0-60.369,27.082-60.369,60.369c0,2.757,1.309,5.351,3.525,6.99
		c2.216,1.639,5.078,2.13,7.717,1.321c32.14-9.856,66.114-9.856,98.254,0c0.837,0.256,1.695,0.382,2.548,0.382
		c1.839,0,3.655-0.583,5.169-1.703c2.216-1.639,3.525-4.233,3.525-6.99C404.712,200.259,377.63,173.177,344.343,173.177z
		 M344.343,217.077c-13.857,0-27.712,1.569-41.346,4.707c5.128-18.001,21.722-31.22,41.346-31.22
		c19.624,0,36.219,13.218,41.346,31.22C372.055,218.645,358.2,217.077,344.343,217.077z"/>
	<path style="fill:#333333;" d="M354.281,287.774c-2.22-1.64-5.083-2.129-7.717-1.321c-59.247,18.17-121.881,18.168-181.126,0
		c-2.636-0.809-5.5-0.319-7.717,1.321c-2.216,1.639-3.525,4.233-3.525,6.99c0,56.136,45.67,101.805,101.806,101.805
		s101.804-45.67,101.804-101.805C357.806,292.007,356.497,289.413,354.281,287.774z M256.001,379.183
		c-42.561,0-77.865-31.655-83.604-72.66c54.944,14.591,112.265,14.591,167.206,0C333.865,347.528,298.561,379.183,256.001,379.183z"
		/>
	<path style="fill:#333333;" d="M503.308,346.8c-15.468,0-28.052-12.584-28.052-28.052v-92.883
		c0-24.974-20.255-45.302-45.199-45.432V65.551c0-3.988-2.715-7.466-6.585-8.433c-109.56-27.39-225.381-27.39-334.944,0
		c-3.87,0.968-6.585,4.445-6.585,8.433v114.882c-24.944,0.13-45.199,20.458-45.199,45.432v92.883
		c0,15.468-12.584,28.052-28.052,28.052C3.891,346.8,0,350.692,0,355.493c0,4.801,3.891,8.693,8.693,8.693
		c25.054,0,45.438-20.383,45.438-45.438v-92.883c0-15.388,12.455-27.916,27.813-28.046v103.55
		c0,95.974,78.081,174.056,174.056,174.056s174.056-78.081,174.056-174.056v-103.55c15.358,0.13,27.813,12.658,27.813,28.046v92.883
		c0,25.054,20.383,45.438,45.438,45.438c4.802,0,8.693-3.892,8.693-8.693C512,350.692,508.11,346.8,503.308,346.8z M412.671,301.369
		c0,86.388-70.282,156.67-156.67,156.67s-156.67-70.282-156.67-156.67V72.374c102.656-24.555,210.684-24.555,313.34,0V301.369z"/>
</g>
<g>
</g>
<g>
</g>
<g>
</g>
<g>
</g>
<g>
</g>
<g>
</g>
<g>
</g>
<g>
</g>
<g>
</g>
<g>
</g>
<g>
</g>
<g>
</g>
<g>
</g>
<g>
</g>
<g>
</g>
</svg>
