<?xml version="1.0" encoding="iso-8859-1"?>
<!-- Generator: Adobe Illustrator 21.0.2, SVG Export Plug-In . SVG Version: 6.00 Build 0)  -->
<svg version="1.1" id="Layer_1" xmlns="http://www.w3.org/2000/svg" xmlns:xlink="http://www.w3.org/1999/xlink" x="0px" y="0px"
	 viewBox="-17.526 164.548 92.445 90.106" style="enable-background:new -17.526 164.548 92.445 90.106;" xml:space="preserve">
<g>
	<g>
		<polygon style="fill:#D18E2C;" points="58.627,194.097 58.627,240.45 43.143,234.944 39.014,211.768 43.143,188.592 		"/>
		<polygon style="fill:#F7B239;" points="43.143,188.592 43.143,234.944 27.659,240.45 24.906,217.273 27.659,194.097 		"/>
		<polygon style="fill:#D18E2C;" points="27.659,194.097 27.659,240.45 12.175,234.944 8.046,211.768 12.175,188.592 		"/>
		<polygon style="fill:#F7B239;" points="12.175,188.592 12.175,234.944 -3.309,240.45 -3.309,194.097 		"/>
		<path style="fill:#333333;" d="M17.924,189.56l-4.703-1.677l-0.241-0.086h-1.65l0.499-0.177c0.004,0,0.006-0.001,0.01-0.003
			c0.049-0.016,0.1-0.03,0.152-0.04c0.007-0.001,0.015-0.001,0.024-0.003c0.053-0.009,0.105-0.014,0.16-0.014
			s0.109,0.005,0.16,0.014c0.009,0.001,0.016,0.001,0.024,0.003c0.053,0.01,0.104,0.024,0.153,0.041c0.004,0,0.006,0.001,0.01,0.002
			l0.496,0.176l0.204,0.073l4.527,1.61C17.812,189.501,17.869,189.527,17.924,189.56z"/>
		<g>
			<path style="fill:#333333;" d="M58.973,193.125l-5.043-1.792c-0.141-0.051-0.287-0.069-0.427-0.059l-9.281-3.311l-0.465-0.166
				l-1.973-0.704l-0.714,2.001l1.026,0.366v44.761l-13.405,4.766v-4.133h0.03v-47.059h-2.125v4.859l-8.673-3.095l-4.703-1.677
				l-0.241-0.086h-1.65l-0.234,0.083l-14.751,5.246c-0.411,0.146-0.686,0.535-0.686,0.973v46.352c0,0.336,0.164,0.65,0.437,0.844
				c0.274,0.193,0.625,0.241,0.941,0.129l15.137-5.382l15.137,5.382c0.004,0.001,0.006,0.001,0.01,0.003
				c0.049,0.018,0.1,0.031,0.153,0.04c0.007,0.001,0.016,0.003,0.024,0.004c0.053,0.008,0.105,0.014,0.16,0.014
				s0.107-0.006,0.16-0.014c0.007-0.001,0.016-0.003,0.024-0.004c0.053-0.009,0.104-0.022,0.153-0.04
				c0.004-0.001,0.006-0.001,0.01-0.003l15.137-5.382l15.137,5.382c0.114,0.04,0.23,0.06,0.346,0.06c0.21,0,0.419-0.065,0.595-0.189
				c0.275-0.194,0.438-0.507,0.438-0.844v-46.352C59.659,193.66,59.384,193.271,58.973,193.125z M11.097,234.232l-13.372,4.755
				v-44.161l13.372-4.755V234.232z M26.627,238.987l-13.405-4.766v-44.083l-0.014-0.005v-0.079l0.014,0.005v0.079l13.375,4.771
				v39.945h0.03V238.987z M57.594,238.987l-13.372-4.755v-44.014l12.382,4.417l0.051-0.144l0.939,0.334V238.987z"/>
			<polygon style="fill:#333333;" points="44.222,187.796 44.222,187.962 43.757,187.796 			"/>
		</g>
		<g>
			<polygon style="fill:#333333;" points="12.98,187.796 12.337,187.796 12.409,187.592 			"/>
			<polygon style="fill:#333333;" points="13.222,190.06 13.222,190.138 13.208,190.133 13.208,190.055 			"/>
		</g>
		<g>
			<polygon style="fill:#333333;" points="11.33,187.796 11.097,187.878 11.097,187.796 			"/>
			<polygon style="fill:#333333;" points="13.222,187.796 13.222,187.882 12.98,187.796 			"/>
			<polygon style="fill:#333333;" points="13.222,190.06 13.222,190.138 13.208,190.133 13.208,190.055 			"/>
		</g>
	</g>
	<path style="fill:#F95428;" d="M49.386,192.499c0,11.198-12.642,21.57-12.642,21.57c-0.739,0.606-1.948,0.606-2.686,0
		c0,0-12.642-10.371-12.642-21.57c0-7.724,6.261-13.985,13.985-13.985S49.386,184.776,49.386,192.499z"/>
	<path style="fill:#FFFFFF;" d="M35.401,199.535c-3.88,0-7.036-3.156-7.036-7.036c0-3.88,3.156-7.036,7.036-7.036
		s7.036,3.156,7.036,7.036C42.437,196.379,39.281,199.535,35.401,199.535z"/>
	<path style="fill:#333333;" d="M33.403,214.867c0.56,0.46,1.279,0.689,1.998,0.689c0.719,0,1.438-0.23,1.998-0.689
		c0.133-0.109,3.283-2.71,6.476-6.743c4.342-5.485,6.544-10.742,6.544-15.625c0-8.281-6.737-15.017-15.017-15.017
		s-15.017,6.737-15.017,15.017c0,4.882,2.202,10.139,6.544,15.625C30.12,212.157,33.271,214.758,33.403,214.867z M35.401,179.547
		c7.142,0,12.953,5.811,12.953,12.953c0,10.572-12.142,20.671-12.264,20.772c-0.36,0.295-1.017,0.296-1.376,0
		c-0.123-0.101-12.265-10.199-12.265-20.772C22.448,185.357,28.259,179.547,35.401,179.547z"/>
	<path style="fill:#333333;" d="M43.469,192.499c0-4.449-3.619-8.068-8.068-8.068s-8.068,3.619-8.068,8.068s3.619,8.068,8.068,8.068
		S43.469,196.948,43.469,192.499z M29.397,192.499c0-3.311,2.693-6.004,6.004-6.004c3.31,0,6.004,2.693,6.004,6.004
		c0,3.311-2.693,6.004-6.004,6.004C32.091,198.503,29.397,195.81,29.397,192.499z"/>
	<path style="fill:#FFFFFF;" d="M0.214,235.396c-0.405,0-0.734-0.355-0.734-0.794v-6.51c0-0.439,0.329-0.794,0.734-0.794
		s0.734,0.355,0.734,0.794v6.51C0.948,235.041,0.619,235.396,0.214,235.396L0.214,235.396z M0.214,235.396"/>
	<path style="fill:#FFFFFF;" d="M0.948,225.393c0,0.438-0.328,0.794-0.734,0.794c-0.405,0-0.734-0.355-0.734-0.794
		s0.328-0.794,0.734-0.794C0.619,224.599,0.948,224.955,0.948,225.393L0.948,225.393z M0.948,225.393"/>
	<path style="fill:#FFFFFF;" d="M45.455,195.763c-0.126,0-0.254-0.027-0.376-0.084c-0.443-0.208-0.634-0.736-0.426-1.18
		c0.415-0.883,0.625-1.834,0.625-2.825c0-1.777-0.692-3.446-1.947-4.702c-0.095-0.094-0.264-0.243-0.477-0.417
		c-0.379-0.31-0.434-0.869-0.124-1.248c0.311-0.379,0.869-0.434,1.248-0.124c0.264,0.216,0.468,0.396,0.607,0.535
		c1.59,1.59,2.466,3.706,2.466,5.956c0,1.254-0.267,2.458-0.793,3.579C46.108,195.574,45.788,195.763,45.455,195.763L45.455,195.763
		z M45.455,195.763 M41.729,183.791c0,0.49-0.397,0.887-0.887,0.887c-0.49,0-0.887-0.397-0.887-0.887
		c0-0.49,0.397-0.887,0.887-0.887C41.332,182.905,41.729,183.301,41.729,183.791L41.729,183.791z M41.729,184.472"/>
</g>
</svg>
