<?xml version="1.0" encoding="iso-8859-1"?>
<!-- Generator: Adobe Illustrator 21.0.2, SVG Export Plug-In . SVG Version: 6.00 Build 0)  -->
<svg version="1.1" id="Layer_1" xmlns="http://www.w3.org/2000/svg" xmlns:xlink="http://www.w3.org/1999/xlink" x="0px" y="0px"
	 viewBox="224 164.548 92.445 90.106" style="enable-background:new 224 164.548 92.445 90.106;" xml:space="preserve">
<g>
	<circle style="fill:#2BA5F7;" cx="272" cy="211.548" r="23.209"/>
	<path style="fill:#B4E5EA;" d="M272,187.285c-13.379,0-24.264,10.885-24.264,24.264c0,13.379,10.885,24.264,24.264,24.264
		c13.379,0,24.264-10.885,24.264-24.264C296.264,198.169,285.379,187.285,272,187.285z M294.128,210.494h-9.481
		c-0.094-4.311-0.763-8.424-1.934-11.988c1.63-0.802,3.173-1.791,4.599-2.952C291.289,199.361,293.852,204.633,294.128,210.494z
		 M279.262,195.609c0.282,0.563,0.546,1.152,0.793,1.763c-2.223,0.868-4.585,1.376-7,1.491v-9.353
		C275.35,190.01,277.523,192.131,279.262,195.609z M273.055,222.121v-9.518h9.482c-0.091,4.014-0.701,7.83-1.764,11.136
		C278.322,222.789,275.717,222.237,273.055,222.121z M280.055,225.725c-0.248,0.611-0.512,1.2-0.793,1.763
		c-1.739,3.478-3.912,5.599-6.207,6.099v-9.353C275.47,224.348,277.833,224.857,280.055,225.725z M263.945,197.373
		c0.248-0.611,0.512-1.2,0.793-1.763c1.739-3.478,3.912-5.599,6.207-6.099v9.353C268.53,198.749,266.167,198.24,263.945,197.373z
		 M270.945,200.976v9.518h-9.482c0.091-4.014,0.701-7.83,1.764-11.136C265.678,200.308,268.283,200.86,270.945,200.976z
		 M262.851,194.666c-0.296,0.591-0.573,1.208-0.834,1.847c-1.306-0.66-2.549-1.452-3.711-2.366c2.21-1.743,4.759-3.074,7.53-3.878
		C264.741,191.422,263.736,192.895,262.851,194.666z M270.945,212.603v9.518c-2.662,0.115-5.267,0.668-7.718,1.618
		c-1.063-3.306-1.673-7.122-1.764-11.136H270.945L270.945,212.603z M270.945,224.233v9.353c-2.295-0.5-4.468-2.621-6.207-6.099
		c-0.282-0.563-0.546-1.152-0.793-1.763C266.167,224.857,268.53,224.348,270.945,224.233z M262.017,226.585
		c0.26,0.639,0.538,1.256,0.834,1.847c0.885,1.77,1.89,3.244,2.985,4.398c-2.771-0.804-5.32-2.135-7.53-3.878
		C259.468,228.037,260.711,227.244,262.017,226.585z M281.149,228.431c0.296-0.591,0.573-1.208,0.834-1.847
		c1.306,0.66,2.549,1.452,3.711,2.366c-2.21,1.743-4.759,3.074-7.53,3.878C279.259,231.675,280.264,230.201,281.149,228.431z
		 M273.055,210.494v-9.518c2.662-0.115,5.267-0.668,7.718-1.618c1.063,3.306,1.673,7.122,1.764,11.136H273.055z M281.983,196.512
		c-0.26-0.639-0.538-1.256-0.834-1.847c-0.885-1.77-1.89-3.244-2.985-4.398c2.771,0.804,5.32,2.135,7.53,3.878
		C284.532,195.06,283.289,195.853,281.983,196.512z M256.688,195.553c1.426,1.161,2.969,2.15,4.599,2.952
		c-1.171,3.564-1.84,7.676-1.934,11.988h-9.481C250.148,204.633,252.711,199.361,256.688,195.553z M249.872,212.603h9.481
		c0.094,4.311,0.763,8.424,1.934,11.988c-1.63,0.802-3.173,1.791-4.599,2.952C252.711,223.735,250.148,218.464,249.872,212.603z
		 M287.312,227.544c-1.426-1.161-2.969-2.15-4.599-2.952c1.171-3.564,1.84-7.676,1.934-11.988h9.481
		C293.852,218.464,291.289,223.735,287.312,227.544z"/>
	<g>
		<path style="fill:#F14742;" d="M294.933,233.36c-0.001-0.008,0-0.016-0.001-0.024c-0.004-0.039-0.009-0.078-0.017-0.117
			c-0.002-0.007-0.004-0.015-0.005-0.022c-0.007-0.031-0.016-0.062-0.026-0.093c-0.003-0.01-0.007-0.02-0.011-0.03
			c-0.01-0.029-0.022-0.057-0.035-0.085c-0.004-0.009-0.008-0.018-0.013-0.027c-0.016-0.032-0.034-0.064-0.054-0.096
			c-0.002-0.003-0.004-0.006-0.006-0.01c-0.022-0.034-0.047-0.067-0.073-0.099c-0.009-0.011-0.015-0.016-0.02-0.022
			c-0.015-0.017-0.029-0.034-0.046-0.051c-0.005-0.005-0.011-0.01-0.017-0.015c-0.01-0.01-0.021-0.019-0.031-0.028
			c-0.021-0.019-0.042-0.036-0.064-0.053c-0.01-0.007-0.019-0.015-0.029-0.022c-0.027-0.019-0.055-0.036-0.083-0.052
			c-0.006-0.003-0.011-0.007-0.017-0.01c-0.072-0.039-0.148-0.069-0.225-0.09c-0.008-0.002-0.016-0.004-0.025-0.006
			c-0.031-0.007-0.061-0.014-0.092-0.019c-0.011-0.002-0.022-0.003-0.032-0.005c-0.032-0.004-0.064-0.006-0.096-0.007
			c-0.008,0-0.016-0.001-0.024-0.001c-0.04,0-0.079,0.002-0.119,0.006c-0.006,0-5.164,0.571-5.164,0.571
			c-0.579,0.064-0.997,0.585-0.933,1.165c0.064,0.579,0.587,0.997,1.165,0.933l1.895-0.209c-11.727,9.447-28.985,8.729-39.87-2.155
			c-5.645-5.646-8.755-13.152-8.755-21.135c0-0.583-0.472-1.055-1.055-1.055S240,210.966,240,211.549
			c0,8.547,3.329,16.583,9.373,22.627c6.044,6.044,14.08,9.373,22.627,9.373c7.291,0,14.209-2.424,19.837-6.887l-0.425,1.453
			c-0.164,0.559,0.157,1.145,0.716,1.309c0.099,0.029,0.199,0.043,0.297,0.043c0.457,0,0.877-0.299,1.012-0.759l1.455-4.973
			c0.001-0.003,0.001-0.005,0.002-0.007c0.011-0.038,0.019-0.077,0.026-0.115c0.002-0.012,0.003-0.023,0.005-0.035
			c0.004-0.028,0.007-0.056,0.008-0.084c0.001-0.013,0.002-0.026,0.002-0.038C294.936,233.422,294.935,233.391,294.933,233.36z"/>
		<path style="fill:#F14742;" d="M294.627,188.921c-6.044-6.044-14.08-9.373-22.627-9.373c-7.291,0-14.209,2.424-19.837,6.887
			l0.425-1.453c0.164-0.559-0.157-1.145-0.716-1.309c-0.56-0.163-1.145,0.157-1.309,0.716l-1.455,4.973
			c-0.001,0.003-0.001,0.005-0.002,0.007c-0.011,0.038-0.019,0.077-0.026,0.115c-0.002,0.012-0.003,0.023-0.005,0.035
			c-0.004,0.028-0.007,0.056-0.008,0.084c-0.001,0.013-0.002,0.025-0.002,0.038c-0.001,0.031,0,0.062,0.002,0.093
			c0.001,0.008,0,0.016,0.001,0.024c0.004,0.039,0.009,0.078,0.017,0.117c0.002,0.008,0.004,0.015,0.005,0.022
			c0.007,0.031,0.016,0.062,0.026,0.093c0.003,0.01,0.007,0.02,0.011,0.03c0.01,0.029,0.022,0.057,0.035,0.085
			c0.004,0.009,0.008,0.018,0.013,0.027c0.016,0.033,0.034,0.064,0.054,0.095c0.002,0.003,0.004,0.007,0.006,0.01
			c0.022,0.034,0.047,0.067,0.073,0.099c0.011,0.013,0.019,0.021,0.026,0.029c0.013,0.015,0.026,0.03,0.04,0.044
			c0.003,0.003,0.007,0.006,0.01,0.009c0.011,0.011,0.023,0.021,0.034,0.031c0.017,0.015,0.034,0.03,0.051,0.044
			c0.011,0.009,0.023,0.017,0.034,0.025c0.019,0.014,0.039,0.027,0.059,0.04c0.011,0.007,0.022,0.013,0.033,0.019
			c0.021,0.012,0.043,0.024,0.065,0.035c0.011,0.005,0.022,0.01,0.033,0.015c0.023,0.01,0.045,0.019,0.068,0.027
			c0.012,0.004,0.023,0.008,0.035,0.012c0.023,0.007,0.046,0.014,0.07,0.02c0.012,0.003,0.024,0.006,0.037,0.009
			c0.024,0.005,0.049,0.009,0.074,0.012c0.012,0.002,0.023,0.004,0.035,0.005c0.034,0.004,0.069,0.005,0.103,0.006
			c0.045,0,0.08-0.002,0.115-0.006c0.007,0,5.165-0.571,5.165-0.571c0.579-0.064,0.997-0.585,0.933-1.165
			c-0.064-0.579-0.586-0.996-1.165-0.933l-1.895,0.209c11.727-9.446,28.985-8.729,39.869,2.156
			c5.645,5.646,8.755,13.152,8.755,21.135c0,0.583,0.472,1.055,1.055,1.055s1.055-0.472,1.055-1.055
			C304,203.001,300.671,194.965,294.627,188.921z"/>
	</g>
	<path style="fill:#333333;" d="M288.153,193.46c-0.004-0.005-0.008-0.011-0.013-0.016c-0.063-0.071-0.133-0.13-0.208-0.18
		c-4.266-3.721-9.84-5.979-15.932-5.979c-6.092,0-11.666,2.257-15.932,5.979c-0.075,0.05-0.146,0.109-0.208,0.18
		c-0.005,0.005-0.008,0.011-0.013,0.016c-4.974,4.446-8.111,10.908-8.111,18.089c0,7.181,3.137,13.642,8.111,18.089
		c0.004,0.005,0.008,0.011,0.013,0.016c0.063,0.071,0.133,0.13,0.208,0.18c4.266,3.721,9.84,5.979,15.932,5.979
		c6.093,0,11.667-2.258,15.933-5.98c0.075-0.05,0.145-0.109,0.207-0.179c0.004-0.005,0.008-0.011,0.013-0.016
		c4.974-4.446,8.111-10.908,8.111-18.089C296.264,204.367,293.127,197.906,288.153,193.46z M284.647,210.494
		c-0.094-4.311-0.763-8.424-1.934-11.988c1.63-0.802,3.174-1.79,4.6-2.952c3.976,3.808,6.539,9.08,6.815,14.94H284.647z
		 M281.149,194.666c-0.885-1.77-1.89-3.244-2.985-4.398c2.771,0.804,5.321,2.135,7.531,3.878c-1.162,0.915-2.406,1.706-3.712,2.366
		C281.723,195.873,281.445,195.257,281.149,194.666z M280.055,197.373c-2.223,0.868-4.585,1.376-7,1.491v-9.353
		c2.295,0.5,4.468,2.621,6.207,6.099C279.544,196.172,279.808,196.762,280.055,197.373z M262.017,196.512
		c-1.306-0.66-2.55-1.451-3.712-2.366c2.21-1.743,4.76-3.074,7.531-3.878c-1.095,1.154-2.1,2.628-2.985,4.398
		C262.555,195.257,262.278,195.873,262.017,196.512z M264.738,195.609c1.739-3.478,3.912-5.599,6.207-6.099v9.353
		c-2.415-0.115-4.778-0.623-7-1.491C264.192,196.762,264.456,196.172,264.738,195.609z M270.945,200.976v9.518h-9.482
		c0.091-4.014,0.701-7.83,1.764-11.136C265.678,200.308,268.283,200.86,270.945,200.976z M270.945,212.603v9.518
		c-2.662,0.115-5.267,0.668-7.718,1.618c-1.063-3.306-1.673-7.122-1.764-11.136H270.945L270.945,212.603z M270.945,224.233v9.353
		c-2.295-0.5-4.468-2.621-6.207-6.099c-0.282-0.563-0.546-1.152-0.793-1.763C266.168,224.857,268.53,224.348,270.945,224.233z
		 M262.851,228.431c0.885,1.77,1.89,3.244,2.985,4.398c-2.771-0.804-5.321-2.135-7.531-3.878c1.162-0.915,2.406-1.706,3.712-2.366
		C262.278,227.224,262.555,227.84,262.851,228.431z M281.983,226.585c1.306,0.66,2.55,1.451,3.712,2.366
		c-2.21,1.743-4.76,3.074-7.531,3.878c1.095-1.154,2.1-2.628,2.985-4.398C281.445,227.84,281.723,227.224,281.983,226.585z
		 M279.262,227.488c-1.739,3.478-3.912,5.599-6.207,6.099v-9.353c2.415,0.115,4.778,0.623,7,1.491
		C279.808,226.335,279.544,226.925,279.262,227.488z M273.055,222.121v-9.518h9.482c-0.091,4.014-0.701,7.83-1.764,11.136
		C278.322,222.789,275.717,222.237,273.055,222.121z M273.055,210.494v-9.518c2.662-0.115,5.267-0.668,7.718-1.618
		c1.063,3.306,1.673,7.122,1.764,11.136H273.055z M256.687,195.554c1.426,1.161,2.97,2.149,4.6,2.952
		c-1.171,3.564-1.84,7.676-1.934,11.988h-9.481C250.148,204.634,252.711,199.362,256.687,195.554z M249.872,212.603h9.481
		c0.094,4.311,0.763,8.424,1.934,11.988c-1.63,0.802-3.174,1.79-4.6,2.952C252.711,223.735,250.148,218.463,249.872,212.603z
		 M287.313,227.543c-1.426-1.161-2.97-2.149-4.6-2.952c1.171-3.564,1.84-7.676,1.934-11.988h9.481
		C293.852,218.463,291.289,223.735,287.313,227.543z"/>
	<path style="fill:#333333;" d="M294.933,233.36c-0.001-0.008,0-0.016-0.001-0.024c-0.004-0.039-0.009-0.078-0.017-0.117
		c-0.002-0.007-0.004-0.015-0.005-0.022c-0.007-0.031-0.016-0.062-0.026-0.093c-0.003-0.01-0.007-0.02-0.011-0.03
		c-0.01-0.029-0.022-0.057-0.035-0.085c-0.004-0.009-0.008-0.018-0.013-0.027c-0.016-0.032-0.034-0.064-0.054-0.096
		c-0.002-0.003-0.004-0.006-0.006-0.01c-0.022-0.034-0.047-0.067-0.073-0.099c-0.001-0.002-0.002-0.003-0.004-0.005
		c-0.005-0.006-0.011-0.011-0.016-0.017c-0.015-0.017-0.029-0.034-0.046-0.051c-0.005-0.005-0.011-0.01-0.017-0.015
		c-0.01-0.01-0.021-0.019-0.031-0.028c-0.021-0.019-0.042-0.036-0.064-0.053c-0.01-0.007-0.019-0.015-0.029-0.022
		c-0.027-0.019-0.055-0.036-0.083-0.052c-0.006-0.003-0.011-0.007-0.017-0.01c-0.072-0.039-0.148-0.069-0.225-0.09
		c-0.008-0.002-0.016-0.004-0.025-0.006c-0.031-0.007-0.061-0.014-0.092-0.019c-0.011-0.002-0.022-0.003-0.032-0.005
		c-0.032-0.004-0.064-0.006-0.096-0.007c-0.008,0-0.016-0.001-0.024-0.001c-0.04,0-0.079,0.002-0.119,0.006
		c-0.002,0-0.004,0-0.006,0l-5.158,0.57c-0.579,0.064-0.997,0.585-0.933,1.165c0.064,0.579,0.587,0.997,1.165,0.933l1.895-0.209
		c-11.727,9.446-28.985,8.729-39.869-2.155c-5.646-5.646-8.755-13.152-8.755-21.135c0-0.583-0.472-1.055-1.055-1.055
		S240,210.966,240,211.549c0,8.547,3.329,16.583,9.373,22.627c6.044,6.044,14.08,9.373,22.627,9.373
		c7.291,0,14.209-2.424,19.837-6.887l-0.425,1.453c-0.164,0.559,0.157,1.145,0.716,1.309c0.099,0.029,0.199,0.043,0.297,0.043
		c0.457,0,0.877-0.299,1.012-0.759l1.455-4.973c0.001-0.003,0.001-0.005,0.002-0.007l0,0v0c0.011-0.038,0.019-0.077,0.026-0.115
		c0.002-0.012,0.003-0.023,0.005-0.035c0.004-0.028,0.007-0.056,0.008-0.084c0.001-0.013,0.002-0.026,0.002-0.038
		C294.936,233.422,294.935,233.391,294.933,233.36z"/>
	<path style="fill:#333333;" d="M294.627,188.921c-6.044-6.044-14.08-9.373-22.627-9.373c-7.291,0-14.209,2.424-19.837,6.887
		l0.425-1.453c0.164-0.559-0.157-1.145-0.716-1.309c-0.56-0.163-1.145,0.157-1.309,0.716l-1.455,4.973
		c-0.001,0.003-0.001,0.005-0.002,0.007l0,0v0c-0.011,0.038-0.019,0.077-0.026,0.115c-0.002,0.012-0.003,0.023-0.005,0.035
		c-0.004,0.028-0.007,0.056-0.008,0.084c-0.001,0.013-0.002,0.025-0.002,0.038c-0.001,0.031,0,0.062,0.002,0.093
		c0.001,0.008,0,0.016,0.001,0.024c0.004,0.039,0.009,0.078,0.017,0.117c0.002,0.008,0.004,0.015,0.005,0.022
		c0.007,0.031,0.016,0.062,0.026,0.093c0.003,0.01,0.007,0.02,0.011,0.03c0.01,0.029,0.022,0.057,0.035,0.085
		c0.004,0.009,0.008,0.018,0.013,0.027c0.016,0.033,0.034,0.064,0.054,0.095c0.002,0.003,0.004,0.007,0.006,0.01
		c0.022,0.034,0.047,0.067,0.073,0.099c0.001,0.002,0.002,0.003,0.004,0.005c0.007,0.008,0.015,0.016,0.023,0.024
		c0.013,0.015,0.026,0.03,0.04,0.044c0.003,0.003,0.007,0.006,0.01,0.009c0.011,0.011,0.023,0.021,0.034,0.031
		c0.017,0.015,0.034,0.03,0.051,0.044c0.011,0.009,0.023,0.017,0.034,0.025c0.019,0.014,0.039,0.027,0.059,0.04
		c0.011,0.007,0.022,0.013,0.033,0.019c0.021,0.012,0.043,0.024,0.065,0.035c0.011,0.005,0.022,0.01,0.033,0.015
		c0.023,0.01,0.045,0.019,0.068,0.027c0.012,0.004,0.023,0.008,0.035,0.012c0.023,0.007,0.046,0.014,0.07,0.02
		c0.012,0.003,0.024,0.006,0.037,0.009c0.024,0.005,0.049,0.009,0.074,0.012c0.012,0.002,0.023,0.004,0.035,0.005
		c0.034,0.004,0.069,0.005,0.103,0.006c0.002,0,0.004,0,0.006,0c0.001,0,0.003,0,0.004,0c0.035,0,0.07-0.002,0.105-0.006
		c0.002,0,0.005,0,0.007,0l5.158-0.57c0.579-0.064,0.997-0.585,0.933-1.165c-0.064-0.579-0.586-0.996-1.165-0.933l-1.895,0.209
		c11.726-9.446,28.985-8.729,39.869,2.156c5.645,5.646,8.755,13.152,8.755,21.135c0,0.583,0.472,1.055,1.055,1.055
		s1.055-0.472,1.055-1.055C304,203.001,300.671,194.965,294.627,188.921z"/>
	<path style="fill:#FFFFFF;" d="M261.031,194.439c-0.255-0.418-0.123-0.964,0.295-1.219c0.418-0.255,0.964-0.123,1.219,0.295
		c0.255,0.418,0.123,0.964-0.295,1.219C261.832,194.989,261.286,194.856,261.031,194.439L261.031,194.439z M261.386,195.019"/>
	<path style="fill:#FFFFFF;" d="M267.432,196.039c-0.255-0.418-0.123-0.964,0.295-1.219c0.418-0.255,0.964-0.123,1.219,0.295
		c0.255,0.418,0.123,0.964-0.295,1.219C268.232,196.589,267.686,196.456,267.432,196.039L267.432,196.039z M267.786,196.619"/>
	<path style="fill:#FFFFFF;" d="M275.432,196.039c-0.255-0.418-0.123-0.964,0.295-1.219c0.418-0.255,0.964-0.123,1.219,0.295
		c0.255,0.418,0.123,0.964-0.295,1.219C276.232,196.589,275.686,196.456,275.432,196.039L275.432,196.039z M275.786,196.619"/>
	<path style="fill:#FFFFFF;" d="M282.632,194.439c-0.255-0.418-0.123-0.964,0.295-1.219c0.418-0.255,0.964-0.123,1.219,0.295
		c0.255,0.418,0.123,0.964-0.295,1.219C283.432,194.989,282.886,194.856,282.632,194.439L282.632,194.439z M282.986,195.019"/>
</g>
</svg>
