<?xml version="1.0" encoding="iso-8859-1"?>
<!-- Generator: Adobe Illustrator 21.0.2, SVG Export Plug-In . SVG Version: 6.00 Build 0)  -->
<svg version="1.1" id="Layer_1" xmlns="http://www.w3.org/2000/svg" xmlns:xlink="http://www.w3.org/1999/xlink" x="0px" y="0px"
	 viewBox="0 0 64 64" style="enable-background:new 0 0 64 64;" xml:space="preserve">
<g>
	<linearGradient id="SVGID_1_" gradientUnits="userSpaceOnUse" x1="14.778" y1="49.0801" x2="48.7191" y2="15.1389">
		<stop  offset="0" style="stop-color:#EA8340"/>
		<stop  offset="1" style="stop-color:#B34EB1"/>
	</linearGradient>
	<circle style="fill:url(#SVGID_1_);stroke:#333333;stroke-width:2;stroke-miterlimit:10;" cx="31.749" cy="32.11" r="24"/>
	<path style="fill:#FFFFFF;" d="M31.749,28.183c2.514,0,4.557,2.043,4.557,4.557c0,2.514-2.043,4.557-4.557,4.557
		c-2.514,0-4.557-2.043-4.557-4.557C27.192,30.226,29.235,28.183,31.749,28.183L31.749,28.183z M31.749,28.183"/>
	<path style="fill:#AFB6BB;" d="M31.749,25.145c4.192,0,7.595,3.403,7.595,7.595c0,4.192-3.403,7.595-7.595,7.595
		c-4.192,0-7.595-3.403-7.595-7.595C24.154,28.547,27.556,25.145,31.749,25.145L31.749,25.145z M36.306,32.74
		c0-2.514-2.043-4.557-4.557-4.557c-2.514,0-4.557,2.043-4.557,4.557c0,2.514,2.043,4.557,4.557,4.557
		C34.262,37.297,36.306,35.254,36.306,32.74L36.306,32.74z M36.306,32.74"/>
	<path style="fill:#E7ECED;" d="M40.103,25.525c1.048,0,1.899-0.851,1.899-1.899c0-1.048-0.851-1.899-1.899-1.899
		c-1.048,0-1.899,0.851-1.899,1.899C38.204,24.674,39.055,25.525,40.103,25.525L40.103,25.525z M45.799,25.145v14.81
		c0,3.774-3.061,6.835-6.835,6.835h-14.43c-3.775,0-6.835-3.061-6.835-6.835v-14.81c0-3.775,3.061-6.835,6.835-6.835h14.43
		C42.738,18.309,45.799,21.37,45.799,25.145L45.799,25.145z M39.343,32.74c0-4.192-3.403-7.595-7.595-7.595
		c-4.192,0-7.595,3.403-7.595,7.595c0,4.192,3.403,7.595,7.595,7.595C35.941,40.335,39.343,36.932,39.343,32.74L39.343,32.74z
		 M39.343,32.74"/>
	<path style="fill:#231F20;" d="M31.749,24.385c-4.607,0-8.354,3.748-8.354,8.354s3.748,8.354,8.354,8.354s8.354-3.748,8.354-8.354
		S36.355,24.385,31.749,24.385L31.749,24.385z M31.749,39.575c-3.769,0-6.835-3.067-6.835-6.835s3.067-6.835,6.835-6.835
		c3.769,0,6.835,3.067,6.835,6.835S35.517,39.575,31.749,39.575L31.749,39.575z M31.749,39.575"/>
	<path style="fill:#231F20;" d="M31.749,27.423c-2.932,0-5.316,2.385-5.316,5.316s2.385,5.316,5.316,5.316s5.316-2.385,5.316-5.316
		S34.68,27.423,31.749,27.423L31.749,27.423z M31.749,36.537c-2.094,0-3.797-1.704-3.797-3.797s1.704-3.797,3.797-3.797
		s3.797,1.704,3.797,3.797S33.842,36.537,31.749,36.537L31.749,36.537z M31.749,36.537"/>
	<path style="fill:#231F20;" d="M38.964,17.55h-14.43c-4.188,0-7.595,3.407-7.595,7.595v14.81c0,4.188,3.407,7.595,7.595,7.595
		h14.43c4.188,0,7.595-3.407,7.595-7.595v-14.81C46.559,20.957,43.152,17.55,38.964,17.55L38.964,17.55z M45.04,39.955
		c0,3.35-2.726,6.076-6.076,6.076h-14.43c-3.35,0-6.076-2.726-6.076-6.076v-14.81c0-3.35,2.726-6.076,6.076-6.076h14.43
		c3.35,0,6.076,2.726,6.076,6.076V39.955z M45.04,39.955"/>
</g>
</svg>
