<?xml version="1.0" encoding="iso-8859-1"?>
<!-- Generator: Adobe Illustrator 21.0.2, SVG Export Plug-In . SVG Version: 6.00 Build 0)  -->
<svg version="1.1" id="Layer_1" xmlns="http://www.w3.org/2000/svg" xmlns:xlink="http://www.w3.org/1999/xlink" x="0px" y="0px"
	 viewBox="96.777 164.548 92.445 90.106" style="enable-background:new 96.777 164.548 92.445 90.106;" xml:space="preserve">
<g>
	<path style="fill:#F7B239;" d="M176.133,194.243c0-8.62-8.8-15.609-19.654-15.609c-10.855,0-19.654,6.988-19.654,15.609
		c0,7.701,7.023,14.099,16.261,15.376h-0.028c0.485,2.977-0.41,6.139-2.684,8.436c4.881,0,8.91-3.676,9.522-8.435h-0.028
		C169.107,208.344,176.133,201.945,176.133,194.243z"/>
	<path style="fill:#2BA5F7;" d="M156.535,228.444c-2.975-2.974-6.16-5.478-6.16-5.478l-4.642,4.642l-18.573-18.573l4.642-4.642
		c0,0-2.504-3.186-5.478-6.16c-2.975-2.974-6.16-5.478-6.16-5.478s-5.562,5.117-5.936,9.175c-0.5,5.432,5.249,15.308,14.277,24.336
		c9.027,9.027,18.904,14.777,24.335,14.277c4.058-0.374,9.175-5.936,9.175-5.936S159.51,231.418,156.535,228.444z"/>
	<path style="fill:#333333;" d="M171.018,182.397c-3.894-3.093-9.057-4.796-14.539-4.796c-5.482,0-10.645,1.703-14.539,4.796
		c-3.964,3.148-6.147,7.355-6.147,11.845c0,7.904,6.82,14.643,16.334,16.272c0.194,2.515-0.708,5.018-2.486,6.813
		c-0.293,0.296-0.38,0.739-0.219,1.124s0.536,0.635,0.953,0.635c5.068,0,9.417-3.631,10.419-8.566
		c4.406-0.752,8.422-2.663,11.378-5.426c3.221-3.012,4.995-6.866,4.995-10.852C177.165,189.752,174.982,185.545,171.018,182.397z
		 M159.727,208.597c-0.538,0.074-0.926,0.552-0.889,1.093c0.001,0.008,0.001,0.016,0.002,0.024c-0.525,3.38-2.977,6.07-6.123,6.978
		c1.226-2.08,1.736-4.548,1.398-6.988c0-0.005,0.001-0.01,0.001-0.014c0.037-0.541-0.351-1.019-0.889-1.093
		c-8.906-1.231-15.37-7.267-15.37-14.354c0-8.037,8.353-14.576,18.621-14.576s18.621,6.539,18.621,14.576
		C175.1,201.33,168.635,207.367,159.727,208.597z"/>
	<path style="fill:#333333;" d="M149.453,192.236c-1.106,0-2.007,0.9-2.007,2.007c0,1.106,0.9,2.007,2.007,2.007
		c1.106,0,2.007-0.9,2.007-2.007C151.46,193.136,150.56,192.236,149.453,192.236z"/>
	<path style="fill:#333333;" d="M163.505,192.236c-1.106,0-2.007,0.9-2.007,2.007c0,1.106,0.9,2.007,2.007,2.007
		c1.106,0,2.007-0.9,2.007-2.007C165.512,193.136,164.612,192.236,163.505,192.236z"/>
	<path style="fill:#333333;" d="M156.479,192.236c-1.106,0-2.007,0.9-2.007,2.007c0,1.106,0.9,2.007,2.007,2.007
		c1.106,0,2.007-0.9,2.007-2.007C158.486,193.136,157.586,192.236,156.479,192.236z"/>
	<path style="fill:#333333;" d="M162.825,233.967c-0.104-0.133-2.576-3.269-5.56-6.252c-2.984-2.985-6.12-5.458-6.252-5.56
		c-0.41-0.324-0.998-0.289-1.368,0.081l-3.913,3.911l-12.701-12.701c-0.057-0.057-0.121-0.107-0.188-0.147l-2.584-2.584
		c-0.04-0.066-0.09-0.13-0.148-0.188l-1.492-1.494l3.911-3.911c0.37-0.37,0.405-0.957,0.081-1.367
		c-0.104-0.133-2.576-3.269-5.56-6.252s-6.12-5.456-6.252-5.56c-0.397-0.314-0.964-0.291-1.336,0.051
		c-0.239,0.22-5.86,5.436-6.265,9.84c-0.535,5.798,5.322,15.909,14.575,25.16c8.861,8.861,18.511,14.609,24.404,14.609
		c0.259,0,0.511-0.011,0.756-0.034c4.404-0.406,9.62-6.026,9.84-6.265C163.116,234.93,163.139,234.364,162.825,233.967z
		 M152.744,239.512c-5.139,0.476-14.806-5.275-23.51-13.979c-8.704-8.704-14.452-18.371-13.979-23.51
		c0.241-2.63,3.246-6.156,4.969-7.894c1.094,0.898,3.295,2.758,5.37,4.833c2.066,2.066,3.921,4.26,4.821,5.356l-3.985,3.986
		c-0.404,0.402-0.404,1.056,0,1.459l2.223,2.223c0.065,0.065,0.135,0.119,0.211,0.161l2.545,2.545
		c0.044,0.076,0.099,0.149,0.164,0.214l13.431,13.431c0.193,0.194,0.455,0.302,0.729,0.302c0.274,0,0.536-0.109,0.73-0.302
		l3.986-3.985c1.096,0.9,3.289,2.754,5.356,4.822c2.075,2.074,3.935,4.275,4.833,5.369
		C158.899,236.267,155.374,239.27,152.744,239.512z"/>
	<path style="fill:#FFFFFF;" d="M122.54,211.01c-0.284,0.174-0.655,0.179-0.951-0.017c-1.033-0.683-1.888-1.572-2.541-2.642
		c-1.172-1.921-1.526-4.183-0.996-6.369c0.046-0.19,0.127-0.45,0.239-0.772c0.162-0.462,0.667-0.706,1.13-0.544
		c0.462,0.162,0.706,0.667,0.544,1.13c-0.091,0.26-0.158,0.474-0.19,0.604c-0.418,1.726-0.139,3.511,0.787,5.028
		c0.516,0.846,1.191,1.548,2.005,2.086c0.409,0.27,0.521,0.82,0.251,1.229C122.743,210.855,122.647,210.944,122.54,211.01
		L122.54,211.01z M122.54,211.01 M119.486,198.849c-0.255-0.418-0.123-0.964,0.295-1.219c0.418-0.255,0.964-0.123,1.219,0.295
		c0.255,0.418,0.123,0.964-0.295,1.219C120.286,199.4,119.741,199.267,119.486,198.849L119.486,198.849z M119.84,199.43"/>
</g>
</svg>
