<?xml version="1.0" encoding="iso-8859-1"?>
<!-- Generator: Adobe Illustrator 21.0.2, SVG Export Plug-In . SVG Version: 6.00 Build 0)  -->
<svg version="1.1" id="Layer_1" xmlns="http://www.w3.org/2000/svg" xmlns:xlink="http://www.w3.org/1999/xlink" x="0px" y="0px"
	 viewBox="96.777 271.333 92.445 90.106" style="enable-background:new 96.777 271.333 92.445 90.106;" xml:space="preserve">
<g>
	<circle style="fill:#15ACE5;stroke:#333333;stroke-width:2;stroke-miterlimit:10;" cx="142.999" cy="314.443" r="32"/>
	<g>
		<g>
			<defs>
				<rect id="SVGID_21_" x="121.999" y="298.907" width="42" height="34.656"/>
			</defs>
			<clipPath id="SVGID_2_">
				<use xlink:href="#SVGID_21_"  style="overflow:visible;"/>
			</clipPath>
			<path style="clip-path:url(#SVGID_2_);fill:#E2E2E2;" d="M162.995,303.779l-4.098,4.264c0,16.983-13.64,24.798-22.796,24.467
				c-9.147-0.332-13.17-3.757-13.17-3.757c6.913,0.932,12.016-3.284,12.016-3.284c-6.266-0.804-7.503-5.732-7.503-5.732
				c1.642,0.443,3.636-0.222,3.636-0.222c-7.014-2.178-6.442-8.131-6.442-8.131c0.563,0.619,3.563,1.061,3.563,1.061
				c-6.184-4.577-2.446-10.973-2.446-10.973c7.725,8.842,16.927,8.621,16.927,8.621c-1.422-4.449,2.049-7.781,2.049-7.781
				c6.441-5.51,11.905,0.185,11.905,0.185c2.261,0,5.197-2.05,5.197-2.05c-0.222,2.4-3.471,4.671-3.471,4.671
				C159.571,305.247,162.995,303.779,162.995,303.779L162.995,303.779z M162.995,303.779"/>
			<path style="clip-path:url(#SVGID_2_);fill:#FFFFFF;" d="M150.388,304.369c1.144,0,2.077,0.932,2.077,2.077
				c0,1.145-0.932,2.077-2.077,2.077c-1.145,0-2.077-0.932-2.077-2.077C148.311,305.301,149.243,304.369,150.388,304.369
				L150.388,304.369z M150.388,304.369"/>
			<path style="clip-path:url(#SVGID_2_);fill:#333333;" d="M163.76,303.249c-0.252-0.364-0.725-0.5-1.132-0.326
				c-0.314,0.135-0.7,0.29-1.114,0.446c0.743-0.973,1.16-1.923,1.245-2.837c0.033-0.36-0.146-0.708-0.459-0.89
				c-0.313-0.182-0.704-0.166-1.001,0.04c-0.699,0.487-2.74,1.696-4.316,1.863c-0.836-0.743-3.214-2.567-6.421-2.567
				c-2.236,0-4.402,0.883-6.439,2.625c-0.014,0.011-0.027,0.024-0.04,0.036c-0.145,0.139-3.241,3.173-2.593,7.452
				c-1.016-0.106-2.632-0.37-4.547-1.032c-3.988-1.376-7.518-3.799-10.49-7.201c-0.197-0.225-0.49-0.343-0.789-0.315
				c-0.298,0.029-0.565,0.199-0.716,0.457c-0.042,0.073-1.045,1.812-1.221,4.171c-0.113,1.514,0.107,3.483,1.386,5.413
				c-0.23-0.137-0.511-0.172-0.773-0.085c-0.349,0.116-0.597,0.428-0.632,0.794c-0.006,0.071-0.156,1.743,0.659,3.696
				c0.491,1.178,1.406,2.618,3.105,3.815c-0.251-0.007-0.499,0.086-0.683,0.266c-0.236,0.231-0.331,0.57-0.251,0.891
				c0.015,0.058,0.374,1.451,1.584,2.928c0.847,1.034,2.258,2.277,4.471,3.003c-1.659,0.921-4.377,2.062-7.659,2.062
				c-0.628,0-1.262-0.042-1.883-0.126c-0.409-0.055-0.806,0.166-0.974,0.543c-0.168,0.377-0.068,0.82,0.247,1.088
				c0.174,0.149,4.377,3.639,13.739,3.978c0.197,0.007,0.398,0.01,0.598,0.01c5.227,0,10.899-2.334,15.173-6.243
				c3.598-3.292,7.879-9.212,7.989-18.788l3.84-3.996C163.973,304.104,164.012,303.614,163.76,303.249L163.76,303.249z
				 M158.226,307.398c-0.167,0.173-0.26,0.405-0.26,0.645c0,9.12-4.016,14.709-7.386,17.791c-3.939,3.603-9.141,5.755-13.916,5.755
				c-0.178,0-0.356-0.003-0.53-0.01c-4.288-0.155-7.413-1.018-9.477-1.852c5.204-0.55,8.72-3.407,8.883-3.541
				c0.286-0.236,0.405-0.619,0.301-0.976c-0.103-0.356-0.408-0.618-0.776-0.665c-3.606-0.463-5.348-2.396-6.135-3.729
				c1.294-0.039,2.396-0.402,2.445-0.419c0.384-0.128,0.64-0.489,0.636-0.893c-0.004-0.404-0.269-0.759-0.654-0.879
				c-4.222-1.311-5.386-4.079-5.695-5.764c0.824,0.243,1.746,0.406,2.403,0.504c0.422,0.063,0.833-0.171,0.996-0.565
				c0.163-0.395,0.037-0.85-0.306-1.104c-3.957-2.929-3.377-6.659-2.724-8.548c7.365,7.645,15.634,7.875,16.59,7.875
				c0.055,0,0.084-0.001,0.084-0.001c0.293-0.008,0.566-0.153,0.735-0.392c0.17-0.239,0.218-0.544,0.129-0.822
				c-1.189-3.72,1.531-6.551,1.791-6.81c1.683-1.432,3.433-2.158,5.205-2.158c3.131,0,5.38,2.279,5.4,2.3
				c0.175,0.183,0.418,0.286,0.672,0.286c0.996,0,2.077-0.33,3.029-0.737c-0.663,0.753-1.423,1.374-1.836,1.664
				c-0.318,0.222-0.465,0.619-0.369,0.994c0.097,0.376,0.416,0.653,0.802,0.694c0.083,0.009,0.172,0.013,0.265,0.013
				c0.321,0,0.715-0.06,1.139-0.156L158.226,307.398z M158.226,307.398"/>
		</g>
		<path style="fill:#333333;" d="M150.388,303.438c-1.659,0-3.008,1.35-3.008,3.008c0,1.659,1.349,3.007,3.008,3.007
			c1.658,0,3.007-1.349,3.007-3.007C153.395,304.788,152.046,303.438,150.388,303.438L150.388,303.438z M150.388,307.591
			c-0.632,0-1.146-0.514-1.146-1.146c0-0.632,0.514-1.146,1.146-1.146c0.632,0,1.146,0.514,1.146,1.146
			C151.533,307.077,151.019,307.591,150.388,307.591L150.388,307.591z M150.388,307.591"/>
	</g>
</g>
</svg>
