<?xml version="1.0" encoding="utf-8"?>
<!-- Generator: Adobe Illustrator 21.0.2, SVG Export Plug-In . SVG Version: 6.00 Build 0)  -->
<svg version="1.1" id="Layer_1" xmlns="http://www.w3.org/2000/svg" xmlns:xlink="http://www.w3.org/1999/xlink" x="0px" y="0px"
	 viewBox="0 0 105 50" style="enable-background:new 0 0 105 50;" xml:space="preserve">
<style type="text/css">
	.st0{fill:#1D1D1B;}
	.st1{fill:#686868;}
	.st2{fill:#AAAAAA;}
	.st3{fill:#27C6FA;}
	.st4{fill:#4DD4FF;}
	.st5{fill:#FFF4C5;}
	.st6{fill:#F24A00;}
	.st7{fill:#8695A3;}
	.st8{fill:#EFEFEF;}
</style>
<g>
	<g>
		<circle class="st0" cx="76.2" cy="41.7" r="7.9"/>
		<circle class="st1" cx="76.2" cy="41.7" r="4.4"/>
		<circle class="st2" cx="76.2" cy="41.7" r="2.6"/>
		<circle class="st0" cx="25.2" cy="41.7" r="7.9"/>
		<path class="st3" d="M62.3,26.9c0,0,39.9,7.6,41.4,7.6l-1.8,9.5h-17c0,0-0.9-7.1-8.7-7.1s-9.2,7.1-9.2,7.1H34.5
			c0,0-1.7-7.1-9.3-7.1c-7.9,0-10.7,6.1-10.7,7.1c0,0-10.8-0.5-12.2-1.3C0.7,41.9,2.8,29,2.8,29l7-2.1c0,0,2.6-25.3,3.8-26.9
			c0,0,38.6-1.1,42.8,0L62.3,26.9z"/>
		<circle class="st1" cx="25.2" cy="41.7" r="4.4"/>
		<circle class="st2" cx="25.2" cy="41.7" r="2.6"/>
		<path class="st4" d="M52.7,2l4.7,23.6l-2.4,14.8H38.6c0,0-2.8-7-7-7.2L33,2.5L52.7,2z"/>
		<path class="st5" d="M102.6,40.3c0,0-4.6-2-5-6.8l6.1,1L102.6,40.3z"/>
		<path class="st6" d="M2.2,30.9c0,0-4.3,1.3-0.5,4.5L2.2,30.9z"/>
		<polygon class="st7" points="62,25.6 58.7,24.5 54.5,3.8 57.3,4.2 		"/>
		<path class="st7" d="M55.1,24.5c0,0-3.2-20.3-3.4-20.8c-2-0.2-17.4,0-17.4,0v20.8H55.1z"/>
		<polygon class="st7" points="30.1,24.5 31.1,3.7 15.5,3.7 13.4,24.5 		"/>
		<path class="st8" d="M33,26.8c0,0.7,0.5,1.2,1.2,1.2h3.2c0.7,0,1.2-0.5,1.2-1.2l0,0c0-0.7-0.5-1.2-1.2-1.2h-3.2
			C33.5,25.6,33,26.1,33,26.8L33,26.8z"/>
		<polygon class="st4" points="97.6,33.6 93.1,35.4 63.9,29 62.3,26.9 		"/>
		<path class="st8" d="M104.4,40.3l-5.8-0.6c0,0-0.8,3.8,0,4.6c0.8,0.8,5.1,0.6,5.1,0.6L104.4,40.3z"/>
		<path class="st8" d="M58.5,26.8c0,0,2.2-0.5,2.1-2.9s-4.8-2.7-4.8-2.7l0.5,5.8L58.5,26.8z"/>
	</g>
</g>
</svg>
