<?xml version="1.0" encoding="utf-8"?>
<!-- Generator: Adobe Illustrator 21.0.2, SVG Export Plug-In . SVG Version: 6.00 Build 0)  -->
<svg version="1.1" id="Layer_1" xmlns="http://www.w3.org/2000/svg" xmlns:xlink="http://www.w3.org/1999/xlink" x="0px" y="0px"
	 viewBox="0 0 105 50" style="enable-background:new 0 0 105 50;" xml:space="preserve">
<style type="text/css">
	.st0{fill:#1D1D1B;}
	.st1{fill:#686868;}
	.st2{fill:#AAAAAA;}
	.st3{fill:#F4C606;}
	.st4{fill:#FFD62C;}
	.st5{fill:#FFF4C5;}
	.st6{fill:#F24A00;}
	.st7{fill:#8695A3;}
	.st8{fill:#EFEFEF;}
</style>
<g>
	<g>
		<circle class="st0" cx="28.4" cy="41.9" r="7.9"/>
		<circle class="st1" cx="28.4" cy="41.9" r="4.4"/>
		<circle class="st2" cx="28.4" cy="41.9" r="2.6"/>
		<circle class="st0" cx="79.3" cy="41.9" r="7.9"/>
		<path class="st3" d="M42.2,27.2c0,0-39.9,7.6-41.4,7.6l1.8,9.5h17c0,0,0.9-7.1,8.7-7.1s9.2,7.1,9.2,7.1H70c0,0,1.7-7.1,9.3-7.1
			c7.9,0,10.7,6.1,10.7,7.1c0,0,10.8-0.5,12.2-1.3c1.5-0.8-0.6-13.7-0.6-13.7l-7-2.1c0,0-2.6-25.3-3.8-26.9c0,0-38.6-1.1-42.8,0
			L42.2,27.2z"/>
		<circle class="st1" cx="79.3" cy="41.9" r="4.4"/>
		<circle class="st2" cx="79.3" cy="41.9" r="2.6"/>
		<path class="st4" d="M51.8,2.2l-4.7,23.6l2.4,14.8H66c0,0,2.8-7,7-7.2L71.5,2.7L51.8,2.2z"/>
		<path class="st5" d="M1.9,40.6c0,0,4.6-2,5-6.8l-6.1,1L1.9,40.6z"/>
		<path class="st6" d="M102.3,31.1c0,0,4.3,1.3,0.5,4.5L102.3,31.1z"/>
		<polygon class="st7" points="42.5,25.8 45.8,24.8 50,4.1 47.2,4.4 		"/>
		<path class="st7" d="M49.5,24.8c0,0,3.2-20.3,3.4-20.8c2-0.2,17.4,0,17.4,0v20.8H49.5z"/>
		<polygon class="st7" points="74.4,24.8 73.5,4 89.1,4 91.2,24.8 		"/>
		<path class="st8" d="M71.5,27c0,0.7-0.5,1.2-1.2,1.2h-3.2c-0.7,0-1.2-0.5-1.2-1.2l0,0c0-0.7,0.5-1.2,1.2-1.2h3.2
			C71,25.8,71.5,26.4,71.5,27L71.5,27z"/>
		<polygon class="st4" points="6.9,33.8 11.4,35.6 40.7,29.3 42.2,27.2 		"/>
		<path class="st8" d="M0.2,40.6L6,40c0,0,0.8,3.8,0,4.6s-5.1,0.6-5.1,0.6L0.2,40.6z"/>
		<path class="st8" d="M46,27c0,0-2.2-0.5-2.1-2.9s4.8-2.7,4.8-2.7l-0.5,5.8L46,27z"/>
	</g>
</g>
</svg>
