<?xml version="1.0" encoding="utf-8"?>
<!-- Generator: Adobe Illustrator 21.0.2, SVG Export Plug-In . SVG Version: 6.00 Build 0)  -->
<svg version="1.1" id="Layer_1" xmlns="http://www.w3.org/2000/svg" xmlns:xlink="http://www.w3.org/1999/xlink" x="0px" y="0px"
	 viewBox="0 0 457 356" style="enable-background:new 0 0 457 356;" xml:space="preserve">
<style type="text/css">
	.st0{fill:none;stroke:#32383D;stroke-width:10;stroke-miterlimit:10;}
	.st1{fill:none;stroke:#878891;stroke-width:6;stroke-miterlimit:10;}
	.st2{fill:#626474;stroke:#32383D;stroke-width:2;stroke-miterlimit:10;}
	.st3{fill:#A1B4C4;}
	.st4{fill:#32383D;}
	.st5{fill:#ABF4EB;}
	.st6{fill:#529DF7;}
	.st7{fill:#FC3D4B;}
	.st8{fill:#F9BF64;}
	.st9{fill:#529DF7;stroke:#32383D;stroke-width:2;stroke-miterlimit:10;}
	.st10{fill:none;stroke:#32383D;stroke-width:2;stroke-miterlimit:10;}
	.st11{fill:#F3FFBE;stroke:#32383D;stroke-width:2;stroke-miterlimit:10;}
	.st12{fill:#0E67B0;stroke:#F3FFBE;stroke-width:0.25;stroke-miterlimit:10;}
</style>
<g>
	<g>
		<line class="st0" x1="448" y1="252.2" x2="448" y2="297"/>
		<line class="st1" x1="448" y1="252.2" x2="448" y2="297"/>
	</g>
	<rect x="343" y="228" class="st2" width="113" height="25"/>
	<g>
		<g>
			<rect x="349.8" y="316.5" class="st3" width="15.6" height="8.8"/>
			<path class="st4" d="M365.4,325.8h-15.6c-0.4,0-0.7-0.2-0.7-0.5v-8.8c0-0.3,0.3-0.5,0.7-0.5h15.6c0.4,0,0.7,0.2,0.7,0.5v8.8
				C366.1,325.6,365.8,325.8,365.4,325.8z M350.5,324.9h14.2V317h-14.2V324.9z"/>
		</g>
		<g>
			<rect x="318.6" y="316.5" class="st3" width="15.6" height="8.8"/>
			<path class="st4" d="M334.2,325.8h-15.6c-0.4,0-0.7-0.2-0.7-0.5v-8.8c0-0.3,0.3-0.5,0.7-0.5h15.6c0.4,0,0.7,0.2,0.7,0.5v8.8
				C334.9,325.6,334.6,325.8,334.2,325.8z M319.2,324.9h14.2V317h-14.2V324.9z"/>
		</g>
		<g>
			<rect x="302.9" y="316.5" class="st3" width="15.6" height="8.8"/>
			<path class="st4" d="M318.6,325.8h-15.6c-0.4,0-0.7-0.2-0.7-0.5v-8.8c0-0.3,0.3-0.5,0.7-0.5h15.6c0.4,0,0.7,0.2,0.7,0.5v8.8
				C319.2,325.6,318.9,325.8,318.6,325.8z M303.6,324.9h14.2V317h-14.2V324.9z"/>
		</g>
		<g>
			<rect x="349.8" y="325.4" class="st3" width="15.6" height="8.5"/>
			<path class="st4" d="M365.4,334.3h-15.6c-0.4,0-0.7-0.2-0.7-0.5v-8.5c0-0.3,0.3-0.5,0.7-0.5h15.6c0.4,0,0.7,0.2,0.7,0.5v8.5
				C366.1,334.1,365.8,334.3,365.4,334.3z M350.5,333.4h14.2v-7.5h-14.2V333.4z"/>
		</g>
		<g>
			<rect x="334.2" y="316.5" class="st3" width="15.6" height="8.8"/>
			<path class="st4" d="M349.8,325.8h-15.6c-0.4,0-0.7-0.2-0.7-0.5v-8.8c0-0.3,0.3-0.5,0.7-0.5h15.6c0.4,0,0.7,0.2,0.7,0.5v8.8
				C350.5,325.6,350.2,325.8,349.8,325.8z M334.9,324.9h14.2V317h-14.2V324.9z"/>
		</g>
		<g>
			<rect x="302.9" y="325.4" class="st3" width="15.6" height="8.5"/>
			<path class="st4" d="M318.6,334.3h-15.6c-0.4,0-0.7-0.2-0.7-0.5v-8.5c0-0.3,0.3-0.5,0.7-0.5h15.6c0.4,0,0.7,0.2,0.7,0.5v8.5
				C319.2,334.1,318.9,334.3,318.6,334.3z M303.6,333.4h14.2v-7.5h-14.2V333.4z"/>
		</g>
		<g>
			<rect x="318.6" y="325.4" class="st3" width="15.6" height="8.5"/>
			<path class="st4" d="M334.2,334.3h-15.6c-0.4,0-0.7-0.2-0.7-0.5v-8.5c0-0.3,0.3-0.5,0.7-0.5h15.6c0.4,0,0.7,0.2,0.7,0.5v8.5
				C334.9,334.1,334.6,334.3,334.2,334.3z M319.2,333.4h14.2v-7.5h-14.2V333.4z"/>
		</g>
		<g>
			<rect x="334.2" y="325.4" class="st3" width="15.6" height="8.5"/>
			<path class="st4" d="M349.8,334.3h-15.6c-0.4,0-0.7-0.2-0.7-0.5v-8.5c0-0.3,0.3-0.5,0.7-0.5h15.6c0.4,0,0.7,0.2,0.7,0.5v8.5
				C350.5,334.1,350.2,334.3,349.8,334.3z M334.9,333.4h14.2v-7.5h-14.2V333.4z"/>
		</g>
		<g>
			<rect x="177.9" y="316.5" class="st3" width="15.6" height="8.8"/>
			<path class="st4" d="M193.5,325.8h-15.6c-0.4,0-0.7-0.2-0.7-0.5v-8.8c0-0.3,0.3-0.5,0.7-0.5h15.6c0.4,0,0.7,0.2,0.7,0.5v8.8
				C194.2,325.6,193.9,325.8,193.5,325.8z M178.6,324.9h14.2V317h-14.2V324.9z"/>
		</g>
		<g>
			<rect x="209.1" y="316.5" class="st3" width="15.6" height="8.8"/>
			<path class="st4" d="M224.8,325.8h-15.6c-0.4,0-0.7-0.2-0.7-0.5v-8.8c0-0.3,0.3-0.5,0.7-0.5h15.6c0.4,0,0.7,0.2,0.7,0.5v8.8
				C225.5,325.6,225.2,325.8,224.8,325.8z M209.8,324.9h14.2V317h-14.2V324.9z"/>
		</g>
		<g>
			<rect x="193.5" y="316.5" class="st3" width="15.6" height="8.8"/>
			<path class="st4" d="M209.1,325.8h-15.6c-0.4,0-0.7-0.2-0.7-0.5v-8.8c0-0.3,0.3-0.5,0.7-0.5h15.6c0.4,0,0.7,0.2,0.7,0.5v8.8
				C209.8,325.6,209.5,325.8,209.1,325.8z M194.2,324.9h14.2V317h-14.2V324.9z"/>
		</g>
		<g>
			<rect x="287.3" y="325.4" class="st3" width="15.6" height="8.5"/>
			<path class="st4" d="M302.9,334.3h-15.6c-0.4,0-0.7-0.2-0.7-0.5v-8.5c0-0.3,0.3-0.5,0.7-0.5h15.6c0.4,0,0.7,0.2,0.7,0.5v8.5
				C303.6,334.1,303.3,334.3,302.9,334.3z M288,333.4h14.2v-7.5H288V333.4z"/>
		</g>
		<g>
			<rect x="224.8" y="316.5" class="st3" width="15.6" height="8.8"/>
			<path class="st4" d="M240.4,325.8h-15.6c-0.4,0-0.7-0.2-0.7-0.5v-8.8c0-0.3,0.3-0.5,0.7-0.5h15.6c0.4,0,0.7,0.2,0.7,0.5v8.8
				C241.1,325.6,240.8,325.8,240.4,325.8z M225.5,324.9h14.2V317h-14.2V324.9z"/>
		</g>
		<g>
			<rect x="287.3" y="316.5" class="st3" width="15.6" height="8.8"/>
			<path class="st4" d="M302.9,325.8h-15.6c-0.4,0-0.7-0.2-0.7-0.5v-8.8c0-0.3,0.3-0.5,0.7-0.5h15.6c0.4,0,0.7,0.2,0.7,0.5v8.8
				C303.6,325.6,303.3,325.8,302.9,325.8z M288,324.9h14.2V317H288V324.9z"/>
		</g>
		<g>
			<rect x="271.7" y="316.5" class="st3" width="15.6" height="8.8"/>
			<path class="st4" d="M287.3,325.8h-15.6c-0.4,0-0.7-0.2-0.7-0.5v-8.8c0-0.3,0.3-0.5,0.7-0.5h15.6c0.4,0,0.7,0.2,0.7,0.5v8.8
				C288,325.6,287.7,325.8,287.3,325.8z M272.4,324.9h14.2V317h-14.2V324.9z"/>
		</g>
		<g>
			<rect x="240.4" y="316.5" class="st3" width="15.6" height="8.8"/>
			<path class="st4" d="M256,325.8h-15.6c-0.4,0-0.7-0.2-0.7-0.5v-8.8c0-0.3,0.3-0.5,0.7-0.5H256c0.4,0,0.7,0.2,0.7,0.5v8.8
				C256.7,325.6,256.4,325.8,256,325.8z M241.1,324.9h14.2V317h-14.2V324.9z"/>
		</g>
		<g>
			<rect x="256" y="316.5" class="st3" width="15.6" height="8.8"/>
			<path class="st4" d="M271.7,325.8H256c-0.4,0-0.7-0.2-0.7-0.5v-8.8c0-0.3,0.3-0.5,0.7-0.5h15.6c0.4,0,0.7,0.2,0.7,0.5v8.8
				C272.4,325.6,272.1,325.8,271.7,325.8z M256.7,324.9H271V317h-14.2V324.9z"/>
		</g>
		<g>
			<rect x="84.1" y="325.4" class="st3" width="15.6" height="8.5"/>
			<path class="st4" d="M99.7,334.3H84.1c-0.4,0-0.7-0.2-0.7-0.5v-8.5c0-0.3,0.3-0.5,0.7-0.5h15.6c0.4,0,0.7,0.2,0.7,0.5v8.5
				C100.4,334.1,100.1,334.3,99.7,334.3z M84.8,333.4H99v-7.5H84.8V333.4z"/>
		</g>
		<g>
			<rect x="131" y="325.4" class="st3" width="15.6" height="8.5"/>
			<path class="st4" d="M146.6,334.3H131c-0.4,0-0.7-0.2-0.7-0.5v-8.5c0-0.3,0.3-0.5,0.7-0.5h15.6c0.4,0,0.7,0.2,0.7,0.5v8.5
				C147.3,334.1,147,334.3,146.6,334.3z M131.7,333.4h14.2v-7.5h-14.2V333.4z"/>
		</g>
		<g>
			<rect x="68.5" y="325.4" class="st3" width="15.6" height="8.5"/>
			<path class="st4" d="M84.1,334.3H68.5c-0.4,0-0.7-0.2-0.7-0.5v-8.5c0-0.3,0.3-0.5,0.7-0.5h15.6c0.4,0,0.7,0.2,0.7,0.5v8.5
				C84.8,334.1,84.5,334.3,84.1,334.3z M69.2,333.4h14.2v-7.5H69.2V333.4z"/>
		</g>
		<g>
			<rect x="99.7" y="325.4" class="st3" width="15.6" height="8.5"/>
			<path class="st4" d="M115.4,334.3H99.7c-0.4,0-0.7-0.2-0.7-0.5v-8.5c0-0.3,0.3-0.5,0.7-0.5h15.6c0.4,0,0.7,0.2,0.7,0.5v8.5
				C116.1,334.1,115.8,334.3,115.4,334.3z M100.4,333.4h14.2v-7.5h-14.2V333.4z"/>
		</g>
		<g>
			<rect x="115.4" y="325.4" class="st3" width="15.6" height="8.5"/>
			<path class="st4" d="M131,334.3h-15.6c-0.4,0-0.7-0.2-0.7-0.5v-8.5c0-0.3,0.3-0.5,0.7-0.5H131c0.4,0,0.7,0.2,0.7,0.5v8.5
				C131.7,334.1,131.4,334.3,131,334.3z M116.1,333.4h14.2v-7.5h-14.2V333.4z"/>
		</g>
		<g>
			<rect x="162.3" y="316.5" class="st3" width="15.6" height="8.8"/>
			<path class="st4" d="M177.9,325.8h-15.6c-0.4,0-0.7-0.2-0.7-0.5v-8.8c0-0.3,0.3-0.5,0.7-0.5h15.6c0.4,0,0.7,0.2,0.7,0.5v8.8
				C178.6,325.6,178.3,325.8,177.9,325.8z M163,324.9h14.2V317H163V324.9z"/>
		</g>
		<g>
			<rect x="365.4" y="316.5" class="st3" width="18.2" height="8.8"/>
			<path class="st4" d="M383.6,325.8h-18.2c-0.4,0-0.7-0.2-0.7-0.5v-8.8c0-0.3,0.3-0.5,0.7-0.5h18.2c0.4,0,0.7,0.2,0.7,0.5v8.8
				C384.3,325.6,384,325.8,383.6,325.8z M366.1,324.9h16.8V317h-16.8V324.9z"/>
		</g>
		<g>
			<rect x="271.7" y="325.4" class="st3" width="15.6" height="8.5"/>
			<path class="st4" d="M287.3,334.3h-15.6c-0.4,0-0.7-0.2-0.7-0.5v-8.5c0-0.3,0.3-0.5,0.7-0.5h15.6c0.4,0,0.7,0.2,0.7,0.5v8.5
				C288,334.1,287.7,334.3,287.3,334.3z M272.4,333.4h14.2v-7.5h-14.2V333.4z"/>
		</g>
		<g>
			<rect x="21.6" y="325.4" class="st3" width="15.6" height="8.5"/>
			<path class="st4" d="M37.2,334.3H21.6c-0.4,0-0.7-0.2-0.7-0.5v-8.5c0-0.3,0.3-0.5,0.7-0.5h15.6c0.4,0,0.7,0.2,0.7,0.5v8.5
				C37.9,334.1,37.6,334.3,37.2,334.3z M22.3,333.4h14.2v-7.5H22.3V333.4z"/>
		</g>
		<g>
			<rect x="37.2" y="325.4" class="st3" width="15.6" height="8.5"/>
			<path class="st4" d="M52.9,334.3H37.2c-0.4,0-0.7-0.2-0.7-0.5v-8.5c0-0.3,0.3-0.5,0.7-0.5h15.6c0.4,0,0.7,0.2,0.7,0.5v8.5
				C53.6,334.1,53.2,334.3,52.9,334.3z M37.9,333.4h14.2v-7.5H37.9V333.4z"/>
		</g>
		<g>
			<rect x="224.8" y="325.4" class="st3" width="15.6" height="8.5"/>
			<path class="st4" d="M240.4,334.3h-15.6c-0.4,0-0.7-0.2-0.7-0.5v-8.5c0-0.3,0.3-0.5,0.7-0.5h15.6c0.4,0,0.7,0.2,0.7,0.5v8.5
				C241.1,334.1,240.8,334.3,240.4,334.3z M225.5,333.4h14.2v-7.5h-14.2V333.4z"/>
		</g>
		<g>
			<rect x="240.4" y="325.4" class="st3" width="15.6" height="8.5"/>
			<path class="st4" d="M256,334.3h-15.6c-0.4,0-0.7-0.2-0.7-0.5v-8.5c0-0.3,0.3-0.5,0.7-0.5H256c0.4,0,0.7,0.2,0.7,0.5v8.5
				C256.7,334.1,256.4,334.3,256,334.3z M241.1,333.4h14.2v-7.5h-14.2V333.4z"/>
		</g>
		<g>
			<rect x="256" y="325.4" class="st3" width="15.6" height="8.5"/>
			<path class="st4" d="M271.7,334.3H256c-0.4,0-0.7-0.2-0.7-0.5v-8.5c0-0.3,0.3-0.5,0.7-0.5h15.6c0.4,0,0.7,0.2,0.7,0.5v8.5
				C272.4,334.1,272.1,334.3,271.7,334.3z M256.7,333.4H271v-7.5h-14.2V333.4z"/>
		</g>
		<g>
			<rect x="209.1" y="325.4" class="st3" width="15.6" height="8.5"/>
			<path class="st4" d="M224.8,334.3h-15.6c-0.4,0-0.7-0.2-0.7-0.5v-8.5c0-0.3,0.3-0.5,0.7-0.5h15.6c0.4,0,0.7,0.2,0.7,0.5v8.5
				C225.5,334.1,225.2,334.3,224.8,334.3z M209.8,333.4h14.2v-7.5h-14.2V333.4z"/>
		</g>
		<g>
			<rect x="177.9" y="325.4" class="st3" width="15.6" height="8.5"/>
			<path class="st4" d="M193.5,334.3h-15.6c-0.4,0-0.7-0.2-0.7-0.5v-8.5c0-0.3,0.3-0.5,0.7-0.5h15.6c0.4,0,0.7,0.2,0.7,0.5v8.5
				C194.2,334.1,193.9,334.3,193.5,334.3z M178.6,333.4h14.2v-7.5h-14.2V333.4z"/>
		</g>
		<g>
			<rect x="193.5" y="325.4" class="st3" width="15.6" height="8.5"/>
			<path class="st4" d="M209.1,334.3h-15.6c-0.4,0-0.7-0.2-0.7-0.5v-8.5c0-0.3,0.3-0.5,0.7-0.5h15.6c0.4,0,0.7,0.2,0.7,0.5v8.5
				C209.8,334.1,209.5,334.3,209.1,334.3z M194.2,333.4h14.2v-7.5h-14.2V333.4z"/>
		</g>
		<g>
			<rect x="162.3" y="325.4" class="st3" width="15.6" height="8.5"/>
			<path class="st4" d="M177.9,334.3h-15.6c-0.4,0-0.7-0.2-0.7-0.5v-8.5c0-0.3,0.3-0.5,0.7-0.5h15.6c0.4,0,0.7,0.2,0.7,0.5v8.5
				C178.6,334.1,178.3,334.3,177.9,334.3z M163,333.4h14.2v-7.5H163V333.4z"/>
		</g>
		<g>
			<rect x="146.6" y="325.4" class="st3" width="15.6" height="8.5"/>
			<path class="st4" d="M162.3,334.3h-15.6c-0.4,0-0.7-0.2-0.7-0.5v-8.5c0-0.3,0.3-0.5,0.7-0.5h15.6c0.4,0,0.7,0.2,0.7,0.5v8.5
				C163,334.1,162.6,334.3,162.3,334.3z M147.3,333.4h14.2v-7.5h-14.2V333.4z"/>
		</g>
		<g>
			<rect x="52.9" y="325.4" class="st3" width="15.6" height="8.5"/>
			<path class="st4" d="M68.5,334.3H52.9c-0.4,0-0.7-0.2-0.7-0.5v-8.5c0-0.3,0.3-0.5,0.7-0.5h15.6c0.4,0,0.7,0.2,0.7,0.5v8.5
				C69.2,334.1,68.9,334.3,68.5,334.3z M53.6,333.4h14.2v-7.5H53.6V333.4z"/>
		</g>
		<g>
			<rect x="224.8" y="333.9" class="st3" width="15.6" height="10.4"/>
			<path class="st4" d="M240.4,344.7h-15.6c-0.4,0-0.7-0.2-0.7-0.5v-10.4c0-0.3,0.3-0.5,0.7-0.5h15.6c0.4,0,0.7,0.2,0.7,0.5v10.4
				C241.1,344.5,240.8,344.7,240.4,344.7z M225.5,343.8h14.2v-9.4h-14.2V343.8z"/>
		</g>
		<g>
			<rect x="256" y="333.9" class="st3" width="15.6" height="10.4"/>
			<path class="st4" d="M271.7,344.7H256c-0.4,0-0.7-0.2-0.7-0.5v-10.4c0-0.3,0.3-0.5,0.7-0.5h15.6c0.4,0,0.7,0.2,0.7,0.5v10.4
				C272.4,344.5,272.1,344.7,271.7,344.7z M256.7,343.8H271v-9.4h-14.2V343.8z"/>
		</g>
		<g>
			<rect x="193.5" y="333.9" class="st3" width="15.6" height="10.4"/>
			<path class="st4" d="M209.1,344.7h-15.6c-0.4,0-0.7-0.2-0.7-0.5v-10.4c0-0.3,0.3-0.5,0.7-0.5h15.6c0.4,0,0.7,0.2,0.7,0.5v10.4
				C209.8,344.5,209.5,344.7,209.1,344.7z M194.2,343.8h14.2v-9.4h-14.2V343.8z"/>
		</g>
		<g>
			<rect x="240.4" y="333.9" class="st3" width="15.6" height="10.4"/>
			<path class="st4" d="M256,344.7h-15.6c-0.4,0-0.7-0.2-0.7-0.5v-10.4c0-0.3,0.3-0.5,0.7-0.5H256c0.4,0,0.7,0.2,0.7,0.5v10.4
				C256.7,344.5,256.4,344.7,256,344.7z M241.1,343.8h14.2v-9.4h-14.2V343.8z"/>
		</g>
		<g>
			<rect x="209.1" y="333.9" class="st3" width="15.6" height="10.4"/>
			<path class="st4" d="M224.8,344.7h-15.6c-0.4,0-0.7-0.2-0.7-0.5v-10.4c0-0.3,0.3-0.5,0.7-0.5h15.6c0.4,0,0.7,0.2,0.7,0.5v10.4
				C225.5,344.5,225.2,344.7,224.8,344.7z M209.8,343.8h14.2v-9.4h-14.2V343.8z"/>
		</g>
		<g>
			<rect x="131" y="333.9" class="st3" width="15.6" height="10.4"/>
			<path class="st4" d="M146.6,344.7H131c-0.4,0-0.7-0.2-0.7-0.5v-10.4c0-0.3,0.3-0.5,0.7-0.5h15.6c0.4,0,0.7,0.2,0.7,0.5v10.4
				C147.3,344.5,147,344.7,146.6,344.7z M131.7,343.8h14.2v-9.4h-14.2V343.8z"/>
		</g>
		<g>
			<rect x="146.6" y="333.9" class="st3" width="15.6" height="10.4"/>
			<path class="st4" d="M162.3,344.7h-15.6c-0.4,0-0.7-0.2-0.7-0.5v-10.4c0-0.3,0.3-0.5,0.7-0.5h15.6c0.4,0,0.7,0.2,0.7,0.5v10.4
				C163,344.5,162.6,344.7,162.3,344.7z M147.3,343.8h14.2v-9.4h-14.2V343.8z"/>
		</g>
		<g>
			<rect x="177.9" y="333.9" class="st3" width="15.6" height="10.4"/>
			<path class="st4" d="M193.5,344.7h-15.6c-0.4,0-0.7-0.2-0.7-0.5v-10.4c0-0.3,0.3-0.5,0.7-0.5h15.6c0.4,0,0.7,0.2,0.7,0.5v10.4
				C194.2,344.5,193.9,344.7,193.5,344.7z M178.6,343.8h14.2v-9.4h-14.2V343.8z"/>
		</g>
		<g>
			<rect x="162.3" y="333.9" class="st3" width="15.6" height="10.4"/>
			<path class="st4" d="M177.9,344.7h-15.6c-0.4,0-0.7-0.2-0.7-0.5v-10.4c0-0.3,0.3-0.5,0.7-0.5h15.6c0.4,0,0.7,0.2,0.7,0.5v10.4
				C178.6,344.5,178.3,344.7,177.9,344.7z M163,343.8h14.2v-9.4H163V343.8z"/>
		</g>
		<g>
			<rect x="318.6" y="333.9" class="st3" width="15.6" height="10.4"/>
			<path class="st4" d="M334.2,344.7h-15.6c-0.4,0-0.7-0.2-0.7-0.5v-10.4c0-0.3,0.3-0.5,0.7-0.5h15.6c0.4,0,0.7,0.2,0.7,0.5v10.4
				C334.9,344.5,334.6,344.7,334.2,344.7z M319.2,343.8h14.2v-9.4h-14.2V343.8z"/>
		</g>
		<g>
			<path class="st3" d="M349.8,333.9v10.4H365c0.2,0,0.3,0,0.5,0v-10.4H349.8z"/>
			<path class="st4" d="M365,344.7h-15.2c-0.4,0-0.7-0.2-0.7-0.5v-10.4c0-0.3,0.3-0.5,0.7-0.5h15.6c0.4,0,0.7,0.2,0.7,0.5v10.4
				c0,0.3-0.3,0.5-0.7,0.5l-0.1,0C365.2,344.7,365.1,344.7,365,344.7z M350.5,343.8h14.2v-9.4h-14.2V343.8z"/>
		</g>
		<g>
			<rect x="334.2" y="333.9" class="st3" width="15.6" height="10.4"/>
			<path class="st4" d="M349.8,344.7h-15.6c-0.4,0-0.7-0.2-0.7-0.5v-10.4c0-0.3,0.3-0.5,0.7-0.5h15.6c0.4,0,0.7,0.2,0.7,0.5v10.4
				C350.5,344.5,350.2,344.7,349.8,344.7z M334.9,343.8h14.2v-9.4h-14.2V343.8z"/>
		</g>
		<g>
			<rect x="271.7" y="333.9" class="st3" width="15.6" height="10.4"/>
			<path class="st4" d="M287.3,344.7h-15.6c-0.4,0-0.7-0.2-0.7-0.5v-10.4c0-0.3,0.3-0.5,0.7-0.5h15.6c0.4,0,0.7,0.2,0.7,0.5v10.4
				C288,344.5,287.7,344.7,287.3,344.7z M272.4,343.8h14.2v-9.4h-14.2V343.8z"/>
		</g>
		<g>
			<path class="st3" d="M383.6,325.4h-18.2v8.5h17.8c0.2-0.8,0.4-1.7,0.4-2.5V325.4z"/>
			<path class="st4" d="M383.3,334.3h-17.8c-0.4,0-0.7-0.2-0.7-0.5v-8.5c0-0.3,0.3-0.5,0.7-0.5h18.2c0.4,0,0.7,0.2,0.7,0.5v6
				c0,0.9-0.1,1.8-0.4,2.6C383.9,334.2,383.6,334.3,383.3,334.3z M366.1,333.4h16.6c0.2-0.7,0.2-1.4,0.2-2v-5.5h-16.8V333.4z"/>
		</g>
		<g>
			<path class="st3" d="M365.4,344.3c4.8-0.1,9.3-1.4,12.7-3.8c2.6-1.8,4.4-4.1,5.1-6.6h-17.8V344.3z"/>
			<path class="st4" d="M365.4,344.7c-0.2,0-0.4,0-0.5-0.1c-0.1-0.1-0.2-0.2-0.2-0.3v-10.4c0-0.3,0.3-0.5,0.7-0.5h17.8
				c0.2,0,0.4,0.1,0.5,0.2c0.1,0.1,0.2,0.3,0.1,0.4c-0.7,2.6-2.6,5-5.3,6.9C375.1,343.3,370.4,344.7,365.4,344.7
				C365.5,344.7,365.4,344.7,365.4,344.7z M366.1,334.3v9.4c4.4-0.2,8.4-1.5,11.5-3.6c2.3-1.6,4-3.6,4.7-5.8H366.1z"/>
		</g>
		<g>
			<rect x="146.6" y="316.5" class="st3" width="15.6" height="8.8"/>
			<path class="st4" d="M162.3,325.8h-15.6c-0.4,0-0.7-0.2-0.7-0.5v-8.8c0-0.3,0.3-0.5,0.7-0.5h15.6c0.4,0,0.7,0.2,0.7,0.5v8.8
				C163,325.6,162.6,325.8,162.3,325.8z M147.3,324.9h14.2V317h-14.2V324.9z"/>
		</g>
		<g>
			<rect x="302.9" y="333.9" class="st3" width="15.6" height="10.4"/>
			<path class="st4" d="M318.6,344.7h-15.6c-0.4,0-0.7-0.2-0.7-0.5v-10.4c0-0.3,0.3-0.5,0.7-0.5h15.6c0.4,0,0.7,0.2,0.7,0.5v10.4
				C319.2,344.5,318.9,344.7,318.6,344.7z M303.6,343.8h14.2v-9.4h-14.2V343.8z"/>
		</g>
		<g>
			<rect x="115.4" y="333.9" class="st3" width="15.6" height="10.4"/>
			<path class="st4" d="M131,344.7h-15.6c-0.4,0-0.7-0.2-0.7-0.5v-10.4c0-0.3,0.3-0.5,0.7-0.5H131c0.4,0,0.7,0.2,0.7,0.5v10.4
				C131.7,344.5,131.4,344.7,131,344.7z M116.1,343.8h14.2v-9.4h-14.2V343.8z"/>
		</g>
		<g>
			<rect x="287.3" y="333.9" class="st3" width="15.6" height="10.4"/>
			<path class="st4" d="M302.9,344.7h-15.6c-0.4,0-0.7-0.2-0.7-0.5v-10.4c0-0.3,0.3-0.5,0.7-0.5h15.6c0.4,0,0.7,0.2,0.7,0.5v10.4
				C303.6,344.5,303.3,344.7,302.9,344.7z M288,343.8h14.2v-9.4H288V343.8z"/>
		</g>
		<g>
			<rect x="84.1" y="316.5" class="st3" width="15.6" height="8.8"/>
			<path class="st4" d="M99.7,325.8H84.1c-0.4,0-0.7-0.2-0.7-0.5v-8.8c0-0.3,0.3-0.5,0.7-0.5h15.6c0.4,0,0.7,0.2,0.7,0.5v8.8
				C100.4,325.6,100.1,325.8,99.7,325.8z M84.8,324.9H99V317H84.8V324.9z"/>
		</g>
		<g>
			<rect x="21.6" y="316.5" class="st3" width="15.6" height="8.8"/>
			<path class="st4" d="M37.2,325.8H21.6c-0.4,0-0.7-0.2-0.7-0.5v-8.8c0-0.3,0.3-0.5,0.7-0.5h15.6c0.4,0,0.7,0.2,0.7,0.5v8.8
				C37.9,325.6,37.6,325.8,37.2,325.8z M22.3,324.9h14.2V317H22.3V324.9z"/>
		</g>
		<g>
			<rect x="52.9" y="316.5" class="st3" width="15.6" height="8.8"/>
			<path class="st4" d="M68.5,325.8H52.9c-0.4,0-0.7-0.2-0.7-0.5v-8.8c0-0.3,0.3-0.5,0.7-0.5h15.6c0.4,0,0.7,0.2,0.7,0.5v8.8
				C69.2,325.6,68.9,325.8,68.5,325.8z M53.6,324.9h14.2V317H53.6V324.9z"/>
		</g>
		<g>
			<rect x="37.2" y="316.5" class="st3" width="15.6" height="8.8"/>
			<path class="st4" d="M52.9,325.8H37.2c-0.4,0-0.7-0.2-0.7-0.5v-8.8c0-0.3,0.3-0.5,0.7-0.5h15.6c0.4,0,0.7,0.2,0.7,0.5v8.8
				C53.6,325.6,53.2,325.8,52.9,325.8z M37.9,324.9h14.2V317H37.9V324.9z"/>
		</g>
		<g>
			<rect x="68.5" y="316.5" class="st3" width="15.6" height="8.8"/>
			<path class="st4" d="M84.1,325.8H68.5c-0.4,0-0.7-0.2-0.7-0.5v-8.8c0-0.3,0.3-0.5,0.7-0.5h15.6c0.4,0,0.7,0.2,0.7,0.5v8.8
				C84.8,325.6,84.5,325.8,84.1,325.8z M69.2,324.9h14.2V317H69.2V324.9z"/>
		</g>
		<g>
			<rect x="131" y="316.5" class="st3" width="15.6" height="8.8"/>
			<path class="st4" d="M146.6,325.8H131c-0.4,0-0.7-0.2-0.7-0.5v-8.8c0-0.3,0.3-0.5,0.7-0.5h15.6c0.4,0,0.7,0.2,0.7,0.5v8.8
				C147.3,325.6,147,325.8,146.6,325.8z M131.7,324.9h14.2V317h-14.2V324.9z"/>
		</g>
		<g>
			<rect x="99.7" y="316.5" class="st3" width="15.6" height="8.8"/>
			<path class="st4" d="M115.4,325.8H99.7c-0.4,0-0.7-0.2-0.7-0.5v-8.8c0-0.3,0.3-0.5,0.7-0.5h15.6c0.4,0,0.7,0.2,0.7,0.5v8.8
				C116.1,325.6,115.8,325.8,115.4,325.8z M100.4,324.9h14.2V317h-14.2V324.9z"/>
		</g>
		<g>
			<rect x="115.4" y="316.5" class="st3" width="15.6" height="8.8"/>
			<path class="st4" d="M131,325.8h-15.6c-0.4,0-0.7-0.2-0.7-0.5v-8.8c0-0.3,0.3-0.5,0.7-0.5H131c0.4,0,0.7,0.2,0.7,0.5v8.8
				C131.7,325.6,131.4,325.8,131,325.8z M116.1,324.9h14.2V317h-14.2V324.9z"/>
		</g>
		<g>
			<rect x="99.7" y="333.9" class="st3" width="15.6" height="10.4"/>
			<path class="st4" d="M115.4,344.7H99.7c-0.4,0-0.7-0.2-0.7-0.5v-10.4c0-0.3,0.3-0.5,0.7-0.5h15.6c0.4,0,0.7,0.2,0.7,0.5v10.4
				C116.1,344.5,115.8,344.7,115.4,344.7z M100.4,343.8h14.2v-9.4h-14.2V343.8z"/>
		</g>
		<g>
			<rect x="68.5" y="333.9" class="st3" width="15.6" height="10.4"/>
			<path class="st4" d="M84.1,344.7H68.5c-0.4,0-0.7-0.2-0.7-0.5v-10.4c0-0.3,0.3-0.5,0.7-0.5h15.6c0.4,0,0.7,0.2,0.7,0.5v10.4
				C84.8,344.5,84.5,344.7,84.1,344.7z M69.2,343.8h14.2v-9.4H69.2V343.8z"/>
		</g>
		<g>
			<rect x="3.4" y="316.5" class="st3" width="18.2" height="8.8"/>
			<path class="st4" d="M21.6,325.8H3.4c-0.4,0-0.7-0.2-0.7-0.5v-8.8c0-0.3,0.3-0.5,0.7-0.5h18.2c0.4,0,0.7,0.2,0.7,0.5v8.8
				C22.3,325.6,22,325.8,21.6,325.8z M4.1,324.9h16.9V317H4.1V324.9z"/>
		</g>
		<g>
			<rect x="37.2" y="333.9" class="st3" width="15.6" height="10.4"/>
			<path class="st4" d="M52.9,344.7H37.2c-0.4,0-0.7-0.2-0.7-0.5v-10.4c0-0.3,0.3-0.5,0.7-0.5h15.6c0.4,0,0.7,0.2,0.7,0.5v10.4
				C53.6,344.5,53.2,344.7,52.9,344.7z M37.9,343.8h14.2v-9.4H37.9V343.8z"/>
		</g>
		<g>
			<rect x="84.1" y="333.9" class="st3" width="15.6" height="10.4"/>
			<path class="st4" d="M99.7,344.7H84.1c-0.4,0-0.7-0.2-0.7-0.5v-10.4c0-0.3,0.3-0.5,0.7-0.5h15.6c0.4,0,0.7,0.2,0.7,0.5v10.4
				C100.4,344.5,100.1,344.7,99.7,344.7z M84.8,343.8H99v-9.4H84.8V343.8z"/>
		</g>
		<g>
			<rect x="52.9" y="333.9" class="st3" width="15.6" height="10.4"/>
			<path class="st4" d="M68.5,344.7H52.9c-0.4,0-0.7-0.2-0.7-0.5v-10.4c0-0.3,0.3-0.5,0.7-0.5h15.6c0.4,0,0.7,0.2,0.7,0.5v10.4
				C69.2,344.5,68.9,344.7,68.5,344.7z M53.6,343.8h14.2v-9.4H53.6V343.8z"/>
		</g>
		<g>
			<path class="st3" d="M21.6,325.4H3.4v6c0,0.9,0.1,1.7,0.4,2.5h17.9V325.4z"/>
			<path class="st4" d="M21.6,334.3H3.7c-0.3,0-0.6-0.2-0.7-0.4c-0.2-0.9-0.4-1.7-0.4-2.6v-6c0-0.3,0.3-0.5,0.7-0.5h18.2
				c0.4,0,0.7,0.2,0.7,0.5v8.5C22.3,334.1,22,334.3,21.6,334.3z M4.3,333.4h16.6v-7.5H4.1v5.5C4.1,332,4.1,332.7,4.3,333.4z"/>
		</g>
		<g>
			<path class="st3" d="M3.7,333.9c0.7,2.5,2.5,4.8,5.1,6.6c3.4,2.4,7.9,3.7,12.8,3.8v-10.4H3.7z"/>
			<path class="st4" d="M21.6,344.7C21.6,344.7,21.6,344.7,21.6,344.7c-5-0.1-9.7-1.5-13.3-3.9c-2.7-1.9-4.6-4.3-5.3-6.9
				c0-0.1,0-0.3,0.1-0.4c0.1-0.1,0.3-0.2,0.5-0.2h17.9c0.4,0,0.7,0.2,0.7,0.5v10.4c0,0.1-0.1,0.3-0.2,0.3
				C22,344.7,21.8,344.7,21.6,344.7z M4.6,334.3c0.8,2.2,2.4,4.2,4.7,5.8c3.1,2.2,7.2,3.4,11.6,3.6v-9.4H4.6z"/>
		</g>
		<g>
			<path class="st3" d="M21.6,333.9v10.4c0.1,0,0.3,0,0.4,0h15.2v-10.4H21.6z"/>
			<path class="st4" d="M37.2,344.7H22c-0.1,0-0.2,0-0.3,0l-0.2,0c-0.4,0-0.7-0.2-0.7-0.5v-10.4c0-0.3,0.3-0.5,0.7-0.5h15.6
				c0.4,0,0.7,0.2,0.7,0.5v10.4C37.9,344.5,37.6,344.7,37.2,344.7z M22.3,343.8h14.2v-9.4H22.3V343.8z"/>
		</g>
	</g>
	<g>
		<path class="st5" d="M376.7,328.7c0,1.8-1.1,3.7-3.4,5.1c-2.3,1.4-5.3,2.1-8.3,2.1H22c-3,0-6-0.7-8.3-2.1
			c-2.3-1.4-3.4-3.2-3.4-5.1v-12.3h366.3V328.7z"/>
		<path class="st4" d="M365,336.3H22c-3.3,0-6.4-0.8-8.8-2.2c-2.3-1.4-3.6-3.3-3.6-5.4v-12.3c0-0.2,0.3-0.4,0.7-0.4h366.3
			c0.4,0,0.7,0.2,0.7,0.4v12.3c0,2-1.3,3.9-3.6,5.4C371.4,335.5,368.3,336.3,365,336.3z M11,316.9v11.8c0,1.8,1.1,3.5,3.2,4.8
			c2.1,1.3,4.8,2,7.8,2H365c2.9,0,5.7-0.7,7.8-2c2.1-1.3,3.2-3,3.2-4.8v-11.8H11z"/>
	</g>
	<g>
		<g>
			<rect x="15.9" y="186.8" class="st6" width="40.6" height="21.6"/>
			<path class="st4" d="M56.5,209.1H15.9c-0.4,0-0.7-0.3-0.7-0.7v-21.6c0-0.4,0.3-0.7,0.7-0.7h40.6c0.4,0,0.7,0.3,0.7,0.7v21.6
				C57.2,208.8,56.8,209.1,56.5,209.1z M16.6,207.7h39.2v-20.2H16.6V207.7z"/>
		</g>
		<g>
			<polygon class="st7" points="36.2,148.2 11.2,188.8 36.2,188.8 61.2,188.8 			"/>
			<path class="st4" d="M61.2,189.5h-50c-0.3,0-0.5-0.1-0.6-0.4c-0.1-0.2-0.1-0.5,0-0.7l25-40.6c0.3-0.4,0.9-0.4,1.2,0l25,40.6
				c0.1,0.2,0.1,0.5,0,0.7C61.7,189.3,61.4,189.5,61.2,189.5z M12.4,188.1h47.5l-23.7-38.6L12.4,188.1z"/>
		</g>
		<g>
			<rect x="330.8" y="186.8" class="st6" width="40.6" height="21.6"/>
			<path class="st4" d="M371.3,209.1h-40.6c-0.4,0-0.7-0.3-0.7-0.7v-21.6c0-0.4,0.3-0.7,0.7-0.7h40.6c0.4,0,0.7,0.3,0.7,0.7v21.6
				C372,208.8,371.7,209.1,371.3,209.1z M331.5,207.7h39.2v-20.2h-39.2V207.7z"/>
		</g>
		<g>
			<polygon class="st7" points="351.1,148.2 326.1,188.8 351.1,188.8 376,188.8 			"/>
			<path class="st4" d="M376,189.5h-50c-0.3,0-0.5-0.1-0.6-0.4c-0.1-0.2-0.1-0.5,0-0.7l25-40.6c0.3-0.4,0.9-0.4,1.2,0l25,40.6
				c0.1,0.2,0.1,0.5,0,0.7C376.5,189.3,376.3,189.5,376,189.5z M327.3,188.1h47.5l-23.7-38.6L327.3,188.1z"/>
		</g>
		<g>
			<rect x="140.9" y="98.6" class="st6" width="105.7" height="38.6"/>
			<path class="st4" d="M246.5,137.9H140.9c-0.4,0-0.7-0.3-0.7-0.7V98.6c0-0.4,0.3-0.7,0.7-0.7h105.7c0.4,0,0.7,0.3,0.7,0.7v38.6
				C247.2,137.6,246.9,137.9,246.5,137.9z M141.6,136.5h104.3V99.3H141.6V136.5z"/>
		</g>
		<g>
			<rect x="140.9" y="137.2" class="st6" width="105.7" height="96.5"/>
			<path class="st4" d="M246.5,234.4H140.9c-0.4,0-0.7-0.3-0.7-0.7v-96.5c0-0.4,0.3-0.7,0.7-0.7h105.7c0.4,0,0.7,0.3,0.7,0.7v96.5
				C247.2,234.1,246.9,234.4,246.5,234.4z M141.6,233h104.3v-95.1H141.6V233z"/>
		</g>
		<g>
			<polygon class="st8" points="60.1,223.5 60.1,230.4 65.1,230.4 65.1,223.5 71,223.5 71,230.4 74.9,230.4 74.9,223.5 80.8,223.5 
				80.8,230.4 84.6,230.4 84.6,223.5 90.5,223.5 90.5,230.4 94.4,230.4 94.4,223.5 100.3,223.5 100.3,230.4 105.3,230.4 
				105.3,223.5 108.9,223.5 108.9,230.4 108.9,240.7 56.5,240.7 56.5,230.4 56.5,223.5 			"/>
			<path class="st4" d="M108.9,241.4H56.5c-0.4,0-0.7-0.3-0.7-0.7v-17.3c0-0.4,0.3-0.7,0.7-0.7h3.7c0.4,0,0.7,0.3,0.7,0.7v6.3h3.6
				v-6.3c0-0.4,0.3-0.7,0.7-0.7H71c0.4,0,0.7,0.3,0.7,0.7v6.3h2.5v-6.3c0-0.4,0.3-0.7,0.7-0.7h5.9c0.4,0,0.7,0.3,0.7,0.7v6.3h2.5
				v-6.3c0-0.4,0.3-0.7,0.7-0.7h5.9c0.4,0,0.7,0.3,0.7,0.7v6.3h2.5v-6.3c0-0.4,0.3-0.7,0.7-0.7h5.9c0.4,0,0.7,0.3,0.7,0.7v6.3h3.6
				v-6.3c0-0.4,0.3-0.7,0.7-0.7h3.7c0.4,0,0.7,0.3,0.7,0.7v17.3C109.6,241.1,109.3,241.4,108.9,241.4z M57.2,240h51.1v-15.9H106v6.3
				c0,0.4-0.3,0.7-0.7,0.7h-5c-0.4,0-0.7-0.3-0.7-0.7v-6.3h-4.5v6.3c0,0.4-0.3,0.7-0.7,0.7h-3.9c-0.4,0-0.7-0.3-0.7-0.7v-6.3h-4.5
				v6.3c0,0.4-0.3,0.7-0.7,0.7h-3.9c-0.4,0-0.7-0.3-0.7-0.7v-6.3h-4.5v6.3c0,0.4-0.3,0.7-0.7,0.7H71c-0.4,0-0.7-0.3-0.7-0.7v-6.3
				h-4.5v6.3c0,0.4-0.3,0.7-0.7,0.7h-5c-0.4,0-0.7-0.3-0.7-0.7v-6.3h-2.3V240z"/>
		</g>
		<g>
			<rect x="56.5" y="240.7" class="st6" width="50.9" height="77.6"/>
			<path class="st4" d="M107.4,319H56.5c-0.4,0-0.7-0.3-0.7-0.7v-77.6c0-0.4,0.3-0.7,0.7-0.7h50.9c0.4,0,0.7,0.3,0.7,0.7v77.6
				C108.1,318.7,107.8,319,107.4,319z M57.2,317.6h49.5v-76.2H57.2V317.6z"/>
		</g>
		<g>
			<path class="st6" d="M15.9,259.6v-45h40.6v58.7h0v45c0,0-4.4,5.1-20.3,5.1c-15.9,0-20.3-5.1-20.3-5.1L15.9,259.6L15.9,259.6z"/>
			<path class="st4" d="M36.2,324.1c-16,0-20.6-5.2-20.8-5.4c-0.1-0.1-0.2-0.3-0.2-0.5l0-103.7c0-0.4,0.3-0.7,0.7-0.7h40.6
				c0.4,0,0.7,0.3,0.7,0.7l0,103.7c0,0.2-0.1,0.3-0.2,0.5C56.8,319,52.2,324.1,36.2,324.1z M16.6,318c0.9,0.9,5.9,4.7,19.6,4.7
				c13.7,0,18.6-3.9,19.6-4.7l0-102.7H16.6L16.6,318z"/>
		</g>
		<g>
			<path class="st8" d="M44.9,257.8v-17.3c0,0,0.3-10.4-8.7-10.4c-8.9,0-8.7,10.4-8.7,10.4v17.3H44.9z"/>
			<path class="st4" d="M44.9,258.4H27.5c-0.4,0-0.7-0.3-0.7-0.7v-17.3c0-0.2-0.1-5.4,3.1-8.7c1.6-1.6,3.7-2.5,6.3-2.5
				c2.6,0,4.7,0.8,6.3,2.5c3.2,3.2,3.1,8.5,3.1,8.7l0,17.2C45.6,258.1,45.2,258.4,44.9,258.4z M28.2,257.1h16v-16.6
				c0-0.1,0.1-4.9-2.7-7.7c-1.3-1.3-3.1-2-5.3-2c-2.2,0-4,0.7-5.3,2c-2.8,2.8-2.7,7.6-2.7,7.7L28.2,257.1z"/>
		</g>
		<g>
			<polygon class="st8" points="13.6,197.4 13.6,204.3 18.6,204.3 18.6,197.4 24.5,197.4 24.5,204.3 28.3,204.3 28.3,197.4 
				34.3,197.4 34.3,204.3 38.1,204.3 38.1,197.4 44,197.4 44,204.3 47.9,204.3 47.9,197.4 53.8,197.4 53.8,204.3 58.7,204.3 
				58.7,197.4 62.4,197.4 62.4,204.3 62.4,214.6 9.9,214.6 9.9,204.3 9.9,197.4 			"/>
			<path class="st4" d="M62.4,215.3H9.9c-0.4,0-0.7-0.3-0.7-0.7v-17.3c0-0.4,0.3-0.7,0.7-0.7h3.7c0.4,0,0.7,0.3,0.7,0.7v6.3h3.6
				v-6.3c0-0.4,0.3-0.7,0.7-0.7h5.9c0.4,0,0.7,0.3,0.7,0.7v6.3h2.5v-6.3c0-0.4,0.3-0.7,0.7-0.7h5.9c0.4,0,0.7,0.3,0.7,0.7v6.3h2.5
				v-6.3c0-0.4,0.3-0.7,0.7-0.7H44c0.4,0,0.7,0.3,0.7,0.7v6.3h2.5v-6.3c0-0.4,0.3-0.7,0.7-0.7h5.9c0.4,0,0.7,0.3,0.7,0.7v6.3H58
				v-6.3c0-0.4,0.3-0.7,0.7-0.7h3.7c0.4,0,0.7,0.3,0.7,0.7v17.3C63.1,215,62.8,215.3,62.4,215.3z M10.6,213.9h51.1v-15.9h-2.3v6.3
				c0,0.4-0.3,0.7-0.7,0.7h-5c-0.4,0-0.7-0.3-0.7-0.7v-6.3h-4.5v6.3c0,0.4-0.3,0.7-0.7,0.7H44c-0.4,0-0.7-0.3-0.7-0.7v-6.3h-4.5v6.3
				c0,0.4-0.3,0.7-0.7,0.7h-3.9c-0.4,0-0.7-0.3-0.7-0.7v-6.3H29v6.3c0,0.4-0.3,0.7-0.7,0.7h-3.9c-0.4,0-0.7-0.3-0.7-0.7v-6.3h-4.5
				v6.3c0,0.4-0.3,0.7-0.7,0.7h-5c-0.4,0-0.7-0.3-0.7-0.7v-6.3h-2.3V213.9z"/>
		</g>
		<g>
			<polygon class="st8" points="327.1,223.5 327.1,230.4 322.1,230.4 322.1,223.5 316.2,223.5 316.2,230.4 312.4,230.4 312.4,223.5 
				306.5,223.5 306.5,230.4 302.6,230.4 302.6,223.5 296.7,223.5 296.7,230.4 292.8,230.4 292.8,223.5 286.9,223.5 286.9,230.4 
				282,230.4 282,223.5 278.3,223.5 278.3,230.4 278.3,240.7 330.8,240.7 330.8,230.4 330.8,223.5 			"/>
			<path class="st4" d="M330.8,241.4h-52.5c-0.4,0-0.7-0.3-0.7-0.7v-17.3c0-0.4,0.3-0.7,0.7-0.7h3.7c0.4,0,0.7,0.3,0.7,0.7v6.3h3.6
				v-6.3c0-0.4,0.3-0.7,0.7-0.7h5.9c0.4,0,0.7,0.3,0.7,0.7v6.3h2.5v-6.3c0-0.4,0.3-0.7,0.7-0.7h5.9c0.4,0,0.7,0.3,0.7,0.7v6.3h2.5
				v-6.3c0-0.4,0.3-0.7,0.7-0.7h5.9c0.4,0,0.7,0.3,0.7,0.7v6.3h2.5v-6.3c0-0.4,0.3-0.7,0.7-0.7h5.9c0.4,0,0.7,0.3,0.7,0.7v6.3h3.6
				v-6.3c0-0.4,0.3-0.7,0.7-0.7h3.7c0.4,0,0.7,0.3,0.7,0.7v17.3C331.5,241.1,331.2,241.4,330.8,241.4z M279,240h51.1v-15.9h-2.3v6.3
				c0,0.4-0.3,0.7-0.7,0.7h-5c-0.4,0-0.7-0.3-0.7-0.7v-6.3h-4.5v6.3c0,0.4-0.3,0.7-0.7,0.7h-3.9c-0.4,0-0.7-0.3-0.7-0.7v-6.3h-4.5
				v6.3c0,0.4-0.3,0.7-0.7,0.7h-3.9c-0.4,0-0.7-0.3-0.7-0.7v-6.3h-4.5v6.3c0,0.4-0.3,0.7-0.7,0.7h-3.9c-0.4,0-0.7-0.3-0.7-0.7v-6.3
				h-4.5v6.3c0,0.4-0.3,0.7-0.7,0.7h-5c-0.4,0-0.7-0.3-0.7-0.7v-6.3H279V240z"/>
		</g>
		<g>
			<rect x="279.9" y="240.7" class="st6" width="50.9" height="77.6"/>
			<path class="st4" d="M330.8,319h-50.9c-0.4,0-0.7-0.3-0.7-0.7v-77.6c0-0.4,0.3-0.7,0.7-0.7h50.9c0.4,0,0.7,0.3,0.7,0.7v77.6
				C331.5,318.7,331.2,319,330.8,319z M280.6,317.6h49.5v-76.2h-49.5V317.6z"/>
		</g>
		<g>
			<rect x="147.9" y="236.9" class="st6" width="91.4" height="81.4"/>
			<path class="st4" d="M239.3,319h-91.4c-0.4,0-0.7-0.3-0.7-0.7v-81.4c0-0.4,0.3-0.7,0.7-0.7h91.4c0.4,0,0.7,0.3,0.7,0.7v81.4
				C240,318.7,239.7,319,239.3,319z M148.6,317.6h90v-80h-90V317.6z"/>
		</g>
		<g>
			<rect x="107.3" y="190.5" class="st6" width="40.6" height="58.7"/>
			<path class="st4" d="M147.9,250h-40.6c-0.4,0-0.7-0.3-0.7-0.7v-58.7c0-0.4,0.3-0.7,0.7-0.7h40.6c0.4,0,0.7,0.3,0.7,0.7v58.7
				C148.6,249.7,148.3,250,147.9,250z M108,248.6h39.2v-57.3H108V248.6z"/>
		</g>
		<g>
			<path class="st6" d="M147.9,318.3c0,0-4.4,5.1-20.3,5.1c-15.9,0-20.3-5.1-20.3-5.1v-58.7h40.6V318.3z"/>
			<path class="st4" d="M127.6,324.1c-16,0-20.6-5.2-20.8-5.4c-0.1-0.1-0.2-0.3-0.2-0.5v-58.7c0-0.4,0.3-0.7,0.7-0.7h40.6
				c0.4,0,0.7,0.3,0.7,0.7v58.7c0,0.2-0.1,0.3-0.2,0.5C148.2,319,143.6,324.1,127.6,324.1z M108,318c0.9,0.9,5.9,4.7,19.6,4.7
				c13.7,0,18.6-3.9,19.6-4.7v-57.7H108V318z"/>
		</g>
		<g>
			<path class="st6" d="M279.9,318.3c0,0-4.4,5.1-20.3,5.1c-15.9,0-20.3-5.1-20.3-5.1v-58.7h40.6V318.3z"/>
			<path class="st4" d="M259.6,324.1c-16,0-20.6-5.2-20.8-5.4c-0.1-0.1-0.2-0.3-0.2-0.5v-58.7c0-0.4,0.3-0.7,0.7-0.7h40.6
				c0.4,0,0.7,0.3,0.7,0.7v58.7c0,0.2-0.1,0.3-0.2,0.5C280.2,319,275.6,324.1,259.6,324.1z M240,318c0.9,0.9,5.9,4.7,19.6,4.7
				c13.7,0,18.6-3.9,19.6-4.7v-57.7H240V318z"/>
		</g>
		<g>
			<rect x="101.3" y="249.3" class="st3" width="52.5" height="10.3"/>
			<path class="st4" d="M153.8,260.3h-52.5c-0.4,0-0.7-0.3-0.7-0.7v-10.3c0-0.4,0.3-0.7,0.7-0.7h52.5c0.4,0,0.7,0.3,0.7,0.7v10.3
				C154.5,260,154.2,260.3,153.8,260.3z M102,258.9h51.1V250H102V258.9z"/>
		</g>
		<g>
			<rect x="101.3" y="249.3" class="st8" width="8.8" height="10.3"/>
			<path class="st4" d="M110.1,260.3h-8.8c-0.4,0-0.7-0.3-0.7-0.7v-10.3c0-0.4,0.3-0.7,0.7-0.7h8.8c0.4,0,0.7,0.3,0.7,0.7v10.3
				C110.8,260,110.5,260.3,110.1,260.3z M102,258.9h7.4V250H102V258.9z"/>
		</g>
		<g>
			<rect x="110.1" y="249.3" class="st8" width="8.8" height="10.3"/>
			<path class="st4" d="M118.9,260.3h-8.8c-0.4,0-0.7-0.3-0.7-0.7v-10.3c0-0.4,0.3-0.7,0.7-0.7h8.8c0.4,0,0.7,0.3,0.7,0.7v10.3
				C119.6,260,119.3,260.3,118.9,260.3z M110.8,258.9h7.4V250h-7.4V258.9z"/>
		</g>
		<g>
			<rect x="118.9" y="249.3" class="st8" width="8.8" height="10.3"/>
			<path class="st4" d="M127.7,260.3h-8.8c-0.4,0-0.7-0.3-0.7-0.7v-10.3c0-0.4,0.3-0.7,0.7-0.7h8.8c0.4,0,0.7,0.3,0.7,0.7v10.3
				C128.4,260,128.1,260.3,127.7,260.3z M119.6,258.9h7.4V250h-7.4V258.9z"/>
		</g>
		<g>
			<rect x="127.7" y="249.3" class="st8" width="8.8" height="10.3"/>
			<path class="st4" d="M136.5,260.3h-8.8c-0.4,0-0.7-0.3-0.7-0.7v-10.3c0-0.4,0.3-0.7,0.7-0.7h8.8c0.4,0,0.7,0.3,0.7,0.7v10.3
				C137.2,260,136.9,260.3,136.5,260.3z M128.4,258.9h7.4V250h-7.4V258.9z"/>
		</g>
		<g>
			<rect x="136.5" y="249.3" class="st8" width="8.8" height="10.3"/>
			<path class="st4" d="M145.2,260.3h-8.8c-0.4,0-0.7-0.3-0.7-0.7v-10.3c0-0.4,0.3-0.7,0.7-0.7h8.8c0.4,0,0.7,0.3,0.7,0.7v10.3
				C145.9,260,145.6,260.3,145.2,260.3z M137.2,258.9h7.4V250h-7.4V258.9z"/>
		</g>
		<g>
			<rect x="145.2" y="249.3" class="st8" width="8.8" height="10.3"/>
			<path class="st4" d="M154,260.3h-8.8c-0.4,0-0.7-0.3-0.7-0.7v-10.3c0-0.4,0.3-0.7,0.7-0.7h8.8c0.4,0,0.7,0.3,0.7,0.7v10.3
				C154.7,260,154.4,260.3,154,260.3z M145.9,258.9h7.4V250h-7.4V258.9z"/>
		</g>
		<g>
			<path class="st8" d="M118.9,233.7v-17.3c0,0-0.3-10.4,8.7-10.4c8.9,0,8.7,10.4,8.7,10.4v17.3H118.9z"/>
			<path class="st4" d="M136.3,234.4h-17.4c-0.4,0-0.7-0.3-0.7-0.7v-17.3c0-0.2-0.1-5.4,3.1-8.7c1.6-1.6,3.7-2.5,6.3-2.5
				c2.6,0,4.7,0.8,6.3,2.5c3.2,3.2,3.1,8.5,3.1,8.7l0,17.2C137,234.1,136.6,234.4,136.3,234.4z M119.6,233h16v-16.6
				c0-0.1,0.1-4.9-2.7-7.7c-1.3-1.3-3.1-2-5.3-2c-2.2,0-4,0.7-5.3,2c-2.8,2.8-2.7,7.6-2.7,7.7L119.6,233z"/>
		</g>
		<g>
			<rect x="239.3" y="190.5" class="st6" width="40.6" height="58.7"/>
			<path class="st4" d="M279.9,250h-40.6c-0.4,0-0.7-0.3-0.7-0.7v-58.7c0-0.4,0.3-0.7,0.7-0.7h40.6c0.4,0,0.7,0.3,0.7,0.7v58.7
				C280.6,249.7,280.2,250,279.9,250z M240,248.6h39.2v-57.3H240V248.6z"/>
		</g>
		<g>
			<rect x="233.3" y="249.3" class="st3" width="52.5" height="10.3"/>
			<path class="st4" d="M285.8,260.3h-52.5c-0.4,0-0.7-0.3-0.7-0.7v-10.3c0-0.4,0.3-0.7,0.7-0.7h52.5c0.4,0,0.7,0.3,0.7,0.7v10.3
				C286.5,260,286.2,260.3,285.8,260.3z M234,258.9h51.1V250H234V258.9z"/>
		</g>
		<g>
			<rect x="233.3" y="249.3" class="st8" width="8.8" height="10.3"/>
			<path class="st4" d="M242.1,260.3h-8.8c-0.4,0-0.7-0.3-0.7-0.7v-10.3c0-0.4,0.3-0.7,0.7-0.7h8.8c0.4,0,0.7,0.3,0.7,0.7v10.3
				C242.8,260,242.5,260.3,242.1,260.3z M234,258.9h7.4V250H234V258.9z"/>
		</g>
		<g>
			<rect x="242.1" y="249.3" class="st8" width="8.8" height="10.3"/>
			<path class="st4" d="M250.9,260.3h-8.8c-0.4,0-0.7-0.3-0.7-0.7v-10.3c0-0.4,0.3-0.7,0.7-0.7h8.8c0.4,0,0.7,0.3,0.7,0.7v10.3
				C251.6,260,251.3,260.3,250.9,260.3z M242.8,258.9h7.4V250h-7.4V258.9z"/>
		</g>
		<g>
			<rect x="250.9" y="249.3" class="st8" width="8.8" height="10.3"/>
			<path class="st4" d="M259.7,260.3h-8.8c-0.4,0-0.7-0.3-0.7-0.7v-10.3c0-0.4,0.3-0.7,0.7-0.7h8.8c0.4,0,0.7,0.3,0.7,0.7v10.3
				C260.4,260,260.1,260.3,259.7,260.3z M251.6,258.9h7.4V250h-7.4V258.9z"/>
		</g>
		<g>
			<rect x="259.7" y="249.3" class="st8" width="8.8" height="10.3"/>
			<path class="st4" d="M268.5,260.3h-8.8c-0.4,0-0.7-0.3-0.7-0.7v-10.3c0-0.4,0.3-0.7,0.7-0.7h8.8c0.4,0,0.7,0.3,0.7,0.7v10.3
				C269.2,260,268.8,260.3,268.5,260.3z M260.4,258.9h7.4V250h-7.4V258.9z"/>
		</g>
		<g>
			<rect x="268.5" y="249.3" class="st8" width="8.8" height="10.3"/>
			<path class="st4" d="M277.2,260.3h-8.8c-0.4,0-0.7-0.3-0.7-0.7v-10.3c0-0.4,0.3-0.7,0.7-0.7h8.8c0.4,0,0.7,0.3,0.7,0.7v10.3
				C277.9,260,277.6,260.3,277.2,260.3z M269.2,258.9h7.4V250h-7.4V258.9z"/>
		</g>
		<g>
			<rect x="277.2" y="249.3" class="st8" width="8.8" height="10.3"/>
			<path class="st4" d="M286,260.3h-8.8c-0.4,0-0.7-0.3-0.7-0.7v-10.3c0-0.4,0.3-0.7,0.7-0.7h8.8c0.4,0,0.7,0.3,0.7,0.7v10.3
				C286.7,260,286.4,260.3,286,260.3z M277.9,258.9h7.4V250h-7.4V258.9z"/>
		</g>
		<g>
			<path class="st8" d="M250.9,233.7v-17.3c0,0-0.3-10.4,8.7-10.4c8.9,0,8.7,10.4,8.7,10.4v17.3H250.9z"/>
			<path class="st4" d="M268.3,234.4h-17.4c-0.4,0-0.7-0.3-0.7-0.7v-17.3c0-0.2-0.1-5.4,3.1-8.7c1.6-1.6,3.7-2.5,6.3-2.5
				c2.6,0,4.7,0.8,6.3,2.5c3.2,3.2,3.1,8.5,3.1,8.7v17.2C269,234.1,268.6,234.4,268.3,234.4z M251.6,233h16v-16.6
				c0-0.1,0.1-4.9-2.7-7.7c-1.3-1.3-3.1-2-5.3-2c-2.2,0-4,0.7-5.3,2c-2.8,2.8-2.7,7.6-2.7,7.7V233z"/>
		</g>
		<g>
			<g>
				<path class="st8" d="M165.7,178.3V161c0,0-0.3-10.4,8.7-10.4c8.9,0,8.7,10.4,8.7,10.4v17.3H165.7z"/>
				<path class="st4" d="M183.1,179h-17.4c-0.4,0-0.7-0.3-0.7-0.7V161c0-0.2-0.1-5.4,3.1-8.7c1.6-1.6,3.7-2.5,6.3-2.5
					c2.6,0,4.7,0.8,6.3,2.5c3.2,3.2,3.1,8.5,3.1,8.7l0,17.2C183.8,178.7,183.5,179,183.1,179z M166.4,177.6h16V161
					c0-0.1,0.1-4.9-2.7-7.7c-1.3-1.3-3.1-2-5.3-2c-2.2,0-4,0.7-5.3,2c-2.8,2.8-2.7,7.6-2.7,7.7L166.4,177.6z"/>
			</g>
			<g>
				<path class="st8" d="M204.3,178.3V161c0,0-0.3-10.4,8.7-10.4c8.9,0,8.7,10.4,8.7,10.4v17.3H204.3z"/>
				<path class="st4" d="M221.7,179h-17.4c-0.4,0-0.7-0.3-0.7-0.7V161c0-0.2-0.1-5.4,3.1-8.7c1.6-1.6,3.7-2.5,6.3-2.5
					s4.7,0.8,6.3,2.5c3.2,3.2,3.1,8.5,3.1,8.7v17.2C222.4,178.7,222,179,221.7,179z M205,177.6h16V161c0-0.1,0.1-4.9-2.7-7.7
					c-1.3-1.3-3.1-2-5.3-2c-2.2,0-4,0.7-5.3,2c-2.8,2.8-2.7,7.6-2.7,7.7V177.6z"/>
			</g>
		</g>
		<g>
			<path class="st6" d="M371.3,259.6v-45h-40.6v58.7l0,0v45c0,0,4.4,5.1,20.3,5.1c15.9,0,20.3-5.1,20.3-5.1V259.6L371.3,259.6z"/>
			<path class="st4" d="M351.1,324.1c-16,0-20.6-5.2-20.8-5.4c-0.1-0.1-0.2-0.3-0.2-0.5V214.6c0-0.4,0.3-0.7,0.7-0.7h40.6
				c0.4,0,0.7,0.3,0.7,0.7v103.7c0,0.2-0.1,0.3-0.2,0.5C371.7,319,367.1,324.1,351.1,324.1z M331.5,318c0.9,0.9,5.9,4.7,19.6,4.7
				c13.7,0,18.6-3.9,19.6-4.7V215.3h-39.2V318z"/>
		</g>
		<g>
			<path class="st8" d="M342.4,257.8v-17.3c0,0-0.3-10.4,8.7-10.4c8.9,0,8.7,10.4,8.7,10.4v17.3H342.4z"/>
			<path class="st4" d="M359.7,258.4h-17.4c-0.4,0-0.7-0.3-0.7-0.7v-17.3c0-0.2-0.1-5.4,3.1-8.7c1.6-1.6,3.7-2.5,6.3-2.5
				c2.6,0,4.7,0.8,6.3,2.5c3.2,3.2,3.1,8.5,3.1,8.7v17.2C360.4,258.1,360.1,258.4,359.7,258.4z M343.1,257.1h16v-16.6
				c0-0.1,0.1-4.9-2.7-7.7c-1.3-1.3-3.1-2-5.3-2c-2.2,0-4,0.7-5.3,2c-2.8,2.8-2.7,7.6-2.7,7.7V257.1z"/>
		</g>
		<g>
			<polygon class="st8" points="373.6,197.4 373.6,204.3 368.6,204.3 368.6,197.4 362.7,197.4 362.7,204.3 358.9,204.3 358.9,197.4 
				353,197.4 353,204.3 349.1,204.3 349.1,197.4 343.2,197.4 343.2,204.3 339.4,204.3 339.4,197.4 333.5,197.4 333.5,204.3 
				328.5,204.3 328.5,197.4 324.8,197.4 324.8,204.3 324.8,214.6 377.3,214.6 377.3,204.3 377.3,197.4 			"/>
			<path class="st4" d="M377.3,215.3h-52.5c-0.4,0-0.7-0.3-0.7-0.7v-17.3c0-0.4,0.3-0.7,0.7-0.7h3.7c0.4,0,0.7,0.3,0.7,0.7v6.3h3.6
				v-6.3c0-0.4,0.3-0.7,0.7-0.7h5.9c0.4,0,0.7,0.3,0.7,0.7v6.3h2.5v-6.3c0-0.4,0.3-0.7,0.7-0.7h5.9c0.4,0,0.7,0.3,0.7,0.7v6.3h2.5
				v-6.3c0-0.4,0.3-0.7,0.7-0.7h5.9c0.4,0,0.7,0.3,0.7,0.7v6.3h2.5v-6.3c0-0.4,0.3-0.7,0.7-0.7h5.9c0.4,0,0.7,0.3,0.7,0.7v6.3h3.6
				v-6.3c0-0.4,0.3-0.7,0.7-0.7h3.7c0.4,0,0.7,0.3,0.7,0.7v17.3C378,215,377.7,215.3,377.3,215.3z M325.5,213.9h51.1v-15.9h-2.3v6.3
				c0,0.4-0.3,0.7-0.7,0.7h-5c-0.4,0-0.7-0.3-0.7-0.7v-6.3h-4.5v6.3c0,0.4-0.3,0.7-0.7,0.7h-3.9c-0.4,0-0.7-0.3-0.7-0.7v-6.3h-4.5
				v6.3c0,0.4-0.3,0.7-0.7,0.7h-3.9c-0.4,0-0.7-0.3-0.7-0.7v-6.3h-4.5v6.3c0,0.4-0.3,0.7-0.7,0.7h-3.9c-0.4,0-0.7-0.3-0.7-0.7v-6.3
				h-4.5v6.3c0,0.4-0.3,0.7-0.7,0.7h-5c-0.4,0-0.7-0.3-0.7-0.7v-6.3h-2.3V213.9z"/>
		</g>
		<g>
			<polygon class="st8" points="233.8,226.3 233.8,219.3 227.9,219.3 227.9,226.3 223.1,226.3 223.1,219.3 217.2,219.3 217.2,226.3 
				212.3,226.3 212.3,219.3 206.4,219.3 206.4,226.3 201.6,226.3 201.6,219.3 195.7,219.3 195.7,226.3 190.8,226.3 190.8,219.3 
				184.9,219.3 184.9,226.3 180.1,226.3 180.1,219.3 174.2,219.3 174.2,226.3 169.3,226.3 169.3,219.3 163.4,219.3 163.4,226.3 
				158.6,226.3 158.6,219.3 152.7,219.3 152.7,226.3 147.9,226.3 147.9,236.9 239.3,236.9 239.3,226.3 			"/>
			<path class="st4" d="M239.3,237.6h-91.4c-0.4,0-0.7-0.3-0.7-0.7v-10.6c0-0.4,0.3-0.7,0.7-0.7h4.1v-6.3c0-0.4,0.3-0.7,0.7-0.7h5.9
				c0.4,0,0.7,0.3,0.7,0.7v6.3h3.5v-6.3c0-0.4,0.3-0.7,0.7-0.7h5.9c0.4,0,0.7,0.3,0.7,0.7v6.3h3.5v-6.3c0-0.4,0.3-0.7,0.7-0.7h5.9
				c0.4,0,0.7,0.3,0.7,0.7v6.3h3.5v-6.3c0-0.4,0.3-0.7,0.7-0.7h5.9c0.4,0,0.7,0.3,0.7,0.7v6.3h3.5v-6.3c0-0.4,0.3-0.7,0.7-0.7h5.9
				c0.4,0,0.7,0.3,0.7,0.7v6.3h3.5v-6.3c0-0.4,0.3-0.7,0.7-0.7h5.9c0.4,0,0.7,0.3,0.7,0.7v6.3h3.5v-6.3c0-0.4,0.3-0.7,0.7-0.7h5.9
				c0.4,0,0.7,0.3,0.7,0.7v6.3h3.5v-6.3c0-0.4,0.3-0.7,0.7-0.7h5.9c0.4,0,0.7,0.3,0.7,0.7v6.3h4.7c0.4,0,0.7,0.3,0.7,0.7v10.6
				C240,237.2,239.7,237.6,239.3,237.6z M148.6,236.2h90V227h-4.7c-0.4,0-0.7-0.3-0.7-0.7V220h-4.5v6.3c0,0.4-0.3,0.7-0.7,0.7h-4.8
				c-0.4,0-0.7-0.3-0.7-0.7V220h-4.5v6.3c0,0.4-0.3,0.7-0.7,0.7h-4.8c-0.4,0-0.7-0.3-0.7-0.7V220h-4.5v6.3c0,0.4-0.3,0.7-0.7,0.7
				h-4.8c-0.4,0-0.7-0.3-0.7-0.7V220h-4.5v6.3c0,0.4-0.3,0.7-0.7,0.7h-4.8c-0.4,0-0.7-0.3-0.7-0.7V220h-4.5v6.3
				c0,0.4-0.3,0.7-0.7,0.7h-4.8c-0.4,0-0.7-0.3-0.7-0.7V220h-4.5v6.3c0,0.4-0.3,0.7-0.7,0.7h-4.8c-0.4,0-0.7-0.3-0.7-0.7V220h-4.5
				v6.3c0,0.4-0.3,0.7-0.7,0.7h-4.8c-0.4,0-0.7-0.3-0.7-0.7V220h-4.5v6.3c0,0.4-0.3,0.7-0.7,0.7h-4.1V236.2z"/>
		</g>
		<g>
			<path class="st7" d="M193.6,270.3c-28.3,0-30.3,48-30.3,48h30.3h30.3C223.8,318.3,221.9,270.3,193.6,270.3z"/>
			<path class="st4" d="M223.8,319h-60.5c-0.2,0-0.4-0.1-0.5-0.2c-0.1-0.1-0.2-0.3-0.2-0.5c0-0.1,0.5-12.2,4.6-24.2
				c5.4-16,14.5-24.5,26.4-24.5c11.9,0,21,8.5,26.4,24.5c4,12,4.6,24.1,4.6,24.2c0,0.2-0.1,0.4-0.2,0.5
				C224.2,318.9,224,319,223.8,319z M164.1,317.6h59c-0.4-6-4.1-46.6-29.5-46.6C168.2,271,164.5,311.6,164.1,317.6z"/>
		</g>
		<g>
			<path class="st4" d="M169.6,319c-0.4,0-0.7-0.3-0.7-0.7v-13.5c0-0.4,0.3-0.7,0.7-0.7c0.4,0,0.7,0.3,0.7,0.7v13.5
				C170.3,318.7,170,319,169.6,319z"/>
		</g>
		<g>
			<path class="st4" d="M177.7,293.1c-0.4,0-0.7-0.3-0.7-0.7V277c0-0.4,0.3-0.7,0.7-0.7c0.4,0,0.7,0.3,0.7,0.7v15.4
				C178.4,292.8,178.1,293.1,177.7,293.1z"/>
		</g>
		<g>
			<path class="st4" d="M189.9,319c-0.4,0-0.7-0.3-0.7-0.7v-15c0-0.4,0.3-0.7,0.7-0.7c0.4,0,0.7,0.3,0.7,0.7v15
				C190.6,318.7,190.3,319,189.9,319z"/>
		</g>
		<g>
			<path class="st4" d="M199.4,286.3c-0.4,0-0.7-0.3-0.7-0.7V271c0-0.4,0.3-0.7,0.7-0.7c0.4,0,0.7,0.3,0.7,0.7v14.6
				C200.1,286,199.8,286.3,199.4,286.3z"/>
		</g>
		<g>
			<path class="st4" d="M206.9,319c-0.4,0-0.7-0.3-0.7-0.7v-11.1c0-0.4,0.3-0.7,0.7-0.7c0.4,0,0.7,0.3,0.7,0.7v11.1
				C207.6,318.7,207.3,319,206.9,319z"/>
		</g>
		<g>
			<path class="st4" d="M212.2,299.9c-0.4,0-0.7-0.3-0.7-0.7v-10.5c0-0.4,0.3-0.7,0.7-0.7c0.4,0,0.7,0.3,0.7,0.7v10.5
				C212.9,299.6,212.5,299.9,212.2,299.9z"/>
		</g>
		<g>
			<path class="st4" d="M189.9,290.7c-0.4,0-0.7-0.3-0.7-0.7v-8.7c0-0.4,0.3-0.7,0.7-0.7c0.4,0,0.7,0.3,0.7,0.7v8.7
				C190.6,290.4,190.3,290.7,189.9,290.7z"/>
		</g>
		<g>
			<path class="st4" d="M219.6,319c-0.4,0-0.7-0.3-0.7-0.7v-5.5c0-0.4,0.3-0.7,0.7-0.7s0.7,0.3,0.7,0.7v5.5
				C220.3,318.7,220,319,219.6,319z"/>
		</g>
		<g>
			<rect x="316.7" y="292.7" class="st8" width="9.8" height="4.9"/>
			<path class="st4" d="M326.5,298.3h-9.8c-0.4,0-0.7-0.3-0.7-0.7v-4.9c0-0.4,0.3-0.7,0.7-0.7h9.8c0.4,0,0.7,0.3,0.7,0.7v4.9
				C327.2,298,326.9,298.3,326.5,298.3z M317.4,296.9h8.4v-3.5h-8.4V296.9z"/>
		</g>
		<g>
			<rect x="354.8" y="278.3" class="st8" width="9.8" height="4.9"/>
			<path class="st4" d="M364.6,283.9h-9.8c-0.4,0-0.7-0.3-0.7-0.7v-4.9c0-0.4,0.3-0.7,0.7-0.7h9.8c0.4,0,0.7,0.3,0.7,0.7v4.9
				C365.3,283.6,365,283.9,364.6,283.9z M355.5,282.5h8.4V279h-8.4V282.5z"/>
		</g>
		<g>
			<rect x="330.8" y="273.2" class="st8" width="9.8" height="4.9"/>
			<path class="st4" d="M340.6,278.8h-9.8c-0.4,0-0.7-0.3-0.7-0.7v-4.9c0-0.4,0.3-0.7,0.7-0.7h9.8c0.4,0,0.7,0.3,0.7,0.7v4.9
				C341.3,278.5,341,278.8,340.6,278.8z M331.5,277.4h8.4v-3.5h-8.4V277.4z"/>
		</g>
		<g>
			<rect x="289" y="265.4" class="st8" width="9.8" height="4.9"/>
			<path class="st4" d="M298.8,271H289c-0.4,0-0.7-0.3-0.7-0.7v-4.9c0-0.4,0.3-0.7,0.7-0.7h9.8c0.4,0,0.7,0.3,0.7,0.7v4.9
				C299.5,270.7,299.2,271,298.8,271z M289.7,269.6h8.4v-3.5h-8.4V269.6z"/>
		</g>
		<g>
			<rect x="263.6" y="278.8" class="st8" width="9.8" height="4.9"/>
			<path class="st4" d="M273.4,284.4h-9.8c-0.4,0-0.7-0.3-0.7-0.7v-4.9c0-0.4,0.3-0.7,0.7-0.7h9.8c0.4,0,0.7,0.3,0.7,0.7v4.9
				C274.1,284.1,273.8,284.4,273.4,284.4z M264.3,283h8.4v-3.5h-8.4V283z"/>
		</g>
		<g>
			<rect x="168.7" y="203.5" class="st8" width="9.8" height="4.9"/>
			<path class="st4" d="M178.5,209.1h-9.8c-0.4,0-0.7-0.3-0.7-0.7v-4.9c0-0.4,0.3-0.7,0.7-0.7h9.8c0.4,0,0.7,0.3,0.7,0.7v4.9
				C179.2,208.8,178.9,209.1,178.5,209.1z M169.4,207.7h8.4v-3.5h-8.4V207.7z"/>
		</g>
		<g>
			<rect x="208.1" y="192.4" class="st8" width="9.8" height="4.9"/>
			<path class="st4" d="M217.9,198.1h-9.8c-0.4,0-0.7-0.3-0.7-0.7v-4.9c0-0.4,0.3-0.7,0.7-0.7h9.8c0.4,0,0.7,0.3,0.7,0.7v4.9
				C218.6,197.7,218.3,198.1,217.9,198.1z M208.8,196.7h8.4v-3.5h-8.4V196.7z"/>
		</g>
		<g>
			<rect x="239.3" y="197.4" class="st8" width="4.9" height="4.9"/>
			<path class="st4" d="M244.2,203h-4.9c-0.4,0-0.7-0.3-0.7-0.7v-4.9c0-0.4,0.3-0.7,0.7-0.7h4.9c0.4,0,0.7,0.3,0.7,0.7v4.9
				C244.9,202.6,244.6,203,244.2,203z M240,201.6h3.5v-3.5H240V201.6z"/>
		</g>
		<g>
			<rect x="142.8" y="199.8" class="st8" width="4.9" height="4.9"/>
			<path class="st4" d="M147.7,205.4h-4.9c-0.4,0-0.7-0.3-0.7-0.7v-4.9c0-0.4,0.3-0.7,0.7-0.7h4.9c0.4,0,0.7,0.3,0.7,0.7v4.9
				C148.4,205.1,148.1,205.4,147.7,205.4z M143.5,204h3.5v-3.5h-3.5V204z"/>
		</g>
		<g>
			<rect x="215.5" y="255.3" class="st8" width="9.8" height="4.9"/>
			<path class="st4" d="M225.4,260.9h-9.8c-0.4,0-0.7-0.3-0.7-0.7v-4.9c0-0.4,0.3-0.7,0.7-0.7h9.8c0.4,0,0.7,0.3,0.7,0.7v4.9
				C226.1,260.6,225.7,260.9,225.4,260.9z M216.2,259.5h8.4V256h-8.4V259.5z"/>
		</g>
		<g>
			<rect x="168.7" y="246.8" class="st8" width="9.8" height="4.9"/>
			<path class="st4" d="M178.5,252.4h-9.8c-0.4,0-0.7-0.3-0.7-0.7v-4.9c0-0.4,0.3-0.7,0.7-0.7h9.8c0.4,0,0.7,0.3,0.7,0.7v4.9
				C179.2,252.1,178.9,252.4,178.5,252.4z M169.4,251h8.4v-3.5h-8.4V251z"/>
		</g>
		<g>
			<rect x="107.4" y="296.7" class="st8" width="9.8" height="4.9"/>
			<path class="st4" d="M117.2,302.3h-9.8c-0.4,0-0.7-0.3-0.7-0.7v-4.9c0-0.4,0.3-0.7,0.7-0.7h9.8c0.4,0,0.7,0.3,0.7,0.7v4.9
				C117.9,302,117.6,302.3,117.2,302.3z M108.1,300.9h8.4v-3.5h-8.4V300.9z"/>
		</g>
		<g>
			<rect x="127.2" y="281.3" class="st8" width="9.8" height="4.9"/>
			<path class="st4" d="M137,286.9h-9.8c-0.4,0-0.7-0.3-0.7-0.7v-4.9c0-0.4,0.3-0.7,0.7-0.7h9.8c0.4,0,0.7,0.3,0.7,0.7v4.9
				C137.7,286.6,137.4,286.9,137,286.9z M127.9,285.5h8.4V282h-8.4V285.5z"/>
		</g>
		<g>
			<rect x="56.5" y="283.2" class="st8" width="9.8" height="4.9"/>
			<path class="st4" d="M66.3,288.8h-9.8c-0.4,0-0.7-0.3-0.7-0.7v-4.9c0-0.4,0.3-0.7,0.7-0.7h9.8c0.4,0,0.7,0.3,0.7,0.7v4.9
				C67,288.5,66.7,288.8,66.3,288.8z M57.2,287.4h8.4v-3.5h-8.4V287.4z"/>
		</g>
		<g>
			<rect x="87.8" y="267.8" class="st8" width="9.8" height="4.9"/>
			<path class="st4" d="M97.6,273.4h-9.8c-0.4,0-0.7-0.3-0.7-0.7v-4.9c0-0.4,0.3-0.7,0.7-0.7h9.8c0.4,0,0.7,0.3,0.7,0.7v4.9
				C98.3,273.1,98,273.4,97.6,273.4z M88.5,272h8.4v-3.5h-8.4V272z"/>
		</g>
		<g>
			<rect x="15.9" y="274.5" class="st8" width="9.8" height="4.9"/>
			<path class="st4" d="M25.7,280.1h-9.8c-0.4,0-0.7-0.3-0.7-0.7v-4.9c0-0.4,0.3-0.7,0.7-0.7h9.8c0.4,0,0.7,0.3,0.7,0.7v4.9
				C26.4,279.8,26.1,280.1,25.7,280.1z M16.6,278.7H25v-3.5h-8.4V278.7z"/>
		</g>
		<g>
			<rect x="40" y="301.6" class="st8" width="9.8" height="4.9"/>
			<path class="st4" d="M49.8,307.2H40c-0.4,0-0.7-0.3-0.7-0.7v-4.9c0-0.4,0.3-0.7,0.7-0.7h9.8c0.4,0,0.7,0.3,0.7,0.7v4.9
				C50.5,306.9,50.1,307.2,49.8,307.2z M40.7,305.8h8.4v-3.5h-8.4V305.8z"/>
		</g>
		<g>
			<polygon class="st8" points="253.7,119.9 253.7,126.9 249.9,126.9 249.9,119.9 244,119.9 244,126.9 239,126.9 239,119.9 
				235.3,119.9 231.6,119.9 231.6,126.9 226.7,126.9 226.7,119.9 220.8,119.9 220.8,126.9 216.9,126.9 216.9,119.9 211,119.9 
				211,126.9 207.2,126.9 207.2,119.9 201.3,119.9 201.3,126.9 197.4,126.9 197.4,119.9 191.5,119.9 191.5,126.9 186.5,126.9 
				186.5,119.9 182.9,119.9 179.2,119.9 179.2,126.9 174.2,126.9 174.2,119.9 168.3,119.9 168.3,126.9 164.4,126.9 164.4,119.9 
				158.5,119.9 158.5,126.9 154.7,126.9 154.7,119.9 148.8,119.9 148.8,126.9 144.9,126.9 144.9,119.9 139,119.9 139,126.9 
				134.1,126.9 134.1,119.9 130.4,119.9 130.4,126.9 130.4,137.2 182.9,137.2 235.3,137.2 256.9,137.2 256.9,119.9 			"/>
			<path class="st4" d="M256.9,137.9H130.4c-0.4,0-0.7-0.3-0.7-0.7v-17.3c0-0.4,0.3-0.7,0.7-0.7h3.7c0.4,0,0.7,0.3,0.7,0.7v6.3h3.6
				v-6.3c0-0.4,0.3-0.7,0.7-0.7h5.9c0.4,0,0.7,0.3,0.7,0.7v6.3h2.5v-6.3c0-0.4,0.3-0.7,0.7-0.7h5.9c0.4,0,0.7,0.3,0.7,0.7v6.3h2.5
				v-6.3c0-0.4,0.3-0.7,0.7-0.7h5.9c0.4,0,0.7,0.3,0.7,0.7v6.3h2.5v-6.3c0-0.4,0.3-0.7,0.7-0.7h5.9c0.4,0,0.7,0.3,0.7,0.7v6.3h3.6
				v-6.3c0-0.4,0.3-0.7,0.7-0.7h7.4c0.4,0,0.7,0.3,0.7,0.7v6.3h3.6v-6.3c0-0.4,0.3-0.7,0.7-0.7h5.9c0.4,0,0.7,0.3,0.7,0.7v6.3h2.5
				v-6.3c0-0.4,0.3-0.7,0.7-0.7h5.9c0.4,0,0.7,0.3,0.7,0.7v6.3h2.5v-6.3c0-0.4,0.3-0.7,0.7-0.7h5.9c0.4,0,0.7,0.3,0.7,0.7v6.3h2.5
				v-6.3c0-0.4,0.3-0.7,0.7-0.7h5.9c0.4,0,0.7,0.3,0.7,0.7v6.3h3.6v-6.3c0-0.4,0.3-0.7,0.7-0.7h7.4c0.4,0,0.7,0.3,0.7,0.7v6.3h3.6
				v-6.3c0-0.4,0.3-0.7,0.7-0.7h5.9c0.4,0,0.7,0.3,0.7,0.7v6.3h2.5v-6.3c0-0.4,0.3-0.7,0.7-0.7h3.1c0.4,0,0.7,0.3,0.7,0.7v17.3
				C257.6,137.6,257.2,137.9,256.9,137.9z M131.1,136.5h125.1v-15.9h-1.7v6.3c0,0.4-0.3,0.7-0.7,0.7h-3.9c-0.4,0-0.7-0.3-0.7-0.7
				v-6.3h-4.5v6.3c0,0.4-0.3,0.7-0.7,0.7h-5c-0.4,0-0.7-0.3-0.7-0.7v-6.3h-6v6.3c0,0.4-0.3,0.7-0.7,0.7h-5c-0.4,0-0.7-0.3-0.7-0.7
				v-6.3h-4.5v6.3c0,0.4-0.3,0.7-0.7,0.7h-3.9c-0.4,0-0.7-0.3-0.7-0.7v-6.3h-4.5v6.3c0,0.4-0.3,0.7-0.7,0.7h-3.9
				c-0.4,0-0.7-0.3-0.7-0.7v-6.3H202v6.3c0,0.4-0.3,0.7-0.7,0.7h-3.9c-0.4,0-0.7-0.3-0.7-0.7v-6.3h-4.5v6.3c0,0.4-0.3,0.7-0.7,0.7
				h-5c-0.4,0-0.7-0.3-0.7-0.7v-6.3h-6v6.3c0,0.4-0.3,0.7-0.7,0.7h-5c-0.4,0-0.7-0.3-0.7-0.7v-6.3H169v6.3c0,0.4-0.3,0.7-0.7,0.7
				h-3.9c-0.4,0-0.7-0.3-0.7-0.7v-6.3h-4.5v6.3c0,0.4-0.3,0.7-0.7,0.7h-3.9c-0.4,0-0.7-0.3-0.7-0.7v-6.3h-4.5v6.3
				c0,0.4-0.3,0.7-0.7,0.7h-3.9c-0.4,0-0.7-0.3-0.7-0.7v-6.3h-4.5v6.3c0,0.4-0.3,0.7-0.7,0.7h-5c-0.4,0-0.7-0.3-0.7-0.7v-6.3h-2.3
				V136.5z"/>
		</g>
		<g>
			<polygon class="st7" points="193.7,48.9 132.1,98.6 193.7,98.6 255.3,98.6 			"/>
			<path class="st4" d="M255.3,99.3H132.1c-0.3,0-0.6-0.2-0.7-0.5s0-0.6,0.2-0.8l61.6-49.7c0.3-0.2,0.6-0.2,0.9,0L255.7,98
				c0.2,0.2,0.3,0.5,0.2,0.8C255.8,99.1,255.6,99.3,255.3,99.3z M134.1,97.9h119.3l-59.6-48.1L134.1,97.9z"/>
		</g>
		<g>
			<rect x="239.3" y="162.5" class="st6" width="40.6" height="21.6"/>
			<path class="st4" d="M279.9,184.8h-40.6c-0.4,0-0.7-0.3-0.7-0.7v-21.6c0-0.4,0.3-0.7,0.7-0.7h40.6c0.4,0,0.7,0.3,0.7,0.7v21.6
				C280.6,184.5,280.2,184.8,279.9,184.8z M240,183.4h39.2v-20.2H240V183.4z"/>
		</g>
		<g>
			<polygon class="st8" points="282.1,173.3 282.1,180.2 277.2,180.2 277.2,173.3 271.3,173.3 271.3,180.2 267.4,180.2 267.4,173.3 
				261.5,173.3 261.5,180.2 257.7,180.2 257.7,173.3 251.7,173.3 251.7,180.2 247.9,180.2 247.9,173.3 242,173.3 242,180.2 
				237,180.2 237,173.3 233.3,173.3 233.3,180.2 233.3,190.5 285.8,190.5 285.8,180.2 285.8,173.3 			"/>
			<path class="st4" d="M285.8,191.2h-52.5c-0.4,0-0.7-0.3-0.7-0.7v-17.3c0-0.4,0.3-0.7,0.7-0.7h3.7c0.4,0,0.7,0.3,0.7,0.7v6.3h3.6
				v-6.3c0-0.4,0.3-0.7,0.7-0.7h5.9c0.4,0,0.7,0.3,0.7,0.7v6.3h2.5v-6.3c0-0.4,0.3-0.7,0.7-0.7h5.9c0.4,0,0.7,0.3,0.7,0.7v6.3h2.5
				v-6.3c0-0.4,0.3-0.7,0.7-0.7h5.9c0.4,0,0.7,0.3,0.7,0.7v6.3h2.5v-6.3c0-0.4,0.3-0.7,0.7-0.7h5.9c0.4,0,0.7,0.3,0.7,0.7v6.3h3.6
				v-6.3c0-0.4,0.3-0.7,0.7-0.7h3.7c0.4,0,0.7,0.3,0.7,0.7v17.3C286.5,190.9,286.2,191.2,285.8,191.2z M234,189.8h51.1V174h-2.3v6.3
				c0,0.4-0.3,0.7-0.7,0.7h-5c-0.4,0-0.7-0.3-0.7-0.7V174H272v6.3c0,0.4-0.3,0.7-0.7,0.7h-3.9c-0.4,0-0.7-0.3-0.7-0.7V174h-4.5v6.3
				c0,0.4-0.3,0.7-0.7,0.7h-3.9c-0.4,0-0.7-0.3-0.7-0.7V174h-4.5v6.3c0,0.4-0.3,0.7-0.7,0.7h-3.9c-0.4,0-0.7-0.3-0.7-0.7V174h-4.5
				v6.3c0,0.4-0.3,0.7-0.7,0.7h-5c-0.4,0-0.7-0.3-0.7-0.7V174H234V189.8z"/>
		</g>
		<g>
			<polygon class="st7" points="259.6,123.9 234.6,164.5 259.6,164.5 284.6,164.5 			"/>
			<path class="st4" d="M284.6,165.1h-50c-0.3,0-0.5-0.1-0.6-0.4c-0.1-0.2-0.1-0.5,0-0.7l25-40.6c0.3-0.4,0.9-0.4,1.2,0l25,40.6
				c0.1,0.2,0.1,0.5,0,0.7C285,165,284.8,165.1,284.6,165.1z M235.8,163.8h47.5l-23.7-38.6L235.8,163.8z"/>
		</g>
		<g>
			<rect x="107.4" y="163.1" class="st6" width="40.6" height="21.6"/>
			<path class="st4" d="M148,185.4h-40.6c-0.4,0-0.7-0.3-0.7-0.7v-21.6c0-0.4,0.3-0.7,0.7-0.7H148c0.4,0,0.7,0.3,0.7,0.7v21.6
				C148.7,185.1,148.4,185.4,148,185.4z M108.1,184h39.2v-20.2h-39.2V184z"/>
		</g>
		<g>
			<polygon class="st7" points="127.7,124.5 102.7,165.1 127.7,165.1 152.7,165.1 			"/>
			<path class="st4" d="M152.7,165.8h-50c-0.3,0-0.5-0.1-0.6-0.4c-0.1-0.2-0.1-0.5,0-0.7l25-40.6c0.3-0.4,0.9-0.4,1.2,0l25,40.6
				c0.1,0.2,0.1,0.5,0,0.7C153.2,165.6,152.9,165.8,152.7,165.8z M104,164.4h47.5l-23.7-38.6L104,164.4z"/>
		</g>
		<g>
			<polygon class="st8" points="150.1,173.3 150.1,180.2 145.2,180.2 145.2,173.3 139.3,173.3 139.3,180.2 135.4,180.2 135.4,173.3 
				129.5,173.3 129.5,180.2 125.7,180.2 125.7,173.3 119.8,173.3 119.8,180.2 115.9,180.2 115.9,173.3 110,173.3 110,180.2 
				105,180.2 105,173.3 101.3,173.3 101.3,180.2 101.3,190.5 153.8,190.5 153.8,180.2 153.8,173.3 			"/>
			<path class="st4" d="M153.8,191.2h-52.5c-0.4,0-0.7-0.3-0.7-0.7v-17.3c0-0.4,0.3-0.7,0.7-0.7h3.7c0.4,0,0.7,0.3,0.7,0.7v6.3h3.6
				v-6.3c0-0.4,0.3-0.7,0.7-0.7h5.9c0.4,0,0.7,0.3,0.7,0.7v6.3h2.5v-6.3c0-0.4,0.3-0.7,0.7-0.7h5.9c0.4,0,0.7,0.3,0.7,0.7v6.3h2.5
				v-6.3c0-0.4,0.3-0.7,0.7-0.7h5.9c0.4,0,0.7,0.3,0.7,0.7v6.3h2.5v-6.3c0-0.4,0.3-0.7,0.7-0.7h5.9c0.4,0,0.7,0.3,0.7,0.7v6.3h3.6
				v-6.3c0-0.4,0.3-0.7,0.7-0.7h3.7c0.4,0,0.7,0.3,0.7,0.7v17.3C154.5,190.9,154.2,191.2,153.8,191.2z M102,189.8h51.1V174h-2.3v6.3
				c0,0.4-0.3,0.7-0.7,0.7h-5c-0.4,0-0.7-0.3-0.7-0.7V174H140v6.3c0,0.4-0.3,0.7-0.7,0.7h-3.9c-0.4,0-0.7-0.3-0.7-0.7V174h-4.5v6.3
				c0,0.4-0.3,0.7-0.7,0.7h-3.9c-0.4,0-0.7-0.3-0.7-0.7V174h-4.5v6.3c0,0.4-0.3,0.7-0.7,0.7h-3.9c-0.4,0-0.7-0.3-0.7-0.7V174h-4.5
				v6.3c0,0.4-0.3,0.7-0.7,0.7h-5c-0.4,0-0.7-0.3-0.7-0.7V174H102V189.8z"/>
		</g>
	</g>
	<g>
		<polygon class="st6" points="234.5,355.2 154.4,355.2 164.1,319 224.8,319 		"/>
		<path class="st4" d="M234.5,356C234.5,356,234.5,356,234.5,356h-80c-0.2,0-0.4-0.1-0.5-0.2c-0.1-0.1-0.2-0.3-0.1-0.4l9.7-36.6
			c0.1-0.2,0.4-0.4,0.7-0.4h60.7c0.3,0,0.6,0.2,0.7,0.4l9.6,36.5c0,0.1,0.1,0.1,0.1,0.2C235.2,355.8,234.9,356,234.5,356z
			 M155.3,355h78.3l-9.4-35.6h-59.5L155.3,355z"/>
	</g>
	<g>
		<path class="st4" d="M226,326.3h-63.7c-0.4,0-0.7-0.3-0.7-0.7c0-0.4,0.3-0.7,0.7-0.7H226c0.4,0,0.7,0.3,0.7,0.7
			C226.7,326,226.4,326.3,226,326.3z"/>
	</g>
	<g>
		<path class="st4" d="M228.4,335.1h-67.7c-0.4,0-0.7-0.3-0.7-0.7s0.3-0.7,0.7-0.7h67.7c0.4,0,0.7,0.3,0.7,0.7
			S228.8,335.1,228.4,335.1z"/>
	</g>
	<g>
		<path class="st4" d="M231,343.9h-72.9c-0.4,0-0.7-0.3-0.7-0.7c0-0.4,0.3-0.7,0.7-0.7H231c0.4,0,0.7,0.3,0.7,0.7
			C231.7,343.6,231.3,343.9,231,343.9z"/>
	</g>
	<g>
		<g>
			<path class="st4" d="M271.5,323.3c-5.2-2-10.4,2.6-15.6,0.6c-0.4-0.1-0.7-0.6-0.7-1c0-0.4,0.3-0.5,0.7-0.4
				c5.2,2,10.4-2.6,15.6-0.6c0.4,0.1,0.7,0.6,0.7,1C272.2,323.3,271.9,323.4,271.5,323.3z"/>
		</g>
	</g>
	<g>
		<g>
			<path class="st4" d="M303.2,327.5c-5.2-2-10.4,2.6-15.6,0.6c-0.4-0.1-0.7-0.6-0.7-1c0-0.4,0.3-0.5,0.7-0.4
				c5.2,2,10.4-2.6,15.6-0.6c0.4,0.1,0.7,0.6,0.7,1C303.9,327.5,303.5,327.6,303.2,327.5z"/>
		</g>
	</g>
	<g>
		<g>
			<path class="st4" d="M327.1,318.6c-5.2-2-10.4,2.6-15.6,0.6c-0.4-0.1-0.7-0.6-0.7-1c0-0.4,0.3-0.5,0.7-0.4
				c5.2,2,10.4-2.6,15.6-0.6c0.4,0.1,0.7,0.6,0.7,1C327.8,318.6,327.5,318.8,327.1,318.6z"/>
		</g>
	</g>
	<g>
		<polygon class="st9" points="36.4,121 36.4,137 2,137 7.5,129.1 2,121 		"/>
		<line class="st10" x1="36.4" y1="137" x2="36.4" y2="148.9"/>
	</g>
	<g>
		<polygon class="st9" points="127.5,96.2 127.5,112.3 93.2,112.3 98.6,104.4 93.2,96.2 		"/>
		<line class="st10" x1="127.5" y1="112.2" x2="127.5" y2="124.1"/>
	</g>
	<g>
		<polygon class="st9" points="260.3,96.2 260.3,112.3 294.6,112.3 289.2,104.4 294.6,96.2 		"/>
		<line class="st10" x1="260.3" y1="112.2" x2="260.3" y2="124.1"/>
	</g>
	<g>
		<polygon class="st9" points="350.6,121 350.6,137 385,137 379.5,129.1 385,121 		"/>
		<line class="st10" x1="350.6" y1="137" x2="350.6" y2="148.9"/>
	</g>
	<g>
		<polygon class="st11" points="193.9,1 193.9,29.1 253.9,29.1 244.3,15.3 253.9,1 		"/>
		<g id="XMLID_53_">
			<g id="XMLID_532_">
				<path id="XMLID_533_" class="st12" d="M237.6,13l-2.2,7.5h-5l2.1-7c0.3-1.1,0.3-2,0-2.5c-0.3-0.4-0.8-0.4-0.9-0.4c0,0,0,0,0,0
					l0,0c-2.3,0-3.1,2.7-3.1,2.7l-2.2,7.2h-3.9c0,0,0,0,0,0l0,0l0,0c0,0,0.9-0.4,1.6-1.2c0.7-0.7,1.4-2,0.9-3.8
					c0-0.1-0.2-0.7-1.1-1.4c-0.1-0.1-0.2-0.1-0.3-0.2c-0.1,0-0.2-0.1-0.2-0.1l0-0.1l0.4-1.5h2.5l0.1-0.2c0,0,0,0,0-0.1c0,0,0,0,0,0
					c0,0,0,0,0,0c0,0,0,0,0-0.1c0,0,0,0,0-0.1c0,0,0,0,0,0c0,0,0,0,0,0c0,0,0,0,0,0c0-0.2,0-0.5,0-0.8c0-0.2-0.1-0.5-0.2-0.8
					c0-0.1-0.1-0.1-0.1-0.2c0,0,0,0,0,0c0,0,0-0.1,0-0.1c-0.1-0.2-0.2-0.3-0.4-0.5h0c0,0-0.1-0.1-0.1-0.1c-0.1-0.1-0.3-0.2-0.4-0.3
					c-0.1,0-0.2-0.1-0.2-0.1v0l0,0l0.2-0.6l4.8,0l-0.5,1.8c1-1,2.2-1.5,3-1.8c1.1-0.3,1.8-0.4,1.9-0.4h0c1.5,0,2.6,0.4,3.2,1.3
					C238.4,10.7,237.6,12.9,237.6,13z"/>
			</g>
			<g id="XMLID_530_">
				<path id="XMLID_531_" class="st12" d="M226,12l0,0.1h-4.3l0-0.2c0.1-0.5,0-0.9-0.3-1.2c-0.4-0.4-1-0.4-1.1-0.4l0,0
					c-0.7,0-1.1,0.1-1.4,0.4c-0.2,0.3-0.2,0.6-0.2,0.6l0,0l0,0c-0.1,0.6,1.4,1.5,3.8,2.4c0.3,0.1,0.6,0.2,0.8,0.4
					c0.1,0.1,0.2,0.1,0.3,0.2c0.9,0.6,1,1.2,1,1.3c0.5,1.7-0.2,3-0.9,3.7c-0.7,0.8-1.6,1.1-1.6,1.1l0,0l0,0c-0.1,0-0.2,0.1-0.2,0.1
					c-1.1,0.4-2.4,0.5-3.7,0.5c-1.6,0-2.8-0.3-2.9-0.3c-0.5-0.1-0.9-0.2-1.2-0.4c0.7-0.4,2-1.4,2.2-3.1c0-0.1,0-0.1,0-0.2
					c0,0,0,0,0,0h0.8l0,0.2c-0.1,0.4,0,0.7,0.2,1c0.4,0.5,1.2,0.6,1.2,0.6c0.1,0,0.2,0,0.3,0c1.6,0,1.7-1.5,1.7-1.5
					c0-0.7-0.6-1-0.7-1l-2.4-1.1c-0.1-0.1-0.3-0.1-0.4-0.2c-1.9-0.7-2.4-2-2.5-2.7h3l0.1-0.2c0,0,0.2-0.5,0-1.2
					c-0.1-0.6-0.4-1.3-1.3-1.9c1.5-0.8,3.5-0.8,4.1-0.8c0.1,0,0.1,0,0.1,0c1.9,0,3.3,0.3,4.2,0.9c0.9,0.6,1.2,1.4,1.3,1.9
					C226.1,11.5,226,11.9,226,12z"/>
			</g>
			<g id="XMLID_54_">
				<path id="XMLID_500_" class="st12" d="M209.4,20.9c-1.6,0-2.8-0.3-2.9-0.3c-1-0.2-1.7-0.6-2.1-1.3c-0.7-1-0.5-2.2-0.5-2.3l0-0.1
					h4.3l0,0.2c-0.1,0.4,0,0.7,0.2,1c0.4,0.5,1.2,0.6,1.2,0.6c0.1,0,0.2,0,0.3,0c1.6,0,1.7-1.5,1.7-1.5c0-0.7-0.6-1-0.7-1l-2.5-1.1
					c-0.1,0-0.2-0.1-0.3-0.1c-1.5-0.5-2.1-1.4-2.4-2c-0.3-0.6-0.2-1.2-0.2-1.2c0-1.5,0.9-2.6,2.7-3.2c1.4-0.5,2.9-0.5,3.3-0.5
					c0.1,0,0.1,0,0.1,0c1.8,0,3.2,0.3,4.1,0.9c1,0.6,1.3,1.4,1.4,1.9c0.1,0.6,0,1.1,0,1.1l0,0.1h-4.3l0-0.2c0.1-0.5,0-0.9-0.3-1.2
					c-0.4-0.4-1-0.4-1.1-0.4l0,0c-0.6,0-1.1,0.1-1.4,0.4c-0.3,0.3-0.2,0.6-0.2,0.6l0,0l0,0c-0.1,0.6,1.4,1.5,3.7,2.4
					c0.5,0.2,0.8,0.3,1.1,0.5c0.9,0.6,1,1.2,1,1.3c0.2,0.5,0.2,1.1,0.1,1.6c-0.2,1.7-1.7,2.7-2.3,3.1c-0.2,0.1-0.3,0.1-0.3,0.2l0,0
					l0,0C212.2,20.7,210.8,20.9,209.4,20.9z"/>
			</g>
		</g>
		<line class="st10" x1="193.9" y1="29" x2="193.9" y2="49.8"/>
	</g>
</g>
</svg>
