<?xml version="1.0" encoding="utf-8"?>
<!-- Generator: Adobe Illustrator 21.0.2, SVG Export Plug-In . SVG Version: 6.00 Build 0)  -->
<svg version="1.1" id="Layer_1" xmlns="http://www.w3.org/2000/svg" xmlns:xlink="http://www.w3.org/1999/xlink" x="0px" y="0px"
	 viewBox="0 0 81 38" style="enable-background:new 0 0 81 38;" xml:space="preserve">
<style type="text/css">
	.st0{fill:#FC3D4B;}
	.st1{fill:#1C1A1A;}
	.st2{fill:#F9BF64;}
	.st3{fill:#F96441;}
	.st4{fill:#529DF7;}
</style>
<g>
	<g>
		<g>
			<g>
				<path class="st0" d="M15.6,18H19v17.6c0,0.9-0.8,1.7-1.7,1.7l0,0c-0.9,0-1.7-0.8-1.7-1.7V18z"/>
			</g>
			<g>
				<path class="st1" d="M17.3,38.1c-1.4,0-2.5-1.1-2.5-2.5V18c0-0.4,0.3-0.8,0.8-0.8H19c0.4,0,0.8,0.3,0.8,0.8v17.6
					C19.8,37,18.6,38.1,17.3,38.1z M16.3,18.8v16.9c0,0.5,0.4,1,1,1c0.5,0,1-0.4,1-1V18.8H16.3z"/>
			</g>
		</g>
		<g>
			<g>
				<path class="st0" d="M62.3,18h3.4v17.6c0,0.9-0.8,1.7-1.7,1.7l0,0c-0.9,0-1.7-0.8-1.7-1.7V18z"/>
			</g>
			<g>
				<path class="st1" d="M64.1,38.1c-1.4,0-2.5-1.1-2.5-2.5V18c0-0.4,0.3-0.8,0.8-0.8h3.4c0.4,0,0.8,0.3,0.8,0.8v17.6
					C66.5,37,65.4,38.1,64.1,38.1z M63.1,18.8v16.9c0,0.5,0.4,1,1,1c0.5,0,1-0.4,1-1V18.8H63.1z"/>
			</g>
		</g>
	</g>
	<g>
		<path class="st2" d="M67.5,18H13.8C9,18,5.1,14.1,5.1,9.3l0,0c0-4.8,3.9-8.7,8.7-8.7h53.7c4.8,0,8.7,3.9,8.7,8.7l0,0
			C76.2,14.1,72.3,18,67.5,18z"/>
	</g>
	<g>
		<path class="st1" d="M70.4,18.8H11c-3.6,0-6.6-3-6.6-6.6V6.5c0-3.6,3-6.6,6.6-6.6h59.4c3.6,0,6.6,3,6.6,6.6v5.7
			C77,15.8,74,18.8,70.4,18.8z M11,1.4c-2.8,0-5.1,2.3-5.1,5.1v5.7c0,2.8,2.3,5.1,5.1,5.1h59.4c2.8,0,5.1-2.3,5.1-5.1V6.5
			c0-2.8-2.3-5.1-5.1-5.1H11z"/>
	</g>
	<g>
		<path class="st3" d="M76.2,9V6.5c0-3.2-2.6-5.8-5.8-5.8H11c-3.2,0-5.8,2.6-5.8,5.8V9H76.2z"/>
	</g>
	<g>
		<path class="st1" d="M76.2,9.8H5.1C4.7,9.8,4.4,9.5,4.4,9V6.5c0-3.6,3-6.6,6.6-6.6h59.4c3.6,0,6.6,3,6.6,6.6V9
			C77,9.5,76.6,9.8,76.2,9.8z M5.9,8.3h69.6V6.5c0-2.8-2.3-5.1-5.1-5.1H11c-2.8,0-5.1,2.3-5.1,5.1V8.3z"/>
	</g>
	<g>
		<path class="st4" d="M76.7,30.5H4.6c-1.9,0-3.4-1.5-3.4-3.4l0,0c0-1.9,1.5-3.4,3.4-3.4h72.1c1.9,0,3.4,1.5,3.4,3.4l0,0
			C80.1,29,78.6,30.5,76.7,30.5z"/>
	</g>
	<g>
		<path class="st1" d="M76.7,31.2H4.6c-2.3,0-4.1-1.8-4.1-4.1c0-2.3,1.8-4.1,4.1-4.1h72.1c2.3,0,4.1,1.8,4.1,4.1
			C80.8,29.4,79,31.2,76.7,31.2z M4.6,24.5c-1.4,0-2.6,1.2-2.6,2.6c0,1.4,1.2,2.6,2.6,2.6h72.1c1.4,0,2.6-1.2,2.6-2.6
			c0-1.4-1.2-2.6-2.6-2.6H4.6z"/>
	</g>
</g>
</svg>
