<?xml version="1.0" encoding="utf-8"?>
<!-- Generator: Adobe Illustrator 21.0.2, SVG Export Plug-In . SVG Version: 6.00 Build 0)  -->
<svg version="1.1" id="Layer_1" xmlns="http://www.w3.org/2000/svg" xmlns:xlink="http://www.w3.org/1999/xlink" x="0px" y="0px"
	 viewBox="0 0 1917 352" style="enable-background:new 0 0 1917 352;" xml:space="preserve">
<style type="text/css">
	.st0{opacity:0.1;}
</style>
<g class="st0">
	<polygon points="0.6,352.5 0.6,258.5 9.9,258.5 9.9,230.6 66.7,230.6 66.7,206.8 101.8,206.8 101.8,233.7 121.5,233.7 121.5,206.8 
		142.1,206.8 142.1,147.9 151.4,147.9 151.4,134.5 174.2,134.5 174.2,147.9 183.5,147.9 183.5,199.6 191.7,199.6 191.7,243.5 
		210.3,243.5 210.3,164.5 222.7,164.5 222.7,103.5 231,103.5 231,64.3 237.2,64.3 237.2,34.3 243.4,34.3 243.4,2.3 252.7,2.3 
		252.7,33.3 259.9,33.3 259.9,58.1 266.1,58.1 266.1,105.6 274.4,105.6 274.4,167.6 283.7,167.6 283.7,256.4 299.2,256.4 
		299.2,235.7 332.2,235.7 332.2,246.1 344.6,246.1 344.6,173.8 353.9,173.8 353.9,147.9 382.8,147.9 382.8,172.7 389.3,179.2 
		389.3,221.3 400.4,221.3 400.4,207.9 429.3,207.9 429.3,222.3 446.9,222.3 446.9,235.7 465.5,235.7 465.5,217.2 478.9,217.2 
		478.9,177.4 554.3,177.4 554.3,217.2 567.8,217.2 567.8,177.4 631.8,177.4 631.8,193.4 649.4,193.4 649.4,252.3 674.2,252.3 
		674.2,201.7 757.9,201.7 757.9,228.5 770.3,228.5 770.3,262.6 778.5,262.6 778.5,283.3 814.7,283.3 814.7,221.3 849.8,221.3 
		849.8,241.9 862.2,241.9 862.2,221.3 903.5,221.3 903.5,258.5 911.8,258.5 911.8,283.3 931.4,283.3 931.4,240.9 975.8,240.9 
		975.8,230.6 985.1,230.6 985.1,218.2 994.4,218.2 994.4,228.5 1004.8,228.5 1004.8,216.1 1028.5,216.1 1028.5,227.5 1038.9,227.5 
		1038.9,260.5 1058.5,260.5 1058.5,215.1 1097.8,215.1 1097.8,228.5 1114.3,228.5 1114.3,171.7 1126.7,149 1126.7,124.2 
		1131.8,124.2 1131.8,150 1146.3,170.7 1146.3,260.5 1163.9,260.5 1163.9,90.1 1216.6,90.1 1216.6,248.1 1226.9,248.1 1226.9,221.3 
		1249.6,221.3 1249.6,237.8 1297.1,237.8 1297.1,258.5 1334.3,258.5 1334.3,226.4 1354,226.4 1354,245 1368.4,245 1368.4,233.7 
		1389.1,233.7 1389.1,220.2 1413.9,220.2 1413.9,255.4 1432.5,255.4 1432.5,187.2 1444.9,170.7 1462.4,188.2 1462.4,219.2 
		1483.1,219.2 1483.1,247.1 1508.9,247.1 1508.9,216.1 1526.5,216.1 1526.5,202.7 1550.3,202.7 1550.3,212 1566.8,212 1566.8,197.5 
		1627.7,197.5 1627.7,246.1 1632.9,246.1 1632.9,235.7 1656.7,235.7 1656.7,294.6 1674.2,294.6 1674.2,275 1681.5,275 1681.5,213 
		1705.2,213 1705.2,300.8 1717.6,300.8 1717.6,318.4 1742.4,318.4 1742.4,303.9 1794.1,303.9 1794.1,205.8 1834.4,205.8 1834.4,306 
		1917,306 1917,356.6 	"/>
</g>
</svg>
