<?xml version="1.0" encoding="utf-8"?>
<!-- Generator: Adobe Illustrator 21.0.2, SVG Export Plug-In . SVG Version: 6.00 Build 0)  -->
<svg version="1.1" id="Layer_1" xmlns="http://www.w3.org/2000/svg" xmlns:xlink="http://www.w3.org/1999/xlink" x="0px" y="0px"
	 viewBox="0 0 180 16" style="enable-background:new 0 0 180 16;" xml:space="preserve">
<style type="text/css">
	.st0{fill:#FFFFFF;}
</style>
<g>
	<g>
		<path class="st0" d="M117.1,0H8.3c-4.4,0-8,3.6-8,8s3.6,8,8,8h108.8c4.4,0,8-3.6,8-8S121.5,0,117.1,0z"/>
	</g>
	<g>
		<path class="st0" d="M148,0h-2.2c-4.4,0-8,3.6-8,8s3.6,8,8,8h2.2c4.4,0,8-3.6,8-8S152.4,0,148,0z"/>
	</g>
	<g>
		<path class="st0" d="M171.7,0h-2.2c-4.4,0-8,3.6-8,8s3.6,8,8,8h2.2c4.4,0,8-3.6,8-8S176.1,0,171.7,0z"/>
	</g>
</g>
</svg>
