<?xml version="1.0" encoding="utf-8"?>
<!-- Generator: Adobe Illustrator 21.0.2, SVG Export Plug-In . SVG Version: 6.00 Build 0)  -->
<svg version="1.1" id="Layer_1" xmlns="http://www.w3.org/2000/svg" xmlns:xlink="http://www.w3.org/1999/xlink" x="0px" y="0px"
	 viewBox="0 0 216 45" style="enable-background:new 0 0 216 45;" xml:space="preserve">
<style type="text/css">
	.st0{fill:#FFFFFF;}
</style>
<g>
	<g>
		<path class="st0" d="M39.3,0.5h-2.2c-4.4,0-8,3.6-8,8s3.6,8,8,8h2.2c4.4,0,8-3.6,8-8S43.8,0.5,39.3,0.5z"/>
	</g>
	<g>
		<path class="st0" d="M10.6,0.5H8.4c-4.4,0-8,3.6-8,8s3.6,8,8,8h2.2c4.4,0,8-3.6,8-8S15,0.5,10.6,0.5z"/>
	</g>
	<g>
		<path class="st0" d="M36.6,29h101.3c3.4,0,6.2-2.8,6.2-6.2s-2.8-6.2-6.2-6.2H70.5c-4.4,0-8.2-3.4-8.3-7.8c-0.1-4.5,3.5-8.2,8-8.2
			h137.1c4.4,0,8.2,3.4,8.3,7.8c0.1,4.5-3.5,8.2-8,8.2h-44.4c-3.4,0-6.2,2.8-6.2,6.2s2.8,6.2,6.2,6.2h22.3c4.4,0,8.2,3.4,8.3,7.8
			c0.1,4.5-3.5,8.2-8,8.2H36.2c-4.5,0-8.1-3.7-8-8.2C28.4,32.4,32.2,29,36.6,29z"/>
	</g>
</g>
</svg>
