<?xml version="1.0" encoding="utf-8"?>
<!-- Generator: Adobe Illustrator 21.0.2, SVG Export Plug-In . SVG Version: 6.00 Build 0)  -->
<svg version="1.1" id="Layer_1" xmlns="http://www.w3.org/2000/svg" xmlns:xlink="http://www.w3.org/1999/xlink" x="0px" y="0px"
	 viewBox="0 0 216 45" style="enable-background:new 0 0 216 45;" xml:space="preserve">
<style type="text/css">
	.st0{fill:#FFFFFF;}
</style>
<g>
	<g>
		<path class="st0" d="M177.1,0.4h2.2c4.4,0,8,3.6,8,8s-3.6,8-8,8h-2.2c-4.4,0-8-3.6-8-8S172.6,0.4,177.1,0.4z"/>
	</g>
	<g>
		<path class="st0" d="M205.8,0.4h2.2c4.4,0,8,3.6,8,8s-3.6,8-8,8h-2.2c-4.4,0-8-3.6-8-8S201.4,0.4,205.8,0.4z"/>
	</g>
	<g>
		<path class="st0" d="M179.8,28.9H78.6c-3.4,0-6.2-2.8-6.2-6.2s2.8-6.2,6.2-6.2h67.3c4.4,0,8.2-3.4,8.3-7.8c0.1-4.5-3.5-8.2-8-8.2
			H9.1c-4.4,0-8.2,3.4-8.3,7.8c-0.1,4.5,3.5,8.2,8,8.2h44.4c3.4,0,6.2,2.8,6.2,6.2s-2.8,6.2-6.2,6.2H30.9c-4.4,0-8.2,3.4-8.3,7.8
			c-0.1,4.5,3.5,8.2,8,8.2h149.6c4.5,0,8.1-3.7,8-8.2C188,32.3,184.2,28.9,179.8,28.9z"/>
	</g>
</g>
</svg>
