<?xml version="1.0" encoding="utf-8"?>
<!-- Generator: Adobe Illustrator 21.0.2, SVG Export Plug-In . SVG Version: 6.00 Build 0)  -->
<svg version="1.1" id="Layer_1" xmlns="http://www.w3.org/2000/svg" xmlns:xlink="http://www.w3.org/1999/xlink" x="0px" y="0px"
	 viewBox="0 0 229 79" style="enable-background:new 0 0 229 79;" xml:space="preserve">
<style type="text/css">
	.st0{fill:#FFFFFF;}
</style>
<g>
	<g>
		<path class="st0" d="M166.1,0.8H57.3c-4.4,0-8,3.6-8,8s3.6,8,8,8h108.8c4.4,0,8-3.6,8-8S170.5,0.8,166.1,0.8z"/>
	</g>
	<g>
		<path class="st0" d="M196.9,0.8h-2.2c-4.4,0-8,3.6-8,8s3.6,8,8,8h2.2c4.4,0,8-3.6,8-8S201.4,0.8,196.9,0.8z"/>
	</g>
	<g>
		<path class="st0" d="M220.7,0.8h-2.2c-4.4,0-8,3.6-8,8s3.6,8,8,8h2.2c4.4,0,8-3.6,8-8S225.1,0.8,220.7,0.8z"/>
	</g>
	<g>
		<path class="st0" d="M179.1,62.9H77.9c-3.4,0-6.2-2.8-6.2-6.2c0-3.4,2.8-6.2,6.2-6.2h38.7c4.4,0,8.2-3.4,8.3-7.8
			c0.1-4.5-3.5-8.2-8-8.2H8.4c-4.4,0-8.2,3.4-8.3,7.8c-0.1,4.5,3.5,8.2,8,8.2h44.4c3.4,0,6.2,2.8,6.2,6.2c0,3.4-2.8,6.2-6.2,6.2
			H30.2c-4.4,0-8.2,3.4-8.3,7.8c-0.1,4.5,3.5,8.2,8,8.2h149.6c4.5,0,8.1-3.7,8-8.2C187.3,66.3,183.5,62.9,179.1,62.9z"/>
	</g>
</g>
</svg>
