<?xml version="1.0" encoding="utf-8"?>
<!-- Generator: Adobe Illustrator 21.0.2, SVG Export Plug-In . SVG Version: 6.00 Build 0)  -->
<svg version="1.1" id="Layer_1" xmlns="http://www.w3.org/2000/svg" xmlns:xlink="http://www.w3.org/1999/xlink" x="0px" y="0px"
	 viewBox="0 0 83 52" style="enable-background:new 0 0 83 52;" xml:space="preserve">
<style type="text/css">
	.st0{fill:#F9BF64;}
	.st1{fill:#E2A85D;}
	.st2{fill:#4E96DD;}
	.st3{fill:#4D4D4D;}
	.st4{fill:#FC3D4B;}
	.st5{fill:#D12237;}
	.st6{fill:#529DF7;}
	.st7{fill:#DB9E4D;}
	.st8{fill:#3985C4;}
	.st9{fill:#20AF7F;}
	.st10{fill:#23CC98;}
	.st11{fill:#F9BF64;stroke:#1C1A1A;stroke-width:2;stroke-miterlimit:10;}
	.st12{fill:#FC3D4B;stroke:#1C1A1A;stroke-width:2;stroke-miterlimit:10;}
	.st13{fill:#88BA40;}
	.st14{fill:#19B27F;}
	.st15{fill:#42A5F5;stroke:#1C1A1A;stroke-width:2;stroke-miterlimit:10;}
</style>
<g>
	<g id="XMLID_32_">
		<circle id="XMLID_359_" class="st3" cx="51.3" cy="8.1" r="7.5"/>
		<g id="XMLID_480_">
			<g id="XMLID_482_">
				<path id="XMLID_484_" class="st0" d="M58.1,32.2L58.1,32.2c-0.2,0.5-0.9,0.7-1.4,0.5l-5.2-2.5C51,30,50.7,29.4,51,28.8l0,0
					c0.2-0.5,0.9-0.7,1.4-0.5l5.2,2.5C58.2,31.1,58.4,31.7,58.1,32.2z"/>
				
					<ellipse id="XMLID_483_" transform="matrix(0.4289 -0.9034 0.9034 0.4289 3.8587 71.0883)" class="st7" cx="58.2" cy="32.5" rx="1.6" ry="1.5"/>
			</g>
			<path id="XMLID_481_" class="st13" d="M51.5,30.1L51.5,30.1c-0.6-0.2-0.9-0.8-0.7-1.3l2.6-8.2c0.2-0.6,0.8-0.9,1.3-0.7l0,0
				c0.6,0.2,0.9,0.8,0.7,1.3l-2.6,8.2C52.7,30,52.1,30.3,51.5,30.1z"/>
		</g>
		<g id="XMLID_475_">
			<g id="XMLID_478_">
				<path id="XMLID_479_" class="st4" d="M45.6,43.4L45.6,43.4c-0.6-0.3-0.9-1-0.6-1.6l2.8-6.2c0.3-0.6,1-0.9,1.6-0.6l0,0
					c0.6,0.3,0.9,1,0.6,1.6l-2.8,6.2C47,43.4,46.2,43.6,45.6,43.4z"/>
			</g>
			<path id="XMLID_477_" class="st4" d="M39.3,47.8L39.3,47.8c-0.4-0.5-0.3-1.3,0.2-1.7l5.4-4.1c0.5-0.4,1.3-0.3,1.7,0.2l0,0
				c0.4,0.5,0.3,1.3-0.2,1.7L41,48C40.5,48.4,39.7,48.3,39.3,47.8z"/>
			<path id="XMLID_476_" class="st3" d="M38.5,48.6l1.7,2c0.5,0.6,1.3,0.6,1.9,0.1l0,0c0.6-0.5,0.6-1.3,0.1-1.9l-1.7-2
				c-0.5-0.6-1.3-0.6-1.9-0.1l0,0C38,47.1,38,48,38.5,48.6z"/>
		</g>
		<g id="XMLID_405_">
			<path id="XMLID_474_" class="st5" d="M55.7,43.8L55.7,43.8c-0.6,0.2-1.4-0.1-1.6-0.7l-2.3-6.4c-0.2-0.6,0.1-1.4,0.7-1.6h0
				c0.6-0.2,1.4,0.1,1.6,0.7l2.3,6.4C56.7,42.9,56.3,43.6,55.7,43.8z"/>
			<path id="XMLID_473_" class="st5" d="M55.1,51.5L55.1,51.5c-0.7,0-1.2-0.6-1.2-1.3l0.2-6.8c0-0.7,0.6-1.2,1.3-1.2h0
				c0.7,0,1.2,0.6,1.2,1.3l-0.2,6.8C56.4,51,55.8,51.5,55.1,51.5z"/>
			<path id="XMLID_472_" class="st3" d="M55.2,52.6h2.6c0.7,0,1.3-0.6,1.3-1.3v0c0-0.7-0.6-1.3-1.3-1.3h-2.6c-0.7,0-1.3,0.6-1.3,1.3
				v0C53.9,52,54.5,52.6,55.2,52.6z"/>
		</g>
		<g id="XMLID_254_">
			<path id="XMLID_256_" class="st10" d="M56.6,23.1c0-2.4-1.8-4.4-4.4-4.4h-1.8c-2.5,0-4.5,2-4.5,4.4v8.8h10.6V23.1z"/>
			<path id="XMLID_255_" class="st4" d="M50.4,37.4h1.8c2.5,0,4.4-2,4.4-4.4v-1.1H46V33C46,35.4,47.9,37.4,50.4,37.4z"/>
		</g>
		<g id="XMLID_251_">
			<circle id="XMLID_253_" class="st0" cx="55.5" cy="11.7" r="1.1"/>
			<circle id="XMLID_252_" class="st7" cx="55.5" cy="11.7" r="0.7"/>
		</g>
		<g id="XMLID_246_">
			<path id="XMLID_248_" class="st1" d="M51.4,20.2L51.4,20.2c-0.7,0-1.3-0.6-1.3-1.3v-1c0-0.7,0.6-1.3,1.3-1.3h0
				c0.7,0,1.3,0.6,1.3,1.3v1C52.7,19.7,52.1,20.2,51.4,20.2z"/>
			<path id="XMLID_247_" class="st0" d="M51.4,17.6L51.4,17.6c-2.4,0-4.3-2-4.3-4.3V9.4C47.1,7,49,5,51.4,5h0c2.4,0,4.3,2,4.3,4.3
				v3.9C55.7,15.7,53.8,17.6,51.4,17.6z"/>
		</g>
		<path id="XMLID_507_" class="st3" d="M52.3,15.7c0.7,0.2,1.4-0.5,1.5-0.9l-2.4-0.6C51.3,14.6,51.7,15.5,52.3,15.7z"/>
		<circle id="XMLID_416_" class="st3" cx="47.5" cy="9" r="2.3"/>
		<ellipse id="XMLID_386_" class="st3" cx="52.3" cy="6.1" rx="4.8" ry="2.4"/>
		<g id="XMLID_238_">
			<circle id="XMLID_240_" class="st3" cx="51" cy="10.6" r="0.7"/>
			<circle id="XMLID_239_" class="st3" cx="54.5" cy="10.6" r="0.7"/>
		</g>
		<path id="XMLID_237_" class="st7" d="M52.8,13.7L52.8,13.7c-0.3,0-0.5-0.2-0.5-0.5v-1.4c0-0.3,0.2-0.5,0.5-0.5l0,0
			c0.3,0,0.5,0.2,0.5,0.5v1.4C53.2,13.5,53,13.7,52.8,13.7z"/>
		<g id="XMLID_232_">
			<circle id="XMLID_234_" class="st0" cx="47.5" cy="11.7" r="1.1"/>
			<circle id="XMLID_233_" class="st7" cx="47.5" cy="11.7" r="0.7"/>
		</g>
		<g id="XMLID_226_">
			<g id="XMLID_228_">
				<path id="XMLID_230_" class="st0" d="M61.1,28.2L61.1,28.2c0-0.6-0.4-1.1-1-1.1l-5.8-0.3c-0.6,0-1.1,0.4-1.1,1v0
					c0,0.6,0.4,1.1,1,1.1l5.8,0.3C60.6,29.3,61.1,28.8,61.1,28.2z"/>
				
					<ellipse id="XMLID_229_" transform="matrix(5.891293e-02 -0.9983 0.9983 5.891293e-02 29.1466 87.8374)" class="st7" cx="61.2" cy="28.5" rx="1.6" ry="1.5"/>
			</g>
			<path id="XMLID_227_" class="st0" d="M54.6,28.8L54.6,28.8c0.5-0.3,0.6-1,0.2-1.5l-5.2-6.8c-0.3-0.5-1-0.6-1.5-0.2l0,0
				c-0.5,0.3-0.6,1-0.2,1.5l5.2,6.8C53.5,29,54.1,29.1,54.6,28.8z"/>
		</g>
	</g>
	<g>
		<g id="XMLID_298_">
			<rect id="XMLID_300_" x="20.7" y="10.9" class="st3" width="14.4" height="7.8"/>
			<circle id="XMLID_299_" class="st3" cx="27.8" cy="10.2" r="7.2"/>
		</g>
		<g id="XMLID_13_">
			<g id="XMLID_15_">
				<path id="XMLID_17_" class="st5" d="M35.1,32.6L35.1,32.6c-0.2,0.5-0.9,0.7-1.4,0.5l-5.2-2.5c-0.5-0.2-0.7-0.9-0.5-1.4v0
					c0.2-0.5,0.9-0.7,1.4-0.5l5.2,2.5C35.2,31.5,35.4,32.1,35.1,32.6z"/>
				
					<ellipse id="XMLID_16_" transform="matrix(0.4289 -0.9034 0.9034 0.4289 -9.6303 50.5345)" class="st1" cx="35.2" cy="32.9" rx="1.6" ry="1.5"/>
			</g>
			<path id="XMLID_14_" class="st5" d="M28.5,30.5L28.5,30.5c-0.6-0.2-0.9-0.8-0.7-1.3l2.6-8.2c0.2-0.6,0.8-0.9,1.3-0.7h0
				c0.6,0.2,0.9,0.8,0.7,1.3l-2.6,8.2C29.7,30.4,29.1,30.7,28.5,30.5z"/>
		</g>
		<g id="XMLID_8_">
			<g id="XMLID_11_">
				<path id="XMLID_12_" class="st10" d="M22.6,43.7L22.6,43.7c-0.6-0.3-0.9-1-0.6-1.6l2.8-6.2c0.3-0.6,1-0.9,1.6-0.6h0
					c0.6,0.3,0.9,1,0.6,1.6l-2.8,6.2C24,43.7,23.2,44,22.6,43.7z"/>
			</g>
			<path id="XMLID_10_" class="st10" d="M16.3,48.2L16.3,48.2c-0.4-0.5-0.3-1.3,0.2-1.7l5.4-4.1c0.5-0.4,1.3-0.3,1.7,0.2h0
				c0.4,0.5,0.3,1.3-0.2,1.7L18,48.4C17.5,48.8,16.7,48.7,16.3,48.2z"/>
			<path id="XMLID_9_" class="st3" d="M15.5,49l1.7,2c0.5,0.6,1.3,0.6,1.9,0.1l0,0c0.6-0.5,0.6-1.3,0.1-1.9l-1.7-2
				c-0.5-0.6-1.3-0.6-1.9-0.1h0C15,47.5,15,48.4,15.5,49z"/>
		</g>
		<g id="XMLID_4_">
			<path id="XMLID_7_" class="st14" d="M32.7,44.2L32.7,44.2c-0.6,0.2-1.4-0.1-1.6-0.7l-2.3-6.4c-0.2-0.6,0.1-1.4,0.7-1.6h0
				c0.6-0.2,1.4,0.1,1.6,0.7l2.3,6.4C33.7,43.2,33.3,44,32.7,44.2z"/>
			<path id="XMLID_6_" class="st14" d="M32.1,51.9L32.1,51.9c-0.7,0-1.2-0.6-1.2-1.3l0.2-6.8c0-0.7,0.6-1.2,1.3-1.2h0
				c0.7,0,1.2,0.6,1.2,1.3l-0.2,6.8C33.4,51.4,32.8,51.9,32.1,51.9z"/>
			<path id="XMLID_5_" class="st3" d="M32.2,53h2.6c0.7,0,1.3-0.6,1.3-1.3v0c0-0.7-0.6-1.3-1.3-1.3h-2.6c-0.7,0-1.3,0.6-1.3,1.3v0
				C30.9,52.4,31.5,53,32.2,53z"/>
		</g>
		<g id="XMLID_209_">
			<path id="XMLID_211_" class="st6" d="M33.6,23.5c0-2.4-1.8-4.4-4.4-4.4h-1.8c-2.5,0-4.5,2-4.5,4.4v8.8h10.6V23.5z"/>
			<path id="XMLID_260_" class="st4" d="M33.6,23.5c0-2.4-1.8-4.4-4.4-4.4h-1.8c-2.5,0-4.5,2-4.5,4.4v8.8h10.6V23.5z"/>
			<path id="XMLID_210_" class="st10" d="M27.4,37.8h1.8c2.5,0,4.4-2,4.4-4.4v-1.1H23v1.1C23,35.8,24.9,37.8,27.4,37.8z"/>
		</g>
		<g id="XMLID_312_">
			<g id="XMLID_205_">
				<circle id="XMLID_206_" class="st0" cx="32.5" cy="12.1" r="1.1"/>
			</g>
			<circle id="XMLID_3_" class="st7" cx="32.5" cy="12.1" r="0.7"/>
		</g>
		<g id="XMLID_313_">
			<g id="XMLID_202_">
				<path id="XMLID_204_" class="st1" d="M28.4,20.6L28.4,20.6c-0.7,0-1.3-0.6-1.3-1.3v-1c0-0.7,0.6-1.3,1.3-1.3h0
					c0.7,0,1.3,0.6,1.3,1.3v1C29.7,20,29.1,20.6,28.4,20.6z"/>
				<path id="XMLID_203_" class="st0" d="M28.4,18L28.4,18c-2.4,0-4.3-2-4.3-4.3V9.8c0-2.4,2-4.3,4.3-4.3h0c2.4,0,4.3,2,4.3,4.3v3.9
					C32.7,16.1,30.8,18,28.4,18z"/>
			</g>
			<path id="XMLID_2_" class="st7" d="M29.8,14.1L29.8,14.1c-0.3,0-0.5-0.2-0.5-0.5v-1.4c0-0.3,0.2-0.5,0.5-0.5h0
				c0.3,0,0.5,0.2,0.5,0.5v1.4C30.2,13.9,30,14.1,29.8,14.1z"/>
		</g>
		<rect id="XMLID_337_" x="22.5" y="8.1" class="st3" width="4.2" height="2.9"/>
		<g id="XMLID_295_">
			<path id="XMLID_297_" class="st3" d="M32.2,10.7c0,0.4-0.3,0.7-0.7,0.7c-0.4,0-0.7-0.4-0.7-0.7c0,0,0-0.1,0-0.1h1.4
				C32.2,10.6,32.2,10.7,32.2,10.7z"/>
			<path id="XMLID_296_" class="st3" d="M28.8,10.7c0,0.4-0.3,0.7-0.7,0.7s-0.7-0.4-0.7-0.7c0,0,0-0.1,0-0.1h1.4
				C28.8,10.6,28.8,10.7,28.8,10.7z"/>
		</g>
		<g id="XMLID_292_">
			<path id="XMLID_294_" class="st4" d="M29.8,15.6H28c-0.2,0-0.3-0.1-0.3-0.3v0c0-0.2,0.1-0.3,0.3-0.3h1.8c0.2,0,0.3,0.1,0.3,0.3v0
				C30,15.5,29.9,15.6,29.8,15.6z"/>
			<path id="XMLID_293_" class="st5" d="M29.8,16H28c-0.2,0-0.3-0.1-0.3-0.3l0,0c0-0.2,0.1-0.3,0.3-0.3h1.8c0.2,0,0.3,0.1,0.3,0.3
				l0,0C30,15.9,29.9,16,29.8,16z"/>
		</g>
		<rect id="XMLID_291_" x="24" y="5.1" class="st3" width="8.7" height="3.7"/>
		<g id="XMLID_187_">
			<g id="XMLID_189_">
				<path id="XMLID_191_" class="st5" d="M38.1,28.6L38.1,28.6c0-0.6-0.4-1.1-1-1.1l-5.8-0.3c-0.6,0-1.1,0.4-1.1,1l0,0
					c0,0.6,0.4,1.1,1,1.1l5.8,0.3C37.6,29.7,38.1,29.2,38.1,28.6z"/>
				
					<ellipse id="XMLID_190_" transform="matrix(5.891293e-02 -0.9983 0.9983 5.891293e-02 7.111 65.2456)" class="st1" cx="38.2" cy="28.9" rx="1.6" ry="1.5"/>
			</g>
			<path id="XMLID_188_" class="st5" d="M31.6,29.2L31.6,29.2c0.5-0.3,0.6-1,0.2-1.5l-5.2-6.8c-0.3-0.5-1-0.6-1.5-0.2l0,0
				c-0.5,0.3-0.6,1-0.2,1.5l5.2,6.8C30.5,29.4,31.1,29.5,31.6,29.2z"/>
		</g>
		<g id="XMLID_311_">
			<g id="XMLID_185_">
				<circle id="XMLID_186_" class="st0" cx="24.5" cy="12.1" r="1.1"/>
			</g>
			<circle id="XMLID_1_" class="st7" cx="24.5" cy="12.1" r="0.7"/>
		</g>
	</g>
	<g>
		<polygon class="st11" points="16.1,16.8 16.1,36.5 33.8,36.5 33.8,31.9 21,31.9 21,16.8 		"/>
		<polygon class="st11" points="38.1,16.8 38.1,36.5 55.8,36.5 55.8,31.9 43,31.9 43,16.8 		"/>
		<path class="st15" d="M0.8,18.9v26c0,3.8,3.1,6.9,6.9,6.9h67.3c3.9,0,7.1-3.2,7.1-7.1v-3.1c0-4.9-1.3-9.8-3.9-13.9
			c-2.6-4.1-6.9-8.2-13.8-9.2c-0.7-0.1-1.4,0.6-1.2,1.3c1.2,4.2,2.8,15.7-15.1,15.7h-32c0,0-8.5-0.4-8.5-10.9v-2.3
			c0-2.9-2.4-5.2-5.2-5.2h0C1.6,17.1,0.8,17.9,0.8,18.9z"/>
	</g>
</g>
</svg>
