<?xml version="1.0" encoding="utf-8"?>
<!-- Generator: Adobe Illustrator 21.0.2, SVG Export Plug-In . SVG Version: 6.00 Build 0)  -->
<svg version="1.1" id="Layer_1" xmlns="http://www.w3.org/2000/svg" xmlns:xlink="http://www.w3.org/1999/xlink" x="0px" y="0px"
	 viewBox="0 0 98 43" style="enable-background:new 0 0 98 43;" xml:space="preserve">
<style type="text/css">
	.st0{fill:#F9BF64;stroke:#1C1A1A;stroke-width:2;stroke-miterlimit:10;}
	.st1{fill:#FC3D4B;stroke:#1C1A1A;stroke-width:2;stroke-miterlimit:10;}
</style>
<g>
	<g>
		<polygon class="st0" points="18.9,1 18.9,24.1 39.7,24.1 39.7,18.6 24.7,18.6 24.7,1 		"/>
		<polygon class="st0" points="44.7,1 44.7,24.1 65.5,24.1 65.5,18.6 50.5,18.6 50.5,1 		"/>
		<path class="st1" d="M1,3.4v30.5C1,38.4,4.6,42,9.1,42h79c4.6,0,8.4-3.8,8.4-8.4V30c0-5.8-1.5-11.5-4.6-16.4
			C88.8,8.7,83.8,4,75.7,2.8c-0.9-0.1-1.6,0.7-1.4,1.6c1.4,4.9,3.2,18.5-17.7,18.5H19.1c0,0-9.9-0.5-9.9-12.8V7.3
			c0-3.4-2.8-6.1-6.1-6l0,0C1.9,1.3,1,2.2,1,3.4z"/>
	</g>
</g>
</svg>
