<?xml version="1.0" encoding="utf-8"?>
<!-- Generator: Adobe Illustrator 21.0.2, SVG Export Plug-In . SVG Version: 6.00 Build 0)  -->
<svg version="1.1" id="Layer_1" xmlns="http://www.w3.org/2000/svg" xmlns:xlink="http://www.w3.org/1999/xlink" x="0px" y="0px"
	 viewBox="0 0 83 49" style="enable-background:new 0 0 83 49;" xml:space="preserve">
<style type="text/css">
	.st0{fill:#F9BF64;}
	.st1{fill:#E2A85D;}
	.st2{fill:#4E96DD;}
	.st3{fill:#4D4D4D;}
	.st4{fill:#FC3D4B;}
	.st5{fill:#D12237;}
	.st6{fill:#529DF7;}
	.st7{fill:#DB9E4D;}
	.st8{fill:#3985C4;}
	.st9{fill:#20AF7F;}
	.st10{fill:#23CC98;}
	.st11{fill:#F9BF64;stroke:#1C1A1A;stroke-width:2;stroke-miterlimit:10;}
	.st12{fill:#FC3D4B;stroke:#1C1A1A;stroke-width:2;stroke-miterlimit:10;}
	.st13{fill:#88BA40;}
	.st14{fill:#19B27F;}
	.st15{fill:#42A5F5;stroke:#1C1A1A;stroke-width:2;stroke-miterlimit:10;}
</style>
<g>
	<g>
		<g id="XMLID_964_">
			<g id="XMLID_966_">
				<path id="XMLID_969_" class="st0" d="M36.2,29.4L36.2,29.4c-0.2,0.5-0.9,0.7-1.4,0.5l-5.3-2.5C29,27.2,28.8,26.5,29,26v0
					c0.2-0.5,0.9-0.7,1.4-0.5l5.3,2.5C36.2,28.3,36.4,28.9,36.2,29.4z"/>
				
					<ellipse id="XMLID_968_" transform="matrix(0.4289 -0.9034 0.9034 0.4289 -6.1485 49.6674)" class="st1" cx="36.2" cy="29.7" rx="1.6" ry="1.5"/>
			</g>
			<path id="XMLID_965_" class="st2" d="M29.5,27.3L29.5,27.3c-0.6-0.2-0.9-0.8-0.7-1.3l2.6-8.2c0.2-0.6,0.8-0.9,1.3-0.7l0,0
				c0.6,0.2,0.9,0.8,0.7,1.3l-2.6,8.2C30.7,27.2,30.1,27.5,29.5,27.3z"/>
		</g>
		<path id="XMLID_963_" class="st3" d="M29.4,23.5L29.4,23.5c-3.2,0-5.9-2.6-5.9-5.9V5.9c0-3.2,2.6-5.9,5.9-5.9h0
			c3.2,0,5.9,2.6,5.9,5.9v11.7C35.3,20.9,32.6,23.5,29.4,23.5z"/>
		<g id="XMLID_958_">
			<path id="XMLID_962_" class="st0" d="M17.2,45L17.2,45c-0.4-0.5-0.3-1.3,0.2-1.8l5.4-4.1c0.5-0.4,1.3-0.3,1.8,0.2l0,0
				c0.4,0.5,0.3,1.3-0.2,1.8L19,45.2C18.5,45.7,17.7,45.6,17.2,45z"/>
			<g id="XMLID_960_">
				<path id="XMLID_961_" class="st4" d="M23.6,40.6L23.6,40.6c-0.6-0.3-0.9-1-0.6-1.7l2.8-6.2c0.3-0.6,1-0.9,1.7-0.6h0
					c0.6,0.3,0.9,1,0.6,1.7L25.3,40C25,40.6,24.2,40.9,23.6,40.6z"/>
			</g>
			<path id="XMLID_959_" class="st3" d="M16.4,45.8l1.7,2c0.5,0.6,1.3,0.6,1.9,0.1l0,0c0.6-0.5,0.6-1.3,0.1-1.9l-1.7-2
				c-0.5-0.6-1.3-0.6-1.9-0.1l0,0C16,44.4,16,45.3,16.4,45.8z"/>
		</g>
		<g id="XMLID_954_">
			<path id="XMLID_957_" class="st0" d="M33.2,48.8L33.2,48.8c-0.7,0-1.2-0.6-1.2-1.3l0.2-6.8c0-0.7,0.6-1.2,1.3-1.2l0,0
				c0.7,0,1.2,0.6,1.2,1.3l-0.2,6.8C34.4,48.2,33.8,48.8,33.2,48.8z"/>
			<path id="XMLID_956_" class="st5" d="M33.7,41L33.7,41c-0.6,0.2-1.4-0.1-1.6-0.8l-2.3-6.4c-0.2-0.6,0.1-1.4,0.8-1.6h0
				c0.6-0.2,1.4,0.1,1.6,0.8l2.3,6.4C34.7,40.1,34.4,40.8,33.7,41z"/>
			<path id="XMLID_955_" class="st3" d="M33.2,49.9h2.6c0.7,0,1.3-0.6,1.3-1.3v0c0-0.7-0.6-1.3-1.3-1.3h-2.6c-0.7,0-1.3,0.6-1.3,1.3
				v0C31.9,49.2,32.5,49.9,33.2,49.9z"/>
		</g>
		<g id="XMLID_951_">
			<path id="XMLID_953_" class="st6" d="M34.6,20.3c0-2.4-1.8-4.4-4.4-4.4h-1.8c-2.5,0-4.5,2-4.5,4.4v8.8h10.6V20.3z"/>
			<path id="XMLID_952_" class="st4" d="M28.4,34.6h1.8c2.5,0,4.4-2,4.4-4.4v-1.2H24v1.2C24,32.6,25.9,34.6,28.4,34.6z"/>
		</g>
		<g id="XMLID_947_">
			<g id="XMLID_949_">
				<circle id="XMLID_950_" class="st0" cx="33.6" cy="8.8" r="1.1"/>
			</g>
			<circle id="XMLID_948_" class="st7" cx="33.6" cy="8.8" r="0.7"/>
		</g>
		<g id="XMLID_942_">
			<g id="XMLID_944_">
				<path id="XMLID_946_" class="st1" d="M29.4,17.4L29.4,17.4c-0.7,0-1.3-0.6-1.3-1.3v-1c0-0.7,0.6-1.3,1.3-1.3h0
					c0.7,0,1.3,0.6,1.3,1.3v1C30.7,16.8,30.1,17.4,29.4,17.4z"/>
				<path id="XMLID_945_" class="st0" d="M29.4,14.8L29.4,14.8c-2.4,0-4.4-2-4.4-4.4v-4c0-2.4,2-4.4,4.4-4.4h0c2.4,0,4.4,2,4.4,4.4
					v4C33.8,12.8,31.8,14.8,29.4,14.8z"/>
			</g>
			<path id="XMLID_943_" class="st7" d="M30.8,10.9L30.8,10.9c-0.3,0-0.5-0.2-0.5-0.5V9c0-0.3,0.2-0.5,0.5-0.5l0,0
				c0.3,0,0.5,0.2,0.5,0.5v1.4C31.3,10.7,31.1,10.9,30.8,10.9z"/>
		</g>
		<path id="XMLID_941_" class="st3" d="M26.3,7.7h-1.6c-0.6,0-1.1-0.5-1.1-1.1v0c0-0.6,0.5-1.1,1.1-1.1h1.6c0.6,0,1.1,0.5,1.1,1.1v0
			C27.3,7.2,26.9,7.7,26.3,7.7z"/>
		<g id="XMLID_938_">
			<circle id="XMLID_940_" class="st3" cx="29" cy="7.7" r="0.7"/>
			<circle id="XMLID_939_" class="st3" cx="32.5" cy="7.7" r="0.7"/>
		</g>
		<path id="XMLID_937_" class="st3" d="M30.8,12.8c0.7,0,1.2-0.8,1.2-1.2h-2.5C29.5,12,30.1,12.8,30.8,12.8z"/>
		<g id="XMLID_932_">
			<g id="XMLID_934_">
				<path id="XMLID_936_" class="st0" d="M39.2,25.4L39.2,25.4c0-0.6-0.4-1.1-1-1.1L32.4,24c-0.6,0-1.1,0.4-1.1,1v0
					c0,0.6,0.4,1.1,1,1.1l5.8,0.3C38.7,26.5,39.2,26,39.2,25.4z"/>
				
					<ellipse id="XMLID_935_" transform="matrix(5.891293e-02 -0.9983 0.9983 5.891293e-02 11.3087 63.2967)" class="st1" cx="39.2" cy="25.7" rx="1.6" ry="1.5"/>
			</g>
			<path id="XMLID_933_" class="st8" d="M32.6,26L32.6,26c0.5-0.3,0.6-1,0.2-1.5l-5.2-6.9c-0.3-0.5-1-0.6-1.5-0.2l0,0
				c-0.5,0.3-0.6,1-0.2,1.5l5.2,6.9C31.5,26.2,32.2,26.3,32.6,26z"/>
		</g>
		<g id="XMLID_928_">
			<g id="XMLID_930_">
				<circle id="XMLID_931_" class="st0" cx="25.5" cy="8.8" r="1.1"/>
			</g>
			<circle id="XMLID_929_" class="st7" cx="25.5" cy="8.8" r="0.7"/>
		</g>
		<path id="XMLID_927_" class="st3" d="M32.6,6.1h-6.5c-1.2,0-2.2-1-2.2-2.2v0c0-1.2,1-2.2,2.2-2.2h6.5c1.2,0,2.2,1,2.2,2.2v0
			C34.8,5.1,33.8,6.1,32.6,6.1z"/>
	</g>
	<g id="XMLID_707_">
		<g id="XMLID_54_">
			<g id="XMLID_56_">
				<path id="XMLID_58_" class="st9" d="M59.1,28.2L59.1,28.2c-0.2,0.5-0.9,0.7-1.4,0.5l-5.2-2.5C52,26,51.7,25.4,52,24.8l0,0
					c0.2-0.5,0.9-0.7,1.4-0.5l5.2,2.5C59.2,27.1,59.4,27.7,59.1,28.2z"/>
				
					<ellipse id="XMLID_57_" transform="matrix(0.4289 -0.9034 0.9034 0.4289 8.0285 69.7165)" class="st1" cx="59.2" cy="28.5" rx="1.6" ry="1.5"/>
			</g>
			<path id="XMLID_55_" class="st5" d="M52.5,26.1L52.5,26.1c-0.6-0.2-0.9-0.8-0.7-1.3l2.6-8.2c0.2-0.6,0.8-0.9,1.3-0.7h0
				c0.6,0.2,0.9,0.8,0.7,1.3l-2.6,8.2C53.7,26,53.1,26.3,52.5,26.1z"/>
		</g>
		<g id="XMLID_49_">
			<g id="XMLID_52_">
				<path id="XMLID_53_" class="st6" d="M46.6,39.4L46.6,39.4c-0.6-0.3-0.9-1-0.6-1.6l2.8-6.2c0.3-0.6,1-0.9,1.6-0.6l0,0
					c0.6,0.3,0.9,1,0.6,1.6l-2.8,6.2C48,39.4,47.2,39.7,46.6,39.4z"/>
			</g>
			<path id="XMLID_51_" class="st6" d="M40.3,43.8L40.3,43.8c-0.4-0.5-0.3-1.3,0.2-1.7l5.4-4.1c0.5-0.4,1.3-0.3,1.7,0.2l0,0
				c0.4,0.5,0.3,1.3-0.2,1.7L42,44C41.5,44.4,40.7,44.3,40.3,43.8z"/>
			<path id="XMLID_50_" class="st3" d="M39.5,44.6l1.7,2c0.5,0.6,1.3,0.6,1.9,0.1l0,0c0.6-0.5,0.6-1.3,0.1-1.9l-1.7-2
				c-0.5-0.6-1.3-0.6-1.9-0.1h0C39,43.2,39,44,39.5,44.6z"/>
		</g>
		<g id="XMLID_45_">
			<path id="XMLID_48_" class="st8" d="M56.7,39.8L56.7,39.8c-0.6,0.2-1.4-0.1-1.6-0.7l-2.3-6.4c-0.2-0.6,0.1-1.4,0.7-1.6l0,0
				c0.6-0.2,1.4,0.1,1.6,0.7l2.3,6.4C57.7,38.9,57.3,39.6,56.7,39.8z"/>
			<path id="XMLID_47_" class="st8" d="M56.1,47.5L56.1,47.5c-0.7,0-1.2-0.6-1.2-1.3l0.2-6.8c0-0.7,0.6-1.2,1.3-1.2h0
				c0.7,0,1.2,0.6,1.2,1.3l-0.2,6.8C57.4,47,56.8,47.5,56.1,47.5z"/>
			<path id="XMLID_46_" class="st3" d="M56.2,48.6h2.6c0.7,0,1.3-0.6,1.3-1.3l0,0c0-0.7-0.6-1.3-1.3-1.3h-2.6
				c-0.7,0-1.3,0.6-1.3,1.3l0,0C54.9,48,55.5,48.6,56.2,48.6z"/>
		</g>
		<g id="XMLID_41_">
			<path id="XMLID_44_" class="st6" d="M57.6,19.1c0-2.4-1.8-4.4-4.4-4.4h-1.8c-2.5,0-4.5,2-4.5,4.4v8.8h10.6V19.1z"/>
			<path id="XMLID_43_" class="st10" d="M57.6,19.1c0-2.4-1.8-4.4-4.4-4.4h-1.8c-2.5,0-4.5,2-4.5,4.4v8.8h10.6V19.1z"/>
			<path id="XMLID_42_" class="st6" d="M51.4,33.4h1.8c2.5,0,4.4-2,4.4-4.4v-1.1H47V29C47,31.4,48.9,33.4,51.4,33.4z"/>
		</g>
		<g id="XMLID_37_">
			<g id="XMLID_39_">
				<circle id="XMLID_40_" class="st0" cx="56.5" cy="7.7" r="1.1"/>
			</g>
			<circle id="XMLID_38_" class="st7" cx="56.5" cy="7.7" r="0.7"/>
		</g>
		<g id="XMLID_31_">
			<g id="XMLID_34_">
				<path id="XMLID_36_" class="st1" d="M52.4,16.3L52.4,16.3c-0.7,0-1.3-0.6-1.3-1.3v-1c0-0.7,0.6-1.3,1.3-1.3h0
					c0.7,0,1.3,0.6,1.3,1.3v1C53.7,15.7,53.1,16.3,52.4,16.3z"/>
				<path id="XMLID_35_" class="st0" d="M52.4,13.7L52.4,13.7c-2.4,0-4.3-2-4.3-4.3V5.4C48.1,3,50,1,52.4,1h0c2.4,0,4.3,2,4.3,4.3
					v3.9C56.7,11.7,54.8,13.7,52.4,13.7z"/>
			</g>
			<path id="XMLID_33_" class="st7" d="M53.8,9.8L53.8,9.8c-0.3,0-0.5-0.2-0.5-0.5V7.9c0-0.3,0.2-0.5,0.5-0.5l0,0
				c0.3,0,0.5,0.2,0.5,0.5v1.4C54.2,9.5,54,9.8,53.8,9.8z"/>
		</g>
		<path id="XMLID_30_" class="st3" d="M54.3,11.5h-1.9c-0.2,0-0.3-0.2-0.3-0.3l0,0c0-0.2,0.2-0.3,0.3-0.3h1.9c0.2,0,0.3,0.2,0.3,0.3
			l0,0C54.6,11.3,54.5,11.5,54.3,11.5z"/>
		<g id="XMLID_27_">
			<path id="XMLID_29_" class="st3" d="M52.2,7.5H51c-0.6,0-1-0.5-1-1v0c0-0.6,0.5-1,1-1h1.3c0.6,0,1,0.5,1,1v0
				C53.3,7.1,52.8,7.5,52.2,7.5z"/>
			<path id="XMLID_231_" class="st3" d="M56.5,7.5h-1.3c-0.6,0-1-0.5-1-1v0c0-0.6,0.5-1,1-1h1.3c0.6,0,1,0.5,1,1v0
				C57.5,7.1,57.1,7.5,56.5,7.5z"/>
			<path id="XMLID_28_" class="st3" d="M54.5,6.7h-1.9c-0.2,0-0.3-0.2-0.3-0.3v0c0-0.2,0.2-0.3,0.3-0.3h1.9c0.2,0,0.3,0.2,0.3,0.3v0
				C54.9,6.5,54.7,6.7,54.5,6.7z"/>
		</g>
		<g id="XMLID_22_">
			<g id="XMLID_24_">
				<path id="XMLID_26_" class="st9" d="M62.1,24.3L62.1,24.3c0-0.6-0.4-1.1-1-1.1l-5.8-0.3c-0.6,0-1.1,0.4-1.1,1v0
					c0,0.6,0.4,1.1,1,1.1l5.8,0.3C61.6,25.3,62.1,24.8,62.1,24.3z"/>
				
					<ellipse id="XMLID_25_" transform="matrix(5.891293e-02 -0.9983 0.9983 5.891293e-02 34.0644 85.0867)" class="st1" cx="62.2" cy="24.5" rx="1.6" ry="1.5"/>
			</g>
			<path id="XMLID_23_" class="st9" d="M55.6,24.8L55.6,24.8c0.5-0.3,0.6-1,0.2-1.5l-5.2-6.8c-0.3-0.5-1-0.6-1.5-0.2v0
				c-0.5,0.3-0.6,1-0.2,1.5l5.2,6.8C54.5,25.1,55.1,25.2,55.6,24.8z"/>
		</g>
		<g id="XMLID_18_">
			<g id="XMLID_20_">
				<circle id="XMLID_21_" class="st0" cx="48.5" cy="7.7" r="1.1"/>
			</g>
			<circle id="XMLID_19_" class="st7" cx="48.5" cy="7.7" r="0.7"/>
		</g>
	</g>
	<g>
		<g>
			<polygon class="st11" points="16.5,13.8 16.5,33.5 34.2,33.5 34.2,28.9 21.4,28.9 21.4,13.8 			"/>
			<polygon class="st11" points="38.5,13.8 38.5,33.5 56.2,33.5 56.2,28.9 43.4,28.9 43.4,13.8 			"/>
			<path class="st12" d="M1.3,15.9v26c0,3.8,3.1,6.9,6.9,6.9h67.3c3.9,0,7.1-3.2,7.1-7.1v-3.1c0-4.9-1.3-9.8-3.9-13.9
				c-2.6-4.1-6.9-8.2-13.8-9.2c-0.7-0.1-1.4,0.6-1.2,1.3c1.2,4.2,2.8,15.7-15.1,15.7h-32c0,0-8.5-0.4-8.5-10.9v-2.3
				c0-2.9-2.4-5.2-5.2-5.2h0C2,14.1,1.3,14.9,1.3,15.9z"/>
		</g>
	</g>
</g>
</svg>
