<?xml version="1.0" encoding="utf-8"?>
<!-- Generator: Adobe Illustrator 21.0.2, SVG Export Plug-In . SVG Version: 6.00 Build 0)  -->
<svg version="1.1" id="Layer_1" xmlns="http://www.w3.org/2000/svg" xmlns:xlink="http://www.w3.org/1999/xlink" x="0px" y="0px"
	 viewBox="0 0 369 98" style="enable-background:new 0 0 369 98;" xml:space="preserve">
<style type="text/css">
	.st0{fill:#23CC98;}
	.st1{fill:#1C1A1A;}
	.st2{fill:#E06A1B;}
	.st3{fill:#FC3D4B;}
	.st4{fill:#F9BF64;}
	.st5{fill:#F96441;}
	.st6{fill:#529DF7;}
</style>
<g>
	<g>
		<g>
			<g>
				<g>
					<path class="st0" d="M261.2,5.8c-0.9-3-3.7-5.1-6.9-5.1l0,0l0,0c-3.2,0-6,2.1-6.9,5.1L241,28.2c-1.1,3.7,0,7.7,2.7,10.5l0,0
						c2,1.9,4.6,3,7.4,3h6.5c2.8,0,5.4-1.1,7.4-3l0,0c2.8-2.7,3.8-6.7,2.7-10.5L261.2,5.8z"/>
				</g>
				<g>
					<path class="st1" d="M257.6,42.4h-6.5c-3,0-5.8-1.1-7.9-3.2c-3-2.9-4.1-7.2-2.9-11.2l6.5-22.3c1-3.3,4.1-5.6,7.5-5.6
						s6.6,2.3,7.5,5.6l0,0l6.5,22.3c1.2,4,0,8.3-2.9,11.2C263.4,41.2,260.6,42.4,257.6,42.4z M254.3,1.4c-2.8,0-5.4,1.9-6.2,4.6
						l-6.5,22.3c-1,3.5,0,7.2,2.5,9.8c1.9,1.8,4.3,2.8,6.9,2.8h6.5c2.6,0,5.1-1,6.9-2.8c2.6-2.5,3.6-6.3,2.5-9.8L260.5,6
						C259.7,3.3,257.2,1.4,254.3,1.4z"/>
				</g>
				<g>
					<g>
						<path class="st2" d="M254.3,29.3L254.3,29.3c0.9,0,1.6,0.7,1.6,1.6v24.8c0,0.9-0.7,1.6-1.6,1.6l0,0c-0.9,0-1.6-0.7-1.6-1.6
							V30.9C252.8,30,253.5,29.3,254.3,29.3z"/>
					</g>
					<g>
						<path class="st1" d="M254.3,58c-1.3,0-2.3-1-2.3-2.3V30.9c0-1.3,1-2.3,2.3-2.3s2.3,1,2.3,2.3v24.8C256.6,57,255.6,58,254.3,58
							z M254.3,30c-0.5,0-0.9,0.4-0.9,0.9v24.8c0,0.5,0.4,0.9,0.9,0.9c0.5,0,0.9-0.4,0.9-0.9V30.9C255.2,30.4,254.8,30,254.3,30z"/>
					</g>
				</g>
				<g>
					<g>
						<path class="st2" d="M254.3,22.7L254.3,22.7c0.9,0,1.6,0.7,1.6,1.6V25c0,0.9-0.7,1.6-1.6,1.6l0,0c-0.9,0-1.6-0.7-1.6-1.6v-0.7
							C252.8,23.4,253.5,22.7,254.3,22.7z"/>
					</g>
					<g>
						<path class="st1" d="M254.3,27.3c-1.3,0-2.3-1-2.3-2.3v-0.7c0-1.3,1-2.3,2.3-2.3s2.3,1,2.3,2.3V25
							C256.6,26.2,255.6,27.3,254.3,27.3z M254.3,23.4c-0.5,0-0.9,0.4-0.9,0.9V25c0,0.5,0.4,0.9,0.9,0.9c0.5,0,0.9-0.4,0.9-0.9v-0.7
							C255.2,23.8,254.8,23.4,254.3,23.4z"/>
					</g>
				</g>
				<g>
					<g>
						<path class="st2" d="M254.3,16.6L254.3,16.6c0.9,0,1.6,0.7,1.6,1.6v0.7c0,0.9-0.7,1.6-1.6,1.6l0,0c-0.9,0-1.6-0.7-1.6-1.6
							v-0.7C252.8,17.3,253.5,16.6,254.3,16.6z"/>
					</g>
					<g>
						<path class="st1" d="M254.3,21.2c-1.3,0-2.3-1-2.3-2.3v-0.7c0-1.3,1-2.3,2.3-2.3s2.3,1,2.3,2.3v0.7
							C256.6,20.2,255.6,21.2,254.3,21.2z M254.3,17.3c-0.5,0-0.9,0.4-0.9,0.9v0.7c0,0.5,0.4,0.9,0.9,0.9c0.5,0,0.9-0.4,0.9-0.9
							v-0.7C255.2,17.7,254.8,17.3,254.3,17.3z"/>
					</g>
				</g>
			</g>
			<g>
				<g>
					<path class="st0" d="M229.6,47.2c-0.9-3-3.7-5.1-6.9-5.1l0,0l0,0c-3.2,0-6,2.1-6.9,5.1l-6.5,22.3c-1.1,3.7,0,7.7,2.7,10.5l0,0
						c2,1.9,4.6,3,7.4,3h6.5c2.8,0,5.4-1.1,7.4-3l0,0c2.8-2.7,3.8-6.7,2.7-10.5L229.6,47.2z"/>
				</g>
				<g>
					<path class="st1" d="M226,83.7h-6.5c-3,0-5.8-1.1-7.9-3.2c-3-2.9-4.1-7.2-2.9-11.2l6.5-22.3c1-3.3,4.1-5.6,7.5-5.6
						s6.6,2.3,7.5,5.6l0,0l6.5,22.3c1.2,4,0,8.3-2.9,11.2C231.8,82.6,229,83.7,226,83.7z M222.8,42.8c-2.8,0-5.4,1.9-6.2,4.6
						l-6.5,22.3c-1,3.5,0,7.2,2.5,9.8c1.9,1.8,4.3,2.8,6.9,2.8h6.5c2.6,0,5.1-1,6.9-2.8c2.6-2.5,3.6-6.3,2.5-9.8L229,47.4
						C228.2,44.7,225.6,42.8,222.8,42.8z"/>
				</g>
				<g>
					<g>
						<path class="st2" d="M222.8,70.7L222.8,70.7c0.9,0,1.6,0.7,1.6,1.6v24.8c0,0.9-0.7,1.6-1.6,1.6l0,0c-0.9,0-1.6-0.7-1.6-1.6
							V72.2C221.2,71.4,221.9,70.7,222.8,70.7z"/>
					</g>
					<g>
						<path class="st1" d="M222.8,99.4c-1.3,0-2.3-1-2.3-2.3V72.2c0-1.3,1-2.3,2.3-2.3s2.3,1,2.3,2.3v24.8
							C225.1,98.3,224,99.4,222.8,99.4z M222.8,71.4c-0.5,0-0.9,0.4-0.9,0.9v24.8c0,0.5,0.4,0.9,0.9,0.9s0.9-0.4,0.9-0.9V72.2
							C223.7,71.8,223.3,71.4,222.8,71.4z"/>
					</g>
				</g>
				<g>
					<g>
						<path class="st2" d="M222.8,64L222.8,64c0.9,0,1.6,0.7,1.6,1.6v0.7c0,0.9-0.7,1.6-1.6,1.6l0,0c-0.9,0-1.6-0.7-1.6-1.6v-0.7
							C221.2,64.8,221.9,64,222.8,64z"/>
					</g>
					<g>
						<path class="st1" d="M222.8,68.6c-1.3,0-2.3-1-2.3-2.3v-0.7c0-1.3,1-2.3,2.3-2.3s2.3,1,2.3,2.3v0.7
							C225.1,67.6,224,68.6,222.8,68.6z M222.8,64.7c-0.5,0-0.9,0.4-0.9,0.9v0.7c0,0.5,0.4,0.9,0.9,0.9s0.9-0.4,0.9-0.9v-0.7
							C223.7,65.1,223.3,64.7,222.8,64.7z"/>
					</g>
				</g>
				<g>
					<g>
						<path class="st2" d="M222.8,58L222.8,58c0.9,0,1.6,0.7,1.6,1.6v0.7c0,0.9-0.7,1.6-1.6,1.6l0,0c-0.9,0-1.6-0.7-1.6-1.6v-0.7
							C221.2,58.7,221.9,58,222.8,58z"/>
					</g>
					<g>
						<path class="st1" d="M222.8,62.6c-1.3,0-2.3-1-2.3-2.3v-0.7c0-1.3,1-2.3,2.3-2.3s2.3,1,2.3,2.3v0.7
							C225.1,61.5,224,62.6,222.8,62.6z M222.8,58.7c-0.5,0-0.9,0.4-0.9,0.9v0.7c0,0.5,0.4,0.9,0.9,0.9s0.9-0.4,0.9-0.9v-0.7
							C223.7,59.1,223.3,58.7,222.8,58.7z"/>
					</g>
				</g>
			</g>
		</g>
		<g>
			<g>
				<g>
					<path class="st0" d="M361.2,5.8c-0.9-3-3.7-5.1-6.9-5.1l0,0l0,0c-3.2,0-6,2.1-6.9,5.1L341,28.2c-1.1,3.7,0,7.7,2.7,10.5l0,0
						c2,1.9,4.6,3,7.4,3h6.5c2.8,0,5.4-1.1,7.4-3l0,0c2.8-2.7,3.8-6.7,2.7-10.5L361.2,5.8z"/>
				</g>
				<g>
					<path class="st1" d="M357.6,42.4h-6.5c-3,0-5.8-1.1-7.9-3.2c-3-2.9-4.1-7.2-2.9-11.2l6.5-22.3c1-3.3,4.1-5.6,7.5-5.6
						c3.5,0,6.6,2.3,7.5,5.6l0,0l6.5,22.3c1.2,4,0,8.3-2.9,11.2C363.4,41.2,360.6,42.4,357.6,42.4z M354.4,1.4
						c-2.8,0-5.4,1.9-6.2,4.6l-6.5,22.3c-1,3.5,0,7.2,2.5,9.8c1.9,1.8,4.3,2.8,6.9,2.8h6.5c2.6,0,5.1-1,6.9-2.8
						c2.6-2.5,3.6-6.3,2.5-9.8L360.5,6C359.7,3.3,357.2,1.4,354.4,1.4z"/>
				</g>
				<g>
					<g>
						<path class="st2" d="M354.4,29.3L354.4,29.3c0.9,0,1.6,0.7,1.6,1.6v24.8c0,0.9-0.7,1.6-1.6,1.6l0,0c-0.9,0-1.6-0.7-1.6-1.6
							V30.9C352.8,30,353.5,29.3,354.4,29.3z"/>
					</g>
					<g>
						<path class="st1" d="M354.4,58c-1.3,0-2.3-1-2.3-2.3V30.9c0-1.3,1-2.3,2.3-2.3c1.3,0,2.3,1,2.3,2.3v24.8
							C356.6,57,355.6,58,354.4,58z M354.4,30c-0.5,0-0.9,0.4-0.9,0.9v24.8c0,0.5,0.4,0.9,0.9,0.9c0.5,0,0.9-0.4,0.9-0.9V30.9
							C355.2,30.4,354.8,30,354.4,30z"/>
					</g>
				</g>
				<g>
					<g>
						<path class="st2" d="M354.4,22.7L354.4,22.7c0.9,0,1.6,0.7,1.6,1.6V25c0,0.9-0.7,1.6-1.6,1.6l0,0c-0.9,0-1.6-0.7-1.6-1.6v-0.7
							C352.8,23.4,353.5,22.7,354.4,22.7z"/>
					</g>
					<g>
						<path class="st1" d="M354.4,27.3c-1.3,0-2.3-1-2.3-2.3v-0.7c0-1.3,1-2.3,2.3-2.3c1.3,0,2.3,1,2.3,2.3V25
							C356.6,26.2,355.6,27.3,354.4,27.3z M354.4,23.4c-0.5,0-0.9,0.4-0.9,0.9V25c0,0.5,0.4,0.9,0.9,0.9c0.5,0,0.9-0.4,0.9-0.9v-0.7
							C355.2,23.8,354.8,23.4,354.4,23.4z"/>
					</g>
				</g>
				<g>
					<g>
						<path class="st2" d="M354.4,16.6L354.4,16.6c0.9,0,1.6,0.7,1.6,1.6v0.7c0,0.9-0.7,1.6-1.6,1.6l0,0c-0.9,0-1.6-0.7-1.6-1.6
							v-0.7C352.8,17.3,353.5,16.6,354.4,16.6z"/>
					</g>
					<g>
						<path class="st1" d="M354.4,21.2c-1.3,0-2.3-1-2.3-2.3v-0.7c0-1.3,1-2.3,2.3-2.3c1.3,0,2.3,1,2.3,2.3v0.7
							C356.6,20.2,355.6,21.2,354.4,21.2z M354.4,17.3c-0.5,0-0.9,0.4-0.9,0.9v0.7c0,0.5,0.4,0.9,0.9,0.9c0.5,0,0.9-0.4,0.9-0.9
							v-0.7C355.2,17.7,354.8,17.3,354.4,17.3z"/>
					</g>
				</g>
			</g>
			<g>
				<g>
					<path class="st0" d="M329.6,47.2c-0.9-3-3.7-5.1-6.9-5.1l0,0l0,0c-3.2,0-6,2.1-6.9,5.1l-6.5,22.3c-1.1,3.7,0,7.7,2.7,10.5l0,0
						c2,1.9,4.6,3,7.4,3h6.5c2.8,0,5.4-1.1,7.4-3l0,0c2.8-2.7,3.8-6.7,2.7-10.5L329.6,47.2z"/>
				</g>
				<g>
					<path class="st1" d="M326,83.7h-6.5c-3,0-5.8-1.1-7.9-3.2c-3-2.9-4.1-7.2-2.9-11.2l6.5-22.3c1-3.3,4.1-5.6,7.5-5.6
						c3.5,0,6.6,2.3,7.5,5.6l0,0l6.5,22.3c1.2,4,0,8.3-2.9,11.2C331.8,82.6,329,83.7,326,83.7z M322.8,42.8c-2.8,0-5.4,1.9-6.2,4.6
						l-6.5,22.3c-1,3.5,0,7.2,2.5,9.8c1.9,1.8,4.3,2.8,6.9,2.8h6.5c2.6,0,5.1-1,6.9-2.8c2.6-2.5,3.6-6.3,2.5-9.8L329,47.4
						C328.2,44.7,325.6,42.8,322.8,42.8z"/>
				</g>
				<g>
					<g>
						<path class="st2" d="M322.8,70.7L322.8,70.7c0.9,0,1.6,0.7,1.6,1.6v24.8c0,0.9-0.7,1.6-1.6,1.6l0,0c-0.9,0-1.6-0.7-1.6-1.6
							V72.2C321.2,71.4,321.9,70.7,322.8,70.7z"/>
					</g>
					<g>
						<path class="st1" d="M322.8,99.4c-1.3,0-2.3-1-2.3-2.3V72.2c0-1.3,1-2.3,2.3-2.3c1.3,0,2.3,1,2.3,2.3v24.8
							C325.1,98.3,324.1,99.4,322.8,99.4z M322.8,71.4c-0.5,0-0.9,0.4-0.9,0.9v24.8c0,0.5,0.4,0.9,0.9,0.9c0.5,0,0.9-0.4,0.9-0.9
							V72.2C323.7,71.8,323.3,71.4,322.8,71.4z"/>
					</g>
				</g>
				<g>
					<g>
						<path class="st2" d="M322.8,64L322.8,64c0.9,0,1.6,0.7,1.6,1.6v0.7c0,0.9-0.7,1.6-1.6,1.6l0,0c-0.9,0-1.6-0.7-1.6-1.6v-0.7
							C321.2,64.8,321.9,64,322.8,64z"/>
					</g>
					<g>
						<path class="st1" d="M322.8,68.6c-1.3,0-2.3-1-2.3-2.3v-0.7c0-1.3,1-2.3,2.3-2.3c1.3,0,2.3,1,2.3,2.3v0.7
							C325.1,67.6,324.1,68.6,322.8,68.6z M322.8,64.7c-0.5,0-0.9,0.4-0.9,0.9v0.7c0,0.5,0.4,0.9,0.9,0.9c0.5,0,0.9-0.4,0.9-0.9
							v-0.7C323.7,65.1,323.3,64.7,322.8,64.7z"/>
					</g>
				</g>
				<g>
					<g>
						<path class="st2" d="M322.8,58L322.8,58c0.9,0,1.6,0.7,1.6,1.6v0.7c0,0.9-0.7,1.6-1.6,1.6l0,0c-0.9,0-1.6-0.7-1.6-1.6v-0.7
							C321.2,58.7,321.9,58,322.8,58z"/>
					</g>
					<g>
						<path class="st1" d="M322.8,62.6c-1.3,0-2.3-1-2.3-2.3v-0.7c0-1.3,1-2.3,2.3-2.3c1.3,0,2.3,1,2.3,2.3v0.7
							C325.1,61.5,324.1,62.6,322.8,62.6z M322.8,58.7c-0.5,0-0.9,0.4-0.9,0.9v0.7c0,0.5,0.4,0.9,0.9,0.9c0.5,0,0.9-0.4,0.9-0.9
							v-0.7C323.7,59.1,323.3,58.7,322.8,58.7z"/>
					</g>
				</g>
			</g>
		</g>
		<g>
			<g>
				<g>
					<path class="st0" d="M149.3,5.8c-0.9-3-3.7-5.1-6.9-5.1l0,0l0,0c-3.2,0-6,2.1-6.9,5.1L129,28.2c-1.1,3.7,0,7.7,2.7,10.5l0,0
						c2,1.9,4.6,3,7.4,3h6.5c2.8,0,5.4-1.1,7.4-3l0,0c2.8-2.7,3.8-6.7,2.7-10.5L149.3,5.8z"/>
				</g>
				<g>
					<path class="st1" d="M145.7,42.4h-6.5c-3,0-5.8-1.1-7.9-3.2c-3-2.9-4.1-7.2-2.9-11.2l6.5-22.3c1-3.3,4.1-5.6,7.5-5.6
						s6.6,2.3,7.5,5.6l0,0l6.5,22.3c1.2,4,0,8.3-2.9,11.2C151.4,41.2,148.6,42.4,145.7,42.4z M142.4,1.4c-2.8,0-5.4,1.9-6.2,4.6
						l-6.5,22.3c-1,3.5,0,7.2,2.5,9.8c1.9,1.8,4.3,2.8,6.9,2.8h6.5c2.6,0,5.1-1,6.9-2.8c2.6-2.5,3.6-6.3,2.5-9.8L148.6,6
						C147.8,3.3,145.3,1.4,142.4,1.4z"/>
				</g>
				<g>
					<g>
						<path class="st2" d="M142.4,29.3L142.4,29.3c0.9,0,1.6,0.7,1.6,1.6v24.8c0,0.9-0.7,1.6-1.6,1.6l0,0c-0.9,0-1.6-0.7-1.6-1.6
							V30.9C140.8,30,141.5,29.3,142.4,29.3z"/>
					</g>
					<g>
						<path class="st1" d="M142.4,58c-1.3,0-2.3-1-2.3-2.3V30.9c0-1.3,1-2.3,2.3-2.3s2.3,1,2.3,2.3v24.8C144.7,57,143.7,58,142.4,58
							z M142.4,30c-0.5,0-0.9,0.4-0.9,0.9v24.8c0,0.5,0.4,0.9,0.9,0.9s0.9-0.4,0.9-0.9V30.9C143.3,30.4,142.9,30,142.4,30z"/>
					</g>
				</g>
				<g>
					<g>
						<path class="st2" d="M142.4,22.7L142.4,22.7c0.9,0,1.6,0.7,1.6,1.6V25c0,0.9-0.7,1.6-1.6,1.6l0,0c-0.9,0-1.6-0.7-1.6-1.6v-0.7
							C140.8,23.4,141.5,22.7,142.4,22.7z"/>
					</g>
					<g>
						<path class="st1" d="M142.4,27.3c-1.3,0-2.3-1-2.3-2.3v-0.7c0-1.3,1-2.3,2.3-2.3s2.3,1,2.3,2.3V25
							C144.7,26.2,143.7,27.3,142.4,27.3z M142.4,23.4c-0.5,0-0.9,0.4-0.9,0.9V25c0,0.5,0.4,0.9,0.9,0.9s0.9-0.4,0.9-0.9v-0.7
							C143.3,23.8,142.9,23.4,142.4,23.4z"/>
					</g>
				</g>
				<g>
					<g>
						<path class="st2" d="M142.4,16.6L142.4,16.6c0.9,0,1.6,0.7,1.6,1.6v0.7c0,0.9-0.7,1.6-1.6,1.6l0,0c-0.9,0-1.6-0.7-1.6-1.6
							v-0.7C140.8,17.3,141.5,16.6,142.4,16.6z"/>
					</g>
					<g>
						<path class="st1" d="M142.4,21.2c-1.3,0-2.3-1-2.3-2.3v-0.7c0-1.3,1-2.3,2.3-2.3s2.3,1,2.3,2.3v0.7
							C144.7,20.2,143.7,21.2,142.4,21.2z M142.4,17.3c-0.5,0-0.9,0.4-0.9,0.9v0.7c0,0.5,0.4,0.9,0.9,0.9s0.9-0.4,0.9-0.9v-0.7
							C143.3,17.7,142.9,17.3,142.4,17.3z"/>
					</g>
				</g>
			</g>
			<g>
				<g>
					<path class="st0" d="M117.7,47.2c-0.9-3-3.7-5.1-6.9-5.1l0,0l0,0c-3.2,0-6,2.1-6.9,5.1l-6.5,22.3c-1.1,3.7,0,7.7,2.7,10.5l0,0
						c2,1.9,4.6,3,7.4,3h6.5c2.8,0,5.4-1.1,7.4-3l0,0c2.8-2.7,3.8-6.7,2.7-10.5L117.7,47.2z"/>
				</g>
				<g>
					<path class="st1" d="M114.1,83.7h-6.5c-3,0-5.8-1.1-7.9-3.2c-3-2.9-4.1-7.2-2.9-11.2l6.5-22.3c1-3.3,4.1-5.6,7.5-5.6
						s6.6,2.3,7.5,5.6l0,0l6.5,22.3c1.2,4,0,8.3-2.9,11.2C119.9,82.6,117.1,83.7,114.1,83.7z M110.8,42.8c-2.8,0-5.4,1.9-6.2,4.6
						l-6.5,22.3c-1,3.5,0,7.2,2.5,9.8c1.9,1.8,4.3,2.8,6.9,2.8h6.5c2.6,0,5.1-1,6.9-2.8c2.6-2.5,3.6-6.3,2.5-9.8L117,47.4
						C116.2,44.7,113.7,42.8,110.8,42.8z"/>
				</g>
				<g>
					<g>
						<path class="st2" d="M110.8,70.7L110.8,70.7c0.9,0,1.6,0.7,1.6,1.6v24.8c0,0.9-0.7,1.6-1.6,1.6l0,0c-0.9,0-1.6-0.7-1.6-1.6
							V72.2C109.3,71.4,110,70.7,110.8,70.7z"/>
					</g>
					<g>
						<path class="st1" d="M110.8,99.4c-1.3,0-2.3-1-2.3-2.3V72.2c0-1.3,1-2.3,2.3-2.3s2.3,1,2.3,2.3v24.8
							C113.1,98.3,112.1,99.4,110.8,99.4z M110.8,71.4c-0.5,0-0.9,0.4-0.9,0.9v24.8c0,0.5,0.4,0.9,0.9,0.9c0.5,0,0.9-0.4,0.9-0.9
							V72.2C111.7,71.8,111.3,71.4,110.8,71.4z"/>
					</g>
				</g>
				<g>
					<g>
						<path class="st2" d="M110.8,64L110.8,64c0.9,0,1.6,0.7,1.6,1.6v0.7c0,0.9-0.7,1.6-1.6,1.6l0,0c-0.9,0-1.6-0.7-1.6-1.6v-0.7
							C109.3,64.8,110,64,110.8,64z"/>
					</g>
					<g>
						<path class="st1" d="M110.8,68.6c-1.3,0-2.3-1-2.3-2.3v-0.7c0-1.3,1-2.3,2.3-2.3s2.3,1,2.3,2.3v0.7
							C113.1,67.6,112.1,68.6,110.8,68.6z M110.8,64.7c-0.5,0-0.9,0.4-0.9,0.9v0.7c0,0.5,0.4,0.9,0.9,0.9c0.5,0,0.9-0.4,0.9-0.9
							v-0.7C111.7,65.1,111.3,64.7,110.8,64.7z"/>
					</g>
				</g>
				<g>
					<g>
						<path class="st2" d="M110.8,58L110.8,58c0.9,0,1.6,0.7,1.6,1.6v0.7c0,0.9-0.7,1.6-1.6,1.6l0,0c-0.9,0-1.6-0.7-1.6-1.6v-0.7
							C109.3,58.7,110,58,110.8,58z"/>
					</g>
					<g>
						<path class="st1" d="M110.8,62.6c-1.3,0-2.3-1-2.3-2.3v-0.7c0-1.3,1-2.3,2.3-2.3s2.3,1,2.3,2.3v0.7
							C113.1,61.5,112.1,62.6,110.8,62.6z M110.8,58.7c-0.5,0-0.9,0.4-0.9,0.9v0.7c0,0.5,0.4,0.9,0.9,0.9c0.5,0,0.9-0.4,0.9-0.9
							v-0.7C111.7,59.1,111.3,58.7,110.8,58.7z"/>
					</g>
				</g>
			</g>
		</g>
		<g>
			<g>
				<g>
					<path class="st0" d="M52.9,5.8c-0.9-3-3.7-5.1-6.9-5.1l0,0l0,0c-3.2,0-6,2.1-6.9,5.1l-6.5,22.3c-1.1,3.7,0,7.7,2.7,10.5l0,0
						c2,1.9,4.6,3,7.4,3h6.5c2.8,0,5.4-1.1,7.4-3l0,0c2.8-2.7,3.8-6.7,2.7-10.5L52.9,5.8z"/>
				</g>
				<g>
					<path class="st1" d="M49.3,42.4h-6.5c-3,0-5.8-1.1-7.9-3.2C32,36.2,30.9,32,32,28l6.5-22.3c1-3.3,4.1-5.6,7.5-5.6
						c3.5,0,6.6,2.3,7.5,5.6l0,0L60.1,28c1.2,4,0,8.3-2.9,11.2C55.1,41.2,52.3,42.4,49.3,42.4z M46.1,1.4c-2.8,0-5.4,1.9-6.2,4.6
						l-6.5,22.3c-1,3.5,0,7.2,2.5,9.8c1.9,1.8,4.3,2.8,6.9,2.8h6.5c2.6,0,5.1-1,6.9-2.8c2.6-2.5,3.6-6.3,2.5-9.8L52.3,6
						C51.5,3.3,48.9,1.4,46.1,1.4z"/>
				</g>
				<g>
					<g>
						<path class="st2" d="M46.1,29.3L46.1,29.3c0.9,0,1.6,0.7,1.6,1.6v24.8c0,0.9-0.7,1.6-1.6,1.6l0,0c-0.9,0-1.6-0.7-1.6-1.6V30.9
							C44.5,30,45.2,29.3,46.1,29.3z"/>
					</g>
					<g>
						<path class="st1" d="M46.1,58c-1.3,0-2.3-1-2.3-2.3V30.9c0-1.3,1-2.3,2.3-2.3c1.3,0,2.3,1,2.3,2.3v24.8
							C48.4,57,47.3,58,46.1,58z M46.1,30c-0.5,0-0.9,0.4-0.9,0.9v24.8c0,0.5,0.4,0.9,0.9,0.9c0.5,0,0.9-0.4,0.9-0.9V30.9
							C47,30.4,46.6,30,46.1,30z"/>
					</g>
				</g>
				<g>
					<g>
						<path class="st2" d="M46.1,22.7L46.1,22.7c0.9,0,1.6,0.7,1.6,1.6V25c0,0.9-0.7,1.6-1.6,1.6l0,0c-0.9,0-1.6-0.7-1.6-1.6v-0.7
							C44.5,23.4,45.2,22.7,46.1,22.7z"/>
					</g>
					<g>
						<path class="st1" d="M46.1,27.3c-1.3,0-2.3-1-2.3-2.3v-0.7c0-1.3,1-2.3,2.3-2.3c1.3,0,2.3,1,2.3,2.3V25
							C48.4,26.2,47.3,27.3,46.1,27.3z M46.1,23.4c-0.5,0-0.9,0.4-0.9,0.9V25c0,0.5,0.4,0.9,0.9,0.9c0.5,0,0.9-0.4,0.9-0.9v-0.7
							C47,23.8,46.6,23.4,46.1,23.4z"/>
					</g>
				</g>
				<g>
					<g>
						<path class="st2" d="M46.1,16.6L46.1,16.6c0.9,0,1.6,0.7,1.6,1.6v0.7c0,0.9-0.7,1.6-1.6,1.6l0,0c-0.9,0-1.6-0.7-1.6-1.6v-0.7
							C44.5,17.3,45.2,16.6,46.1,16.6z"/>
					</g>
					<g>
						<path class="st1" d="M46.1,21.2c-1.3,0-2.3-1-2.3-2.3v-0.7c0-1.3,1-2.3,2.3-2.3c1.3,0,2.3,1,2.3,2.3v0.7
							C48.4,20.2,47.3,21.2,46.1,21.2z M46.1,17.3c-0.5,0-0.9,0.4-0.9,0.9v0.7c0,0.5,0.4,0.9,0.9,0.9c0.5,0,0.9-0.4,0.9-0.9v-0.7
							C47,17.7,46.6,17.3,46.1,17.3z"/>
					</g>
				</g>
			</g>
			<g>
				<g>
					<path class="st0" d="M21.4,47.2c-0.9-3-3.7-5.1-6.9-5.1l0,0l0,0c-3.2,0-6,2.1-6.9,5.1L1.1,69.5c-1.1,3.7,0,7.7,2.7,10.5l0,0
						c2,1.9,4.6,3,7.4,3h6.5c2.8,0,5.4-1.1,7.4-3l0,0c2.8-2.7,3.8-6.7,2.7-10.5L21.4,47.2z"/>
				</g>
				<g>
					<path class="st1" d="M17.8,83.7h-6.5c-3,0-5.8-1.1-7.9-3.2c-3-2.9-4.1-7.2-2.9-11.2L7,47c1-3.3,4.1-5.6,7.5-5.6
						s6.6,2.3,7.5,5.6l0,0l6.5,22.3c1.2,4,0,8.3-2.9,11.2C23.5,82.6,20.7,83.7,17.8,83.7z M14.5,42.8c-2.8,0-5.4,1.9-6.2,4.6
						L1.8,69.7c-1,3.5,0,7.2,2.5,9.8c1.9,1.8,4.3,2.8,6.9,2.8h6.5c2.6,0,5.1-1,6.9-2.8c2.6-2.5,3.6-6.3,2.5-9.8l-6.5-22.3
						C19.9,44.7,17.4,42.8,14.5,42.8z"/>
				</g>
				<g>
					<g>
						<path class="st2" d="M14.5,70.7L14.5,70.7c0.9,0,1.6,0.7,1.6,1.6v24.8c0,0.9-0.7,1.6-1.6,1.6l0,0c-0.9,0-1.6-0.7-1.6-1.6V72.2
							C12.9,71.4,13.6,70.7,14.5,70.7z"/>
					</g>
					<g>
						<path class="st1" d="M14.5,99.4c-1.3,0-2.3-1-2.3-2.3V72.2c0-1.3,1-2.3,2.3-2.3s2.3,1,2.3,2.3v24.8
							C16.8,98.3,15.8,99.4,14.5,99.4z M14.5,71.4c-0.5,0-0.9,0.4-0.9,0.9v24.8c0,0.5,0.4,0.9,0.9,0.9c0.5,0,0.9-0.4,0.9-0.9V72.2
							C15.4,71.8,15,71.4,14.5,71.4z"/>
					</g>
				</g>
				<g>
					<g>
						<path class="st2" d="M14.5,64L14.5,64c0.9,0,1.6,0.7,1.6,1.6v0.7c0,0.9-0.7,1.6-1.6,1.6l0,0c-0.9,0-1.6-0.7-1.6-1.6v-0.7
							C12.9,64.8,13.6,64,14.5,64z"/>
					</g>
					<g>
						<path class="st1" d="M14.5,68.6c-1.3,0-2.3-1-2.3-2.3v-0.7c0-1.3,1-2.3,2.3-2.3s2.3,1,2.3,2.3v0.7
							C16.8,67.6,15.8,68.6,14.5,68.6z M14.5,64.7c-0.5,0-0.9,0.4-0.9,0.9v0.7c0,0.5,0.4,0.9,0.9,0.9c0.5,0,0.9-0.4,0.9-0.9v-0.7
							C15.4,65.1,15,64.7,14.5,64.7z"/>
					</g>
				</g>
				<g>
					<g>
						<path class="st2" d="M14.5,58L14.5,58c0.9,0,1.6,0.7,1.6,1.6v0.7c0,0.9-0.7,1.6-1.6,1.6l0,0c-0.9,0-1.6-0.7-1.6-1.6v-0.7
							C12.9,58.7,13.6,58,14.5,58z"/>
					</g>
					<g>
						<path class="st1" d="M14.5,62.6c-1.3,0-2.3-1-2.3-2.3v-0.7c0-1.3,1-2.3,2.3-2.3s2.3,1,2.3,2.3v0.7
							C16.8,61.5,15.8,62.6,14.5,62.6z M14.5,58.7c-0.5,0-0.9,0.4-0.9,0.9v0.7c0,0.5,0.4,0.9,0.9,0.9c0.5,0,0.9-0.4,0.9-0.9v-0.7
							C15.4,59.1,15,58.7,14.5,58.7z"/>
					</g>
				</g>
			</g>
		</g>
	</g>
	<g>
		<g>
			<g>
				<g>
					<path class="st3" d="M50,88.5h1.9v9.8c0,0.5-0.4,1-1,1l0,0c-0.5,0-1-0.4-1-1V88.5z"/>
				</g>
				<g>
					<path class="st1" d="M50.9,99.7c-0.8,0-1.4-0.6-1.4-1.4v-9.8c0-0.2,0.2-0.4,0.4-0.4h1.9c0.2,0,0.4,0.2,0.4,0.4v9.8
						C52.3,99,51.7,99.7,50.9,99.7z M50.4,88.9v9.4c0,0.3,0.2,0.5,0.5,0.5c0.3,0,0.5-0.2,0.5-0.5v-9.4H50.4z"/>
				</g>
			</g>
			<g>
				<g>
					<path class="st3" d="M76,88.5h1.9v9.8c0,0.5-0.4,1-1,1l0,0c-0.5,0-1-0.4-1-1V88.5z"/>
				</g>
				<g>
					<path class="st1" d="M76.9,99.7c-0.8,0-1.4-0.6-1.4-1.4v-9.8c0-0.2,0.2-0.4,0.4-0.4h1.9c0.2,0,0.4,0.2,0.4,0.4v9.8
						C78.3,99,77.7,99.7,76.9,99.7z M76.4,88.9v9.4c0,0.3,0.2,0.5,0.5,0.5c0.3,0,0.5-0.2,0.5-0.5v-9.4H76.4z"/>
				</g>
			</g>
		</g>
		<g>
			<path class="st4" d="M78.9,88.5H49c-2.7,0-4.8-2.2-4.8-4.8l0,0c0-2.7,2.2-4.8,4.8-4.8h29.9c2.7,0,4.8,2.2,4.8,4.8l0,0
				C83.7,86.3,81.5,88.5,78.9,88.5z"/>
		</g>
		<g>
			<path class="st1" d="M80.4,88.9h-33c-2,0-3.7-1.6-3.7-3.7v-3.2c0-2,1.6-3.7,3.7-3.7h33c2,0,3.7,1.6,3.7,3.7v3.2
				C84.1,87.3,82.5,88.9,80.4,88.9z M47.4,79.3c-1.6,0-2.8,1.3-2.8,2.8v3.2c0,1.6,1.3,2.8,2.8,2.8h33c1.6,0,2.8-1.3,2.8-2.8v-3.2
				c0-1.6-1.3-2.8-2.8-2.8H47.4z"/>
		</g>
		<g>
			<path class="st5" d="M83.7,83.5v-1.4c0-1.8-1.4-3.2-3.2-3.2h-33c-1.8,0-3.2,1.4-3.2,3.2v1.4H83.7z"/>
		</g>
		<g>
			<path class="st1" d="M83.7,83.9H44.2c-0.2,0-0.4-0.2-0.4-0.4v-1.4c0-2,1.6-3.7,3.7-3.7h33c2,0,3.7,1.6,3.7,3.7v1.4
				C84.1,83.7,83.9,83.9,83.7,83.9z M44.6,83.1h38.7v-1c0-1.6-1.3-2.8-2.8-2.8h-33c-1.6,0-2.8,1.3-2.8,2.8V83.1z"/>
		</g>
		<g>
			<path class="st6" d="M84,95.4H43.9c-1,0-1.9-0.8-1.9-1.9l0,0c0-1,0.8-1.9,1.9-1.9H84c1,0,1.9,0.8,1.9,1.9l0,0
				C85.8,94.6,85,95.4,84,95.4z"/>
		</g>
		<g>
			<path class="st1" d="M84,95.8H43.9c-1.3,0-2.3-1-2.3-2.3c0-1.3,1-2.3,2.3-2.3H84c1.3,0,2.3,1,2.3,2.3
				C86.2,94.8,85.2,95.8,84,95.8z M43.9,92.1c-0.8,0-1.4,0.6-1.4,1.4c0,0.8,0.6,1.4,1.4,1.4H84c0.8,0,1.4-0.6,1.4-1.4
				c0-0.8-0.6-1.4-1.4-1.4H43.9z"/>
		</g>
	</g>
	<g>
		<g>
			<g>
				<g>
					<path class="st3" d="M262.9,88.5h1.9v9.8c0,0.5-0.4,1-1,1l0,0c-0.5,0-1-0.4-1-1V88.5z"/>
				</g>
				<g>
					<path class="st1" d="M263.8,99.7c-0.8,0-1.4-0.6-1.4-1.4v-9.8c0-0.2,0.2-0.4,0.4-0.4h1.9c0.2,0,0.4,0.2,0.4,0.4v9.8
						C265.2,99,264.6,99.7,263.8,99.7z M263.3,88.9v9.4c0,0.3,0.2,0.5,0.5,0.5c0.3,0,0.5-0.2,0.5-0.5v-9.4H263.3z"/>
				</g>
			</g>
			<g>
				<g>
					<path class="st3" d="M288.8,88.5h1.9v9.8c0,0.5-0.4,1-1,1l0,0c-0.5,0-1-0.4-1-1V88.5z"/>
				</g>
				<g>
					<path class="st1" d="M289.8,99.7c-0.8,0-1.4-0.6-1.4-1.4v-9.8c0-0.2,0.2-0.4,0.4-0.4h1.9c0.2,0,0.4,0.2,0.4,0.4v9.8
						C291.2,99,290.6,99.7,289.8,99.7z M289.3,88.9v9.4c0,0.3,0.2,0.5,0.5,0.5c0.3,0,0.5-0.2,0.5-0.5v-9.4H289.3z"/>
				</g>
			</g>
		</g>
		<g>
			<path class="st4" d="M291.7,88.5h-29.9c-2.7,0-4.8-2.2-4.8-4.8l0,0c0-2.7,2.2-4.8,4.8-4.8h29.9c2.7,0,4.8,2.2,4.8,4.8l0,0
				C296.6,86.3,294.4,88.5,291.7,88.5z"/>
		</g>
		<g>
			<path class="st1" d="M293.3,88.9h-33c-2,0-3.7-1.6-3.7-3.7v-3.2c0-2,1.6-3.7,3.7-3.7h33c2,0,3.7,1.6,3.7,3.7v3.2
				C297,87.3,295.3,88.9,293.3,88.9z M260.3,79.3c-1.6,0-2.8,1.3-2.8,2.8v3.2c0,1.6,1.3,2.8,2.8,2.8h33c1.6,0,2.8-1.3,2.8-2.8v-3.2
				c0-1.6-1.3-2.8-2.8-2.8H260.3z"/>
		</g>
		<g>
			<path class="st5" d="M296.6,83.5v-1.4c0-1.8-1.4-3.2-3.2-3.2h-33c-1.8,0-3.2,1.4-3.2,3.2v1.4H296.6z"/>
		</g>
		<g>
			<path class="st1" d="M296.6,83.9h-39.5c-0.2,0-0.4-0.2-0.4-0.4v-1.4c0-2,1.6-3.7,3.7-3.7h33c2,0,3.7,1.6,3.7,3.7v1.4
				C297,83.7,296.8,83.9,296.6,83.9z M257.5,83.1h38.7v-1c0-1.6-1.3-2.8-2.8-2.8h-33c-1.6,0-2.8,1.3-2.8,2.8V83.1z"/>
		</g>
		<g>
			<path class="st6" d="M296.8,95.4h-40.1c-1,0-1.9-0.8-1.9-1.9l0,0c0-1,0.8-1.9,1.9-1.9h40.1c1,0,1.9,0.8,1.9,1.9l0,0
				C298.7,94.6,297.9,95.4,296.8,95.4z"/>
		</g>
		<g>
			<path class="st1" d="M296.8,95.8h-40.1c-1.3,0-2.3-1-2.3-2.3c0-1.3,1-2.3,2.3-2.3h40.1c1.3,0,2.3,1,2.3,2.3
				C299.1,94.8,298.1,95.8,296.8,95.8z M256.8,92.1c-0.8,0-1.4,0.6-1.4,1.4c0,0.8,0.6,1.4,1.4,1.4h40.1c0.8,0,1.4-0.6,1.4-1.4
				c0-0.8-0.6-1.4-1.4-1.4H256.8z"/>
		</g>
	</g>
	<g>
		<g>
			<g>
				<g>
					<path class="st3" d="M153.7,88.5h1.9v9.8c0,0.5-0.4,1-1,1l0,0c-0.5,0-1-0.4-1-1V88.5z"/>
				</g>
				<g>
					<path class="st1" d="M154.6,99.7c-0.8,0-1.4-0.6-1.4-1.4v-9.8c0-0.2,0.2-0.4,0.4-0.4h1.9c0.2,0,0.4,0.2,0.4,0.4v9.8
						C156,99,155.4,99.7,154.6,99.7z M154.1,88.9v9.4c0,0.3,0.2,0.5,0.5,0.5c0.3,0,0.5-0.2,0.5-0.5v-9.4H154.1z"/>
				</g>
			</g>
			<g>
				<g>
					<path class="st3" d="M179.7,88.5h1.9v9.8c0,0.5-0.4,1-1,1l0,0c-0.5,0-1-0.4-1-1V88.5z"/>
				</g>
				<g>
					<path class="st1" d="M180.6,99.7c-0.8,0-1.4-0.6-1.4-1.4v-9.8c0-0.2,0.2-0.4,0.4-0.4h1.9c0.2,0,0.4,0.2,0.4,0.4v9.8
						C182,99,181.4,99.7,180.6,99.7z M180.1,88.9v9.4c0,0.3,0.2,0.5,0.5,0.5c0.3,0,0.5-0.2,0.5-0.5v-9.4H180.1z"/>
				</g>
			</g>
		</g>
		<g>
			<path class="st4" d="M182.5,88.5h-29.9c-2.7,0-4.8-2.2-4.8-4.8l0,0c0-2.7,2.2-4.8,4.8-4.8h29.9c2.7,0,4.8,2.2,4.8,4.8l0,0
				C187.4,86.3,185.2,88.5,182.5,88.5z"/>
		</g>
		<g>
			<path class="st1" d="M184.1,88.9h-33c-2,0-3.7-1.6-3.7-3.7v-3.2c0-2,1.6-3.7,3.7-3.7h33c2,0,3.7,1.6,3.7,3.7v3.2
				C187.8,87.3,186.1,88.9,184.1,88.9z M151.1,79.3c-1.6,0-2.8,1.3-2.8,2.8v3.2c0,1.6,1.3,2.8,2.8,2.8h33c1.6,0,2.8-1.3,2.8-2.8
				v-3.2c0-1.6-1.3-2.8-2.8-2.8H151.1z"/>
		</g>
		<g>
			<path class="st5" d="M187.4,83.5v-1.4c0-1.8-1.4-3.2-3.2-3.2h-33c-1.8,0-3.2,1.4-3.2,3.2v1.4H187.4z"/>
		</g>
		<g>
			<path class="st1" d="M187.4,83.9h-39.5c-0.2,0-0.4-0.2-0.4-0.4v-1.4c0-2,1.6-3.7,3.7-3.7h33c2,0,3.7,1.6,3.7,3.7v1.4
				C187.8,83.7,187.6,83.9,187.4,83.9z M148.3,83.1h38.7v-1c0-1.6-1.3-2.8-2.8-2.8h-33c-1.6,0-2.8,1.3-2.8,2.8V83.1z"/>
		</g>
		<g>
			<path class="st6" d="M187.6,95.4h-40.1c-1,0-1.9-0.8-1.9-1.9l0,0c0-1,0.8-1.9,1.9-1.9h40.1c1,0,1.9,0.8,1.9,1.9l0,0
				C189.5,94.6,188.7,95.4,187.6,95.4z"/>
		</g>
		<g>
			<path class="st1" d="M187.6,95.8h-40.1c-1.3,0-2.3-1-2.3-2.3c0-1.3,1-2.3,2.3-2.3h40.1c1.3,0,2.3,1,2.3,2.3
				C189.9,94.8,188.9,95.8,187.6,95.8z M147.6,92.1c-0.8,0-1.4,0.6-1.4,1.4c0,0.8,0.6,1.4,1.4,1.4h40.1c0.8,0,1.4-0.6,1.4-1.4
				c0-0.8-0.6-1.4-1.4-1.4H147.6z"/>
		</g>
	</g>
</g>
</svg>
