<?xml version="1.0" encoding="utf-8"?>
<!-- Generator: Adobe Illustrator 21.0.2, SVG Export Plug-In . SVG Version: 6.00 Build 0)  -->
<svg version="1.1" id="Layer_1" xmlns="http://www.w3.org/2000/svg" xmlns:xlink="http://www.w3.org/1999/xlink" x="0px" y="0px"
	 viewBox="0 0 341 241" style="enable-background:new 0 0 341 241;" xml:space="preserve">
<style type="text/css">
	.st0{fill:#FC3D4B;stroke:#32383D;stroke-width:2;stroke-miterlimit:10;}
	.st1{fill:#F9BF64;stroke:#32383D;stroke-width:2;stroke-miterlimit:10;}
	.st2{fill:#7F5F34;stroke:#32383D;stroke-width:2;stroke-miterlimit:10;}
	.st3{clip-path:url(#XMLID_2_);}
	.st4{fill:#529DF7;stroke:#32383D;stroke-width:2;stroke-miterlimit:10;}
	.st5{fill:#F9BF64;}
	.st6{fill:#F3FFBE;stroke:#32383D;stroke-width:2;stroke-miterlimit:10;}
	.st7{fill:#34495E;}
</style>
<g id="XMLID_607_">
	<g id="XMLID_698_">
		<path id="XMLID_701_" class="st0" d="M171.4,7.4c-30.3,60.1-127,89.4-127,89.4l0.4,21.7h126H298l0.4-21.7
			C298.4,96.8,201.7,67.5,171.4,7.4z"/>
		<path id="XMLID_700_" class="st1" d="M171.3,11.6c-21.6,60.1-90.5,85.2-90.5,85.2l0.3,21.7H171h90.8l0.3-21.7
			C262.1,96.8,192.9,71.7,171.3,11.6z"/>
		<path id="XMLID_699_" class="st0" d="M171.3,15c-12.6,60.1-52.8,81.8-52.8,81.8l0.2,21.7h52.5h53l0.2-21.7
			C224.4,96.8,183.9,75.1,171.3,15z"/>
	</g>
	<path id="XMLID_697_" class="st0" d="M302.8,95H40.1C34.4,158.5,3,240.5,3,240.5h336.9C339.9,240.5,308.5,158.5,302.8,95z"/>
	<path id="XMLID_696_" class="st1" d="M282.7,95H60.1c-4.8,63.5-31.5,145.5-31.5,145.5h285.6C314.2,240.5,287.6,158.5,282.7,95z"/>
	<path id="XMLID_695_" class="st0" d="M257.4,95h-172c-3.7,63.5-24.3,145.5-24.3,145.5h220.6C281.7,240.5,261.2,158.5,257.4,95z"/>
	<path id="XMLID_694_" class="st1" d="M234.6,95H108.2c-2.7,63.5-17.9,145.5-17.9,145.5h162.1C252.5,240.5,237.4,158.5,234.6,95z"/>
	<path id="XMLID_693_" class="st2" d="M220.4,95h-98.1c-1.5,63.5-9.9,145.5-9.9,145.5h117.9C230.4,240.5,222,158.5,220.4,95z"/>
	<g id="XMLID_649_">
		<defs>
			<rect id="XMLID_650_" x="35.3" y="95.9" width="270.2" height="18.4"/>
		</defs>
		<clipPath id="XMLID_2_">
			<use xlink:href="#XMLID_650_"  style="overflow:visible;"/>
		</clipPath>
		<g id="XMLID_651_" class="st3">
			<g id="XMLID_672_">
				<ellipse id="XMLID_673_" class="st4" cx="52.3" cy="94.6" rx="11.8" ry="14.6"/>
			</g>
			<g id="XMLID_670_">
				<ellipse id="XMLID_671_" class="st0" cx="75.9" cy="94.6" rx="11.8" ry="14.6"/>
			</g>
			<g id="XMLID_668_">
				<ellipse id="XMLID_669_" class="st4" cx="99.5" cy="94.6" rx="11.8" ry="14.6"/>
			</g>
			<g id="XMLID_666_">
				<ellipse id="XMLID_667_" class="st4" cx="123.2" cy="94.6" rx="11.8" ry="14.6"/>
			</g>
			<g id="XMLID_664_">
				<ellipse id="XMLID_665_" class="st4" cx="146.8" cy="94.6" rx="11.8" ry="14.6"/>
			</g>
			<g id="XMLID_662_">
				<ellipse id="XMLID_663_" class="st4" cx="170.4" cy="94.6" rx="11.8" ry="14.6"/>
			</g>
			<g id="XMLID_660_">
				<ellipse id="XMLID_661_" class="st4" cx="194" cy="94.6" rx="11.8" ry="14.6"/>
			</g>
			<g id="XMLID_658_">
				<ellipse id="XMLID_659_" class="st4" cx="217.7" cy="94.6" rx="11.8" ry="14.6"/>
			</g>
			<g id="XMLID_656_">
				<ellipse id="XMLID_657_" class="st4" cx="241.3" cy="94.6" rx="11.8" ry="14.6"/>
			</g>
			<g id="XMLID_654_">
				<ellipse id="XMLID_655_" class="st0" cx="264.9" cy="94.6" rx="11.8" ry="14.6"/>
			</g>
			<g id="XMLID_652_">
				<ellipse id="XMLID_653_" class="st4" cx="288.6" cy="94.6" rx="11.8" ry="14.6"/>
			</g>
		</g>
	</g>
	<g id="XMLID_637_">
		<path id="XMLID_648_" class="st0" d="M168,116.2c0.2,21.1-23.9,62.2-50.2,72c0,0,16.6,7.8,27.7,52.3h-44.2l18.3-124.3H168z"/>
		<path id="XMLID_647_" class="st0" d="M174.9,116.2c-0.2,21.1,23.9,62.2,50.2,72c0,0-16.6,7.8-27.7,52.3h44.2l-18.3-124.3H174.9z"
			/>
		<g id="XMLID_638_">
			<g id="XMLID_643_">
				<path id="XMLID_646_" class="st5" d="M158.7,116.2c0,0-3,40.5-38,65.5c0,0,21.7-22.2,23.2-65.5H158.7z"/>
				<path id="XMLID_645_" class="st5" d="M138,116.2c0,0-1.2,46.6-20.8,65.5c0,0,12.5-21.2,10.6-65.5H138z"/>
				<path id="XMLID_644_" class="st5" d="M114.9,192.1c0,0,7.7,24.1,5.4,47.3h13.9C134.2,239.4,128.3,212.4,114.9,192.1z"/>
			</g>
			<g id="XMLID_639_">
				<path id="XMLID_642_" class="st5" d="M184.1,116.2c0,0,3,40.5,38,65.5c0,0-21.7-22.2-23.2-65.5H184.1z"/>
				<path id="XMLID_641_" class="st5" d="M204.8,116.2c0,0,1.2,46.6,20.8,65.5c0,0-12.5-21.2-10.6-65.5H204.8z"/>
				<path id="XMLID_640_" class="st5" d="M225.4,195.1c0,0-7.3,22.7-5.1,44.6h-13.1C207.1,239.6,212.7,214.1,225.4,195.1z"/>
			</g>
		</g>
	</g>
	<g>
		<path class="st6" d="M226.9,124H117.3c0-3.9-3.1-7-7-7V89.5c3.9,0,7-3.1,7-7h109.6c0,3.9,3.1,7,7,7V117
			C230,117,226.9,120.1,226.9,124z"/>
		<g>
			<path class="st7" d="M143.7,103.9h-0.9v-1.8h4.1c0,1-0.1,1.8-0.2,2.3c-0.1,0.5-0.4,1-0.9,1.4c-0.4,0.5-1,0.8-1.6,1.1
				c-0.6,0.2-1.3,0.3-2,0.3c-1,0-2-0.2-2.8-0.5c-0.9-0.3-1.5-0.9-2-1.7c-0.5-0.8-0.7-1.6-0.7-2.6c0-1.4,0.5-2.6,1.4-3.5
				c0.9-0.9,2.1-1.3,3.5-1.3c1.1,0,2,0.3,2.7,0.8v-0.6h2.2v3.2h-2.2c-0.2-0.4-0.4-0.7-0.8-0.9c-0.3-0.2-0.7-0.3-1.1-0.3
				c-0.6,0-1,0.2-1.3,0.6c-0.3,0.4-0.4,1.1-0.4,2.1c0,1,0.1,1.7,0.4,2.1c0.3,0.4,0.7,0.6,1.3,0.6
				C143.2,105.2,143.7,104.7,143.7,103.9z"/>
			<path class="st7" d="M151.4,107.1h-3.7v-2.2h0.7l1.7-4.8h-0.7v-2.2h6.7v2.2h-0.7l1.8,4.8h0.7v2.2h-4.8v-2h0.8l-0.4-1.2H151
				l-0.4,1.2h0.8V107.1z M152.3,100.2l-0.9,2.6h1.7L152.3,100.2z"/>
			<path class="st7" d="M167.2,107.1h-8.8v-2.2h0.8V100h-0.8v-2.2h5.3v2.2h-0.9v4.8h2.2v-1.5h2.2V107.1z"/>
			<path class="st7" d="M176.7,107.1h-8.8v-2.2h0.8V100h-0.8v-2.2h5.3v2.2h-0.9v4.8h2.2v-1.5h2.2V107.1z"/>
			<path class="st7" d="M186.4,107.1h-8.8v-2.2h0.7V100h-0.7v-2.2h8.8v3H184V100h-2.1v1.4h1.8v1.9h-1.8v1.5h2.1v-0.7h2.4V107.1z"/>
			<path class="st7" d="M192.8,107.1h-5v-2.2h0.8V100h-0.8v-2.2h5c0.5,0,0.9,0,1.3,0c0.4,0,0.7,0,1,0.1c0.3,0,0.5,0.1,0.8,0.1
				c0.6,0.1,1.2,0.4,1.6,0.9c0.4,0.5,0.6,1,0.6,1.7c0,0.5-0.1,0.9-0.4,1.3c-0.2,0.4-0.6,0.7-1,0.9l1.3,2.1h0.7v2.2h-3.3l-2-3.8h-1.1
				v1.6h0.7V107.1z M192.1,99.9v1.8h0.4c0.5,0,0.9,0,1.1,0c0.2,0,0.4-0.1,0.5-0.3c0.1-0.1,0.2-0.3,0.2-0.6c0-0.2-0.1-0.4-0.2-0.6
				c-0.1-0.1-0.3-0.2-0.5-0.3c-0.2,0-0.6,0-1.1,0H192.1z"/>
			<path class="st7" d="M205.8,107.1h-5.1v-2.2h0.7v-1.5l-2.3-3.4h-0.6v-2.2h4.8v2.2h-0.6l1,1.9l1.2-1.9h-0.6v-2.2h3.6v2.2h-0.6
				l-2.3,3.4v1.5h0.7V107.1z"/>
		</g>
	</g>
</g>
</svg>
