<?xml version="1.0" encoding="utf-8"?>
<!-- Generator: Adobe Illustrator 21.0.2, SVG Export Plug-In . SVG Version: 6.00 Build 0)  -->
<svg version="1.1" id="Layer_1" xmlns="http://www.w3.org/2000/svg" xmlns:xlink="http://www.w3.org/1999/xlink" x="0px" y="0px"
	 viewBox="0 0 507 12" style="enable-background:new 0 0 507 12;" xml:space="preserve">
<style type="text/css">
	.st0{fill:#8EF757;stroke:#8EF757;stroke-miterlimit:10;}
</style>
<g>
	<rect x="1" y="9.5" class="st0" width="506" height="2.5"/>
	<polygon class="st0" points="1,10.1 2.2,4.4 3.2,8 3.6,2.9 4.9,8.8 5.6,6.2 6.5,8.8 7.6,4.3 8.5,8.6 9.2,6.7 9.9,8.6 10.6,8 
		11.1,8.7 12.4,5 13.5,8.5 14.2,6.7 16.1,8.5 17.6,3.1 18.4,7.5 19.7,5.4 21.3,8.2 22.6,1.6 24.6,10.1 23.8,10.1 	"/>
	<polygon class="st0" points="24.9,6.5 25.5,9.8 27,5.6 28,8.4 28.5,7.7 29.5,8.7 30.5,4.2 31.5,8.8 32.1,6.5 33.2,8.8 33.9,5.5 
		35,8.8 35.8,7 36.7,8.8 38,4.7 39.1,8.8 40.1,6.5 40.7,8.7 41.7,7.6 43,8.9 43.9,4.6 45.6,9.8 24,10.1 	"/>
	<polygon class="st0" points="44.6,10.1 45.8,4.4 46.8,8 47.3,2.9 48.5,8.8 49.3,6.2 50.2,8.8 51.2,4.3 52.1,8.6 52.9,6.7 53.5,8.6 
		54.2,8 54.8,8.7 56.1,5 57.2,8.5 57.8,6.7 59.7,8.5 61.2,1.8 62.1,7.5 63.4,5.4 64.9,8.2 66.2,4.1 68.3,10.1 67.5,10.1 	"/>
	<polygon class="st0" points="68.5,6.5 69.2,9.8 70.6,5.6 71.7,8.4 72.1,7.7 73.1,8.7 74.2,4.2 75.1,8.8 75.8,6.5 76.9,8.8 
		77.6,5.5 78.7,8.8 79.5,7 80.4,8.8 81.7,4.7 82.7,8.8 83.7,6.5 84.3,8.7 85.3,7.6 86.7,8.9 87.6,4.6 89.2,9.8 67.6,10.1 	"/>
	<polygon class="st0" points="88.3,10.1 89.5,4.4 90.4,8 91.6,2.3 92.2,8.8 92.9,6.2 93.8,8.8 94.9,4.3 95.8,8.6 96.5,6.7 97.1,8.6 
		97.9,8 98.4,8.7 99.7,5 100.8,8.5 101.5,6.7 103.4,8.5 104.9,3.1 105.7,7.5 107,5.4 108.6,8.2 109.8,4.1 111.9,10.1 111.1,10.1 	
		"/>
	<polygon class="st0" points="112.1,6.5 112.8,9.8 114.3,5.6 115.3,8.4 115.7,7.7 116.7,8.7 117.8,4.2 118.8,8.8 119.4,6.5 
		120.5,8.8 121.2,5.5 122.3,8.8 123.1,7 124,8.8 125.3,4.7 126.3,8.8 127.3,6.5 128,8.7 129,7.6 130.3,8.9 131.2,4.6 132.9,9.8 
		111.3,10.1 	"/>
	<polygon class="st0" points="131.9,10.1 133.1,4.4 134.1,8 134.6,2.9 135.8,8.8 136.6,6.2 137.5,8.8 138.5,4.3 139.4,8.6 
		140.1,6.7 140.8,8.6 141.5,8 142,8.7 143.4,4.4 144.5,8.5 145.1,6.7 147,8.5 148.5,3.1 149.4,7.5 150.6,5.4 152.2,8.2 153.5,4.1 
		155.5,10.1 154.7,10.1 	"/>
	<polygon class="st0" points="155.8,6.5 156.5,9.8 157.9,5.6 159,8.4 160,7.1 160.4,8.7 161.5,4.2 162.4,8.8 163,6.5 164.1,8.8 
		164.9,5.5 166,8.8 166.7,7 167.6,8.8 168.9,4.7 170,8.8 171,6.5 171.6,8.7 172.6,7.6 174,8.9 174.8,4.6 176.5,9.8 154.9,10.1 	"/>
	<polygon class="st0" points="175.6,10.1 176.7,4.4 177.7,8 178.2,2.9 179.5,8.8 180.2,6.2 181.1,8.8 182.2,4.3 183.1,8.6 
		183.8,6.7 184.4,8.6 185.2,8 185.7,8.7 187,5 188.1,8.5 189.4,6 190.6,8.5 192.2,3.1 193,7.5 194.3,5.4 195.9,8.2 197.1,4.1 
		199.2,10.1 198.4,10.1 	"/>
	<polygon class="st0" points="199.4,6.5 200.1,9.8 201.6,5.6 202.6,8.4 203,7.7 204,8.7 205.1,4.2 206.1,8.8 206.7,6.5 207.8,8.8 
		208.5,5.5 209.6,8.8 210.4,7 211.3,8.8 212.6,4.7 213.6,8.8 214.6,6.5 215.2,8.7 216.2,7.6 217.6,8.9 218.5,4.6 220.2,9.8 
		198.6,10.1 	"/>
	<polygon class="st0" points="219.2,10.1 220.4,4.4 221.4,8 221.8,2.9 223.1,8.8 223.9,6.2 224.7,8.8 225.8,4.3 226.7,8.6 
		227.4,6.7 228.1,8.6 228.8,8 229.3,8.7 230.7,5 231.8,8.5 232.4,6.7 234.3,8.5 235.8,3.1 236.7,7.5 237.9,5.4 239.5,8.2 240.8,4.1 
		242.8,10.1 242,10.1 	"/>
	<polygon class="st0" points="243.1,6.5 243.7,9.8 245.2,5.6 246.3,8.4 246.7,7.7 247.7,8.7 248.8,4.2 249.7,8.8 250.3,6.5 
		251.4,8.8 252.2,5.5 253.3,8.8 254,7 254.9,8.8 256.2,4.7 257.3,8.8 258.3,6.5 258.9,8.7 259.9,7.6 261.2,8.9 262.1,4.6 263.8,9.8 
		242.2,10.1 	"/>
	<polygon class="st0" points="262.9,10.1 264,4.4 265,8 265.5,2.9 266.8,8.8 267.5,6.2 268.4,8.8 269.4,4.3 270.3,8.6 271.1,6.7 
		271.7,8.6 272.4,8 273,8.7 274.3,5 275.4,8.5 276,6.7 277.9,8.5 279.5,3.1 280.3,7.5 281.6,5.4 283.1,8.2 284.4,4.1 286.5,10.1 
		285.7,10.1 	"/>
	<polygon class="st0" points="286.7,6.5 287.4,9.8 288.9,5.6 289.9,8.4 290.3,7.7 291.3,8.7 292.4,4.2 293.3,8.8 294,6.5 295.1,8.8 
		295.8,5.5 296.9,8.8 297.7,7 298.6,8.8 299.9,4.7 300.9,8.8 301.9,6.5 302.5,8.7 303.5,7.6 304.9,8.9 305.8,4.6 307.4,9.8 
		285.8,10.1 	"/>
	<polygon class="st0" points="306.5,10.1 307.7,4.4 308.7,8 309.1,2.9 310.4,8.8 311.1,6.2 312,8.8 313.1,4.3 314,8.6 314.7,6.7 
		315.4,8.6 316.1,8 316.6,8.7 317.9,5 319,8.5 319.7,6.7 321.6,8.5 323.1,3.1 323.9,7.5 325.2,5.4 326.8,8.2 328.1,4.1 330.1,10.1 
		329.3,10.1 	"/>
	<polygon class="st0" points="330.4,6.5 331,9.8 332.5,5.6 333.5,8.4 334,7.7 334.9,8.7 336,4.2 337,8.8 337.6,6.5 338.7,8.8 
		339.4,5.5 340.5,8.8 341.3,7 342.2,8.8 343.5,4.7 344.6,8.8 345.5,6.5 346.2,8.7 347.2,7.6 348.5,8.9 349.4,4.6 351.1,9.8 
		329.5,10.1 	"/>
	<polygon class="st0" points="350.1,10.1 351.3,4.4 352.3,8 352.8,2.9 354,8.8 354.8,6.2 355.7,8.8 356.7,4.3 357.6,8.6 358.4,6.7 
		359,8.6 359.7,8 360.3,8.7 361.6,5 362.7,8.5 363.3,6.7 365.2,8.5 366.7,3.1 367.6,7.5 368.9,5.4 370.4,8.2 371.7,4.1 373.8,10.1 
		373,10.1 	"/>
	<polygon class="st0" points="374,6.5 374.7,9.8 376.1,5.6 377.2,8.4 377.6,7.7 378.6,8.7 379.7,4.2 380.6,8.8 381.3,6.5 382.4,8.8 
		383.1,5.5 384.2,8.8 385,7 385.8,8.8 387.2,4.7 388.2,8.8 389.2,6.5 389.8,8.7 390.8,7.6 392.2,8.9 393.1,4.6 394.7,9.8 
		373.1,10.1 	"/>
	<polygon class="st0" points="393.8,10.1 394.9,4.4 395.9,8 396.4,2.9 397.7,8.8 398.4,6.2 399.3,8.8 400.4,4.3 401.3,8.6 402,6.7 
		402.6,8.6 403.4,8 403.9,8.7 405.2,5 406.3,8.5 407,6.7 408.9,8.5 410.4,3.1 411.2,7.5 412.5,5.4 414.1,8.2 415.3,4.1 417.4,10.1 
		416.6,10.1 	"/>
	<polygon class="st0" points="417.6,6.5 418.3,9.8 419.8,5.6 420.8,8.4 421.2,7.7 422.2,8.7 423.3,4.2 424.3,8.8 424.9,6.5 426,8.8 
		426.7,5.5 427.8,8.8 428.6,7 429.5,8.8 430.8,4.7 431.8,8.8 432.8,6.5 433.5,8.7 434.5,7.6 435.8,8.9 436.7,4.6 438.4,9.8 
		416.8,10.1 	"/>
	<polygon class="st0" points="437.4,10.1 438.6,4.4 439.6,8 440.1,2.9 441.3,8.8 442.1,6.2 443,8.8 444,4.3 444.9,8.6 445.6,6.7 
		446.3,8.6 447,8 447.5,8.7 448.9,5 450,8.5 450.6,6.7 452.5,8.5 454,3.1 454.9,7.5 456.1,5.4 457.7,8.2 459,4.1 461,10.1 
		460.2,10.1 	"/>
	<polygon class="st0" points="461.3,6.5 462,9.8 463.4,5.6 464.5,8.4 464.9,7.7 465.9,8.7 467,4.2 467.9,8.8 468.5,6.5 469.6,8.8 
		470.4,5.5 471.5,8.8 472.2,7 473.1,8.8 474.4,4.7 475.5,8.8 476.5,6.5 477.1,8.7 478.1,7.6 479.5,8.9 480.3,4.6 482,9.8 
		460.4,10.1 	"/>
	<polygon class="st0" points="507,8.1 505.1,5.4 504,8.6 502.6,5.4 501.4,8.2 499.8,6.6 498.5,8.2 497.7,4.4 496.1,8.5 494.9,6 
		493.6,8.5 492.5,5 491.2,8.7 490.7,8 489.9,8.6 489.3,6.7 488.6,8.6 487.7,4.3 486.6,8.8 485.7,6.2 485,8.8 483.7,2.9 483.2,8 
		482.2,4.4 481.1,10.1 503.9,10.1 504.7,10.1 507,10.1 	"/>
</g>
</svg>
