<?xml version="1.0" encoding="utf-8"?>
<!-- Generator: Adobe Illustrator 19.0.0, SVG Export Plug-In . SVG Version: 6.00 Build 0)  -->
<svg version="1.1" id="Layer_1" xmlns="http://www.w3.org/2000/svg" xmlns:xlink="http://www.w3.org/1999/xlink" x="0px" y="0px"
	 viewBox="-515 937 48 48" style="enable-background:new -515 937 48 48;" xml:space="preserve">
<style type="text/css">
	.st0{fill:#818181;}
	.st1{fill:#3C97D3;}
	.st2{fill:#4EB96F;}
	.st3{fill:#E54E3C;}
	.st4{fill:#F19C23;}
</style>
<g>
	<path id="XMLID_6_" class="st0" d="M-493,981.2c0-0.6,0-1.2,0.1-1.8c0-0.3,0-0.7,0-1c0-0.5,0.1-1.1,0.1-1.6c0-0.3,0-0.7,0-1
		c0-0.5,0.1-1.1,0.1-1.6c0-0.3,0-0.7,0-1s0-0.7,0-1c0-0.1,0-0.2-0.1-0.3c-0.3-0.2-0.7-0.5-1-0.8c-0.6-0.6-1-1.3-1.1-2.2
		c-0.1-0.7-0.3-1.4-0.5-2.1c-0.2-0.7-0.3-1.3-0.5-2c-0.3-0.9-0.7-1.8-1.3-2.6c-0.4-0.6-0.8-1.2-1.2-1.8c0-0.1-0.1-0.2-0.1-0.3
		c0.1-0.1,0.2,0,0.2,0.1c0.3,0.2,0.6,0.5,0.9,0.7c0.4,0.3,0.7,0.6,1,0.9c0.6,0.5,1.1,1.2,1.4,2c0.2,0.7,0.4,1.4,0.7,2.1
		c0.3,0.8,0.5,1.7,0.9,2.4c0.3,0.5,0.5,0.9,0.9,1.3c0.3,0.3,0.6,0.4,1,0.5c0.4,0,0.7,0,1.1-0.1c0.3-0.1,0.5-0.3,0.7-0.6
		c0.7-0.8,1.1-1.8,1.4-2.8c0.3-0.8,0.5-1.6,0.7-2.5c0.2-0.7,0.5-1.4,1.1-1.9c0.3-0.3,0.7-0.6,1.1-1c0.4-0.3,0.7-0.6,1.1-0.9
		c0.1-0.1,0.2-0.2,0.4-0.2h0.1v0.1c0,0.1-0.1,0.2-0.2,0.3c-0.5,0.7-0.9,1.5-1.4,2.2c-0.4,0.7-0.8,1.5-1,2.4
		c-0.3,1.1-0.6,2.3-0.8,3.5c-0.1,0.3-0.1,0.7-0.2,1c-0.1,0.5-0.4,0.9-0.7,1.3c-0.4,0.5-0.8,0.8-1.3,1.2c-0.1,0.1-0.1,0.1-0.1,0.2
		c0,0.1,0,0.3,0,0.5c0,0.4,0,0.7,0.1,1.1c0,0.5,0.1,1.1,0.1,1.6c0,0.4,0,0.8,0.1,1.2c0,0.6,0.1,1.1,0.1,1.7c0,0.4,0,0.8,0.1,1.2
		c0,0.6,0.1,1.1,0.1,1.7c0,0.1,0,0.3,0,0.4c0,0.3-0.1,0.5-0.4,0.6c-0.3,0.2-0.7,0.3-1.1,0.3c-0.2,0-0.5,0.1-0.7,0.1s-0.4,0-0.6,0
		c-0.4,0-0.7-0.1-1-0.2c-0.1,0-0.3-0.1-0.4-0.2C-492.9,981.7-493,981.5-493,981.2z"/>
	<path id="XMLID_5_" class="st0" d="M-490.9,964.2c1.2,0,2.2,0.9,2.2,2.2c0,1.2-1,2.2-2.2,2.2s-2.2-1-2.2-2.2
		S-492.1,964.2-490.9,964.2z"/>
	<path id="XMLID_4_" class="st1" d="M-489.2,960.7c0.2-0.2,0.5-0.3,0.7-0.5c1.1-0.8,2.2-1.6,3.2-2.5c0.6-0.5,1-1,1.3-1.7
		c0.1-0.3,0.1-0.6,0.2-0.8c0-0.1,0.1-0.3,0.2-0.4c0.1,0.2,0.1,0.4,0.1,0.7c0.2,1.5-0.2,2.8-1.1,4c-0.6,0.7-1.4,1.3-2.2,1.8
		c-0.9,0.5-1.8,0.8-2.8,1c-0.2,0-0.3,0-0.5,0c-0.3,0-0.4-0.2-0.5-0.5s-0.1-0.5-0.1-0.8c0-0.9,0.1-1.9,0.4-2.7
		c0.3-0.9,0.9-1.6,1.5-2.2c0.6-0.6,1.3-1.2,2-1.8s1.3-1.4,1.6-2.3v-0.1c0-0.1,0.1-0.1,0.1,0c0.4,0.4,0.7,0.9,0.8,1.5
		c0.1,1.2-0.3,2.2-1.1,3.1c-0.8,0.9-1.7,1.8-2.5,2.6C-488.2,959.5-488.7,960-489.2,960.7L-489.2,960.7L-489.2,960.7z"/>
	<path id="XMLID_3_" class="st2" d="M-498.2,954.8c0.1,0.1,0.2,0.2,0.2,0.4c0.1,1.1,0.7,1.9,1.6,2.6c1.3,1,2.5,2,3.9,2.9
		c0,0,0,0,0.1,0c-0.2-0.3-0.4-0.5-0.7-0.8c-0.6-0.8-1.4-1.4-2.1-2.2c-0.5-0.5-1.1-1.1-1.6-1.6c-0.6-0.8-1-1.6-0.9-2.6
		c0-0.7,0.3-1.2,0.8-1.6c0.1-0.1,0.1-0.1,0.2,0.1c0.2,0.5,0.5,0.9,0.8,1.3c0.5,0.6,1,1.1,1.6,1.5c0.8,0.6,1.5,1.3,2.1,2
		c0.7,0.9,1.1,1.9,1.2,3c0.1,0.5,0.1,1.1,0,1.6c0,0.1,0,0.2-0.1,0.3c-0.1,0.3-0.3,0.5-0.6,0.5c-0.3,0-0.7-0.1-1-0.2
		c-1.4-0.3-2.7-1-3.8-2c-1.3-1.2-1.9-2.6-1.8-4.4C-498.3,955.3-498.3,955.2-498.2,954.8z"/>
	<path id="XMLID_2_" class="st3" d="M-492.1,951.8c0.1,0.1,0.3,0.2,0.4,0.3c0.4,0.3,0.9,0.5,1.4,0.6c0.7,0.1,1.2-0.1,1.8-0.5
		l0.1-0.1c0,0,0,0,0-0.1c-0.2,0.1-0.4,0.1-0.6,0.1c-0.8,0-1.4-0.2-2-0.8c-0.1-0.1-0.2-0.3-0.2-0.5c0.1-0.5,0.3-1,0.7-1.4
		c0.2-0.2,0.2-0.2,0.4,0c0.2,0.2,0.4,0.4,0.7,0.6c0.5,0.3,1.1,0.3,1.6,0c0.4-0.2,0.7-0.5,0.9-0.9c0.1-0.1,0.1-0.1,0.2,0
		c0.6,1.1,0.7,2.3,0.1,3.4c-0.5,1.1-1.5,1.7-2.7,1.9c-0.4,0.1-0.9,0.1-1.3,0c-0.8-0.2-1.3-0.7-1.5-1.4c-0.1-0.4-0.1-0.8-0.1-1.2
		C-492.2,951.8-492.2,951.8-492.1,951.8C-492.2,951.8-492.1,951.8-492.1,951.8z"/>
	<path id="XMLID_1_" class="st4" d="M-489.8,939.8c0.6,0.2,1,0.7,1.4,1.1c0.4,0.4,0.8,0.9,1,1.5c0.4,1,0.3,2.1-0.2,3
		c-0.3,0.5-0.6,1-1,1.4c-0.9,1.1-1.9,2.2-2.9,3.2c-0.6,0.7-1.1,1.4-1.2,2.3c-0.1,0.7,0,1.4,0.2,2c0,0,0,0,0,0.1l0,0
		c-0.3-0.1-0.5-0.2-0.8-0.3c-0.7-0.3-1.3-0.7-1.8-1.3c-0.4-0.5-0.6-1-0.6-1.7c0-0.5,0.2-1,0.5-1.4c0.4-0.6,0.9-1,1.4-1.4
		c1.1-0.8,2.2-1.6,3.3-2.4c0.6-0.5,1.2-1,1.7-1.6c0.5-0.7,0.5-1.4,0.2-2.2c0,0,0-0.1-0.1-0.2c0,0.1-0.1,0.2-0.1,0.3
		c-0.2,0.6-0.5,1.3-0.9,1.8c-0.4,0.4-0.8,0.8-1.3,1.2c-1.1,0.8-2.2,1.5-3.4,2.1c-0.2,0.1-0.3,0.2-0.5,0.2c0,0-0.1,0-0.2,0
		s-0.2,0-0.2-0.1s0-0.2,0.1-0.2c0.4-0.3,0.7-0.7,1.1-1.1c0.8-0.8,1.7-1.6,2.6-2.4c0.7-0.7,1.2-1.5,1.4-2.4c0.1-0.6,0.1-1.1-0.1-1.7
		c0-0.1,0-0.2,0.1-0.2C-489.9,939.8-489.8,939.8-489.8,939.8z"/>
</g>
</svg>
