<?xml version="1.0" encoding="utf-8"?>
<!-- Generator: Adobe Illustrator 21.0.2, SVG Export Plug-In . SVG Version: 6.00 Build 0)  -->
<svg version="1.1" id="Layer_1" xmlns="http://www.w3.org/2000/svg" xmlns:xlink="http://www.w3.org/1999/xlink" x="0px" y="0px"
	 viewBox="0 0 21 109" style="enable-background:new 0 0 21 109;" xml:space="preserve">
<style type="text/css">
	.st0{fill:#529DF7;}
	.st1{fill:#32383D;}
	.st2{fill:#F9BF64; animation: lampcolor 0.5s linear infinite;}
	.st3{fill:#FC3D4B;}
	.st4{fill:#FFFFFF;}
	@keyframes lampcolor {
		0%{fill:#FFEB3B;}
		/*50%{fill:#FFEB3B;}
		50.01%{fill:#FF9800}*/
		100%{fill:#FF9800}
	}
</style>
<g>
	<g>
		<path class="st0" d="M17.7,103.6H3.6c-1.2,0-2.2,1-2.2,2.2l0,0c0,1.2,1,2.2,2.2,2.2h14.1c1.2,0,2.2-1,2.2-2.2l0,0
			C19.9,104.5,18.9,103.6,17.7,103.6z"/>
	</g>
	<g>
		<path class="st1" d="M17.7,108.7H3.6c-1.6,0-2.9-1.3-2.9-2.9s1.3-2.9,2.9-2.9h14.1c1.6,0,2.9,1.3,2.9,2.9S19.3,108.7,17.7,108.7z
			 M3.6,104.3c-0.8,0-1.4,0.6-1.4,1.4c0,0.8,0.6,1.4,1.4,1.4h14.1c0.8,0,1.4-0.6,1.4-1.4c0-0.8-0.6-1.4-1.4-1.4H3.6z"/>
	</g>
	<g>
		<circle class="st2" cx="10.6" cy="8.6" r="7.5"/>
	</g>
	<g>
		<path class="st1" d="M10.6,16.8c-4.6,0-8.3-3.7-8.3-8.3c0-4.6,3.7-8.3,8.3-8.3c4.6,0,8.3,3.7,8.3,8.3
			C18.9,13.1,15.2,16.8,10.6,16.8z M10.6,1.8c-3.7,0-6.8,3-6.8,6.8c0,3.7,3,6.8,6.8,6.8c3.7,0,6.8-3,6.8-6.8
			C17.4,4.8,14.4,1.8,10.6,1.8z"/>
	</g>
	<g>
		<path class="st3" d="M10.9,22h-0.6c-3.6,0-6.5-2.9-6.5-6.5l0,0c0-0.9,0.7-1.6,1.6-1.6h10.3c0.9,0,1.6,0.7,1.6,1.6l0,0
			C17.4,19.2,14.5,22,10.9,22z"/>
	</g>
	<g>
		<path class="st1" d="M10.9,22.8h-0.6c-4,0-7.2-3.2-7.2-7.2c0-1.3,1.1-2.3,2.3-2.3h10.3c1.3,0,2.3,1.1,2.3,2.3
			C18.2,19.6,14.9,22.8,10.9,22.8z M5.5,14.8c-0.5,0-0.8,0.4-0.8,0.8c0,3.1,2.6,5.7,5.7,5.7h0.6c3.1,0,5.7-2.6,5.7-5.7
			c0-0.5-0.4-0.8-0.8-0.8H5.5z"/>
	</g>
	<g>
		<path class="st3" d="M10.6,90.5L10.6,90.5c3.7,0,6.8,3,6.8,6.8v6.3H3.9v-6.3C3.9,93.5,6.9,90.5,10.6,90.5z"/>
	</g>
	<g>
		<path class="st1" d="M17.4,104.3H3.9c-0.4,0-0.8-0.3-0.8-0.8v-7.8c0-3.3,2.7-6,6-6h3c3.3,0,6,2.7,6,6v7.8
			C18.2,104,17.8,104.3,17.4,104.3z M4.6,102.8h12v-7.1c0-2.5-2-4.5-4.5-4.5h-3c-2.5,0-4.5,2-4.5,4.5V102.8z"/>
	</g>
	<g>
		<path class="st1" d="M10.6,91.3c-0.4,0-0.8-0.3-0.8-0.8V22c0-0.4,0.3-0.8,0.8-0.8s0.8,0.3,0.8,0.8v68.5
			C11.4,90.9,11.1,91.3,10.6,91.3z"/>
	</g>
	<g>
		<path class="st4" d="M12.8,8.6c0-1.3-1.2-2.4-2.6-2C9.4,6.7,8.8,7.3,8.6,8c-0.2,0.7,0,1.3,0.3,1.8c0.4,0.6,0.6,1.2,0.6,1.9V14h2.3
			v-2.3c0-0.7,0.3-1.4,0.6-2C12.6,9.4,12.8,9,12.8,8.6z"/>
	</g>
	<g>
		<path class="st1" d="M11.8,14.8H9.5c-0.4,0-0.8-0.3-0.8-0.8v-2.3c0-0.5-0.2-1.1-0.5-1.5C7.8,9.5,7.7,8.7,7.9,7.8
			C8.1,6.8,9,6,10,5.8c0.9-0.2,1.8,0,2.5,0.5c0.7,0.5,1.1,1.4,1.1,2.2c0,0.5-0.2,1.1-0.4,1.5c-0.4,0.5-0.5,1.1-0.5,1.6V14
			C12.5,14.4,12.2,14.8,11.8,14.8z M10.3,13.2H11v-1.5c0-0.8,0.3-1.6,0.8-2.4C11.9,9.1,12,8.8,12,8.6c0-0.4-0.2-0.8-0.5-1.1
			c-0.3-0.3-0.7-0.4-1.2-0.2c-0.5,0.1-0.8,0.5-1,0.9C9.2,8.6,9.3,9,9.5,9.3c0.5,0.7,0.7,1.5,0.7,2.4V13.2z"/>
	</g>
	<g>
		<path class="st1" d="M17.4,96.5H3.9c-0.4,0-0.8-0.3-0.8-0.8c0-0.4,0.3-0.8,0.8-0.8h13.5c0.4,0,0.8,0.3,0.8,0.8
			C18.2,96.2,17.8,96.5,17.4,96.5z"/>
	</g>
</g>
</svg>
