<?xml version="1.0" encoding="iso-8859-1"?>
<!-- Generator: Adobe Illustrator 21.0.2, SVG Export Plug-In . SVG Version: 6.00 Build 0)  -->
<svg version="1.1" id="Layer_1" xmlns="http://www.w3.org/2000/svg" xmlns:xlink="http://www.w3.org/1999/xlink" x="0px" y="0px"
	 viewBox="0 0 126 179" style="enable-background:new 0 0 126 179;" xml:space="preserve">
<g id="XMLID_613_">
	<g id="XMLID_749_">
		<polygon style="fill:#FC3D4B;" points="7.858,178.581 1.952,52.672 124.036,52.672 119.529,178.581 		"/>
		<path style="fill:#1C1A1A;" d="M123,53.672l-4.436,123.908H8.812L3,53.672H123 M125.073,51.672H123H3H0.904l0.098,2.094
			l5.812,123.908l0.089,1.906h1.908h109.753h1.93l0.069-1.928l4.436-123.908L125.073,51.672L125.073,51.672z"/>
	</g>
	<g id="XMLID_743_">
		<g id="XMLID_748_">
			<rect x="14.024" y="52.614" style="fill:#F9BF64;" width="11.895" height="125.967"/>
			<path style="fill:#1C1A1A;" d="M24.92,53.614v123.967h-9.895V53.614H24.92 M26.92,51.614h-2h-9.895h-2v2v123.967v2h2h9.895h2v-2
				V53.614V51.614L26.92,51.614z"/>
		</g>
		<g id="XMLID_747_">
			<rect x="35.883" y="52.614" style="fill:#F9BF64;" width="11.895" height="125.967"/>
			<path style="fill:#1C1A1A;" d="M46.778,53.614v123.967h-9.895V53.614H46.778 M48.778,51.614h-2h-9.895h-2v2v123.967v2h2h9.895h2
				v-2V53.614V51.614L48.778,51.614z"/>
		</g>
		<g id="XMLID_746_">
			<rect x="79.599" y="52.614" style="fill:#F9BF64;" width="11.896" height="125.967"/>
			<path style="fill:#1C1A1A;" d="M90.494,53.614v123.967h-9.895V53.614H90.494 M92.494,51.614h-2h-9.895h-2v2v123.967v2h2h9.895h2
				v-2V53.614V51.614L92.494,51.614z"/>
		</g>
		<g id="XMLID_745_">
			<rect x="101.457" y="52.614" style="fill:#F9BF64;" width="11.895" height="125.967"/>
			<path style="fill:#1C1A1A;" d="M112.352,53.614v123.967h-9.895V53.614H112.352 M114.352,51.614h-2h-9.895h-2v2v123.967v2h2h9.895
				h2v-2V53.614V51.614L114.352,51.614z"/>
		</g>
		<g id="XMLID_744_">
			<rect x="57.741" y="52.614" style="fill:#F9BF64;" width="11.895" height="125.967"/>
			<path style="fill:#1C1A1A;" d="M68.636,53.614v123.967h-9.895V53.614H68.636 M70.636,51.614h-2h-9.895h-2v2v123.967v2h2h9.895h2
				v-2V53.614V51.614L70.636,51.614z"/>
		</g>
	</g>
	<g id="XMLID_740_">
		<path style="fill:#529DF7;stroke:#1C1A1A;stroke-width:2;stroke-miterlimit:10;" d="M104.961,77.042v55.869H23V77.042h21.115
			c4.037-6.4,11.412-10.7,19.861-10.7c8.458,0,15.832,4.3,19.869,10.7H104.961z"/>
	</g>
	
		<rect id="XMLID_739_" x="23" y="117.517" style="fill:#F3FFBE;stroke:#1C1A1A;stroke-width:2;stroke-miterlimit:10;" width="81.538" height="14.625"/>
	<g>
		<path style="fill:#F3FFBE;stroke:#1C1A1A;stroke-width:3;stroke-miterlimit:10;" d="M112.154,39.324H14.615c0-3.866-3.134-7-7-7
			V8.867c3.866,0,7-3.134,7-7h97.538c0,3.866,3.134,7,7,7v23.457C115.288,32.324,112.154,35.458,112.154,39.324z"/>
		<g>
			<path style="fill:#34495E;" d="M32.252,24.1h-4.543v-2.001h0.679v-4.357h-0.679V15.74h4.543c0.409,0,0.787,0.007,1.136,0.021
				c0.349,0.014,0.647,0.033,0.896,0.06s0.477,0.062,0.686,0.105c0.585,0.124,1.06,0.395,1.424,0.812
				c0.369,0.424,0.553,0.925,0.553,1.502c0,0.433-0.112,0.825-0.336,1.178c-0.225,0.349-0.52,0.605-0.884,0.77l1.154,1.911h0.601
				V24.1H34.47l-1.821-3.413h-1.027v1.412h0.631V24.1z M31.621,17.573v1.593h0.36c0.473,0,0.794-0.015,0.962-0.042
				c0.18-0.028,0.332-0.108,0.457-0.241c0.124-0.124,0.186-0.294,0.186-0.511c0-0.216-0.062-0.388-0.186-0.517
				c-0.125-0.132-0.283-0.212-0.476-0.24c-0.184-0.028-0.521-0.042-1.009-0.042H31.621z"/>
			<path style="fill:#34495E;" d="M46.212,24.1h-7.975v-2.001h0.649v-4.357h-0.661V15.74h7.986v2.674h-2.193v-0.673H42.12v1.286
				h1.652v1.701H42.12v1.37h1.898v-0.673h2.193V24.1z"/>
			<path style="fill:#34495E;" d="M53.784,21.221h-0.854v-1.586h3.738c0,0.913-0.064,1.592-0.192,2.037
				c-0.124,0.429-0.385,0.863-0.781,1.304c-0.389,0.437-0.859,0.756-1.412,0.956s-1.146,0.3-1.779,0.3
				c-0.941,0-1.797-0.156-2.565-0.469c-0.773-0.304-1.371-0.809-1.791-1.514c-0.425-0.693-0.638-1.471-0.638-2.332
				c0-1.302,0.429-2.352,1.286-3.149c0.85-0.797,1.892-1.195,3.125-1.195c1.03,0,1.837,0.25,2.422,0.751V15.74h2.014v2.921h-2.014
				c-0.176-0.36-0.405-0.633-0.688-0.817c-0.283-0.185-0.612-0.276-0.989-0.276c-0.528,0-0.917,0.172-1.165,0.517
				c-0.245,0.345-0.367,0.978-0.367,1.899c0,0.917,0.128,1.54,0.385,1.868c0.261,0.333,0.639,0.499,1.136,0.499
				C53.407,22.351,53.784,21.975,53.784,21.221z"/>
			<path style="fill:#34495E;" d="M62.498,24.1h-4.766v-2.001h0.77v-4.357h-0.77V15.74h4.766v2.001h-0.763v4.357h0.763V24.1z"/>
			<path style="fill:#34495E;" d="M65.377,24.1h-1.881v-2.681h1.881c0.225,0.729,0.647,1.094,1.269,1.094
				c0.448,0,0.673-0.18,0.673-0.54c0-0.188-0.078-0.345-0.234-0.469c-0.168-0.137-0.522-0.325-1.063-0.565
				c-0.682-0.309-1.182-0.575-1.503-0.799c-0.3-0.205-0.557-0.487-0.769-0.848c-0.213-0.356-0.318-0.751-0.318-1.184
				c0-0.777,0.252-1.385,0.757-1.821c0.501-0.437,1.118-0.655,1.851-0.655c0.733,0,1.354,0.209,1.863,0.625V15.74h1.894v2.38h-1.869
				c-0.229-0.657-0.634-0.985-1.214-0.985c-0.409,0-0.613,0.174-0.613,0.522c0,0.168,0.058,0.295,0.174,0.379
				c0.112,0.088,0.476,0.282,1.088,0.583c0.821,0.408,1.37,0.707,1.646,0.896c0.141,0.092,0.284,0.221,0.43,0.388
				c0.146,0.166,0.268,0.337,0.364,0.514c0.22,0.393,0.33,0.817,0.33,1.273c0,0.701-0.261,1.295-0.781,1.779
				c-0.521,0.492-1.178,0.739-1.971,0.739c-0.737,0-1.404-0.219-2.002-0.655V24.1z"/>
			<path style="fill:#34495E;" d="M77.601,24.1h-4.693v-2.001h0.722v-4.357h-0.962v1.521h-1.568V15.74h8.287v3.521h-1.568v-1.521
				h-0.955v4.357h0.738V24.1z"/>
			<path style="fill:#34495E;" d="M88.394,24.1h-7.975v-2.001h0.649v-4.357h-0.661V15.74h7.986v2.674H86.2v-0.673h-1.898v1.286
				h1.652v1.701h-1.652v1.37H86.2v-0.673h2.193V24.1z"/>
			<path style="fill:#34495E;" d="M94.175,24.1h-4.543v-2.001h0.679v-4.357h-0.679V15.74h4.543c0.409,0,0.787,0.007,1.136,0.021
				c0.349,0.014,0.647,0.033,0.896,0.06s0.477,0.062,0.686,0.105c0.585,0.124,1.06,0.395,1.424,0.812
				c0.369,0.424,0.553,0.925,0.553,1.502c0,0.433-0.112,0.825-0.336,1.178c-0.225,0.349-0.52,0.605-0.884,0.77l1.154,1.911h0.601
				V24.1h-3.011l-1.821-3.413h-1.027v1.412h0.631V24.1z M93.544,17.573v1.593h0.36c0.473,0,0.794-0.015,0.962-0.042
				c0.18-0.028,0.332-0.108,0.457-0.241c0.124-0.124,0.186-0.294,0.186-0.511c0-0.216-0.062-0.388-0.186-0.517
				c-0.125-0.132-0.283-0.212-0.476-0.24c-0.184-0.028-0.521-0.042-1.009-0.042H93.544z"/>
		</g>
	</g>
	<line style="fill:none;stroke:#1C1A1A;stroke-width:3;stroke-miterlimit:10;" x1="31.462" y1="53.672" x2="31.462" y2="39.057"/>
	<line style="fill:none;stroke:#1C1A1A;stroke-width:3;stroke-miterlimit:10;" x1="95.308" y1="53.672" x2="95.308" y2="39.057"/>
	<g id="XMLID_536_">
		<g id="XMLID_1105_">
			<path id="XMLID_1107_" style="fill:#23CC98;" d="M57.461,106.928c0-2.58-1.996-4.601-4.728-4.601h-1.935
				c-2.731,0-4.806,2.021-4.806,4.601v9.62h11.468V106.928z"/>
		</g>
		<g id="XMLID_1101_">
			<path id="XMLID_1104_" style="fill:#F9BF64;" d="M43.504,120.469L43.504,120.469c-0.625,0-1.137-0.512-1.137-1.137v-6.279
				c0-0.625,0.512-1.137,1.137-1.137h0c0.625,0,1.137,0.512,1.137,1.137v6.279C44.641,119.958,44.13,120.469,43.504,120.469z"/>
			<path id="XMLID_1103_" style="fill:#F9BF64;" d="M43.199,114.368L43.199,114.368c-0.604-0.162-0.966-0.788-0.804-1.392
				l2.399-8.956c0.162-0.604,0.788-0.966,1.392-0.804l0,0c0.604,0.162,0.966,0.788,0.804,1.392l-2.399,8.956
				C44.429,114.168,43.803,114.53,43.199,114.368z"/>
			<ellipse id="XMLID_1102_" style="fill:#DB9E4D;" cx="43.685" cy="120.515" rx="1.765" ry="1.589"/>
		</g>
		<g id="XMLID_1097_">
			<path id="XMLID_1100_" style="fill:#F9BF64;" d="M59.987,120.469L59.987,120.469c0.625,0,1.137-0.512,1.137-1.137v-6.279
				c0-0.625-0.512-1.137-1.137-1.137h0c-0.625,0-1.137,0.512-1.137,1.137v6.279C58.85,119.958,59.362,120.469,59.987,120.469z"/>
			<path id="XMLID_1099_" style="fill:#F9BF64;" d="M60.292,114.368L60.292,114.368c0.604-0.162,0.966-0.788,0.804-1.392
				l-2.399-8.956c-0.162-0.604-0.788-0.966-1.392-0.804l0,0c-0.604,0.162-0.966,0.788-0.804,1.392l2.399,8.956
				C59.062,114.168,59.689,114.53,60.292,114.368z"/>
			<ellipse id="XMLID_1098_" style="fill:#DB9E4D;" cx="60.155" cy="120.515" rx="1.765" ry="1.589"/>
		</g>
		<g id="XMLID_1079_">
			<circle id="XMLID_1096_" style="fill:#4D4D4D;" cx="51.465" cy="91.076" r="8.361"/>
			<g id="XMLID_1087_">
				<g id="XMLID_1093_">
					<path id="XMLID_1095_" style="fill:#DB9E4D;" d="M51.332,103.696L51.332,103.696c-0.771,0-1.401-0.63-1.401-1.401v-1.096
						c0-0.771,0.63-1.401,1.401-1.401h0c0.771,0,1.401,0.63,1.401,1.401v1.096C52.733,103.065,52.103,103.696,51.332,103.696z"/>
					<path id="XMLID_1094_" style="fill:#F9BF64;" d="M51.332,100.894L51.332,100.894c-2.58,0-4.69-2.111-4.69-4.69v-4.256
						c0-2.58,2.111-4.69,4.69-4.69h0c2.58,0,4.69,2.111,4.69,4.69v4.256C56.023,98.783,53.912,100.894,51.332,100.894z"/>
				</g>
				<g id="XMLID_1090_">
					<circle id="XMLID_1092_" style="fill:#4D4D4D;" cx="49.613" cy="93.378" r="0.74"/>
					<circle id="XMLID_1091_" style="fill:#4D4D4D;" cx="53.383" cy="93.378" r="0.74"/>
				</g>
				<path id="XMLID_1089_" style="fill:#DB9E4D;" d="M51.498,96.676L51.498,96.676c-0.279,0-0.508-0.229-0.508-0.508v-1.542
					c0-0.279,0.229-0.508,0.508-0.508l0,0c0.279,0,0.508,0.229,0.508,0.508v1.542C52.006,96.448,51.777,96.676,51.498,96.676z"/>
				<path id="XMLID_1088_" style="fill:#4D4D4D;" d="M51.035,99.045c0.709,0.18,1.497-0.515,1.609-0.959l-2.569-0.65
					C49.963,97.88,50.325,98.866,51.035,99.045z"/>
			</g>
			<g id="XMLID_1084_">
				<circle id="XMLID_1086_" style="fill:#F9BF64;" cx="46.25" cy="94.612" r="1.174"/>
				<circle id="XMLID_1085_" style="fill:#DB9E4D;" cx="46.25" cy="94.612" r="0.707"/>
			</g>
			<g id="XMLID_1081_">
				<circle id="XMLID_1083_" style="fill:#F9BF64;" cx="56.801" cy="94.612" r="1.174"/>
				<circle id="XMLID_1082_" style="fill:#DB9E4D;" cx="56.801" cy="94.612" r="0.707"/>
			</g>
			<ellipse id="XMLID_1080_" style="fill:#4D4D4D;" cx="51.332" cy="88.796" rx="4.69" ry="1.998"/>
		</g>
	</g>
</g>
<g>
	<g id="XMLID_1139_">
		<rect id="XMLID_1141_" x="68.504" y="94.002" style="fill:#4D4D4D;" width="15.53" height="8.423"/>
		<circle id="XMLID_1140_" style="fill:#4D4D4D;" cx="76.269" cy="93.284" r="7.765"/>
	</g>
	<g id="XMLID_1133_">
		<path id="XMLID_1134_" style="fill:#FC3D4B;" d="M82.461,107.025c0-2.58-1.996-4.601-4.728-4.601h-1.935
			c-2.731,0-4.806,2.021-4.806,4.601v9.62h11.468V107.025z"/>
	</g>
	<g id="XMLID_1128_">
		<path id="XMLID_1131_" style="fill:#F9BF64;" d="M68.504,120.566L68.504,120.566c-0.625,0-1.137-0.512-1.137-1.137v-6.279
			c0-0.625,0.512-1.137,1.137-1.137l0,0c0.625,0,1.137,0.512,1.137,1.137v6.279C69.641,120.055,69.13,120.566,68.504,120.566z"/>
		<path id="XMLID_1130_" style="fill:#D12237;" d="M68.199,114.465L68.199,114.465c-0.604-0.162-0.966-0.788-0.804-1.392
			l2.399-8.956c0.162-0.604,0.788-0.966,1.392-0.804h0c0.604,0.162,0.966,0.788,0.804,1.392l-2.399,8.956
			C69.429,114.265,68.803,114.627,68.199,114.465z"/>
		<ellipse id="XMLID_1129_" style="fill:#DB9E4D;" cx="68.685" cy="120.612" rx="1.765" ry="1.589"/>
	</g>
	<g id="XMLID_1124_">
		<path id="XMLID_1127_" style="fill:#F9BF64;" d="M84.987,120.566L84.987,120.566c0.625,0,1.137-0.512,1.137-1.137v-6.279
			c0-0.625-0.512-1.137-1.137-1.137l0,0c-0.625,0-1.137,0.512-1.137,1.137v6.279C83.85,120.055,84.362,120.566,84.987,120.566z"/>
		<path id="XMLID_1126_" style="fill:#D12237;" d="M85.292,114.465L85.292,114.465c0.604-0.162,0.966-0.788,0.804-1.392
			l-2.399-8.956c-0.162-0.604-0.788-0.966-1.392-0.804l0,0c-0.604,0.162-0.966,0.788-0.804,1.392l2.399,8.956
			C84.062,114.265,84.689,114.627,85.292,114.465z"/>
		<ellipse id="XMLID_1125_" style="fill:#DB9E4D;" cx="85.155" cy="120.612" rx="1.765" ry="1.589"/>
	</g>
	<g id="XMLID_1121_">
		<path id="XMLID_1123_" style="fill:#DB9E4D;" d="M76.332,103.793L76.332,103.793c-0.771,0-1.401-0.63-1.401-1.401v-1.096
			c0-0.771,0.63-1.401,1.401-1.401l0,0c0.771,0,1.401,0.63,1.401,1.401v1.096C77.733,103.162,77.103,103.793,76.332,103.793z"/>
		<path id="XMLID_1122_" style="fill:#F9BF64;" d="M76.332,100.991L76.332,100.991c-2.58,0-4.69-2.111-4.69-4.69v-4.256
			c0-2.58,2.111-4.69,4.69-4.69h0c2.58,0,4.69,2.111,4.69,4.69V96.3C81.023,98.88,78.912,100.991,76.332,100.991z"/>
	</g>
	<g id="XMLID_1118_">
		<path id="XMLID_1120_" style="fill:#4D4D4D;" d="M79.123,93.391c0,0.409-0.331,0.781-0.74,0.781s-0.74-0.392-0.74-0.801
			c0-0.021,0.004-0.12,0.006-0.12h1.469C79.119,93.25,79.123,93.37,79.123,93.391z"/>
		<path id="XMLID_1119_" style="fill:#4D4D4D;" d="M75.453,93.391c0,0.409-0.332,0.781-0.74,0.781s-0.74-0.392-0.74-0.801
			c0-0.021,0.004-0.12,0.006-0.12h1.469C75.449,93.25,75.453,93.37,75.453,93.391z"/>
	</g>
	<path id="XMLID_1117_" style="fill:#DB9E4D;" d="M76.498,96.773L76.498,96.773c-0.279,0-0.508-0.229-0.508-0.508v-1.542
		c0-0.279,0.229-0.508,0.508-0.508l0,0c0.279,0,0.508,0.229,0.508,0.508v1.542C77.006,96.544,76.777,96.773,76.498,96.773z"/>
	<g id="XMLID_1114_">
		<circle id="XMLID_1116_" style="fill:#F9BF64;" cx="71.25" cy="94.709" r="1.174"/>
		<circle id="XMLID_1115_" style="fill:#DB9E4D;" cx="71.25" cy="94.709" r="0.707"/>
	</g>
	<g id="XMLID_1111_">
		<circle id="XMLID_1113_" style="fill:#F9BF64;" cx="81.801" cy="94.709" r="1.174"/>
		<circle id="XMLID_1112_" style="fill:#DB9E4D;" cx="81.801" cy="94.709" r="0.707"/>
	</g>
	<rect id="XMLID_1110_" x="71.642" y="87.354" style="fill:#4D4D4D;" width="9.381" height="3.996"/>
	<g id="XMLID_1106_">
		<path id="XMLID_1109_" style="fill:#FC3D4B;" d="M77.429,98.213h-1.894c-0.167,0-0.304-0.137-0.304-0.304l0,0
			c0-0.167,0.137-0.304,0.304-0.304h1.894c0.167,0,0.304,0.137,0.304,0.304l0,0C77.733,98.077,77.596,98.213,77.429,98.213z"/>
		<path id="XMLID_1108_" style="fill:#D12237;" d="M77.429,98.672h-1.894c-0.167,0-0.304-0.137-0.304-0.304l0,0
			c0-0.167,0.137-0.304,0.304-0.304h1.894c0.167,0,0.304,0.137,0.304,0.304l0,0C77.733,98.536,77.596,98.672,77.429,98.672z"/>
	</g>
</g>
</svg>
