<?xml version="1.0" encoding="utf-8"?>
<!-- Generator: Adobe Illustrator 21.0.2, SVG Export Plug-In . SVG Version: 6.00 Build 0)  -->
<svg version="1.1" id="Layer_1" xmlns="http://www.w3.org/2000/svg" xmlns:xlink="http://www.w3.org/1999/xlink" x="0px" y="0px"
	 viewBox="0 0 62 88" style="enable-background:new 0 0 62 88;" xml:space="preserve">
<style type="text/css">
	.st0{fill:#529DF7;}
	.st1{fill:#F96441;}
	.st2{fill:#32383D;}
	.st3{fill:#FC3D4B;}
	.st4{fill:#F9BF64;}
	.st5{fill:#FFFFFF;}
</style>
<g>
	<g>
		<path class="st0" d="M51.8,73.9H10.2c-3.4,0-6.2-2.8-6.2-6.2V42.1h54v25.6C58,71.1,55.2,73.9,51.8,73.9z"/>
	</g>
	<g>
		<g>
			<g>
				<path class="st0" d="M7,30.9L7,30.9c-1.7,0-3-1.3-3-3V12h6v15.9C10,29.6,8.7,30.9,7,30.9z"/>
			</g>
			<g>
				<path class="st1" d="M13,30.9L13,30.9c-1.7,0-3-1.3-3-3V12h6v15.9C16,29.6,14.7,30.9,13,30.9z"/>
			</g>
			<g>
				<path class="st0" d="M19,30.9L19,30.9c-1.7,0-3-1.3-3-3V12h6v15.9C22,29.6,20.7,30.9,19,30.9z"/>
			</g>
			<g>
				<path class="st1" d="M25,30.9L25,30.9c-1.7,0-3-1.3-3-3V12h6v15.9C28,29.6,26.7,30.9,25,30.9z"/>
			</g>
			<g>
				<path class="st0" d="M31,30.9L31,30.9c-1.7,0-3-1.3-3-3V12h6v15.9C34,29.6,32.7,30.9,31,30.9z"/>
			</g>
			<g>
				<path class="st1" d="M37,30.9L37,30.9c-1.7,0-3-1.3-3-3V12h6v15.9C40,29.6,38.6,30.9,37,30.9z"/>
			</g>
			<g>
				<path class="st0" d="M43,30.9L43,30.9c-1.7,0-3-1.3-3-3V12h6v15.9C46,29.6,44.6,30.9,43,30.9z"/>
			</g>
			<g>
				<path class="st1" d="M49,30.9L49,30.9c-1.7,0-3-1.3-3-3V12h6v15.9C52,29.6,50.6,30.9,49,30.9z"/>
			</g>
			<g>
				<path class="st0" d="M55,30.9L55,30.9c-1.7,0-3-1.3-3-3V12h6v15.9C58,29.6,56.6,30.9,55,30.9z"/>
			</g>
		</g>
		<g>
			<g>
				<path class="st2" d="M7,31.8c-2.1,0-3.9-1.7-3.9-3.9V12c0-0.5,0.4-0.9,0.9-0.9h6c0.5,0,0.9,0.4,0.9,0.9v15.9
					C10.9,30,9.1,31.8,7,31.8z M4.9,12.9v15c0,1.2,1,2.1,2.1,2.1c1.2,0,2.1-1,2.1-2.1v-15H4.9z"/>
			</g>
			<g>
				<path class="st2" d="M13,31.8c-2.1,0-3.9-1.7-3.9-3.9V12c0-0.5,0.4-0.9,0.9-0.9h6c0.5,0,0.9,0.4,0.9,0.9v15.9
					C16.9,30,15.1,31.8,13,31.8z M10.9,12.9v15c0,1.2,1,2.1,2.1,2.1c1.2,0,2.1-1,2.1-2.1v-15H10.9z"/>
			</g>
			<g>
				<path class="st2" d="M19,31.8c-2.1,0-3.9-1.7-3.9-3.9V12c0-0.5,0.4-0.9,0.9-0.9h6c0.5,0,0.9,0.4,0.9,0.9v15.9
					C22.9,30,21.1,31.8,19,31.8z M16.9,12.9v15c0,1.2,1,2.1,2.1,2.1c1.2,0,2.1-1,2.1-2.1v-15H16.9z"/>
			</g>
			<g>
				<path class="st2" d="M25,31.8c-2.1,0-3.9-1.7-3.9-3.9V12c0-0.5,0.4-0.9,0.9-0.9h6c0.5,0,0.9,0.4,0.9,0.9v15.9
					C28.9,30,27.1,31.8,25,31.8z M22.9,12.9v15c0,1.2,1,2.1,2.1,2.1s2.1-1,2.1-2.1v-15H22.9z"/>
			</g>
			<g>
				<path class="st2" d="M31,31.8c-2.1,0-3.9-1.7-3.9-3.9V12c0-0.5,0.4-0.9,0.9-0.9h6c0.5,0,0.9,0.4,0.9,0.9v15.9
					C34.9,30,33.1,31.8,31,31.8z M28.9,12.9v15c0,1.2,1,2.1,2.1,2.1c1.2,0,2.1-1,2.1-2.1v-15H28.9z"/>
			</g>
			<g>
				<path class="st2" d="M37,31.8c-2.1,0-3.9-1.7-3.9-3.9V12c0-0.5,0.4-0.9,0.9-0.9h6c0.5,0,0.9,0.4,0.9,0.9v15.9
					C40.8,30,39.1,31.8,37,31.8z M34.9,12.9v15c0,1.2,1,2.1,2.1,2.1c1.2,0,2.1-1,2.1-2.1v-15H34.9z"/>
			</g>
			<g>
				<path class="st2" d="M43,31.8c-2.1,0-3.9-1.7-3.9-3.9V12c0-0.5,0.4-0.9,0.9-0.9h6c0.5,0,0.9,0.4,0.9,0.9v15.9
					C46.8,30,45.1,31.8,43,31.8z M40.8,12.9v15c0,1.2,1,2.1,2.1,2.1c1.2,0,2.1-1,2.1-2.1v-15H40.8z"/>
			</g>
			<g>
				<path class="st2" d="M49,31.8c-2.1,0-3.9-1.7-3.9-3.9V12c0-0.5,0.4-0.9,0.9-0.9h6c0.5,0,0.9,0.4,0.9,0.9v15.9
					C52.8,30,51.1,31.8,49,31.8z M46.8,12.9v15c0,1.2,1,2.1,2.1,2.1c1.2,0,2.1-1,2.1-2.1v-15H46.8z"/>
			</g>
			<g>
				<path class="st2" d="M55,31.8c-2.1,0-3.9-1.7-3.9-3.9V12c0-0.5,0.4-0.9,0.9-0.9h6c0.5,0,0.9,0.4,0.9,0.9v15.9
					C58.8,30,57.1,31.8,55,31.8z M52.8,12.9v15c0,1.2,1,2.1,2.1,2.1c1.2,0,2.1-1,2.1-2.1v-15H52.8z"/>
			</g>
		</g>
	</g>
	<g>
		<g>
			<path class="st3" d="M49.2,70.3H53v14.5c0,1.1-0.9,1.9-1.9,1.9l0,0c-1.1,0-1.9-0.9-1.9-1.9V70.3z"/>
		</g>
		<g>
			<path class="st2" d="M51.1,87.6c-1.5,0-2.8-1.3-2.8-2.8V70.3c0-0.5,0.4-0.9,0.9-0.9H53c0.5,0,0.9,0.4,0.9,0.9v14.5
				C53.9,86.4,52.6,87.6,51.1,87.6z M50,71.1v13.7c0,0.6,0.5,1.1,1.1,1.1c0.6,0,1.1-0.5,1.1-1.1V71.1H50z"/>
		</g>
	</g>
	<g>
		<path class="st2" d="M54.4,74.8H7.6c-2.4,0-4.4-2-4.4-4.4V42.1c0-0.5,0.4-0.9,0.9-0.9h54c0.5,0,0.9,0.4,0.9,0.9v28.3
			C58.8,72.8,56.9,74.8,54.4,74.8z M4.9,43v27.4c0,1.5,1.2,2.7,2.7,2.7h46.9c1.5,0,2.7-1.2,2.7-2.7V43H4.9z"/>
	</g>
	<g>
		<path class="st1" d="M51.8,73.9H10.2c-3.4,0-6.2-2.8-6.2-6.2v-6.6h54v6.6C58,71.1,55.2,73.9,51.8,73.9z"/>
	</g>
	<g>
		<path class="st2" d="M54.4,74.8H7.6c-2.4,0-4.4-2-4.4-4.4v-9.3c0-0.5,0.4-0.9,0.9-0.9h54c0.5,0,0.9,0.4,0.9,0.9v9.3
			C58.8,72.8,56.9,74.8,54.4,74.8z M4.9,61.9v8.4c0,1.5,1.2,2.7,2.7,2.7h46.9c1.5,0,2.7-1.2,2.7-2.7v-8.4H4.9z"/>
	</g>
	<g>
		<path class="st2" d="M4,43c-0.5,0-0.9-0.4-0.9-0.9V25.3c0-0.5,0.4-0.9,0.9-0.9c0.5,0,0.9,0.4,0.9,0.9v16.8C4.9,42.6,4.5,43,4,43z"
			/>
	</g>
	<g>
		<path class="st2" d="M58,43c-0.5,0-0.9-0.4-0.9-0.9V25.3c0-0.5,0.4-0.9,0.9-0.9c0.5,0,0.9,0.4,0.9,0.9v16.8
			C58.8,42.6,58.5,43,58,43z"/>
	</g>
	<g>
		<path class="st4" d="M55.4,15.3H6.6c-2.8,0-5-2.2-5-5l0,0c0-2.8,2.2-5,5-5h48.8c2.8,0,5,2.2,5,5l0,0
			C60.4,13.1,58.1,15.3,55.4,15.3z"/>
	</g>
	<g>
		<path class="st2" d="M55.8,16.2H6.1c-3,0-5.4-2.4-5.4-5.4v-1c0-3,2.4-5.4,5.4-5.4h49.7c3,0,5.4,2.4,5.4,5.4v1
			C61.2,13.8,58.8,16.2,55.8,16.2z M6.1,6.2c-2,0-3.7,1.6-3.7,3.7v1c0,2,1.6,3.7,3.7,3.7h49.7c2,0,3.7-1.6,3.7-3.7v-1
			c0-2-1.6-3.7-3.7-3.7H6.1z"/>
	</g>
	<g>
		<g>
			<g>
				<path class="st4" d="M20.3,86.8c-7.1,0-12.9-5.8-12.9-12.9c0-7.1,5.8-12.9,12.9-12.9c7.1,0,12.9,5.8,12.9,12.9
					C33.1,81,27.4,86.8,20.3,86.8z M20.3,64.1c-5.4,0-9.8,4.4-9.8,9.8c0,5.4,4.4,9.8,9.8,9.8c5.4,0,9.8-4.4,9.8-9.8
					C30.1,68.5,25.7,64.1,20.3,64.1z"/>
			</g>
		</g>
		<g>
			<g>
				<path class="st2" d="M20.3,87.6c-7.6,0-13.7-6.1-13.7-13.7c0-7.6,6.1-13.7,13.7-13.7c7.6,0,13.7,6.1,13.7,13.7
					C34,81.5,27.8,87.6,20.3,87.6z M20.3,61.9c-6.6,0-12,5.4-12,12c0,6.6,5.4,12,12,12c6.6,0,12-5.4,12-12
					C32.3,67.3,26.9,61.9,20.3,61.9z M20.3,84.6c-5.9,0-10.7-4.8-10.7-10.7c0-5.9,4.8-10.7,10.7-10.7C26.2,63.2,31,68,31,73.9
					C31,79.8,26.2,84.6,20.3,84.6z M20.3,64.9c-5,0-9,4-9,9c0,5,4,9,9,9c5,0,9-4,9-9C29.3,69,25.2,64.9,20.3,64.9z"/>
			</g>
		</g>
		<g>
			<path class="st2" d="M20.3,84.6c-0.5,0-0.9-0.4-0.9-0.9V64.1c0-0.5,0.4-0.9,0.9-0.9c0.5,0,0.9,0.4,0.9,0.9v19.7
				C21.1,84.2,20.8,84.6,20.3,84.6z"/>
		</g>
		<g>
			<path class="st2" d="M13.3,81.7c-0.2,0-0.4-0.1-0.6-0.3c-0.3-0.3-0.3-0.9,0-1.2l13.9-13.9c0.3-0.3,0.9-0.3,1.2,0
				c0.3,0.3,0.3,0.9,0,1.2L13.9,81.5C13.8,81.6,13.6,81.7,13.3,81.7z"/>
		</g>
		<g>
			<path class="st2" d="M30.1,74.8H10.5c-0.5,0-0.9-0.4-0.9-0.9c0-0.5,0.4-0.9,0.9-0.9h19.7c0.5,0,0.9,0.4,0.9,0.9
				C31,74.4,30.6,74.8,30.1,74.8z"/>
		</g>
		<g>
			<path class="st2" d="M27.2,81.7c-0.2,0-0.4-0.1-0.6-0.3L12.7,67.6c-0.3-0.3-0.3-0.9,0-1.2c0.3-0.3,0.9-0.3,1.2,0l13.9,13.9
				c0.3,0.3,0.3,0.9,0,1.2C27.7,81.6,27.5,81.7,27.2,81.7z"/>
		</g>
		<g>
			<g>
				<circle class="st1" cx="20.3" cy="73.9" r="2.2"/>
			</g>
			<g>
				<path class="st2" d="M20.3,77c-1.7,0-3.1-1.4-3.1-3.1c0-1.7,1.4-3.1,3.1-3.1c1.7,0,3.1,1.4,3.1,3.1C23.4,75.6,22,77,20.3,77z
					 M20.3,72.5c-0.8,0-1.4,0.6-1.4,1.4c0,0.8,0.6,1.4,1.4,1.4c0.8,0,1.4-0.6,1.4-1.4C21.7,73.2,21,72.5,20.3,72.5z"/>
			</g>
		</g>
	</g>
	<g>
		<g>
			<circle class="st5" cx="31" cy="12.2" r="11.2"/>
		</g>
		<g>
			<path class="st2" d="M31,24.2c-6.6,0-12-5.4-12-12c0-6.6,5.4-12,12-12c6.6,0,12,5.4,12,12C43,18.8,37.6,24.2,31,24.2z M31,1.9
				c-5.7,0-10.3,4.6-10.3,10.3c0,5.7,4.6,10.3,10.3,10.3c5.7,0,10.3-4.6,10.3-10.3C41.3,6.5,36.7,1.9,31,1.9z"/>
		</g>
	</g>
	<g>
		<g>
			<path class="st4" d="M31,9.3h-3.1c-0.7,0-1.2,0.7-1,1.4l2.3,6.6c0.3,0.7,1,1.2,1.8,1.2l0,0c0.8,0,1.5-0.5,1.8-1.2l2.3-6.6
				c0.2-0.7-0.3-1.4-1-1.4H31z"/>
		</g>
		<g>
			<path class="st2" d="M31,19.3c-1.1,0-2.2-0.7-2.6-1.8L26.1,11c-0.2-0.6-0.1-1.2,0.2-1.7c0.4-0.5,0.9-0.8,1.5-0.8h6.3
				c0.6,0,1.2,0.3,1.5,0.8c0.4,0.5,0.4,1.1,0.2,1.7l-2.3,6.6C33.2,18.6,32.1,19.3,31,19.3z M27.9,10.2c-0.1,0-0.1,0-0.1,0.1
				c0,0,0,0.1,0,0.2L30,17c0.1,0.4,0.5,0.7,0.9,0.7c0.4,0,0.8-0.3,0.9-0.7l2.3-6.6c0-0.1,0-0.1,0-0.2c0,0-0.1-0.1-0.1-0.1H27.9z"/>
		</g>
		<g>
			<path class="st0" d="M27.5,9.3c0-1.9,1.5-3.4,3.4-3.4c1.9,0,3.4,1.5,3.4,3.4H27.5z"/>
		</g>
		<g>
			<path class="st2" d="M34.4,10.2h-6.9c-0.5,0-0.9-0.4-0.9-0.9C26.7,6.9,28.6,5,31,5c2.4,0,4.3,1.9,4.3,4.3
				C35.3,9.8,34.9,10.2,34.4,10.2z M28.5,8.4h4.9c-0.4-1-1.3-1.7-2.4-1.7C29.9,6.7,28.9,7.4,28.5,8.4z"/>
		</g>
	</g>
</g>
</svg>
